<svg width="756" height="397" viewBox="0 0 756 397" fill="none" xmlns="http://www.w3.org/2000/svg">
<path fill-rule="evenodd" clip-rule="evenodd" d="M1.79639 60.2143C1.79639 47.7924 11.8653 37.7236 24.286 37.7236H732.888C745.309 37.7236 755.378 47.7924 755.378 60.2143V74.5135C755.378 86.9354 745.309 97.0042 732.888 97.0042H24.286C11.8653 97.0042 1.79639 86.9354 1.79639 74.5135V60.2143Z" fill="#C00000"/>
<path fill-rule="evenodd" clip-rule="evenodd" d="M1.79639 360.21C1.79639 347.788 11.8653 337.719 24.286 337.719H732.888C745.309 337.719 755.378 347.788 755.378 360.21V374.509C755.378 386.931 745.309 397 732.888 397H24.286C11.8653 397 1.79639 386.931 1.79639 374.509V360.21Z" fill="#C00000"/>
<path d="M755.378 362.869H1.79639V59.2804H755.378V362.869Z" fill="#C00000"/>
<path fill-rule="evenodd" clip-rule="evenodd" d="M444.534 68.801V73.747H702.266C715.94 73.747 728.32 81.0623 737.281 92.8897L746.662 111.253L748.394 121.99C748.394 129.584 747.164 136.819 744.939 143.399L743.795 145.523L748.329 158.645L748.787 159.323V114.565L747.893 108.719C740.376 85.2606 722.777 68.801 702.266 68.801H444.534ZM54.908 68.801C34.396 68.801 16.7977 85.2606 9.27991 108.719L8.38617 114.561V159.843L9.19641 158.645L13.7304 145.523L12.5853 143.399C10.3613 136.819 9.1308 129.584 9.1308 121.99L11.0251 110.249L19.8929 92.8897C28.8542 81.0623 41.2339 73.747 54.908 73.747H312.64V68.801H54.908ZM718.309 63.0923L721.541 64.4165C733.39 71.0309 742.882 83.5592 747.893 99.1979L748.787 105.042V87.677L730.16 63.0923H718.309ZM27.0138 63.0923L8.38617 87.677V105.043L9.28082 99.1979C14.2918 83.5592 23.7848 71.0309 35.6328 64.4165L38.8654 63.0923H27.0138ZM24.0156 59.2803H54.908H225.261H531.912H702.266H733.158L751.785 83.865V124.638V163.762V258.678H5.38898V83.865L24.0156 59.2803Z" fill="white"/>
<path fill-rule="evenodd" clip-rule="evenodd" d="M8.38664 345.741V363.147L27.0135 387.79H38.8649L35.633 386.462C23.7842 379.832 14.2921 367.274 9.28058 351.598L8.38664 345.741ZM748.788 345.74L747.893 351.598C742.882 367.274 733.389 379.832 721.541 386.462L718.309 387.79H730.16L748.788 363.147V345.74ZM8.38664 291.33V336.195L9.28096 342.055C16.7984 365.569 34.3971 382.068 54.9084 382.068H312.64V377.11H54.9081C41.2338 377.11 28.8541 369.777 19.8929 357.921L10.5123 339.515L8.77963 328.753C8.77963 321.14 10.0099 313.888 12.2347 307.293L13.379 305.164L8.84488 292.011L8.38664 291.33ZM748.788 290.809L747.978 292.011L743.444 305.164L744.589 307.293C746.813 313.888 748.043 321.14 748.043 328.753L746.149 340.521L737.281 357.921C728.32 369.777 715.94 377.11 702.266 377.11H444.534V382.068H702.266C722.778 382.068 740.376 365.569 747.894 342.055L748.788 336.198V290.809ZM5.38904 252.391H751.785V366.968L733.158 391.611H702.266H531.913H225.261H54.9081H24.0159L5.38904 366.968V326.098V286.881V252.391Z" fill="white"/>
<path fill-rule="evenodd" clip-rule="evenodd" d="M348.817 18.8618L349.509 20.8468C354.281 30.8706 365.452 37.9034 378.472 37.9034C391.492 37.9034 402.663 30.8706 407.435 20.8468L408.077 19.0056L412.324 19.9846C429.102 24.7629 441.42 32.9454 445.423 42.6369L446.4 45.8075H309.875L310.853 42.6369C314.856 32.9454 327.174 24.7629 343.952 19.9846L348.817 18.8618Z" fill="#C00000"/>
<path fill-rule="evenodd" clip-rule="evenodd" d="M1.29053 63.6457C0.756197 62.1547 10.0681 44.4154 10.9076 39.1431C11.7473 33.8707 7.85459 31.5714 6.32803 32.0205C4.80146 32.4606 2.58797 44.5682 1.74843 41.8198C0.9088 39.0713 -1.4573 17.6135 1.29053 15.5387C4.03827 13.4639 16.0979 23.9278 18.2351 29.3439C20.3722 34.7689 16.5559 42.7808 14.1134 48.0531C11.671 53.3255 1.82477 65.1277 1.29053 63.6457Z" fill="#C00000"/>
<path fill-rule="evenodd" clip-rule="evenodd" d="M754.087 63.6432C754.622 62.1585 745.31 44.4161 744.47 39.1455C743.631 33.8747 747.523 31.5734 749.05 32.0188C750.576 32.4641 752.79 44.5647 753.629 41.8179C754.469 39.0712 756.835 17.6169 754.087 15.5383C751.34 13.4597 739.28 23.927 737.143 29.3463C735.006 34.7655 738.822 42.7831 741.264 48.0537C743.707 53.3245 753.553 65.128 754.087 63.6432Z" fill="#C00000"/>
<path d="M17.0656 31.4365H338.733" stroke="#C00000" stroke-width="2" stroke-miterlimit="8"/>
<path d="M414.964 31.4365H736.632" stroke="#C00000" stroke-width="2" stroke-miterlimit="8"/>
<path fill-rule="evenodd" clip-rule="evenodd" d="M359.276 17.9636C359.276 9.03555 367.721 1.79614 378.138 1.79614C388.555 1.79614 397 9.03555 397 17.9636C397 26.8916 388.555 34.131 378.138 34.131C367.721 34.131 359.276 26.8916 359.276 17.9636Z" fill="#C00000" stroke="#C00000" stroke-width="2" stroke-miterlimit="8"/>
<path fill-rule="evenodd" clip-rule="evenodd" d="M370.846 9.72718C369.536 10.6164 349.901 6.42191 344.556 6.99675C339.211 7.58058 337.957 11.8649 338.777 13.1942C339.598 14.5235 351.941 13.4637 349.479 14.9817C347.017 16.4906 326.728 24.3228 324.008 22.257C321.288 20.2001 328.423 6.05365 333.158 2.61358C337.894 -0.817505 346.667 0.700366 352.417 1.64347C358.168 2.58657 372.156 8.82899 370.846 9.72718Z" fill="#C00000"/>
<path fill-rule="evenodd" clip-rule="evenodd" d="M385.863 9.7241C387.173 10.6169 406.808 6.42153 412.152 6.9997C417.497 7.57797 418.751 11.8639 417.931 13.1934C417.11 14.523 404.767 13.4663 407.229 14.9771C409.691 16.4878 429.98 24.3185 432.7 22.2579C435.421 20.1974 428.285 6.04986 423.55 2.61395C418.815 -0.821866 410.042 0.703155 404.291 1.64285C398.54 2.58248 384.552 8.83131 385.863 9.7241Z" fill="#C00000"/>
<path fill-rule="evenodd" clip-rule="evenodd" d="M365.563 17.9636C365.563 11.0206 371.193 5.38892 378.138 5.38892C385.083 5.38892 390.713 11.0206 390.713 17.9636C390.713 24.9066 385.083 30.5382 378.138 30.5382C371.193 30.5382 365.563 24.9066 365.563 17.9636Z" fill="white"/>
<path fill-rule="evenodd" clip-rule="evenodd" d="M370.49 21.4037L384.098 11.8291L386.219 13.9488L372.609 23.5234L370.49 21.4037Z" fill="#460000"/>
<path fill-rule="evenodd" clip-rule="evenodd" d="M386.222 21.4082L372.613 11.8348L370.492 13.9553L384.101 23.5287L386.222 21.4082Z" fill="#460000"/>
<path fill-rule="evenodd" clip-rule="evenodd" d="M8.98181 125.396C8.98181 96.8157 32.148 73.6514 60.7247 73.6514H698.246C726.823 73.6514 749.989 96.8157 749.989 125.396V325.495C749.989 354.075 726.823 377.24 698.246 377.24H60.7247C32.148 377.24 8.98181 354.075 8.98181 325.495V125.396Z" fill="white"/>
</svg>
