<svg width="992" height="443" viewBox="0 0 992 443" fill="none" xmlns="http://www.w3.org/2000/svg">
<path fill-rule="evenodd" clip-rule="evenodd" d="M70.0841 33.5H932.916L932.918 33.524C935.7 46.609 942.211 55.789 949.8 55.789L951.5 55.448V101.5H51.5V55.448L53.1996 55.789C60.7888 55.789 67.3002 46.609 70.0815 33.524L70.0841 33.5Z" fill="white" stroke="#FF0000" stroke-width="3" stroke-miterlimit="8"/>
<path fill-rule="evenodd" clip-rule="evenodd" d="M62 63.734C62 49.521 73.5213 38 87.7336 38H915.266C929.479 38 941 49.521 941 63.734V99.266C941 113.479 929.479 125 915.266 125H87.7336C73.5213 125 62 113.479 62 99.266V63.734Z" fill="white" stroke="#FF0000" stroke-width="2" stroke-miterlimit="8"/>
<path d="M67 38H933.333" stroke="#FF0000" stroke-width="2" stroke-miterlimit="8"/>
<path fill-rule="evenodd" clip-rule="evenodd" d="M479.142 107.894H486.858L483 108L479.142 107.894ZM483 1C533.753 1 575.497 22.0523 580.517 49.03L581 54.248H385L385.483 49.03C390.502 22.0523 432.247 1 483 1Z" fill="white" stroke="#FF0000" stroke-width="2" stroke-miterlimit="8"/>
<path d="M386 49H580.988" stroke="#FF0000" stroke-width="2" stroke-miterlimit="8"/>
<path fill-rule="evenodd" clip-rule="evenodd" d="M15.1056 54H978.407L991 70.163V425.412L978.077 442H15.4365L1 423.47V72.105L15.1056 54Z" fill="white" stroke="#FF0000" stroke-width="2" stroke-miterlimit="8"/>
</svg>
