<svg width="824" height="89" viewBox="0 0 824 89" fill="none" xmlns="http://www.w3.org/2000/svg">
<path d="M0 44L824 43.9998" stroke="#C00000" stroke-width="8" stroke-miterlimit="8"/>
<path fill-rule="evenodd" clip-rule="evenodd" d="M55.3199 1.5H200.68L219.5 26.804V62.653L201.02 87.5H54.98L36.5 62.653V26.804L55.3199 1.5Z" fill="white" stroke="#FF0000" stroke-width="3" stroke-miterlimit="8"/>
<path fill-rule="evenodd" clip-rule="evenodd" d="M60.1099 1L44.0044 22.9159L60.1099 1Z" fill="white"/>
<path d="M60.1099 1L44.0044 22.9159" stroke="#FF0000" stroke-width="2" stroke-miterlimit="8"/>
<path fill-rule="evenodd" clip-rule="evenodd" d="M44 66L60.11 87.916L44 66Z" fill="white"/>
<path d="M44 66L60.11 87.916" stroke="#FF0000" stroke-width="2" stroke-miterlimit="8"/>
<path fill-rule="evenodd" clip-rule="evenodd" d="M44 15V71.763V15Z" fill="white"/>
<path d="M44 15V71.763" stroke="#FF0000" stroke-width="2" stroke-miterlimit="8"/>
<path fill-rule="evenodd" clip-rule="evenodd" d="M195 1L211.11 22.916L195 1Z" fill="white"/>
<path d="M195 1L211.11 22.916" stroke="#FF0000" stroke-width="2" stroke-miterlimit="8"/>
<path fill-rule="evenodd" clip-rule="evenodd" d="M211.11 66L195.004 87.9159L211.11 66Z" fill="white"/>
<path d="M211.11 66L195.004 87.9159" stroke="#FF0000" stroke-width="2" stroke-miterlimit="8"/>
<path fill-rule="evenodd" clip-rule="evenodd" d="M211 15V71.763V15Z" fill="white"/>
<path d="M211 15V71.763" stroke="#FF0000" stroke-width="2" stroke-miterlimit="8"/>
<path fill-rule="evenodd" clip-rule="evenodd" d="M40 44C40 41.791 41.79 40 44 40C46.21 40 48 41.791 48 44C48 46.209 46.21 48 44 48C41.79 48 40 46.209 40 44Z" fill="#C00000"/>
<path fill-rule="evenodd" clip-rule="evenodd" d="M207 44C207 41.791 208.79 40 211 40C213.21 40 215 41.791 215 44C215 46.209 213.21 48 211 48C208.79 48 207 46.209 207 44Z" fill="#C00000"/>
<path fill-rule="evenodd" clip-rule="evenodd" d="M335.32 1.5H480.68L499.5 26.804V62.653L481.02 87.5H334.98L316.5 62.653V26.804L335.32 1.5Z" fill="white" stroke="#FF0000" stroke-width="3" stroke-miterlimit="8"/>
<path fill-rule="evenodd" clip-rule="evenodd" d="M340.11 1L324.004 22.9159L340.11 1Z" fill="white"/>
<path d="M340.11 1L324.004 22.9159" stroke="#FF0000" stroke-width="2" stroke-miterlimit="8"/>
<path fill-rule="evenodd" clip-rule="evenodd" d="M324 66L340.11 87.916L324 66Z" fill="white"/>
<path d="M324 66L340.11 87.916" stroke="#FF0000" stroke-width="2" stroke-miterlimit="8"/>
<path fill-rule="evenodd" clip-rule="evenodd" d="M324 15V71.763V15Z" fill="white"/>
<path d="M324 15V71.763" stroke="#FF0000" stroke-width="2" stroke-miterlimit="8"/>
<path fill-rule="evenodd" clip-rule="evenodd" d="M475 1L491.11 22.916L475 1Z" fill="white"/>
<path d="M475 1L491.11 22.916" stroke="#FF0000" stroke-width="2" stroke-miterlimit="8"/>
<path fill-rule="evenodd" clip-rule="evenodd" d="M491.11 66L475.004 87.9159L491.11 66Z" fill="white"/>
<path d="M491.11 66L475.004 87.9159" stroke="#FF0000" stroke-width="2" stroke-miterlimit="8"/>
<path fill-rule="evenodd" clip-rule="evenodd" d="M491 15V71.763V15Z" fill="white"/>
<path d="M491 15V71.763" stroke="#FF0000" stroke-width="2" stroke-miterlimit="8"/>
<path fill-rule="evenodd" clip-rule="evenodd" d="M320 44C320 41.791 322.01 40 324.5 40C326.99 40 329 41.791 329 44C329 46.209 326.99 48 324.5 48C322.01 48 320 46.209 320 44Z" fill="#C00000"/>
<path fill-rule="evenodd" clip-rule="evenodd" d="M487 44C487 41.791 488.79 40 491 40C493.21 40 495 41.791 495 44C495 46.209 493.21 48 491 48C488.79 48 487 46.209 487 44Z" fill="#C00000"/>
<path fill-rule="evenodd" clip-rule="evenodd" d="M615.32 1.5H760.68L779.5 26.804V62.653L761.02 87.5H614.98L596.5 62.653V26.804L615.32 1.5Z" fill="white" stroke="#FF0000" stroke-width="3" stroke-miterlimit="8"/>
<path fill-rule="evenodd" clip-rule="evenodd" d="M621.11 1L605.004 22.9159L621.11 1Z" fill="white"/>
<path d="M621.11 1L605.004 22.9159" stroke="#FF0000" stroke-width="2" stroke-miterlimit="8"/>
<path fill-rule="evenodd" clip-rule="evenodd" d="M605 66L621.11 87.916L605 66Z" fill="white"/>
<path d="M605 66L621.11 87.916" stroke="#FF0000" stroke-width="2" stroke-miterlimit="8"/>
<path fill-rule="evenodd" clip-rule="evenodd" d="M605 15V71.763V15Z" fill="white"/>
<path d="M605 15V71.763" stroke="#FF0000" stroke-width="2" stroke-miterlimit="8"/>
<path fill-rule="evenodd" clip-rule="evenodd" d="M755 1L771.11 22.916L755 1Z" fill="white"/>
<path d="M755 1L771.11 22.916" stroke="#FF0000" stroke-width="2" stroke-miterlimit="8"/>
<path fill-rule="evenodd" clip-rule="evenodd" d="M771.11 66L755.004 87.9159L771.11 66Z" fill="white"/>
<path d="M771.11 66L755.004 87.9159" stroke="#FF0000" stroke-width="2" stroke-miterlimit="8"/>
<path fill-rule="evenodd" clip-rule="evenodd" d="M771 15V71.763V15Z" fill="white"/>
<path d="M771 15V71.763" stroke="#FF0000" stroke-width="2" stroke-miterlimit="8"/>
<path fill-rule="evenodd" clip-rule="evenodd" d="M600 44C600 41.791 602.01 40 604.5 40C606.99 40 609 41.791 609 44C609 46.209 606.99 48 604.5 48C602.01 48 600 46.209 600 44Z" fill="#C00000"/>
<path fill-rule="evenodd" clip-rule="evenodd" d="M767 44C767 41.791 769.01 40 771.5 40C773.99 40 776 41.791 776 44C776 46.209 773.99 48 771.5 48C769.01 48 767 46.209 767 44Z" fill="#C00000"/>
<path fill-rule="evenodd" clip-rule="evenodd" d="M243 44L263.17 39.581L267.5 19L271.83 39.581L292 44L271.83 48.419L267.5 69L263.17 48.419L243 44Z" fill="#460000"/>
<path fill-rule="evenodd" clip-rule="evenodd" d="M523 44L543.17 39.581L547.5 19L551.83 39.581L572 44L551.83 48.419L547.5 69L543.17 48.419L523 44Z" fill="#460000"/>
</svg>
