<svg width="824" height="89" viewBox="0 0 824 89" fill="none" xmlns="http://www.w3.org/2000/svg">
<path d="M0 44L824 43.9998" stroke="#C00000" stroke-width="8" stroke-miterlimit="8"/>
<path fill-rule="evenodd" clip-rule="evenodd" d="M66.8199 1.5H212.18L231 26.804V62.653L212.52 87.5H66.48L48 62.653V26.804L66.8199 1.5Z" fill="white" stroke="#FF0000" stroke-width="3" stroke-miterlimit="8"/>
<path fill-rule="evenodd" clip-rule="evenodd" d="M71.6094 1L55.5039 22.9159Z" fill="white"/>
<path d="M71.6094 1L55.5039 22.9159" stroke="#FF0000" stroke-width="2" stroke-miterlimit="8"/>
<path fill-rule="evenodd" clip-rule="evenodd" d="M55.5 66L71.61 87.916Z" fill="white"/>
<path d="M55.5 66L71.61 87.916" stroke="#FF0000" stroke-width="2" stroke-miterlimit="8"/>
<path fill-rule="evenodd" clip-rule="evenodd" d="M55.5 15V71.763Z" fill="white"/>
<path d="M55.5 15V71.763" stroke="#FF0000" stroke-width="2" stroke-miterlimit="8"/>
<path fill-rule="evenodd" clip-rule="evenodd" d="M206.5 1L222.61 22.916Z" fill="white"/>
<path d="M206.5 1L222.61 22.916" stroke="#FF0000" stroke-width="2" stroke-miterlimit="8"/>
<path fill-rule="evenodd" clip-rule="evenodd" d="M222.609 66L206.504 87.9159Z" fill="white"/>
<path d="M222.609 66L206.504 87.9159" stroke="#FF0000" stroke-width="2" stroke-miterlimit="8"/>
<path fill-rule="evenodd" clip-rule="evenodd" d="M222.5 15V71.763Z" fill="white"/>
<path d="M222.5 15V71.763" stroke="#FF0000" stroke-width="2" stroke-miterlimit="8"/>
<path fill-rule="evenodd" clip-rule="evenodd" d="M51.5 44C51.5 41.791 53.29 40 55.5 40C57.71 40 59.5 41.791 59.5 44C59.5 46.209 57.71 48 55.5 48C53.29 48 51.5 46.209 51.5 44Z" fill="#C00000"/>
<path fill-rule="evenodd" clip-rule="evenodd" d="M218.5 44C218.5 41.791 220.29 40 222.5 40C224.71 40 226.5 41.791 226.5 44C226.5 46.209 224.71 48 222.5 48C220.29 48 218.5 46.209 218.5 44Z" fill="#C00000"/>
<path fill-rule="evenodd" clip-rule="evenodd" d="M339.82 1.5H485.18L504 26.804V62.653L485.52 87.5H339.48L321 62.653V26.804L339.82 1.5Z" fill="white" stroke="#FF0000" stroke-width="3" stroke-miterlimit="8"/>
<path fill-rule="evenodd" clip-rule="evenodd" d="M344.609 1L328.504 22.9159Z" fill="white"/>
<path d="M344.609 1L328.504 22.9159" stroke="#FF0000" stroke-width="2" stroke-miterlimit="8"/>
<path fill-rule="evenodd" clip-rule="evenodd" d="M328.5 66L344.61 87.916Z" fill="white"/>
<path d="M328.5 66L344.61 87.916" stroke="#FF0000" stroke-width="2" stroke-miterlimit="8"/>
<path fill-rule="evenodd" clip-rule="evenodd" d="M328.5 15V71.763Z" fill="white"/>
<path d="M328.5 15V71.763" stroke="#FF0000" stroke-width="2" stroke-miterlimit="8"/>
<path fill-rule="evenodd" clip-rule="evenodd" d="M479.5 1L495.61 22.916Z" fill="white"/>
<path d="M479.5 1L495.61 22.916" stroke="#FF0000" stroke-width="2" stroke-miterlimit="8"/>
<path fill-rule="evenodd" clip-rule="evenodd" d="M495.609 66L479.504 87.9159Z" fill="white"/>
<path d="M495.609 66L479.504 87.9159" stroke="#FF0000" stroke-width="2" stroke-miterlimit="8"/>
<path fill-rule="evenodd" clip-rule="evenodd" d="M495.5 15V71.763Z" fill="white"/>
<path d="M495.5 15V71.763" stroke="#FF0000" stroke-width="2" stroke-miterlimit="8"/>
<path fill-rule="evenodd" clip-rule="evenodd" d="M324.5 44C324.5 41.791 326.29 40 328.5 40C330.71 40 332.5 41.791 332.5 44C332.5 46.209 330.71 48 328.5 48C326.29 48 324.5 46.209 324.5 44Z" fill="#C00000"/>
<path fill-rule="evenodd" clip-rule="evenodd" d="M491.5 44C491.5 41.791 493.29 40 495.5 40C497.71 40 499.5 41.791 499.5 44C499.5 46.209 497.71 48 495.5 48C493.29 48 491.5 46.209 491.5 44Z" fill="#C00000"/>
<path fill-rule="evenodd" clip-rule="evenodd" d="M612.82 1.5H758.18L777 26.804V62.653L758.52 87.5H612.48L594 62.653V26.804L612.82 1.5Z" fill="white" stroke="#FF0000" stroke-width="3" stroke-miterlimit="8"/>
<path fill-rule="evenodd" clip-rule="evenodd" d="M617.609 1L601.504 22.9159Z" fill="white"/>
<path d="M617.609 1L601.504 22.9159" stroke="#FF0000" stroke-width="2" stroke-miterlimit="8"/>
<path fill-rule="evenodd" clip-rule="evenodd" d="M601.5 66L617.61 87.916Z" fill="white"/>
<path d="M601.5 66L617.61 87.916" stroke="#FF0000" stroke-width="2" stroke-miterlimit="8"/>
<path fill-rule="evenodd" clip-rule="evenodd" d="M601.5 15V71.763Z" fill="white"/>
<path d="M601.5 15V71.763" stroke="#FF0000" stroke-width="2" stroke-miterlimit="8"/>
<path fill-rule="evenodd" clip-rule="evenodd" d="M752.5 1L768.61 22.916Z" fill="white"/>
<path d="M752.5 1L768.61 22.916" stroke="#FF0000" stroke-width="2" stroke-miterlimit="8"/>
<path fill-rule="evenodd" clip-rule="evenodd" d="M768.609 66L752.504 87.9159Z" fill="white"/>
<path d="M768.609 66L752.504 87.9159" stroke="#FF0000" stroke-width="2" stroke-miterlimit="8"/>
<path fill-rule="evenodd" clip-rule="evenodd" d="M768.5 15V71.763Z" fill="white"/>
<path d="M768.5 15V71.763" stroke="#FF0000" stroke-width="2" stroke-miterlimit="8"/>
<path fill-rule="evenodd" clip-rule="evenodd" d="M597.5 44C597.5 41.791 599.29 40 601.5 40C603.71 40 605.5 41.791 605.5 44C605.5 46.209 603.71 48 601.5 48C599.29 48 597.5 46.209 597.5 44Z" fill="#C00000"/>
<path fill-rule="evenodd" clip-rule="evenodd" d="M764.5 44C764.5 41.791 766.29 40 768.5 40C770.71 40 772.5 41.791 772.5 44C772.5 46.209 770.71 48 768.5 48C766.29 48 764.5 46.209 764.5 44Z" fill="#C00000"/>
<path fill-rule="evenodd" clip-rule="evenodd" d="M251 44L271.17 39.581L275.5 19L279.83 39.581L300 44L279.83 48.419L275.5 69L271.17 48.419L251 44Z" fill="#460000"/>
<path fill-rule="evenodd" clip-rule="evenodd" d="M524 44L544.17 39.581L548.5 19L552.83 39.581L573 44L552.83 48.419L548.5 69L544.17 48.419L524 44Z" fill="#460000"/>
</svg>
