<?xml version="1.0" encoding="UTF-8" standalone="no"?>
<!-- Created with Inkscape (http://www.inkscape.org/) -->

<svg
   width="270mm"
   height="125mm"
   viewBox="0 0 270 125"
   version="1.1"
   id="svg1"
   inkscape:export-filename="NIVEL.svg"
   inkscape:export-xdpi="96"
   inkscape:export-ydpi="96"
   xmlns:inkscape="http://www.inkscape.org/namespaces/inkscape"
   xmlns:sodipodi="http://sodipodi.sourceforge.net/DTD/sodipodi-0.dtd"
   xmlns="http://www.w3.org/2000/svg"
   xmlns:svg="http://www.w3.org/2000/svg">
  <sodipodi:namedview
     id="namedview1"
     pagecolor="#505050"
     bordercolor="#eeeeee"
     borderopacity="1"
     inkscape:showpageshadow="0"
     inkscape:pageopacity="0"
     inkscape:pagecheckerboard="0"
     inkscape:deskcolor="#505050"
     inkscape:document-units="mm" />
  <defs
     id="defs1" />
  <g
     inkscape:label="Camada 1"
     inkscape:groupmode="layer"
     id="layer1">
    <g
       transform="matrix(0.26458333,0,0,0.26458333,2.5536241,-15.152425)"
       id="g6">
      <path
         d="M 71.0842,105.5 H 933.916 l 0.002,0.024 c 2.782,13.085 9.293,22.265 16.882,22.265 l 1.7,-0.341 V 173.5 H 52.5001 v -46.052 l 1.6996,0.341 c 7.5892,0 14.1006,-9.18 16.8819,-22.265 z"
         stroke="#ff0000"
         stroke-width="3"
         stroke-miterlimit="8"
         fill="#ffffff"
         fill-rule="evenodd"
         id="path1" />
      <path
         d="M 63,135.734 C 63,121.521 74.5213,110 88.7336,110 H 916.266 C 930.479,110 942,121.521 942,135.734 v 35.532 C 942,185.479 930.479,197 916.266,197 H 88.7336 C 74.5213,197 63,185.479 63,171.266 Z"
         stroke="#ff0000"
         stroke-width="2"
         stroke-miterlimit="8"
         fill="#ffffff"
         fill-rule="evenodd"
         id="path2" />
      <path
         d="M 68,110 H 934.333"
         stroke="#ff0000"
         stroke-width="2"
         stroke-miterlimit="8"
         fill="none"
         fill-rule="evenodd"
         id="path3" />
      <path
         d="m 480.142,179.894 h 7.716 L 484,180 Z M 484,73 c 50.753,0 92.497,21.0523 97.517,48.03 L 582,126.248 H 386 l 0.483,-5.218 C 391.502,94.0523 433.247,73 484,73 Z"
         stroke="#ff0000"
         stroke-width="2"
         stroke-miterlimit="8"
         fill="#ffffff"
         fill-rule="evenodd"
         id="path4" />
      <path
         d="M 387,121 H 581.988"
         stroke="#ff0000"
         stroke-width="2"
         stroke-miterlimit="8"
         fill="none"
         fill-rule="evenodd"
         id="path5" />
      <path
         d="M 16.1056,126 H 979.407 L 992,142.163 V 497.412 L 979.077,514 H 16.4365 L 2,495.47 V 144.105 Z"
         stroke="#ff0000"
         stroke-width="2"
         stroke-miterlimit="8"
         fill="#ffffff"
         fill-rule="evenodd"
         id="path6" />
    </g>
  </g>
</svg>
