<svg width="389" height="372" viewBox="0 0 389 372" fill="none" xmlns="http://www.w3.org/2000/svg">
<path fill-rule="evenodd" clip-rule="evenodd" d="M46.1026 223.612C49.2954 223.768 52.1516 224.743 54.4547 226.62C59.0609 230.373 60.5827 237.021 59.3197 244.735L58.7707 246.968L58.3948 246.636C49.5482 241.153 33.1439 244.811 18.9976 256.105C12.9348 260.945 8.14783 266.5 4.92312 272.043L2.48782 277.027L1.84902 272.14C1.66382 263.307 5.94712 252.092 14.114 242.068C23.9144 230.04 36.5239 223.142 46.1026 223.612Z" fill="#FF0000"/>
<path fill-rule="evenodd" clip-rule="evenodd" d="M59.2815 178.575C65.1658 178.397 69.8983 179.988 72.6063 183.528C77.1193 189.426 74.9383 199.34 67.9183 209.578L66.0737 211.954L66.0304 210.219C65.7669 208.756 65.273 207.367 64.5344 206.079C58.6256 195.769 39.2852 195.75 21.3368 206.037C12.3627 211.181 5.4355 217.927 1.4905 224.675L0 227.823L0.869099 223.264C3.7209 213.876 12.1535 202.687 24.3112 193.385C36.4689 184.084 49.4743 178.872 59.2815 178.575Z" fill="#FF0000"/>
<path fill-rule="evenodd" clip-rule="evenodd" d="M225.338 154.748C231.381 154.932 239.166 156.629 247.26 159.796C263.447 166.129 274.739 175.94 272.481 181.71L264.649 176.871H255.315L253.786 178.657C250.51 180.955 245.289 181.179 240.425 178.869C235.561 176.558 232.436 172.369 232.147 168.378L232.689 165.388L228.292 161.588L213.863 158.777C214.991 155.892 219.294 154.564 225.338 154.748Z" fill="black" stroke="black" stroke-miterlimit="8"/>
<path fill-rule="evenodd" clip-rule="evenodd" d="M23.4995 171.589L23.8858 172.948L20.5781 172.736L23.4995 171.589ZM225.117 155.039C219.074 154.855 214.771 156.183 213.642 159.069L228.072 161.879L232.469 165.68L231.927 168.669C232.216 172.66 235.339 176.849 240.203 179.16C245.067 181.47 250.29 181.246 253.566 178.949L255.095 177.162H264.428L272.26 182.002C274.518 176.231 263.227 166.42 247.039 160.087C238.946 156.921 231.161 155.223 225.117 155.039ZM66.7845 31.5632L69.5715 33.0067L68.8035 34.1924L66.7845 31.5632ZM73.9285 0L76.9665 3.6783C85.9885 12.5008 98.4065 19.1618 113.016 22.4852L122.291 23.7993L123.719 24.2836L125.592 24.267L128.311 24.6523L127.873 24.2466L130.467 24.2236L130.934 24.5502L145.074 29.0781C150.76 31.7982 156.465 35.4417 161.875 39.9598C172.695 48.9959 180.284 59.8194 183.806 70.0139L184.12 72.1543L187.607 76.345L188.844 75.9693L183.783 56.6524L202.552 79.272L202.79 79.3874C206.73 82.0484 210.242 86.0106 212.771 91.0396C214.456 94.3916 215.545 97.8996 216.071 101.375L216.062 102.406L228.855 106.161C237.826 109.476 246.925 114.21 255.663 120.338C269.043 129.721 279.64 141.01 286.766 152.592L287.434 153.835L292.074 160.878L292.139 161.018L292.194 160.888L292.365 161.498L294.915 166.926L296.63 172.347L297.648 174.187C300.441 178.102 304.134 181.394 308.497 183.743L314.949 186.314L318.055 185.346C324.161 183.876 331.008 183.052 338.24 183.052C347.883 183.052 356.841 184.517 364.272 187.025L365.527 187.542L380.707 177.36L388.938 185.904L380.868 197.011L381.141 197.261C383.497 200.044 384.798 203.104 384.799 206.316C384.798 209.528 383.497 212.588 381.141 215.371L379.202 217.155L379.272 217.382C381.584 228.424 378.721 239.667 370.596 247.053C371.397 240.492 370.611 233.715 368.414 227.247L367.117 224.433L364.272 225.607C359.318 227.279 353.684 228.487 347.622 229.107L347.173 229.13L347.699 230.854C350.096 242.379 347.088 254.123 338.591 261.846C339.862 251.57 337.402 240.79 331.836 231.36L330.223 229.176L328.857 229.107C318.249 228.022 308.955 225.135 302.312 221.114L300.249 219.626L296.406 223.067C290.709 227.277 282.84 229.881 274.147 229.881C268.714 229.881 263.602 228.863 259.142 227.073L258.267 226.613L258.466 227.132C247.145 219.228 231.933 216.771 217.406 220.501C213.774 221.434 210.29 222.726 207.013 224.333L206.86 224.428L206.926 224.62C214.511 243.272 230.131 262.787 250.34 278.548C259 285.303 268.125 291.072 277.294 295.681L282.426 298.041L289.042 295.692C294.292 293.057 299.016 289.076 302.785 283.962C302.465 290.905 300.287 297.268 296.819 302.47L296.039 303.435L304.518 305.854L310.878 307.07L318.43 301.793C321.254 299.28 323.824 296.401 326.074 293.193C326.073 315.712 309.006 333.966 287.952 333.966L283.742 333.513L278.216 332.457L276.684 331.948L270.078 329L266.638 327.003C260.554 322.607 255.72 316.381 252.826 309.064L252.176 306.822L250.691 305.315L250.147 304.499L244.616 299.875C240.07 296.613 235.181 293.604 230.026 290.924C209.404 280.204 186.926 275.994 169.355 279.562C175.055 268.596 189.249 263.693 206.159 265.231L211.041 266.027L209.265 263.537C202.323 252.315 198.69 241.157 199.055 231.657L199.383 229.099L197.855 230.053C192.238 234.437 187.675 239.903 184.618 246.093C180.62 230.522 189.941 214.28 205.995 206.956L210.381 205.409L200.373 199.182C182.897 186.926 170.17 171.419 163.72 156.254L161.174 148.38L155.566 144.098C141.831 135.682 119.117 130.601 93.7485 131.44C74.7225 132.069 57.5794 135.916 44.848 141.72L40.8506 144.013L40.9572 143.806C30.6632 149.741 16.1251 150.801 1.7165 146.669L1.5249 146.578L6.2937 146.713C18.8743 145.731 32.0632 140.771 44.1833 131.963L51.2794 125.847L52.5841 125.091L53.8043 123.671L55.885 121.877L55.2911 121.94L56.9822 119.972L57.5348 119.836L70.2525 112.174C76.0435 109.686 82.5425 107.79 89.5045 106.693C103.43 104.499 116.572 105.913 126.564 109.974L128.383 111.147L133.833 111.281L134.365 110.103L116.493 101.195L145.876 101.96L146.12 101.857C150.717 100.643 156.011 100.609 161.461 102.016C165.094 102.954 168.452 104.445 171.413 106.337L172.877 107.638L175.006 106.483L173.64 101.645C168.555 88.3276 159.044 73.3533 146.043 59.4468C133.043 45.5406 118.86 35.1708 106.11 29.4091L101.752 27.9106L101.978 27.8541C90.7335 24.0136 80.3625 13.7697 73.9865 0.2041L73.9285 0Z" fill="#FF0000"/>
<path fill-rule="evenodd" clip-rule="evenodd" d="M43.1679 261.128C44.6865 261.085 46.1504 261.322 47.5354 261.858C58.6153 266.153 60.4529 288.068 51.6397 310.807L51.5353 311.014L51.5246 310.164C50.7819 301.306 47.5525 294.753 42.0125 292.606C33.7026 289.386 22.5539 296.991 13.7809 310.588L6.09742 325.797L6.02002 319.604C6.40362 312.194 8.21082 303.783 11.5157 295.256C19.2273 275.359 32.5381 261.424 43.1679 261.128Z" fill="#FF0000"/>
<path fill-rule="evenodd" clip-rule="evenodd" d="M66.7945 301.572C69.6855 298.459 73.1965 296.194 77.0685 294.766L79.4265 294.174L77.7925 301.07C76.2525 309.983 76.2255 319.783 78.0465 329.376C80.4735 342.168 85.7265 352.17 92.2555 358.002L94.2815 359.416L85.0155 357.191C80.7245 355.331 76.5865 352.663 72.8575 349.201C57.9436 335.35 55.2288 314.026 66.7945 301.572Z" fill="#FF0000"/>
<path fill-rule="evenodd" clip-rule="evenodd" d="M83.7963 136.801C89.6813 136.623 94.4143 138.214 97.1213 141.753C101.634 147.652 99.4533 157.565 92.4333 167.804L90.5883 170.18L90.5453 168.445C90.2823 166.981 89.7883 165.593 89.0493 164.304C83.1403 153.994 63.8003 153.976 45.8519 164.263C36.8777 169.406 29.9505 176.152 26.0056 182.901L24.5151 186.049L25.3841 181.489C28.236 172.101 36.6686 160.912 48.8263 151.611C60.9839 142.31 73.9893 137.098 83.7963 136.801Z" fill="#FF0000"/>
<path fill-rule="evenodd" clip-rule="evenodd" d="M87.4221 328.511C85.5071 322.944 85.6231 317.952 88.2001 314.317C92.4951 308.258 102.609 307.401 114.469 311.068L117.285 312.126L115.641 312.681C114.322 313.367 113.142 314.25 112.13 315.338C104.037 324.039 109.755 342.514 124.902 356.605C132.475 363.65 140.972 368.265 148.587 370.031L152.036 370.52L147.424 371.043C137.612 371.103 124.426 366.368 111.937 357.516C99.4491 348.664 90.6141 337.789 87.4221 328.511Z" fill="#FF0000"/>
<path fill-rule="evenodd" clip-rule="evenodd" d="M121.783 318.004C121.972 313.759 123.182 309.761 125.208 306.166L126.623 304.188L129.842 310.503C134.437 318.293 140.759 325.781 148.357 331.915C158.486 340.094 168.964 344.319 177.716 344.537L180.176 344.304L171.672 348.606C167.198 349.966 162.317 350.611 157.233 350.384C136.899 349.48 121.028 334.983 121.783 318.004Z" fill="#FF0000"/>
<path fill-rule="evenodd" clip-rule="evenodd" d="M157.548 317.295C153.553 312.971 151.648 308.356 152.542 303.99C154.033 296.714 162.944 291.856 175.277 290.435L178.28 290.268L176.999 291.439C176.068 292.598 175.344 293.882 174.856 295.285C170.953 306.508 183.63 321.115 203.169 327.91C212.939 331.307 222.575 332.109 230.256 330.657L233.61 329.717L229.599 332.052C220.643 336.06 206.666 337.039 191.67 333.967C176.674 330.896 164.207 324.501 157.548 317.295Z" fill="#FF0000"/>
<path fill-rule="evenodd" clip-rule="evenodd" d="M54.755 283.998C59.5439 280.574 64.3615 279.261 68.5812 280.694C75.6142 283.081 79.3212 292.53 79.1902 304.944L78.9802 307.944L77.9782 306.527C76.9452 305.458 75.7612 304.58 74.4302 303.921C63.7823 298.646 47.7062 309.398 38.5237 327.936C33.9324 337.205 31.9337 346.665 32.4139 354.467L32.9284 357.912L31.1119 353.641C28.2543 344.254 29.0297 330.265 33.9507 315.77C38.8717 301.275 46.7735 289.705 54.755 283.998Z" fill="#FF0000"/>
<path fill-rule="evenodd" clip-rule="evenodd" d="M34.7876 231.159C34.7876 178.968 77.0965 136.659 129.287 136.659C181.479 136.659 223.788 178.968 223.788 231.159C223.788 283.35 181.479 325.659 129.287 325.659C77.0965 325.659 34.7876 283.35 34.7876 231.159Z" fill="#1F0000" stroke="black" stroke-miterlimit="8"/>
<path fill-rule="evenodd" clip-rule="evenodd" d="M46.7876 231.659C46.7876 185.819 83.5005 148.659 128.788 148.659C174.075 148.659 210.788 185.819 210.788 231.659C210.788 277.499 174.075 314.659 128.788 314.659C83.5005 314.659 46.7876 277.499 46.7876 231.659Z" fill="white" stroke="#6C0000" stroke-miterlimit="8"/>
</svg>
