<?xml version="1.0" encoding="UTF-8" standalone="no"?>
<!-- Created with Inkscape (http://www.inkscape.org/) -->

<svg
   width="109.99999mm"
   height="100mm"
   viewBox="0 0 109.99999 100"
   version="1.1"
   id="svg1"
   xml:space="preserve"
   inkscape:export-filename="CABEÇA DO DRAGÃO.svg"
   inkscape:export-xdpi="96"
   inkscape:export-ydpi="96"
   xmlns:inkscape="http://www.inkscape.org/namespaces/inkscape"
   xmlns:sodipodi="http://sodipodi.sourceforge.net/DTD/sodipodi-0.dtd"
   xmlns="http://www.w3.org/2000/svg"
   xmlns:svg="http://www.w3.org/2000/svg"><sodipodi:namedview
     id="namedview1"
     pagecolor="#505050"
     bordercolor="#eeeeee"
     borderopacity="1"
     inkscape:showpageshadow="0"
     inkscape:pageopacity="0"
     inkscape:pagecheckerboard="0"
     inkscape:deskcolor="#505050"
     inkscape:document-units="mm" /><defs
     id="defs1" /><g
     inkscape:label="Camada 1"
     inkscape:groupmode="layer"
     id="layer1"><g
       transform="matrix(0.26458333,0,0,0.26458333,-4.8940189,-3.706835)"
       id="g13"><path
         d="m 79.8151,240.453 c 3.1928,0.156 6.049,1.131 8.3521,3.008 4.6062,3.753 6.128,10.401 4.865,18.115 l -0.549,2.233 -0.3759,-0.332 c -8.8466,-5.483 -25.2509,-1.825 -39.3972,9.469 -6.0628,4.84 -10.8498,10.395 -14.0745,15.938 l -2.4353,4.984 -0.6388,-4.887 c -0.1852,-8.833 4.0981,-20.048 12.265,-30.072 9.8004,-12.028 22.4099,-18.926 31.9886,-18.456 z"
         fill="#ff0000"
         fill-rule="evenodd"
         id="path1" /><path
         d="m 92.9942,195.416 c 5.8843,-0.178 10.6168,1.413 13.3248,4.953 4.513,5.898 2.332,15.812 -4.688,26.05 l -1.8446,2.376 -0.0433,-1.735 c -0.2635,-1.463 -0.7574,-2.852 -1.496,-4.14 -5.9088,-10.31 -25.2492,-10.329 -43.1976,-0.042 -8.9741,5.144 -15.9013,11.89 -19.8463,18.638 l -1.4905,3.148 0.8691,-4.559 c 2.8518,-9.388 11.2844,-20.577 23.4421,-29.879 12.1577,-9.301 25.1631,-14.513 34.9703,-14.81 z"
         fill="#ff0000"
         fill-rule="evenodd"
         id="path2" /><path
         d="m 259.051,171.589 c 6.043,0.184 13.828,1.881 21.922,5.048 16.187,6.333 27.479,16.144 25.221,21.914 l -7.832,-4.839 h -9.334 l -1.529,1.786 c -3.276,2.298 -8.497,2.522 -13.361,0.212 -4.864,-2.311 -7.989,-6.5 -8.278,-10.491 l 0.542,-2.99 -4.397,-3.8 -14.429,-2.811 c 1.128,-2.885 5.431,-4.213 11.475,-4.029 z"
         stroke="#000000"
         stroke-miterlimit="8"
         fill-rule="evenodd"
         id="path3" /><path
         d="m 57.212,188.43 0.3863,1.359 -3.3077,-0.212 z m 201.617,-16.55 c -6.043,-0.184 -10.346,1.144 -11.475,4.03 l 14.43,2.81 4.397,3.801 -0.542,2.989 c 0.289,3.991 3.413,8.18 8.277,10.491 4.864,2.31 10.086,2.086 13.362,-0.211 l 1.529,-1.787 h 9.334 l 7.832,4.84 c 2.258,-5.771 -9.034,-15.582 -25.222,-21.915 -8.093,-3.166 -15.878,-4.864 -21.922,-5.048 z M 100.497,48.4046 l 2.787,1.4435 -0.768,1.1857 z m 7.144,-31.5632 3.038,3.6783 c 9.022,8.8225 21.44,15.4835 36.049,18.8069 l 9.275,1.3141 1.428,0.4843 1.873,-0.0166 2.719,0.3853 -0.438,-0.4057 2.595,-0.023 0.466,0.3266 14.14,4.5279 c 5.686,2.7201 11.391,6.3636 16.801,10.8817 10.82,9.0361 18.409,19.8596 21.931,30.0541 l 0.314,2.1404 3.487,4.1907 1.237,-0.3757 -5.061,-19.3169 18.769,22.6196 0.238,0.1154 c 3.94,2.661 7.452,6.6232 9.981,11.6522 1.685,3.352 2.774,6.86 3.3,10.335 l -0.008,1.031 12.793,3.755 c 8.971,3.315 18.069,8.049 26.807,14.177 13.38,9.383 23.977,20.672 31.103,32.254 l 0.668,1.243 4.64,7.043 0.066,0.14 0.054,-0.13 0.171,0.61 2.55,5.428 1.716,5.421 1.018,1.84 c 2.793,3.915 6.485,7.207 10.848,9.556 l 6.453,2.571 3.105,-0.968 c 6.106,-1.47 12.953,-2.294 20.185,-2.294 9.643,0 18.601,1.465 26.032,3.973 l 1.255,0.517 15.18,-10.182 8.231,8.544 -8.069,11.107 0.272,0.25 c 2.356,2.783 3.658,5.843 3.659,9.055 -10e-4,3.212 -1.303,6.272 -3.659,9.055 l -1.939,1.784 0.07,0.227 c 2.312,11.042 -0.55,22.285 -8.675,29.671 0.801,-6.561 0.014,-13.338 -2.183,-19.806 l -1.296,-2.814 -2.846,1.174 c -4.954,1.672 -10.587,2.88 -16.649,3.5 l -0.449,0.023 0.525,1.724 c 2.397,11.525 -0.61,23.269 -9.107,30.992 1.271,-10.276 -1.19,-21.056 -6.756,-30.486 l -1.613,-2.184 -1.366,-0.069 c -10.608,-1.085 -19.902,-3.972 -26.544,-7.993 l -2.064,-1.488 -3.842,3.441 c -5.697,4.21 -13.567,6.814 -22.26,6.814 -5.433,0 -10.545,-1.018 -15.005,-2.808 l -0.875,-0.46 0.199,0.519 c -11.321,-7.904 -26.533,-10.361 -41.06,-6.631 -3.632,0.933 -7.116,2.225 -10.393,3.832 l -0.153,0.095 0.066,0.192 c 7.585,18.652 23.205,38.167 43.414,53.928 8.66,6.755 17.785,12.524 26.954,17.133 l 5.132,2.36 6.616,-2.349 c 5.25,-2.635 9.974,-6.616 13.743,-11.73 h 10e-4 c -0.32,6.943 -2.499,13.306 -5.967,18.508 l -0.78,0.965 8.479,2.419 6.36,1.216 7.552,-5.277 c 2.824,-2.513 5.394,-5.392 7.644,-8.6 -10e-4,22.519 -17.068,40.773 -38.122,40.773 l -4.21,-0.453 -5.526,-1.056 -1.532,-0.509 -6.605,-2.948 -3.441,-1.997 c -6.084,-4.396 -10.918,-10.622 -13.812,-17.939 l -0.65,-2.242 -1.484,-1.507 -0.545,-0.816 -5.531,-4.624 c -4.546,-3.262 -9.435,-6.271 -14.59,-8.951 -20.622,-10.72 -43.099,-14.93 -60.67,-11.362 v 0 c 5.7,-10.966 19.893,-15.869 36.803,-14.331 l 4.882,0.796 -1.776,-2.49 c -6.942,-11.222 -10.575,-22.38 -10.21,-31.88 l 0.328,-2.558 -1.527,0.954 c -5.617,4.384 -10.181,9.85 -13.238,16.04 -3.998,-15.571 5.324,-31.813 21.378,-39.137 l 4.385,-1.547 -10.008,-6.227 C 216.609,203.767 203.882,188.26 197.432,173.095 l -2.545,-7.874 -5.609,-4.282 c -13.735,-8.416 -36.449,-13.497 -61.817,-12.658 -19.026,0.629 -36.1691,4.476 -48.9005,10.28 l -3.9974,2.293 0.1066,-0.207 c -10.294,5.935 -24.8321,6.995 -39.2407,2.863 l -0.1916,-0.091 4.7688,0.135 c 12.5806,-0.982 25.7695,-5.942 37.8896,-14.75 l 7.0961,-6.116 1.3047,-0.756 1.2202,-1.42 2.0807,-1.794 -0.5939,0.063 1.6911,-1.968 0.5526,-0.136 12.7177,-7.662 c 5.791,-2.488 12.29,-4.384 19.252,-5.481 13.925,-2.194 27.068,-0.78 37.06,3.281 l 1.818,1.173 5.45,0.134 0.532,-1.178 -17.872,-8.908 29.383,0.765 0.244,-0.103 c 4.597,-1.214 9.891,-1.248 15.341,0.159 3.633,0.938 6.991,2.429 9.952,4.321 l 1.464,1.301 2.129,-1.155 -1.366,-4.838 c -5.085,-13.317 -14.596,-28.2913 -27.597,-42.1978 -13,-13.9062 -27.183,-24.276 -39.933,-30.0377 l -4.358,-1.4985 0.226,-0.0565 C 124.446,40.855 114.075,30.6111 107.699,17.0455 Z"
         fill="#ff0000"
         fill-rule="evenodd"
         id="path4" /><path
         d="m 76.8805,277.969 c 1.5186,-0.043 2.9825,0.194 4.3675,0.73 11.0799,4.295 12.9175,26.21 4.1043,48.949 l -0.1044,0.207 -0.0107,-0.85 c -0.7427,-8.858 -3.9721,-15.411 -9.5121,-17.558 -8.3099,-3.22 -19.4586,4.385 -28.2316,17.982 l -7.6835,15.209 -0.0774,-6.193 c 0.3836,-7.41 2.1908,-15.821 5.4957,-24.348 7.7116,-19.897 21.0224,-33.832 31.6522,-34.128 z"
         fill="#ff0000"
         fill-rule="evenodd"
         id="path5" /><path
         d="m 100.507,318.413 c 2.891,-3.113 6.402,-5.378 10.274,-6.806 l 2.358,-0.592 -1.634,6.896 c -1.54,8.913 -1.567,18.713 0.254,28.306 2.427,12.792 7.68,22.794 14.209,28.626 l 2.026,1.414 -9.266,-2.225 c -4.291,-1.86 -8.429,-4.528 -12.158,-7.99 -14.9139,-13.851 -17.6287,-35.175 -6.063,-47.629 z"
         fill="#ff0000"
         fill-rule="evenodd"
         id="path6" /><path
         d="m 117.509,153.642 c 5.885,-0.178 10.618,1.413 13.325,4.952 4.513,5.899 2.332,15.812 -4.688,26.051 l -1.845,2.376 -0.043,-1.735 c -0.263,-1.464 -0.757,-2.852 -1.496,-4.141 -5.909,-10.31 -25.249,-10.328 -43.1974,-0.041 -8.9742,5.143 -15.9014,11.889 -19.8463,18.638 l -1.4905,3.148 0.869,-4.56 c 2.8519,-9.388 11.2845,-20.577 23.4422,-29.878 12.1576,-9.301 25.163,-14.513 34.97,-14.81 z"
         fill="#ff0000"
         fill-rule="evenodd"
         id="path7" /><path
         d="m 121.135,345.352 c -1.915,-5.567 -1.799,-10.559 0.778,-14.194 4.295,-6.059 14.409,-6.916 26.269,-3.249 l 2.816,1.058 -1.644,0.555 c -1.319,0.686 -2.499,1.569 -3.511,2.657 -8.093,8.701 -2.375,27.176 12.772,41.267 7.573,7.045 16.07,11.66 23.685,13.426 l 3.449,0.489 -4.612,0.523 c -9.812,0.06 -22.998,-4.675 -35.487,-13.527 -12.488,-8.852 -21.323,-19.727 -24.515,-29.005 z"
         fill="#ff0000"
         fill-rule="evenodd"
         id="path8" /><path
         d="m 155.496,334.845 c 0.189,-4.245 1.399,-8.243 3.425,-11.838 l 1.415,-1.978 3.219,6.315 c 4.595,7.79 10.917,15.278 18.515,21.412 10.129,8.179 20.607,12.404 29.359,12.622 l 2.46,-0.233 -8.504,4.302 c -4.474,1.36 -9.355,2.005 -14.439,1.778 -20.334,-0.904 -36.205,-15.401 -35.45,-32.38 z"
         fill="#ff0000"
         fill-rule="evenodd"
         id="path9" /><path
         d="m 191.261,334.136 c -3.995,-4.324 -5.9,-8.939 -5.006,-13.305 1.491,-7.276 10.402,-12.134 22.735,-13.555 l 3.003,-0.167 -1.281,1.171 c -0.931,1.159 -1.655,2.443 -2.143,3.846 -3.903,11.223 8.774,25.83 28.313,32.625 9.77,3.397 19.406,4.199 27.087,2.747 l 3.354,-0.94 -4.011,2.335 c -8.956,4.008 -22.933,4.987 -37.929,1.915 -14.996,-3.071 -27.463,-9.466 -34.122,-16.672 z"
         fill="#ff0000"
         fill-rule="evenodd"
         id="path10" /><path
         d="m 88.4678,300.839 c 4.7889,-3.424 9.6065,-4.737 13.8262,-3.304 7.033,2.387 10.74,11.836 10.609,24.25 l -0.21,3 -1.002,-1.417 c -1.033,-1.069 -2.217,-1.947 -3.548,-2.606 -10.6479,-5.275 -26.724,5.477 -35.9065,24.015 -4.5913,9.269 -6.59,18.729 -6.1098,26.531 l 0.5145,3.445 -1.8165,-4.271 c -2.8576,-9.387 -2.0822,-23.376 2.8388,-37.871 4.921,-14.495 12.8228,-26.065 20.8043,-31.772 z"
         fill="#ff0000"
         fill-rule="evenodd"
         id="path11" /><path
         d="m 68.5001,248 c 0,-52.191 42.3089,-94.5 94.4999,-94.5 52.191,0 94.5,42.309 94.5,94.5 0,52.191 -42.309,94.5 -94.5,94.5 -52.191,0 -94.4999,-42.309 -94.4999,-94.5 z"
         stroke="#000000"
         stroke-miterlimit="8"
         fill="#1f0000"
         fill-rule="evenodd"
         id="path12" /><path
         d="m 80.5001,248.5 c 0,-45.84 36.7129,-83 81.9999,-83 45.287,0 82,37.16 82,83 0,45.84 -36.713,83 -82,83 -45.287,0 -81.9999,-37.16 -81.9999,-83 z"
         stroke="#6c0000"
         stroke-miterlimit="8"
         fill="#ffffff"
         fill-rule="evenodd"
         id="path13" /></g></g></svg>
