<?xml version="1.0" encoding="UTF-8" standalone="no"?>
<!-- Created with Inkscape (http://www.inkscape.org/) -->

<svg
   width="166mm"
   height="62mm"
   viewBox="0 0 166 62"
   version="1.1"
   id="svg1"
   xml:space="preserve"
   inkscape:export-filename="CABEÇA DO DRAGÃO.svg"
   inkscape:export-xdpi="96"
   inkscape:export-ydpi="96"
   xmlns:inkscape="http://www.inkscape.org/namespaces/inkscape"
   xmlns:sodipodi="http://sodipodi.sourceforge.net/DTD/sodipodi-0.dtd"
   xmlns="http://www.w3.org/2000/svg"
   xmlns:svg="http://www.w3.org/2000/svg"><sodipodi:namedview
     id="namedview1"
     pagecolor="#505050"
     bordercolor="#eeeeee"
     borderopacity="1"
     inkscape:showpageshadow="0"
     inkscape:pageopacity="0"
     inkscape:pagecheckerboard="0"
     inkscape:deskcolor="#505050"
     inkscape:document-units="mm" /><defs
     id="defs1"><clipPath
       id="clip0-4"><rect
         x="311"
         y="558"
         width="624"
         height="225"
         id="rect1-0" /></clipPath></defs><g
     inkscape:label="Camada 1"
     inkscape:groupmode="layer"
     id="layer1"><g
       clip-path="url(#clip0-4)"
       transform="matrix(0.26458333,0,0,0.26458333,-82.168903,-146.09069)"
       id="g11"><rect
         x="364.5"
         y="653.5"
         width="180"
         height="32"
         stroke="#000000"
         stroke-width="0.666667"
         stroke-miterlimit="8"
         fill="#171717"
         id="rect2" /><rect
         x="377.5"
         y="657.5"
         width="145"
         height="25"
         stroke="#000000"
         stroke-width="0.666667"
         stroke-miterlimit="8"
         fill="#3a3a3a"
         id="rect3" /><path
         d="m 361.159,648.5 c 11.786,0 21.341,9.85 21.341,22 0,12.15 -9.555,22 -21.341,22 -1.473,0 -2.912,-0.154 -4.301,-0.447 l -1.676,-0.536 v 0.082 l -0.469,-0.232 -1.861,-0.596 -1.616,-1.123 -38.736,-19.148 38.737,-19.149 1.615,-1.122 1.86,-0.595 0.47,-0.233 v 0.082 l 1.676,-0.536 c 1.389,-0.293 2.828,-0.447 4.301,-0.447 z"
         stroke="#000000"
         stroke-width="0.666667"
         stroke-miterlimit="8"
         fill="#262626"
         fill-rule="evenodd"
         id="path3" /><path
         d="m 361.037,652.5 c 9.092,0 16.463,8.059 16.463,18 0,9.941 -7.371,18 -16.463,18 -1.137,0 -2.246,-0.126 -3.318,-0.366 l -1.293,-0.438 v 0.066 l -0.362,-0.189 -1.435,-0.487 -1.247,-0.919 -29.882,-15.667 29.883,-15.667 1.246,-0.918 1.434,-0.487 0.363,-0.191 v 0.068 l 1.293,-0.439 c 1.072,-0.24 2.181,-0.366 3.318,-0.366 z"
         stroke="#000000"
         stroke-width="0.666667"
         stroke-miterlimit="8"
         fill="#747474"
         fill-rule="evenodd"
         id="path4" /><path
         d="m 557.149,558.541 c 5.098,0.249 10.083,1.621 14.655,4.227 -11.458,3.335 -22.058,10.547 -30.283,20.383 l -5.297,7.658 3.182,-1.443 c 14.825,-4.752 32.489,2.6 41.939,18.455 -12.847,-5.268 -26.545,-4.509 -37.51,2.079 -4.112,2.471 -7.686,5.669 -10.624,9.432 l -0.421,0.649 v 99.255 l 1.576,2.432 c 2.938,3.763 6.512,6.961 10.624,9.432 10.966,6.588 24.664,7.347 37.51,2.079 -9.449,15.855 -27.114,23.207 -41.939,18.455 l -3.181,-1.443 5.297,7.658 c 8.224,9.836 18.824,17.048 30.282,20.383 -4.572,2.606 -9.557,3.978 -14.655,4.226 -5.098,0.249 -10.311,-0.625 -15.339,-2.51 l -3.836,-1.861 -0.064,0.14 -14.285,-6.605 -0.111,0.242 -74.014,-34.218 11.817,-25.766 0.078,0.036 39.362,4.476 v -91.915 l -40.518,4.607 -0.077,0.036 -11.817,-25.766 74.014,-34.218 0.111,0.242 14.285,-6.605 0.063,0.14 3.837,-1.861 c 5.028,-1.885 10.241,-2.759 15.339,-2.511 z"
         stroke="#000000"
         stroke-width="0.666667"
         stroke-miterlimit="8"
         fill="#3a3a3a"
         fill-rule="evenodd"
         id="path5" /><path
         d="m 556.542,560.799 8.399,0.6 -8.83,5.2 -7.968,5.2 -8.184,8.6 -6.891,8.8 -2.584,6 -0.29,1.166 1.176,-0.896 c 5.509,-3.451 11.578,-5.138 17.453,-5.195 9.792,-0.095 19.045,4.335 24.263,12.665 -11.037,-3.663 -23.692,-1.96 -34.157,4.596 l -4.274,3.356 -3.004,3.585 -2.99,5.665 0.28,9.398 -0.8,0.6 h -0.8 l -2.045,-0.107 -0.309,1.104 c -0.973,5.823 -0.672,11.758 0.982,17.333 -6.527,-4.385 -10.478,-11.271 -11.589,-18.859 l 0.007,-0.153 -9.846,-0.518 v -9 l -41.2,5 -9.4,-20.4 58.454,-28.137 -0.002,-0.003 0.064,-0.027 0.484,-0.233 0.026,0.022 35.607,-14.762 z"
         stroke="#000000"
         stroke-width="0.666667"
         stroke-miterlimit="8"
         fill="#171717"
         fill-rule="evenodd"
         id="path6" /><path
         d="M 84.286,94.0081 C 79.8044,90.3035 76.2447,85.5443 73.8056,80.1676 l -0.359,-1.0888 1.7577,-1.0511 0.6641,-0.4461 0.3295,-0.9441 -5.4732,-7.6449 -0.6771,-6.3702 0.4943,-4.651 1.6773,-5.1691 C 77.2505,41.525 86.8056,33.0553 98.01,29.9411 89.0333,25.9362 78.8824,27.4178 70.8074,32.9571 65.9623,36.2806 61.8646,41.0648 59.2162,47.0009 L 58.7391,48.4006 58.3296,47.2714 57.1291,40.8498 57.9429,29.702 59.9407,17.9998 63.6556,9.2401 68.0857,0 60.779,4.1853 54.499,9.12661 33.1734,41.2353 l -0.0336,-0.0035 -0.272,0.4636 -0.0381,0.0574 0.0032,0.0021 L 0,97.7057 l 19.1783,11.6923 31.412,-27.1238 5.0186,7.4709 8.4614,-5.0596 0.0795,0.1299 c 5.1533,5.6797 12.2726,9.1927 20.1362,9.1927 z"
         stroke="#000000"
         stroke-width="0.666667"
         stroke-miterlimit="8"
         fill="#171717"
         fill-rule="evenodd"
         transform="matrix(0.830102,-0.557611,-0.557611,-0.830102,508.423,816.465)"
         id="path7" /><path
         d="m 530.5,634.5 h 332.732 l 70.268,35.449 -70.268,35.449 V 705.5 H 530.5 Z"
         stroke="#420002"
         stroke-width="0.666667"
         stroke-miterlimit="8"
         fill="#747474"
         fill-rule="evenodd"
         id="path8" /><path
         d="m 529.5,640.5 h 333.105 l 60.895,29 -60.895,29 H 529.5 Z"
         stroke="#000000"
         stroke-width="0.666667"
         stroke-miterlimit="8"
         fill="#d1d1d1"
         fill-rule="evenodd"
         id="path9" /><path
         d="m 515.227,618.246 53.45,53.451 -53.45,53.45 -53.451,-53.45 z"
         stroke="#000000"
         stroke-width="0.666667"
         stroke-miterlimit="8"
         fill="#ffffff"
         fill-rule="evenodd"
         id="path10" /><path
         d="m 515.227,629.279 42.76,42.761 -42.76,42.76 -42.761,-42.76 z"
         stroke="#420002"
         stroke-width="0.666667"
         stroke-miterlimit="8"
         fill="#c00000"
         fill-rule="evenodd"
         id="path11" /></g></g></svg>
