<svg width="624" height="225" viewBox="0 0 624 225" fill="none" xmlns="http://www.w3.org/2000/svg">
<mask id="mask0_422_227" style="mask-type:luminance" maskUnits="userSpaceOnUse" x="0" y="0" width="624" height="225">
<path d="M624 0H0V225H624V0Z" fill="white"/>
</mask>
<g mask="url(#mask0_422_227)">
<path d="M233.5 95.4999H53.5V127.5H233.5V95.4999Z" fill="#171717" stroke="black" stroke-width="0.666667" stroke-miterlimit="8"/>
<path d="M211.5 99.4999H66.5V124.5H211.5V99.4999Z" fill="#3A3A3A" stroke="black" stroke-width="0.666667" stroke-miterlimit="8"/>
<path fill-rule="evenodd" clip-rule="evenodd" d="M50.159 90.4999C61.945 90.4999 71.5 100.35 71.5 112.5C71.5 124.65 61.945 134.5 50.159 134.5C48.686 134.5 47.247 134.346 45.858 134.053L44.182 133.517V133.599L43.713 133.367L41.852 132.771L40.236 131.648L1.5 112.5L40.237 93.351L41.852 92.2289L43.712 91.6339L44.182 91.4009V91.4829L45.858 90.947C47.247 90.654 48.686 90.4999 50.159 90.4999Z" fill="#262626" stroke="black" stroke-width="0.666667" stroke-miterlimit="8"/>
<path fill-rule="evenodd" clip-rule="evenodd" d="M50.037 94.4999C59.129 94.4999 66.5 102.559 66.5 112.5C66.5 122.441 59.129 130.5 50.037 130.5C48.9 130.5 47.791 130.374 46.719 130.134L45.426 129.696V129.762L45.064 129.573L43.629 129.086L42.382 128.167L12.5 112.5L42.383 96.8329L43.629 95.9149L45.063 95.4279L45.426 95.2369V95.3049L46.719 94.866C47.791 94.626 48.9 94.4999 50.037 94.4999Z" fill="#747474" stroke="black" stroke-width="0.666667" stroke-miterlimit="8"/>
<path fill-rule="evenodd" clip-rule="evenodd" d="M246.149 0.540959C251.247 0.789959 256.232 2.16195 260.804 4.76795C249.346 8.10295 238.746 15.3149 230.521 25.1509L225.224 32.809L228.406 31.366C243.231 26.614 260.895 33.9659 270.345 49.8209C257.498 44.5529 243.8 45.312 232.835 51.9C228.723 54.371 225.149 57.5689 222.211 61.3319L221.79 61.981V161.236L223.366 163.668C226.304 167.431 229.878 170.629 233.99 173.1C244.956 179.688 258.654 180.447 271.5 175.179C262.051 191.034 244.386 198.386 229.561 193.634L226.38 192.191L231.677 199.849C239.901 209.685 250.501 216.897 261.959 220.232C257.387 222.838 252.402 224.21 247.304 224.458C242.206 224.707 236.993 223.833 231.965 221.948L228.129 220.087L228.065 220.227L213.78 213.622L213.669 213.864L139.655 179.646L151.472 153.88L151.55 153.916L190.912 158.392V66.4769L150.394 71.0839L150.317 71.1199L138.5 45.3539L212.514 11.1359L212.625 11.3779L226.91 4.77295L226.973 4.91297L230.81 3.05194C235.838 1.16694 241.051 0.292959 246.149 0.540959Z" fill="#3A3A3A" stroke="black" stroke-width="0.666667" stroke-miterlimit="8"/>
<path fill-rule="evenodd" clip-rule="evenodd" d="M245.542 2.79895L253.941 3.39893L245.111 8.59894L237.143 13.799L228.959 22.3989L222.068 31.1989L219.484 37.1989L219.194 38.3649L220.37 37.4689C225.879 34.0179 231.948 32.3309 237.823 32.2739C247.615 32.1789 256.868 36.609 262.086 44.939C251.049 41.276 238.394 42.9789 227.929 49.5349L223.655 52.8909L220.651 56.476L217.661 62.1409L217.941 71.5389L217.141 72.1389H216.341L214.296 72.0319L213.987 73.1359C213.014 78.9589 213.315 84.8939 214.969 90.4689C208.442 86.0839 204.491 79.1979 203.38 71.6099L203.387 71.4569L193.541 70.939V61.939L152.341 66.939L142.941 46.5389L201.395 18.4019L201.393 18.3989L201.457 18.3719L201.941 18.1389L201.967 18.1609L237.574 3.39893L245.542 2.79895Z" fill="#171717" stroke="black" stroke-width="0.666667" stroke-miterlimit="8"/>
<path fill-rule="evenodd" clip-rule="evenodd" d="M214.969 133.43C213.314 139.004 213.013 144.94 213.987 150.763L214.296 151.867L216.341 151.759L217.141 151.759L217.941 152.359L217.661 161.757L220.651 167.423L223.654 171.008L227.929 174.363C238.394 180.919 251.048 182.622 262.086 178.959C256.867 187.289 247.615 191.72 237.823 191.624C231.948 191.567 225.879 189.881 220.37 186.43L219.194 185.534L219.483 186.7L222.068 192.7L228.959 201.5L237.143 210.1L245.111 215.3L253.941 220.5L245.542 221.1L237.573 220.5L201.967 205.738L201.941 205.759L201.457 205.526L201.393 205.5L201.395 205.496L142.941 177.359L152.341 156.959L193.541 161.959L193.541 152.959L203.386 152.441L203.38 152.289C204.49 144.701 208.441 137.815 214.969 133.43Z" fill="#171717" stroke="black" stroke-width="0.666667" stroke-miterlimit="8"/>
<path fill-rule="evenodd" clip-rule="evenodd" d="M219.5 76.4999H552.232L622.5 111.949L552.232 147.398V147.5H219.5V76.4999Z" fill="#747474" stroke="#420002" stroke-width="0.666667" stroke-miterlimit="8"/>
<path fill-rule="evenodd" clip-rule="evenodd" d="M218.5 82.5H551.605L612.5 111.5L551.605 140.5H218.5V82.5Z" fill="#D1D1D1" stroke="black" stroke-width="0.666667" stroke-miterlimit="8"/>
<path fill-rule="evenodd" clip-rule="evenodd" d="M204.227 60.2459L257.677 113.697L204.227 167.147L150.776 113.697L204.227 60.2459Z" fill="white" stroke="black" stroke-width="0.666667" stroke-miterlimit="8"/>
<path fill-rule="evenodd" clip-rule="evenodd" d="M204.227 71.2789L246.987 114.04L204.227 156.8L161.466 114.04L204.227 71.2789Z" fill="#C00000" stroke="#420002" stroke-width="0.666667" stroke-miterlimit="8"/>
</g>
</svg>
