<?xml version="1.0" encoding="UTF-8" standalone="no"?>
<!-- Created with Inkscape (http://www.inkscape.org/) -->

<svg
   width="500mm"
   height="100mm"
   viewBox="0 0 500 100"
   version="1.1"
   id="svg1"
   inkscape:export-filename="TEMA.svg"
   inkscape:export-xdpi="96"
   inkscape:export-ydpi="96"
   xmlns:inkscape="http://www.inkscape.org/namespaces/inkscape"
   xmlns:sodipodi="http://sodipodi.sourceforge.net/DTD/sodipodi-0.dtd"
   xmlns="http://www.w3.org/2000/svg"
   xmlns:svg="http://www.w3.org/2000/svg">
  <sodipodi:namedview
     id="namedview1"
     pagecolor="#505050"
     bordercolor="#eeeeee"
     borderopacity="1"
     inkscape:showpageshadow="0"
     inkscape:pageopacity="0"
     inkscape:pagecheckerboard="0"
     inkscape:deskcolor="#505050"
     inkscape:document-units="mm" />
  <defs
     id="defs1" />
  <g
     inkscape:label="Camada 1"
     inkscape:groupmode="layer"
     id="layer1">
    <g
       transform="matrix(0.26458333,0,0,0.26458333,119.85085,6.9703784)"
       id="g1">
      <path
         d="m 554.728,144.104 -1.397,4.389 5.974,-2.485 z M 448.645,16 l 53.672,6.8395 51.643,-6.5811 78.625,10.0194 -78.625,10.0193 -34.862,-4.4426 36.827,17.7191 35.51,-4.5252 -0.161,-0.0866 0.38,0.0586 35.517,-4.5259 78.625,10.0194 -23.459,2.9894 77.176,9.8347 -62.943,8.021 22.319,12.0163 0.112,-0.0307 44.114,-0.684 0.6,-0.3437 c 0.837,-0.3497 1.787,-0.3144 2.667,-0.535 0.546,-0.1368 1.042,-0.4749 1.601,-0.535 l 6.09,-0.4261 -53.87,-6.8647 78.625,-10.0194 78.625,10.0194 -18.584,2.3682 26.276,6.3521 48.575,-0.7915 -30.815,-7.4492 79.247,-1.2911 46.848,11.3252 v 7.7931 l -18.49,0.3012 18.49,2.3561 v 30.8428 l -32.495,4.141 -3.771,-0.481 0.594,0.372 c 0.786,0.48 1.592,0.916 2.46,1.207 1.601,0.535 3.192,1.1 4.802,1.605 1.24,0.387 2.52,0.626 3.73,1.07 l 0.93,0.466 23.75,3.73 v 16.441 l -24.29,3.816 -0.59,0.293 c -1.22,0.444 -2.5,0.683 -3.73,1.07 -1.614,0.505 -3.205,1.07 -4.805,1.605 -0.869,0.29 -1.675,0.727 -2.461,1.206 l -0.594,0.373 3.771,-0.481 32.699,4.167 v 30.791 l -18.69,2.382 18.69,0.304 v 7.741 l -47.052,11.374 -79.247,-1.291 30.815,-7.449 -48.575,-0.792 -26.276,6.353 18.584,2.368 -78.625,10.019 -78.625,-10.019 53.87,-6.865 -6.09,-0.426 c -0.56,-0.06 -1.055,-0.398 -1.601,-0.535 -0.88,-0.221 -1.83,-0.185 -2.667,-0.535 l -0.6,-0.344 -44.114,-0.684 -0.112,-0.03 -22.319,12.016 62.943,8.021 -77.176,9.835 23.459,2.989 -78.625,10.019 -35.517,-4.526 -0.38,0.059 0.161,-0.087 -35.51,-4.525 -33.866,16.295 38.133,-4.86 78.625,10.02 -78.625,10.019 -53.672,-6.84 -51.643,6.582 -78.625,-10.02 78.625,-10.019 34.863,4.442 -36.828,-17.719 -35.51,4.526 0.161,0.086 -0.38,-0.058 -35.516,4.525 -78.625,-10.019 23.458,-2.989 -77.176,-9.835 62.943,-8.021 -22.319,-12.016 -0.112,0.03 -44.114,0.684 -0.599,0.344 c -0.837,0.35 -1.788,0.315 -2.668,0.535 -0.545,0.137 -1.041,0.475 -1.6,0.535 l -6.091,0.426 53.87,6.865 -78.624,10.019 -78.626,-10.019 18.584,-2.368 -26.276,-6.352 -48.5749,0.791 30.8149,7.449 -79.2469,1.291 L -15,206.828 V 197.65 L -1.87792,197.436 -15,195.764 v -32.21 l 27.1284,-3.458 3.7703,0.481 -0.5936,-0.372 c -0.7862,-0.48 -1.5919,-0.916 -2.4604,-1.207 -1.6005,-0.535 -3.19139,-1.1 -4.80156,-1.605 -1.23567,-0.387 -2.51797,-0.626 -3.73453,-1.07 C 3.56129,156.051 2.8858,155.61 2.1746,155.253 L 1.76975,154.036 -15,151.402 V 136.21 l 17.08638,-2.684 0.29217,-0.879 c 0.71141,-0.357 1.38648,-0.798 2.13401,-1.07 1.21677,-0.444 2.49886,-0.683 3.73453,-1.07 1.61038,-0.505 3.20101,-1.07 4.80151,-1.605 0.8686,-0.29 1.6742,-0.727 2.4604,-1.206 l 0.5936,-0.373 -3.7704,0.481 L -15,124.321 V 92.1625 L -1.67418,90.4643 -15,90.2472 v -9.1253 l 41.6851,-10.0771 79.2469,1.2911 -30.8149,7.4492 48.5749,0.7914 26.276,-6.352 -18.584,-2.3682 78.625,-10.0194 78.625,10.0194 -53.87,6.8647 6.09,0.4261 c 0.56,0.06 1.055,0.3982 1.601,0.535 0.88,0.2205 1.831,0.1852 2.667,0.535 l 0.6,0.3436 44.114,0.684 0.112,0.0308 22.319,-12.0164 -62.943,-8.0209 77.176,-9.8348 -23.459,-2.9893 78.626,-10.0194 35.516,4.5259 0.38,-0.0586 -0.161,0.0866 35.51,4.5251 33.866,-16.2943 -38.133,4.8593 -78.625,-10.0193 z"
         fill="#ff0000"
         fill-rule="evenodd"
         id="path1" />
    </g>
  </g>
</svg>
