<svg width="1044" height="258" viewBox="0 0 1044 258" fill="none" xmlns="http://www.w3.org/2000/svg">
<path fill-rule="evenodd" clip-rule="evenodd" d="M569.728 128.104L568.331 132.493L574.305 130.008L569.728 128.104ZM463.645 0L517.317 6.8395L568.96 0.2584L647.585 10.2778L568.96 20.2971L534.098 15.8545L570.925 33.5736L606.435 29.0484L606.274 28.9618L606.654 29.0204L642.171 24.4945L720.796 34.5139L697.337 37.5033L774.513 47.338L711.57 55.359L733.889 67.3753L734.001 67.3446L778.115 66.6606L778.715 66.3169C779.552 65.9672 780.502 66.0025 781.382 65.7819C781.928 65.6451 782.424 65.307 782.983 65.2469L789.073 64.8208L735.203 57.9561L813.828 47.9367L892.453 57.9561L873.869 60.3243L900.145 66.6764L948.72 65.8849L917.905 58.4357L997.152 57.1446L1044 68.4698V76.2629L1025.51 76.5641L1044 78.9202V109.763L1011.51 113.904L1007.73 113.423L1008.33 113.795C1009.11 114.275 1009.92 114.711 1010.79 115.002C1012.39 115.537 1013.98 116.102 1015.59 116.607C1016.83 116.994 1018.11 117.233 1019.32 117.677L1020.25 118.143L1044 121.873V138.314L1019.71 142.13L1019.12 142.423C1017.9 142.867 1016.62 143.106 1015.39 143.493C1013.78 143.998 1012.19 144.563 1010.59 145.098C1009.72 145.388 1008.91 145.825 1008.12 146.304L1007.53 146.677L1011.3 146.196L1044 150.363V181.154L1025.31 183.536L1044 183.84V191.581L996.948 202.955L917.701 201.664L948.516 194.215L899.941 193.423L873.665 199.776L892.249 202.144L813.624 212.163L734.999 202.144L788.869 195.279L782.779 194.853C782.219 194.793 781.724 194.455 781.178 194.318C780.298 194.097 779.348 194.133 778.511 193.783L777.911 193.439L733.797 192.755L733.685 192.725L711.366 204.741L774.309 212.762L697.133 222.597L720.592 225.586L641.967 235.605L606.45 231.079L606.07 231.138L606.231 231.051L570.721 226.526L536.855 242.821L574.988 237.961L653.613 247.981L574.988 258L521.316 251.16L469.673 257.742L391.048 247.722L469.673 237.703L504.536 242.145L467.708 224.426L432.198 228.952L432.359 229.038L431.979 228.98L396.463 233.505L317.838 223.486L341.296 220.497L264.12 210.662L327.063 202.641L304.744 190.625L304.632 190.655L260.518 191.339L259.919 191.683C259.082 192.033 258.131 191.998 257.251 192.218C256.706 192.355 256.21 192.693 255.651 192.753L249.56 193.179L303.43 200.044L224.806 210.063L146.18 200.044L164.764 197.676L138.488 191.324L89.9131 192.115L120.728 199.564L41.4811 200.855L0 190.828V181.65L13.1221 181.436L0 179.764V147.554L27.1284 144.096L30.8987 144.577L30.3051 144.205C29.5189 143.725 28.7132 143.289 27.8447 142.998C26.2442 142.463 24.6533 141.898 23.0431 141.393C21.8075 141.006 20.5252 140.767 19.3086 140.323C18.5613 140.051 17.8858 139.61 17.1746 139.253L16.7698 138.036L0 135.402V120.21L17.0864 117.526L17.3785 116.647C18.09 116.29 18.765 115.849 19.5126 115.577C20.7293 115.133 22.0114 114.894 23.2471 114.507C24.8575 114.002 26.4481 113.437 28.0486 112.902C28.9172 112.612 29.7228 112.175 30.509 111.696L31.1026 111.323L27.3322 111.804L0 108.321V76.1625L13.3258 74.4643L0 74.2472V65.1219L41.6851 55.0448L120.932 56.3359L90.1171 63.7851L138.692 64.5765L164.968 58.2245L146.384 55.8563L225.009 45.8369L303.634 55.8563L249.764 62.721L255.854 63.1471C256.414 63.2071 256.909 63.5453 257.455 63.6821C258.335 63.9026 259.286 63.8673 260.122 64.2171L260.722 64.5607L304.836 65.2447L304.948 65.2755L327.267 53.2591L264.324 45.2382L341.5 35.4034L318.041 32.4141L396.667 22.3947L432.183 26.9206L432.563 26.862L432.402 26.9486L467.912 31.4737L501.778 15.1794L463.645 20.0387L385.02 10.0194L463.645 0Z" fill="#FFB2B2"/>
</svg>
