<svg width="225" height="81" viewBox="0 0 225 81" fill="none" xmlns="http://www.w3.org/2000/svg">
<path fill-rule="evenodd" clip-rule="evenodd" d="M8.59345 2H216.256L217.328 4.16868C218.126 4.83722 219.075 5.37803 220.129 5.75216L223 6.23681V74.1182L218.926 75.6518L217.4 79H8.40805L6.88215 75.6518C5.63275 74.5168 3.90661 73.8147 2 73.8147V6.21145L4.71995 5.75216C5.77435 5.37803 6.72395 4.83722 7.52145 4.16868L8.59345 2Z" fill="white" stroke="#FF0000" stroke-width="3" stroke-miterlimit="8"/>
<path fill-rule="evenodd" clip-rule="evenodd" d="M21.4116 2H202.876C210.469 2 216.983 6.33284 219.766 12.5082L221 18.247L220.167 22.3044C219.294 27.4988 218.785 33.7602 218.785 40.5C218.785 47.2398 219.294 53.5012 220.167 58.6956L221 62.753L219.766 68.4918C216.983 74.6672 210.469 79 202.876 79H21.4116C13.819 79 7.30455 74.6672 4.52185 68.4918L4 66.0658L4.76995 63.5121C6.23495 57.623 7.14095 49.4864 7.14095 40.5C7.14095 31.5136 6.23495 23.3779 4.76995 17.4888L4 14.9351L4.52185 12.5082C7.30455 6.33284 13.819 2 21.4116 2Z" fill="white" stroke="#FF0000" stroke-width="1.33333" stroke-miterlimit="8"/>
</svg>
