<svg width="8" height="6" viewBox="0 0 8 6" fill="none" xmlns="http://www.w3.org/2000/svg">
<path d="M7.97892 0.384816C7.91632 0.189279 7.75981 0.0672648 7.50626 0.0172075C7.44835 0.00469319 6.3653 2.78236e-07 3.99259 1.74522e-07C1.19105 0.00156434 0.544658 0.00469289 0.464837 0.0219001C0.261373 0.0657002 0.111123 0.170508 0.0375626 0.320679C0.00626042 0.384815 -1.84619e-08 0.422358 -2.32483e-08 0.531858C-2.98125e-08 0.68203 0.0266068 0.785273 0.106427 0.941702C0.187813 1.10439 3.28673 5.62206 3.3869 5.72686C3.48863 5.83167 3.63888 5.93179 3.75157 5.97089C3.87364 6.01313 4.14754 6.00844 4.26492 5.96307C4.387 5.91458 4.4903 5.84419 4.59985 5.73312C4.66715 5.66742 5.14138 4.98695 6.21974 3.41172C7.05864 2.18688 7.78485 1.12003 7.83337 1.04025C7.98049 0.794659 8.0337 0.555323 7.97892 0.384816Z" fill="#890004"/>
</svg>
