<?xml version="1.0" encoding="UTF-8" standalone="no"?>
<!-- Created with Inkscape (http://www.inkscape.org/) -->

<svg
   width="200mm"
   height="100mm"
   viewBox="0 0 200 100"
   version="1.1"
   id="svg1"
   inkscape:export-filename="TEMA.svg"
   inkscape:export-xdpi="96"
   inkscape:export-ydpi="96"
   xmlns:inkscape="http://www.inkscape.org/namespaces/inkscape"
   xmlns:sodipodi="http://sodipodi.sourceforge.net/DTD/sodipodi-0.dtd"
   xmlns="http://www.w3.org/2000/svg"
   xmlns:svg="http://www.w3.org/2000/svg">
  <sodipodi:namedview
     id="namedview1"
     pagecolor="#505050"
     bordercolor="#eeeeee"
     borderopacity="1"
     inkscape:showpageshadow="0"
     inkscape:pageopacity="0"
     inkscape:pagecheckerboard="0"
     inkscape:deskcolor="#505050"
     inkscape:document-units="mm" />
  <defs
     id="defs1" />
  <g
     inkscape:label="Camada 1"
     inkscape:groupmode="layer"
     id="layer1">
    <g
       transform="matrix(0.26458333,0,0,0.26458333,-127.16296,7.0920952)"
       id="g8">
      <text
         fill="#680000"
         font-family="'DRAGON HUNTER', 'DRAGON HUNTER_MSFontService', sans-serif"
         font-weight="400"
         font-size="67px"
         transform="translate(593.604,134)"
         id="text1">DUNGEONS</text>
      <g
         id="g7">
        <g
           id="g6">
          <g
             id="g5">
            <path
               d="m 19.8277,81.4403 c -3.3125,-0.53 -5.7259,-1.7036 -7.95,-3.8804 C 10.7798,76.4905 9.95644,75.3831 9.36966,74.1623 8.43269,72.2315 8.10144,70.7456 8.10144,68.4269 c 0,-2.2904 0.29339,-3.6722 1.16411,-5.3473 l 0.43536,-0.8518 0.05678,1.325 c 0.03786,0.7287 0.11358,1.4953 0.17983,1.7035 0.28388,0.9654 1.53318,4.8268 1.57108,4.8647 0.0568,0.0662 0.0473,0.0946 1.0221,-2.262 0.5111,-1.2209 1.06,-2.4512 1.2209,-2.7257 0.3502,-0.5868 1.3629,-1.5805 2.2052,-2.1673 l 0.5773,-0.3975 0.0568,1.3912 c 0.0757,1.6942 0.2556,2.792 0.6909,4.0602 0.2366,0.7004 0.3218,1.1168 0.3218,1.5616 0,1.4197 0.672,3.0191 1.7036,4.0508 0.9843,0.9842 2.2241,1.5048 3.5585,1.5142 0.6436,0 1.8551,-0.3217 2.3945,-0.6341 0.6814,-0.388 1.5332,-1.3155 1.8834,-2.0537 0.5395,-1.1073 0.7098,-1.9118 0.7098,-3.3693 -0.0094,-1.4386 -0.2271,-2.527 -0.776,-3.7289 l -0.2934,-0.6531 0.3975,-0.53 c 0.7476,-1.0032 1.5521,-1.8361 3.2935,-3.445 0.9654,-0.8802 1.874,-1.732 2.0159,-1.8834 0.1515,-0.1609 0.284,-0.265 0.3029,-0.2461 0.0095,0.0095 0.2745,0.4165 0.5868,0.8897 1.3818,2.1105 2.4607,4.7511 2.9245,7.1834 0.3691,1.9118 0.1514,4.5902 -0.5395,6.5588 -1.5711,4.4292 -4.9404,7.155 -10.0416,8.1298 -1.1168,0.2082 -4.7606,0.2555 -5.8963,0.0757 z"
               fill="#800000"
               transform="matrix(1,0,0,-1.01434,595.009,222)"
               id="path1" />
            <path
               d="m 19.5722,68.8055 c -1.1168,-1.6563 -1.5711,-5.5461 -0.9275,-7.9595 0.0757,-0.2839 0.2177,-0.4448 0.6909,-0.7761 0.8044,-0.5773 1.7887,-1.5805 2.2809,-2.3282 0.4164,-0.6341 0.8612,-1.5995 0.7855,-1.6847 -0.0284,-0.0189 -0.2082,0.1988 -0.3975,0.4827 -0.6625,0.9938 -1.7414,1.8172 -4.3536,3.322 -2.0632,1.1925 -2.9528,1.7793 -3.8425,2.5364 -0.7477,0.6436 -1.4859,1.5427 -1.8171,2.2241 -0.1136,0.2177 -0.2272,0.3975 -0.265,0.3975 -0.0379,0 -0.1231,-0.3691 -0.1893,-0.8139 -0.1893,-1.2682 0.1041,-2.9245 0.6719,-3.8993 l 0.1988,-0.3218 -0.3596,0.0663 C 10.6,60.3255 10.0795,60.3917 8.65983,60.439 L 7.0509,60.4958 7.4768,60.2213 c 1.52375,-0.9937 2.8393,-2.631 2.8393,-3.5396 0,-0.6625 -0.50162,-1.06 -3.18002,-2.527 C 6.10447,53.5869 4.94983,52.9338 4.57126,52.7067 3.93715,52.3092 2.44179,51.1924 2.48911,51.1451 2.49858,51.1261 2.915,51.1829 3.40715,51.2587 6.31269,51.694 8.10144,51.0599 8.57466,49.4415 8.75448,48.7979 8.71662,48.1922 8.37591,46.5644 8.24341,45.9681 8.1393,45.4381 8.1393,45.3908 c 0,-0.0473 0.20821,0.1136 0.45429,0.3407 1.62781,1.5238 4.70371,3.322 6.91841,4.0507 l 1.0789,0.3597 -0.5016,0.1041 c -0.8802,0.1893 -2.1011,0.388 -2.3755,0.388 -0.1515,0 -0.2745,0.0379 -0.2745,0.0852 0,0.1703 1.0316,1.0127 1.7698,1.448 1.3061,0.7666 2.934,1.2872 4.6943,1.5048 0.9086,0.1136 2.8772,0.0568 3.0191,-0.0851 0.0474,-0.0474 -0.265,-0.1136 -0.7098,-0.142 -1.467,-0.1136 -3.7479,-0.8045 -4.9593,-1.4954 -0.5394,-0.3123 -0.6341,-0.4637 -0.2839,-0.4637 0.2366,0 2.2336,-0.4922 2.6689,-0.6625 l 0.2745,-0.1041 -0.6247,-0.3502 c -1.3534,-0.7477 -2.6216,-2.0348 -3.3787,-3.4261 -0.2082,-0.388 -0.388,-0.7382 -0.388,-0.776 0,-0.0284 0.246,0.0567 0.5489,0.2082 1.4196,0.6909 3.3977,0.6909 4.7889,-0.019 0.5679,-0.2934 1.2588,-0.9937 1.5427,-1.5805 0.2366,-0.4827 0.265,-0.6246 0.265,-1.5711 0,-1.0032 -0.0095,-1.0694 -0.3502,-1.7698 -0.1987,-0.4259 -0.5394,-0.918 -0.8234,-1.2114 l -0.4732,-0.5016 0.8707,0.0568 c 0.4827,0.0283 1.0695,0.1135 1.325,0.1892 0.2461,0.0758 0.4449,0.1231 0.4449,0.1041 0,-0.0283 -0.0663,-0.1798 -0.1515,-0.3501 -0.2934,-0.5774 -0.9369,-1.3345 -1.5048,-1.7509 l -0.5679,-0.4259 0.6058,0.0662 c 1.306,0.142 3.2367,0.9559 4.24,1.7793 0.511,0.4259 0.9937,0.9938 1.2209,1.4102 l 0.123,0.2461 -0.653,-0.0474 c -1.2304,-0.0851 -1.5806,0.2745 -1.4765,1.4954 0.0284,0.3975 0.1325,1.0032 0.2366,1.3534 0.0947,0.3502 0.1325,0.6341 0.0947,0.6341 -0.0473,0 -0.0852,-0.0378 -0.0852,-0.0852 0,-0.1514 -0.6246,-0.4826 -0.918,-0.4826 -0.7004,0 -0.8897,0.9653 -0.4543,2.3376 0.1419,0.4638 0.3407,0.9938 0.4448,1.202 0.1041,0.1988 0.1514,0.3975 0.1041,0.4448 -0.123,0.1231 -1.8171,0.3691 -2.5838,0.3691 -0.8612,0 -0.7855,0.1041 0.284,0.3691 2.6689,0.6531 6.2937,0.7666 7.2118,0.2177 0.5584,-0.3312 0.5394,-1.1357 -0.0568,-2.2619 l -0.3218,-0.5963 h 0.5868 c 1.8171,0 3.3882,-0.4259 4.0696,-1.0979 0.53,-0.5394 0.672,-0.9464 0.672,-1.9591 0,-0.5016 0.0095,-0.918 0.0284,-0.918 0.142,0 0.937,0.6625 1.4102,1.1736 1.4386,1.5237 2.243,3.6343 2.1862,5.7069 l -0.0284,1.0222 -0.2555,-0.4354 c -0.3029,-0.511 -0.9559,-1.1357 -1.4859,-1.4007 -0.4827,-0.2555 -0.4827,-0.2555 -0.4827,0.0852 0,0.6246 -0.6057,1.4291 -1.1925,1.5711 -0.246,0.0662 -0.246,0.0757 -0.1893,0.6625 0.1325,1.2587 -0.3501,2.9528 -1.2303,4.363 -0.7856,1.2493 -1.6563,2.2147 -3.6532,4.0697 -2.4134,2.2241 -3.2558,3.0948 -4.1359,4.2684 -1.1925,1.571 -1.8645,3.1516 -1.9213,4.5334 -0.0189,0.3312 -0.0568,0.5962 -0.0852,0.5962 -0.1135,0 -0.5394,-1.0979 -0.6909,-1.7698 -0.1798,-0.8045 -0.1987,-2.3661 -0.0378,-3.057 0.1419,-0.6341 0.4259,-0.9464 2.9055,-3.2084 1.9497,-1.7887 3.0097,-2.915 3.7763,-4.0128 0.4732,-0.6815 1.2114,-2.1201 1.1262,-2.2052 -0.0284,-0.0284 -0.1419,0.1135 -0.246,0.3218 -0.5017,0.9748 -1.8929,2.4323 -5.2622,5.4703 -2.915,2.6406 -4.2495,4.2495 -4.9971,6.0477 -0.3502,0.8423 -0.4638,1.325 -0.53,2.3188 -0.0568,0.8801 -0.0568,0.8991 -0.2177,0.6625 z m 8.745,-15.3133 c 0.8612,-0.5868 1.6562,-1.5521 2.0159,-2.4228 l 0.1609,-0.3691 -0.4922,0.0567 c -1.2587,0.1515 -2.3471,1.3534 -2.6973,2.9813 l -0.0662,0.3123 0.3407,-0.1419 c 0.1893,-0.0758 0.5205,-0.265 0.7382,-0.4165 z"
               fill="#800000"
               transform="matrix(1,0,0,-1.01434,595.009,222)"
               id="path2" />
            <path
               d="m 55.8867,57.8553 c -1.4859,-0.3124 -2.9907,-1.1925 -5.2527,-3.057 -1.4954,-1.2398 -2.1389,-1.6089 -2.4986,-1.4386 -0.4448,0.1988 -0.2555,0.8991 0.5584,2.0727 0.2366,0.3313 0.4259,0.6246 0.4259,0.653 0,0.0284 -0.265,-0.1325 -0.5868,-0.3501 -2.8298,-1.9024 -5.5555,-5.2622 -6.8237,-8.3854 -0.4922,-1.2209 -0.4448,-1.2398 0.5205,-0.2461 0.4827,0.4922 1.202,1.1547 1.59,1.4765 2.262,1.8266 5.3947,3.426 7.9973,4.0696 1.6279,0.407 3.5586,0.6152 4.2117,0.4638 0.3028,-0.0758 0.2744,-0.0852 -0.3597,-0.142 -1.8077,-0.1704 -3.71,-0.7666 -5.8395,-1.8172 -2.9718,-1.4575 -5.6028,-3.4828 -8.4137,-6.483 -1.0127,-1.0789 -2.6784,-3.1138 -2.6311,-3.2084 0.0189,-0.0284 0.2271,-0.1325 0.4732,-0.2271 0.5963,-0.2367 1.0506,-0.5584 2.6879,-1.8929 0.7761,-0.6341 1.4386,-1.1641 1.4764,-1.1736 0.0379,-0.0094 0.3502,0.5679 0.7004,1.2777 2.0537,4.1927 5.1485,8.5179 6.9846,9.7672 1.5332,1.041 3.1043,1.5237 4.9782,1.5237 1.4765,0 2.792,-0.3312 3.7195,-0.9464 l 0.407,-0.2745 0.5205,0.3691 c 1.06,0.7382 3.5491,1.5332 5.7732,1.8456 1.0979,0.1514 3.5113,0.1514 4.0981,-0.0095 0.3975,-0.1041 -1.0979,1.2588 -2.2052,2.0159 -3.8047,2.5932 -7.6282,3.2746 -11.4802,2.0537 -2.1484,-0.6719 -2.5175,-0.7003 -2.65,-0.1987 -0.123,0.4827 0.5679,1.2493 1.7887,1.9686 0.8613,0.511 0.8613,0.5205 -0.1703,0.2934 z"
               fill="#800000"
               transform="matrix(1,0,0,-1.01434,595.009,222)"
               id="path3" />
            <path
               d="M 6.05715,48.8074 C 5.13911,48.0408 3.53018,46.3372 2.87715,45.4286 1.37232,43.337 0.397501,41.0183 0.1325,38.8983 L 0.0662501,38.3777 0.397501,38.7942 C 1.05054,39.5986 1.83607,40.0908 2.12,39.8542 2.43233,39.5892 2.39447,39.2674 1.80768,37.2893 1.15464,35.122 0.785537,32.1313 0.889644,30.0018 1.07893,26.3581 2.10107,23.2727 4.0034,20.6132 c 0.59625,-0.8328 1.94964,-2.385 2.01589,-2.3187 0.01893,0.0189 -0.02839,0.2271 -0.11357,0.4543 -0.21768,0.6057 -0.40696,1.7698 -0.35018,2.1389 0.06625,0.3786 0.41643,0.6909 0.70036,0.6247 0.10411,-0.0284 0.58679,-0.53 1.07893,-1.1074 1.13572,-1.3628 2.48911,-2.65 3.42607,-3.2746 1.5711,-1.0411 3.975,-2.0443 5.8773,-2.4607 3.3504,-0.7288 7.4484,-0.3407 10.742,1.0032 4.2779,1.7414 7.7418,4.9687 10.6474,9.9091 0.2744,0.4543 0.6246,1.0789 0.776,1.3913 l 0.284,0.5583 -0.7383,0.6436 c -1.183,1.0506 -4.4198,3.729 -5.1959,4.3063 -0.0757,0.0568 -0.246,-0.1325 -0.5489,-0.6057 -1.6184,-2.4986 -4.0507,-4.8458 -6.1991,-5.9815 -2.6216,-1.3818 -4.9025,-1.4196 -7.4295,-0.123 -1.0032,0.5111 -2.3661,1.8645 -2.9718,2.9434 -0.8044,1.4196 -1.2209,2.915 -1.306,4.7037 -0.1799,3.6059 1.3439,7.4579 4.221,10.7326 0.4638,0.511 0.6341,0.7855 0.5679,0.8517 -0.0473,0.0474 -0.5016,0.0947 -1.0127,0.0947 -1.1736,-0.0095 -1.4291,-0.123 -3.568,-1.6089 -0.8802,-0.6152 -1.6657,-1.1358 -1.732,-1.1547 -0.0852,-0.0378 -0.1041,0.0095 -0.0757,0.1704 0.0284,0.123 0.2082,1.0978 0.3975,2.1673 0.1893,1.0695 0.3975,2.0821 0.4732,2.2525 0.0663,0.1609 0.0947,0.3029 0.0663,0.3029 -0.1325,0 -1.5427,-0.814 -2.3472,-1.3534 C 10.2593,44.9081 9.76716,44.4633 7.90269,42.4095 6.9184,41.3211 6.08555,40.441 6.07608,40.4599 c -0.01893,0.0189 0.02839,1.1168 0.12304,2.4323 0.11357,1.732 0.22714,2.792 0.43535,3.8331 0.30286,1.5805 0.34072,2.1767 0.15143,2.4228 -0.1041,0.1514 -0.17035,0.123 -0.72875,-0.3407 z"
               fill="#800000"
               transform="matrix(1,0,0,-1.01434,595.009,222)"
               id="path4" />
            <path
               d="m 26.6041,47.1038 c -0.0851,-0.2744 -0.1135,-0.7382 -0.0851,-1.2209 0.0757,-1.2966 0.4448,-1.8266 2.3187,-3.2841 1.4197,-1.1073 1.6752,-1.5332 1.8266,-3.057 0.1893,-1.8739 0.5679,-2.7919 1.5995,-3.8898 0.3407,-0.3502 1.6373,-1.4859 2.8866,-2.508 2.9434,-2.3945 4.7606,-3.975 5.2527,-4.524 0.5205,-0.5867 0.9275,-1.4385 1.1073,-2.3092 0.1231,-0.5963 0.1325,-1.1263 0.0852,-3.2652 -0.0662,-2.2431 -0.0473,-2.6406 0.0946,-3.2179 0.3597,-1.4954 1.325,-2.9718 2.5175,-3.8804 0.5111,-0.388 2.0065,-1.183 2.2147,-1.183 0.0379,0 -0.0663,0.1704 -0.2272,0.3691 -0.5962,0.7572 -1.0505,2.12 -1.0505,3.18 0,1.079 0.3975,2.2809 1.0127,3.0948 0.3786,0.4922 0.4827,0.4638 0.4921,-0.1703 0.019,-0.8045 0.6625,-2.5648 1.3629,-3.7479 0.4827,-0.8139 1.6846,-2.12 2.4796,-2.6784 0.7667,-0.5489 1.997,-1.1262 2.934,-1.3912 0.6625,-0.1798 0.9843,-0.2082 2.6027,-0.2082 1.7603,0 1.8928,0.0189 2.9339,0.2934 2.0727,0.5489 3.8141,1.4669 4.9593,2.6026 0.3596,0.3597 0.6341,0.6625 0.6152,0.6815 -0.019,0.0284 -0.2745,-0.019 -0.5584,-0.1041 -1.1263,-0.3029 -3.322,0.0094 -4.7984,0.6814 -0.5111,0.2271 -1.4481,0.8139 -1.4481,0.8991 0,0.0284 0.6909,0.0473 1.5427,0.0473 1.3723,0.0095 1.6373,0.0379 2.4797,0.265 2.6784,0.7288 4.893,2.4891 5.9719,4.7511 0.5111,1.06 0.6909,1.7414 0.7666,2.8582 0.2367,3.729 -2.3187,7.1456 -6.2843,8.3949 -1.1546,0.3596 -2.0916,0.4732 -3.4828,0.4448 l -0.3786,-0.0095 0.5489,-0.2271 c 1.1452,-0.4732 2.0633,-1.325 2.6027,-2.4134 0.3407,-0.6909 0.3502,-0.7382 0.3502,-1.7604 0,-0.9843 -0.0189,-1.0789 -0.3029,-1.6657 -0.4542,-0.9086 -1.2019,-1.6184 -2.2525,-2.12 -1.2492,-0.5963 -1.9307,-0.7477 -3.4734,-0.7572 -0.7098,0 -1.3155,0.0284 -1.3439,0.0568 -0.0284,0.0284 0.1609,0.2745 0.4259,0.549 0.53,0.5584 1.0411,1.5426 1.2114,2.3566 0.0568,0.2744 0.1041,0.918 0.1041,1.4291 0,2.0253 -0.8328,3.8993 -2.2525,5.035 -0.5394,0.4353 -0.5962,0.4448 -0.4826,0.0662 0.0473,-0.1703 0.0851,-0.6151 0.0851,-0.9937 0,-1.0032 -0.265,-1.6373 -0.9937,-2.3661 -0.5016,-0.5016 -0.672,-0.6057 -1.2682,-0.7855 -0.814,-0.2461 -1.4859,-0.2177 -2.2904,0.1041 -0.6909,0.265 -1.0032,0.5016 -4.3914,3.2936 -6.0099,4.9687 -5.7922,4.8078 -6.8143,5.0634 -0.3123,0.0851 -1.1641,0.1892 -1.8834,0.2366 -1.8077,0.123 -1.9781,0.265 -2.3282,1.9307 -0.4354,2.1578 -0.7572,2.385 -3.5965,2.7068 -1.1925,0.1325 -1.836,0.4069 -2.4702,1.0505 -0.4732,0.4638 -0.5489,0.6057 -0.6719,1.1357 l -0.1325,0.6057 z"
               fill="#800000"
               transform="matrix(1,0,0,-1.01434,595.009,222)"
               id="path5" />
          </g>
        </g>
      </g>
      <text
         fill="#680000"
         font-family="'DRAGON HUNTER', 'DRAGON HUNTER_MSFontService', sans-serif"
         font-weight="400"
         font-size="67px"
         transform="translate(674.843,199)"
         id="text7">DRAGONS</text>
    </g>
  </g>
</svg>
