<svg width="138" height="62" viewBox="0 0 138 62" fill="none" xmlns="http://www.w3.org/2000/svg">
<path d="M65.2646 0.837215C62.1145 1.27224 59.7144 2.36486 57.625 4.31742C56.5321 5.33923 55.8677 6.17893 55.2677 7.32213C54.3248 9.11282 54.0141 10.6101 54.0998 13.0179C54.1534 14.8693 54.357 15.709 55.0534 17.0647L55.5034 17.9449L55.5784 16.7814C55.632 15.8709 55.7284 15.3752 56.0177 14.5051C56.2213 13.888 56.5749 12.8358 56.7999 12.1479C57.0249 11.4701 57.25 10.944 57.2928 10.9844C57.3357 11.035 57.7643 11.9455 58.2357 13.0281C59.2643 15.3549 59.4358 15.6483 60.1858 16.3666C60.6573 16.8017 61.8788 17.6919 62.018 17.6919C62.0395 17.6919 62.0609 17.1962 62.0716 16.5993C62.0823 15.3651 62.3073 13.979 62.6824 12.8561C62.8217 12.4312 62.9931 11.6623 63.0467 11.1665C63.2395 9.54785 63.9789 8.21242 65.1253 7.41319C67.5683 5.72367 70.7185 6.38127 72.1114 8.89025C72.69 9.91206 72.8507 10.7214 72.7864 12.2288C72.7436 13.4833 72.5936 14.0701 71.9507 15.6281C71.8221 15.9316 71.8435 15.9721 72.3686 16.6094C73.1722 17.5604 77.3509 21.3441 77.4688 21.2227C77.4902 21.2025 77.7581 20.8181 78.0688 20.3729C79.2046 18.7239 80.1904 16.5083 80.6511 14.5759C81.5511 10.7416 80.3082 6.61395 77.4581 4.02403C75.733 2.4458 73.8151 1.53528 71.1042 0.988968C69.7756 0.725929 66.6576 0.644995 65.2646 0.837215Z" fill="#2A0606"/>
<path d="M0.0222979 5.82487C0.215165 7.42334 1.28665 9.78057 2.60457 11.5106C3.53676 12.7347 5.05826 14.1915 6.51547 15.2437C7.14765 15.7091 7.8334 16.2655 8.04769 16.4982C8.487 16.9838 8.79773 17.7223 8.95845 18.6227C9.10846 19.4928 9.09774 47.8302 8.95845 48.8014C8.81916 49.6815 8.46557 50.4302 7.95126 50.8956C7.73696 51.0878 6.56905 51.8061 5.34756 52.494C4.11536 53.182 2.69029 53.9812 2.15455 54.2847L1.19021 54.8209L16.3517 54.7906C32.9168 54.7602 32.081 54.7805 35.2205 54.1532C38.8099 53.445 42.5065 51.7555 45.4424 49.5096L45.8388 49.1959L45.7103 48.2045C45.571 47.1827 45.6138 43.5204 45.7638 43.1562C45.946 42.7313 45.5924 43.055 45.0031 43.8441C44.5638 44.441 44.3602 44.6433 44.3388 44.5118C44.2852 44.1881 44.8531 38.6238 45.0245 37.8853C45.646 35.1132 47.1246 32.6346 49.7283 30.0548L50.4676 29.3062L49.9426 29.377C49.5033 29.4377 44.9817 30.2875 43.9959 30.4999C43.6959 30.5606 47.3496 27.0299 48.4425 26.2003C49.1497 25.6641 50.4783 24.8851 51.9784 24.1162C52.5142 23.8532 52.9535 23.6205 52.9749 23.6103C53.0285 23.5699 52.4177 22.0625 51.9784 21.1621C49.0533 15.2437 43.2566 10.7113 36.4634 9.04204C32.9918 8.19222 32.6918 8.17199 20.9055 8.08093C10.4264 8 8.65844 7.9393 6.29046 7.56497C4.29751 7.25135 2.34741 6.5634 0.78305 5.62253C0.440176 5.41008 0.118731 5.24821 0.0651572 5.24821C0.000868292 5.24821 -0.0205613 5.47078 0.0222979 5.82487ZM30.6131 19.6648C34.8776 20.2718 37.8242 22.6391 39.1099 26.4937C40.1171 29.4883 40.0957 33.7373 39.0564 36.651C37.9206 39.8479 35.574 42.0231 32.2846 42.9235C30.8488 43.318 29.9381 43.3888 26.3593 43.3888H22.9949V31.4509V19.513H26.295C28.6094 19.513 29.8845 19.5535 30.6131 19.6648Z" fill="#2A0606"/>
<path d="M83.6513 5.87551C83.8442 7.56503 84.7228 9.53782 86.105 11.3993C86.855 12.4009 88.623 14.1208 89.8552 15.0414C92.3517 16.9029 92.6303 17.4695 92.641 20.545C92.641 21.4252 92.6732 22.1435 92.7053 22.1435C92.7374 22.1435 93.241 21.8905 93.8196 21.587C94.409 21.2835 95.0411 20.9699 95.234 20.889C95.4269 20.8181 95.8662 20.6259 96.209 20.4843L96.8412 20.2111L96.4983 20.5956C95.534 21.6781 95.4054 21.8501 95.459 21.9006C95.4912 21.931 95.7162 21.8399 95.9626 21.6882C97.0662 21.0306 99.1878 20.4337 101.363 20.1605C102.617 19.9987 105.07 20.0189 106.174 20.1808L106.57 20.2415V19.8773V19.5131H109.924C111.756 19.5131 113.61 19.5636 114.017 19.6142C117.853 20.1302 120.65 22.0322 122.171 25.1279C123.789 28.426 123.907 33.6868 122.46 37.167C121.035 40.5865 118.389 42.5897 114.414 43.2371C113.856 43.3282 112.806 43.3889 111.703 43.3889C110.706 43.3889 109.892 43.4294 109.892 43.4698C109.892 43.5204 110.042 43.6823 110.224 43.8543C111.156 44.6839 112.174 46.252 112.56 47.466C113.321 49.8333 112.999 52.0388 111.553 54.3556L111.242 54.8513L113.063 54.7906C118.314 54.5984 122.117 53.6272 125.996 51.4824C127.978 50.3898 129.489 49.2769 131.161 47.6987C133.797 45.1998 135.404 42.7009 136.625 39.1904C137.558 36.5297 137.911 34.3646 137.9 31.2992C137.9 28.9015 137.761 27.6774 137.247 25.6338C135.093 16.9838 127.903 10.4787 118.496 8.688C115.839 8.18216 115.378 8.16193 104.481 8.08099C98.727 8.03041 93.5303 7.94947 92.6946 7.88877C89.0408 7.6055 86.7693 6.99849 84.4549 5.67318C84.0584 5.44049 83.6941 5.24826 83.6513 5.24826C83.6084 5.24826 83.6084 5.53154 83.6513 5.87551Z" fill="#2A0606"/>
<path d="M64.6433 12.6335C63.9897 13.8982 63.604 16.3464 63.8076 17.955C64.0004 19.422 64.0433 19.5231 64.8897 20.1099C66.1862 21.0204 67.3756 22.4975 67.6113 23.5092C67.6863 23.8026 67.6756 23.7925 67.397 23.408C66.6148 22.3053 65.7041 21.6275 62.9611 20.12C61.9325 19.5535 60.7753 18.8757 60.3895 18.6227C59.4466 17.9955 58.2466 16.8422 57.8608 16.2048C57.6894 15.9114 57.518 15.6686 57.4858 15.6686C57.2715 15.6686 57.2072 17.4694 57.4001 18.3192C57.4644 18.6126 57.6572 19.1387 57.8287 19.4928C58.0858 20.029 58.1073 20.12 57.9465 20.0796C56.9501 19.8064 55.2571 19.6142 53.8749 19.6142H53.0606L53.5856 19.9278C54.2821 20.3426 55.4607 21.4656 55.8357 22.0726C56.0072 22.3559 56.1357 22.7201 56.1465 22.9528C56.1572 23.6205 55.7393 23.9442 52.9427 25.3707C51.1105 26.3116 49.7283 27.1412 49.0318 27.7178C48.764 27.9303 48.7211 28.0112 48.8711 27.9707C49.4926 27.819 51.0998 27.6875 51.7105 27.7482C52.7499 27.8392 53.3928 28.082 53.9178 28.5777C54.6678 29.2859 54.7535 29.9334 54.3464 31.8759C54.2071 32.584 54.1535 33.0292 54.2178 32.9988C54.2821 32.9584 54.625 32.6953 54.9785 32.412C56.4358 31.2486 59.018 29.8525 60.7753 29.2758C61.3431 29.0937 61.8253 28.9116 61.8467 28.8914C61.9003 28.8408 59.5966 28.4159 59.2859 28.4159C58.9752 28.4159 59.1252 28.2034 59.8002 27.6875C60.9574 26.7972 62.5539 26.1497 64.3433 25.826C65.4041 25.6337 67.7506 25.5933 68.0613 25.7653C68.2328 25.8664 68.2006 25.8765 67.8256 25.8867C66.6898 25.8867 64.3754 26.4734 63.1754 27.0602C62.0932 27.5863 62.0932 27.5661 63.0254 27.7583C63.4968 27.8595 64.1826 28.0213 64.5576 28.1326L65.2433 28.3349L64.5254 28.7396C63.7004 29.205 62.5968 30.1459 62.061 30.8338C61.7289 31.2486 61.1396 32.2603 61.1396 32.3817C61.1396 32.412 61.3646 32.3311 61.6539 32.1996C63.7325 31.2688 66.5827 31.8759 67.4934 33.4642C68.2649 34.7895 67.9435 36.6308 66.7327 37.7639L66.3577 38.1281H66.9898C67.3434 38.1281 67.8792 38.0674 68.1899 37.9864C68.5971 37.8954 68.7471 37.8853 68.7471 37.9763C68.7471 38.209 68.1256 39.0083 67.5256 39.5141C66.9256 40.0301 66.9148 40.0503 67.2149 40.0503C68.8114 40.0402 71.5544 38.6339 72.2508 37.4604L72.4865 37.0658H71.7472C71.1151 37.0658 70.965 37.0355 70.7615 36.8331C70.5472 36.6308 70.515 36.5094 70.5257 35.872C70.5365 35.4673 70.6115 34.8907 70.6972 34.5771L70.8686 34.0004L70.4829 34.2432C70.0436 34.5265 69.8507 34.5467 69.5293 34.3343C69.0471 34.0105 69.1221 32.9685 69.7221 31.6128C69.8936 31.2183 70.0114 30.8945 70.0007 30.8844C69.915 30.8035 67.9863 30.5404 67.4184 30.5303C66.872 30.5303 66.8077 30.5101 67.0327 30.4291C68.4685 29.8727 72.7866 29.5186 74.1366 29.8322C75.1438 30.075 75.3045 30.7428 74.6509 31.977L74.3402 32.5638H74.8438C75.7117 32.5638 77.0939 32.7661 77.7047 32.9786C78.444 33.2416 78.8511 33.5654 79.1404 34.1218C79.3655 34.5771 79.4512 35.5483 79.3012 36.0137C79.2262 36.216 79.2583 36.2059 79.6976 35.9226C81.487 34.7592 82.7835 32.2704 82.7835 30.0042V29.0937L82.4513 29.5591C82.0442 30.1459 81.1227 30.8439 80.7691 30.8439C80.7155 30.8439 80.6405 30.6719 80.5977 30.4595C80.5227 29.9638 80.2012 29.5793 79.6655 29.3163L79.2476 29.1241L79.3119 28.5777C79.3976 27.8898 79.119 26.5746 78.7226 25.7349C77.9832 24.2073 77.2761 23.4283 73.0651 19.6142C70.2257 17.0344 69.2078 15.4663 68.8971 13.19L68.8328 12.6841L68.6828 12.9674C68.3721 13.5238 68.1042 14.7783 68.1042 15.6888C68.1042 17.2772 68.1042 17.2873 70.0757 19.0375C73.5259 22.1029 74.3081 22.9325 75.1224 24.3995C75.6688 25.3707 75.8724 25.9575 75.4331 25.2796C74.6617 24.0859 73.3544 22.7909 70.3329 20.2313C66.647 17.1153 65.4683 15.4258 65.029 12.6335L64.9433 12.0771L64.6433 12.6335ZM72.8723 25.6742C73.1723 25.8361 73.6545 26.2003 73.9652 26.4836C74.4902 26.9793 75.176 27.9505 75.176 28.2034C75.176 28.3754 74.5331 28.3349 74.0509 28.1225C73.4187 27.8595 72.7866 27.1209 72.4544 26.2812C72.0472 25.2392 72.0472 25.2291 72.8723 25.6742Z" fill="#2A0606"/>
<path d="M105.338 21.0204C104.749 21.2227 104.149 21.4655 103.999 21.5464L103.731 21.6881L104.16 21.7083C104.749 21.7488 106.238 21.941 106.42 22.0118C106.538 22.0523 106.57 21.9208 106.57 21.3441C106.57 20.9495 106.538 20.6258 106.495 20.6359C106.442 20.6359 105.927 20.8079 105.338 21.0204Z" fill="#2A0606"/>
<path d="M99.1129 22.0421C97.6878 22.3962 96.6592 22.9729 94.3341 24.7332C92.8233 25.8865 92.3304 26.1395 91.9768 25.9675C91.6018 25.7955 91.8161 25.1075 92.5554 24.0857C92.7269 23.853 92.8233 23.6608 92.759 23.6608C92.5554 23.6608 90.8518 24.9457 90.016 25.7348C89.0624 26.6352 88.0016 27.8796 87.2302 29.0025C86.6837 29.8119 85.8587 31.3901 85.698 31.9567C85.6015 32.3006 85.6444 32.2703 86.523 31.4508C88.9553 29.1644 92.2554 27.394 95.6413 26.5745C96.6485 26.3317 97.1414 26.2609 98.3736 26.2305L99.8737 26.2002L98.7486 26.3823C96.6378 26.7364 95.3306 27.141 93.4341 28.0414C90.9589 29.215 89.0838 30.5504 86.5766 32.9077C85.0122 34.3948 82.9871 36.57 83.1157 36.6408C83.1371 36.6509 83.4693 36.8128 83.855 36.9949C84.2407 37.177 85.2265 37.8447 86.0516 38.4821L87.5409 39.6354L88.4624 37.9459C89.8124 35.4773 91.1411 33.5248 92.7162 31.6734C94.1841 29.9738 95.3842 29.1543 97.2485 28.5979C97.9343 28.4056 98.2772 28.3652 99.5522 28.3652C101.213 28.3652 101.695 28.4663 102.885 29.0734L103.527 29.3971L103.785 29.2049C104.502 28.6586 106.388 28.001 108.403 27.5963C109.26 27.4243 109.903 27.3737 111.178 27.3636C112.089 27.3535 113.01 27.3838 113.214 27.4243L113.589 27.4951L112.946 26.9488C110.149 24.5309 106.356 23.1044 103.26 23.2966C102.049 23.3776 101.695 23.4484 99.7879 23.9744C98.395 24.369 98.2986 24.3791 98.0521 24.2274C97.3985 23.8227 97.9557 23.1347 99.8844 21.9713C100.163 21.8094 100.002 21.8196 99.1129 22.0421Z" fill="#2A0606"/>
<path d="M51.8606 30.2673C49.0962 32.5941 47.3282 35.2347 46.6639 38.0269C46.3746 39.2713 46.3853 39.3725 46.8139 38.9071C47.5747 38.0674 48.2818 37.8043 48.5069 38.2697C48.6247 38.5125 48.6247 38.553 48.014 40.6067C47.3389 42.8628 47.0496 45.908 47.3068 48.0426C47.6497 50.9259 48.6997 53.4754 50.3819 55.5797C51.1213 56.5003 52.0642 57.4614 51.9785 57.1984C51.5499 55.9641 51.4856 54.9525 51.7963 54.6894C52.182 54.3556 52.4178 54.477 53.2321 55.3976C54.8286 57.2085 55.9965 58.1696 57.6573 59.0194C61.5361 61.0226 65.8006 61.4677 70.3544 60.3448C73.8474 59.4848 77.0725 57.4716 79.6977 54.5174C81.1763 52.8481 83.4264 49.459 83.2871 49.115C83.2229 48.9531 81.1442 47.2535 79.0441 45.6449L77.7154 44.6231L77.1261 45.4426C75.0367 48.3967 72.0687 50.6831 69.4543 51.3508C68.5864 51.5633 66.872 51.5633 65.972 51.3407C63.1647 50.6325 61.0539 48.3461 60.4217 45.3111C60.2181 44.3196 60.2181 42.3367 60.4324 41.3149C60.9468 38.8565 62.3611 36.2666 64.3112 34.2027C64.6434 33.8486 64.8898 33.535 64.8577 33.5047C64.8255 33.4743 64.4826 33.4237 64.1076 33.4035C63.0147 33.3124 62.4897 33.5249 60.561 34.7895C59.6181 35.3965 58.8145 35.9024 58.7716 35.9024C58.7288 35.9024 58.7181 35.8214 58.7395 35.7203C58.7609 35.6292 58.9538 34.7086 59.1467 33.6767C59.3502 32.6447 59.5431 31.7241 59.586 31.633C59.736 31.2891 57.1966 32.7459 55.9965 33.6868C55.6751 33.9397 54.6572 34.9311 53.7464 35.8821C52.8356 36.8331 52.0749 37.602 52.0642 37.5818C51.9677 37.4907 52.4178 32.8875 52.6321 31.8253C53.0928 29.5388 52.9856 29.3163 51.8606 30.2673Z" fill="#2A0606"/>
<path d="M105.767 29.9436C105.327 30.1155 104.695 30.4798 104.277 30.8035L103.56 31.3802L103.109 31.0564C101.074 29.6097 98.8878 29.4377 96.5306 30.5405C95.4698 31.0362 94.6662 31.7444 93.4662 33.2518L92.6411 34.2938L92.6625 39.0184L92.6947 43.7329L93.1233 43.9656C93.4233 44.1274 93.734 44.1982 94.1305 44.1982C94.6555 44.1982 94.7412 44.1679 95.1162 43.8037C95.5341 43.4091 95.5984 43.1967 95.5341 42.4784C95.5127 42.276 94.5376 39.6052 94.0448 38.4013C93.9805 38.2394 93.959 38.1382 94.0126 38.1585C94.0555 38.1888 95.0305 38.7452 96.177 39.3927C97.3235 40.0402 98.395 40.6776 98.545 40.8192L98.8236 41.0721L100.366 40.9507C102.788 40.7686 104.513 40.9103 106.035 41.4161C106.292 41.497 106.517 41.5577 106.538 41.5375C106.56 41.5173 106.56 38.8363 106.549 35.5685L106.517 29.64L105.767 29.9436Z" fill="#2A0606"/>
<path d="M71.5327 31.8961C71.4256 32.4019 71.4256 32.5942 71.5756 33.1607C71.7791 33.9296 72.0684 34.314 73.0435 35.0728C75.2186 36.7724 75.3258 36.9141 75.4865 38.5024C75.7329 40.7686 76.1722 41.3655 79.3974 43.834C82.7083 46.3835 84.6262 47.9718 85.0012 48.5181C85.1941 48.7812 85.462 49.2769 85.5905 49.6107C85.8263 50.1874 85.837 50.3695 85.837 53.0505C85.837 55.7618 85.8477 55.9136 86.0941 56.5712C86.7156 58.2809 88.4514 59.93 90.1551 60.4358C90.3801 60.4965 90.3693 60.4662 90.0265 60.0311C89.2336 59.0599 88.9657 57.1579 89.4264 55.8731C89.6622 55.2357 90.3265 54.2139 90.4979 54.2139C90.5622 54.2139 90.6051 54.3657 90.6051 54.5478C90.6051 55.0334 90.9908 56.3587 91.3444 57.0972C93.0695 60.6786 96.9161 62.5401 101.202 61.8623C103.42 61.5082 105.488 60.6381 106.752 59.5253C107.149 59.1813 107.459 58.8677 107.427 58.8475C107.395 58.8171 107.02 58.8475 106.592 58.898C105.231 59.0801 103.259 58.6856 101.92 57.9572C100.945 57.4311 100.966 57.4007 102.424 57.3906C103.859 57.3805 104.888 57.1984 106.013 56.7735C109.292 55.5392 111.285 52.9493 111.285 49.9143C111.285 48.3057 110.802 46.9601 109.731 45.6348C108.177 43.6823 105.22 42.3772 102.402 42.3772H101.706L102.456 42.7211C103.42 43.1562 104.331 43.9858 104.727 44.7749C104.984 45.2908 105.016 45.4831 105.016 46.3733C105.016 47.2737 104.984 47.4457 104.727 47.901C103.87 49.4489 101.641 50.4909 99.2519 50.4606C98.7698 50.4504 98.2554 50.4201 98.1054 50.3796L97.8483 50.3088L98.1804 50.0862C98.5983 49.803 99.1126 49.0543 99.4019 48.2854C99.7127 47.4862 99.7448 45.7461 99.4555 44.8659C99.0591 43.6317 98.2447 42.4682 97.3447 41.8612L97.0554 41.669L97.1625 42.104C97.3875 43.0449 97.0232 44.2083 96.2518 44.9367C95.641 45.5134 94.9874 45.7663 94.0874 45.7562C93.048 45.7562 92.2659 45.392 90.7122 44.1881C85.2048 39.8985 83.8869 38.8869 83.5119 38.6238C82.8904 38.1989 81.9475 37.9662 80.5867 37.8752C78.7116 37.7639 78.5402 37.6324 78.1759 36.0035C77.7687 34.1926 77.4687 34.0004 74.6721 33.6868C73.0864 33.5047 72.1649 32.8774 71.8006 31.7342L71.672 31.2992L71.5327 31.8961Z" fill="#2A0606"/>
<path d="M101.277 45.4426C101.342 46.859 101.256 47.9516 101.042 48.4979C100.945 48.7205 101.181 48.6901 101.909 48.3563C102.638 48.0325 103.056 47.6582 103.292 47.1119C103.817 45.9383 102.981 44.4613 101.556 44.0161L101.202 43.9048L101.277 45.4426Z" fill="#2A0606"/>
</svg>
