<?xml version="1.0" encoding="UTF-8"?>
<!DOCTYPE svg PUBLIC "-//W3C//DTD SVG 1.1//EN" "http://www.w3.org/Graphics/SVG/1.1/DTD/svg11.dtd">
<svg xmlns="http://www.w3.org/2000/svg" version="1.1" width="512px" height="512px" style="shape-rendering:geometricPrecision; text-rendering:geometricPrecision; image-rendering:optimizeQuality; fill-rule:evenodd; clip-rule:evenodd" xmlns:xlink="http://www.w3.org/1999/xlink">
<g><path style="opacity:0.986" fill="#000000" d="M 46.5,72.5 C 185.834,72.3333 325.167,72.5 464.5,73C 485.88,79.5695 495.38,94.0695 493,116.5C 488.942,133.225 478.442,143.058 461.5,146C 324.167,146.667 186.833,146.667 49.5,146C 24.0504,139.624 13.8838,123.457 19,97.5C 24.2457,84.7501 33.4123,76.4168 46.5,72.5 Z"/></g>
<g><path style="opacity:0.987" fill="#000000" d="M 47.5,218.5 C 186.167,218.333 324.834,218.5 463.5,219C 485.635,225.091 495.468,239.591 493,262.5C 489.167,278.333 479.333,288.167 463.5,292C 324.833,292.667 186.167,292.667 47.5,292C 25.3051,285.456 15.4718,270.622 18,247.5C 22.4558,232.21 32.2891,222.543 47.5,218.5 Z"/></g>
<g><path style="opacity:0.986" fill="#000000" d="M 49.5,364.5 C 186.834,364.333 324.167,364.5 461.5,365C 484.886,370.579 495.386,385.412 493,409.5C 489.167,424.667 479.667,434.167 464.5,438C 325.167,438.667 185.833,438.667 46.5,438C 23.088,430.556 13.9213,414.723 19,390.5C 24.1955,375.843 34.3622,367.176 49.5,364.5 Z"/></g>
</svg>
