<?xml version="1.0" standalone="no"?>
<!DOCTYPE svg PUBLIC "-//W3C//DTD SVG 20010904//EN"
 "http://www.w3.org/TR/2001/REC-SVG-20010904/DTD/svg10.dtd">
<svg version="1.0" xmlns="http://www.w3.org/2000/svg"
 width="1500.000000pt" height="1000.000000pt" viewBox="0 0 1500.000000 1000.000000"
 preserveAspectRatio="xMidYMid meet">

<g transform="translate(0.000000,1000.000000) scale(0.100000,-0.100000)"
fill="#000000" stroke="none">
<path d="M6875 8016 c-294 -43 -518 -151 -713 -344 -102 -101 -164 -184 -220
-297 -88 -177 -117 -325 -109 -563 5 -183 24 -266 89 -400 l42 -87 7 115 c5
90 14 139 41 225 19 61 52 165 73 233 21 67 42 119 46 115 4 -5 44 -95 88
-202 96 -230 112 -259 182 -330 44 -43 158 -131 171 -131 2 0 4 49 5 108 1
122 22 259 57 370 13 42 29 118 34 167 18 160 87 292 194 371 228 167 522 102
652 -146 54 -101 69 -181 63 -330 -4 -124 -18 -182 -78 -336 -12 -30 -10 -34
39 -97 75 -94 465 -468 476 -456 2 2 27 40 56 84 106 163 198 382 241 573 84
379 -32 787 -298 1043 -161 156 -340 246 -593 300 -124 26 -415 34 -545 15z"/>
<path d="M786 7523 c18 -158 118 -391 241 -562 87 -121 229 -265 365 -369 59
-46 123 -101 143 -124 41 -48 70 -121 85 -210 14 -86 13 -2887 0 -2983 -13
-87 -46 -161 -94 -207 -20 -19 -129 -90 -243 -158 -115 -68 -248 -147 -298
-177 l-90 -53 1415 3 c1546 3 1468 1 1761 63 335 70 680 237 954 459 l37 31
-12 98 c-13 101 -9 463 5 499 17 42 -16 10 -71 -68 -41 -59 -60 -79 -62 -66
-5 32 48 582 64 655 58 274 196 519 439 774 l69 74 -49 -7 c-41 -6 -463 -90
-555 -111 -28 -6 313 343 415 425 66 53 190 130 330 206 50 26 91 49 93 50 5
4 -52 153 -93 242 -273 585 -814 1033 -1448 1198 -324 84 -352 86 -1452 95
-978 8 -1143 14 -1364 51 -186 31 -368 99 -514 192 -32 21 -62 37 -67 37 -6 0
-8 -22 -4 -57z m2855 -1368 c398 -60 673 -294 793 -675 94 -296 92 -716 -5
-1004 -106 -316 -325 -531 -632 -620 -134 -39 -219 -46 -553 -46 l-314 0 0
1180 0 1180 308 0 c216 0 335 -4 403 -15z"/>
<path d="M8591 7518 c18 -167 100 -362 229 -546 70 -99 235 -269 350 -360 233
-184 259 -240 260 -544 0 -87 3 -158 6 -158 3 0 50 25 104 55 55 30 114 61
132 69 18 7 59 26 91 40 l59 27 -32 -38 c-90 -107 -102 -124 -97 -129 3 -3 24
6 47 21 103 65 301 124 504 151 117 16 346 14 449 -2 l37 -6 0 36 0 36 313 0
c171 0 344 -5 382 -10 358 -51 619 -239 761 -545 151 -326 162 -846 27 -1190
-133 -338 -380 -536 -751 -600 -52 -9 -150 -15 -253 -15 -93 0 -169 -4 -169
-8 0 -5 14 -21 31 -38 87 -82 182 -237 218 -357 71 -234 41 -452 -94 -681
l-29 -49 170 6 c490 19 845 115 1207 327 185 108 326 218 482 374 246 247 396
494 510 841 87 263 120 477 119 780 0 237 -13 358 -61 560 -201 855 -872 1498
-1750 1675 -248 50 -291 52 -1308 60 -537 5 -1022 13 -1100 19 -341 28 -553
88 -769 219 -37 23 -71 42 -75 42 -4 0 -4 -28 0 -62z"/>
<path d="M6817 6850 c-61 -125 -97 -367 -78 -526 18 -145 22 -155 101 -213
121 -90 232 -236 254 -336 7 -29 6 -28 -20 10 -73 109 -158 176 -414 325 -96
56 -204 123 -240 148 -88 62 -200 176 -236 239 -16 29 -32 53 -35 53 -20 0
-26 -178 -8 -262 6 -29 24 -81 40 -116 24 -53 26 -62 11 -58 -93 27 -251 46
-380 46 l-76 0 49 -31 c65 -41 175 -152 210 -212 16 -28 28 -64 29 -87 1 -66
-38 -98 -299 -239 -171 -93 -300 -175 -365 -232 -25 -21 -29 -29 -15 -25 58
15 208 28 265 22 97 -9 157 -33 206 -82 70 -70 78 -134 40 -326 -13 -70 -18
-114 -12 -111 6 4 38 30 71 58 136 115 377 253 541 310 53 18 98 36 100 38 5
5 -210 47 -239 47 -29 0 -15 21 48 72 108 88 257 152 424 184 99 19 318 23
347 6 16 -10 13 -11 -22 -12 -106 0 -322 -58 -434 -116 -101 -52 -101 -50 -14
-69 44 -10 108 -26 143 -37 l64 -20 -67 -40 c-77 -46 -180 -139 -230 -207 -31
-41 -86 -141 -86 -153 0 -3 21 5 48 18 194 92 460 32 545 -125 72 -131 42
-313 -71 -425 l-35 -36 59 0 c33 0 83 6 112 14 38 9 52 10 52 1 0 -23 -58
-102 -114 -152 -56 -51 -57 -53 -29 -53 149 1 405 140 470 256 l22 39 -69 0
c-59 0 -73 3 -92 23 -20 20 -23 32 -22 95 1 40 8 97 16 128 l16 57 -36 -24
c-41 -28 -59 -30 -89 -9 -45 32 -38 135 18 269 16 39 27 71 26 72 -8 8 -188
34 -241 35 -51 0 -57 2 -36 10 134 55 537 90 663 59 94 -24 109 -90 48 -212
l-29 -58 47 0 c81 0 210 -20 267 -41 69 -26 107 -58 134 -113 21 -45 29 -141
15 -187 -7 -20 -4 -19 37 9 167 115 288 361 288 585 l0 90 -31 -46 c-38 -58
-124 -127 -157 -127 -5 0 -12 17 -16 38 -7 49 -37 87 -87 113 l-39 19 6 54 c8
68 -18 198 -55 281 -69 151 -135 228 -528 605 -265 255 -360 410 -389 635 l-6
50 -14 -28 c-29 -55 -54 -179 -54 -269 0 -157 0 -158 184 -331 322 -303 395
-385 471 -530 51 -96 70 -154 29 -87 -72 118 -194 246 -476 499 -344 308 -454
475 -495 751 l-8 55 -28 -55z m768 -1289 c28 -16 73 -52 102 -80 49 -49 113
-145 113 -170 0 -17 -60 -13 -105 8 -59 26 -118 99 -149 182 -38 103 -38 104
39 60z"/>
<path d="M10615 6021 c-55 -20 -111 -44 -125 -52 l-25 -14 40 -2 c55 -4 194
-23 211 -30 11 -4 14 9 14 66 0 39 -3 71 -7 70 -5 0 -53 -17 -108 -38z"/>
<path d="M10034 5920 c-133 -35 -229 -92 -446 -266 -141 -114 -187 -139 -220
-122 -35 17 -15 85 54 186 16 23 25 42 19 42 -19 0 -178 -127 -256 -205 -89
-89 -188 -212 -260 -323 -51 -80 -128 -236 -143 -292 -9 -34 -5 -31 77 50 227
226 535 401 851 482 94 24 140 31 255 34 l140 3 -105 -18 c-197 -35 -319 -75
-496 -164 -231 -116 -406 -248 -640 -481 -146 -147 -335 -362 -323 -369 2 -1
33 -17 69 -35 36 -18 128 -84 205 -147 l139 -114 86 167 c126 244 250 437 397
620 137 168 249 249 423 304 64 19 96 23 215 23 155 0 200 -10 311 -70 l60
-32 24 19 c67 54 243 119 431 159 80 17 140 22 259 23 85 1 171 -2 190 -6 l35
-7 -60 54 c-261 239 -615 380 -904 361 -113 -8 -146 -15 -324 -67 -130 -39
-139 -40 -162 -25 -61 40 -9 108 171 223 26 16 11 15 -72 -7z"/>
<path d="M5624 5107 c-258 -230 -423 -491 -485 -767 -27 -123 -26 -133 14 -87
71 83 137 109 158 63 11 -24 11 -28 -46 -231 -63 -223 -90 -524 -66 -735 32
-285 130 -537 287 -745 69 -91 157 -186 149 -160 -40 122 -46 222 -17 248 36
33 58 21 134 -70 149 -179 258 -274 413 -358 362 -198 760 -242 1185 -131 326
85 627 284 872 576 138 165 348 500 335 534 -6 16 -200 184 -396 343 l-124
101 -55 -81 c-195 -292 -472 -518 -716 -584 -81 -21 -241 -21 -325 1 -262 70
-459 296 -518 596 -19 98 -19 294 1 395 48 243 180 499 362 703 31 35 54 66
51 69 -3 3 -35 8 -70 10 -102 9 -151 -12 -331 -137 -88 -60 -163 -110 -167
-110 -4 0 -5 8 -3 18 2 9 20 100 38 202 19 102 37 193 41 202 14 34 -223 -110
-335 -203 -30 -25 -125 -123 -210 -217 -85 -94 -156 -170 -157 -168 -9 9 33
464 53 569 43 226 33 248 -72 154z"/>
<path d="M10655 5139 c-41 -17 -100 -53 -139 -85 l-67 -57 -42 32 c-190 143
-394 160 -614 51 -99 -49 -174 -119 -286 -268 l-77 -103 2 -467 3 -466 40 -23
c28 -16 57 -23 94 -23 49 0 57 3 92 39 39 39 45 60 39 131 -2 20 -93 284 -139
403 -6 16 -8 26 -3 24 4 -3 95 -58 202 -122 107 -64 207 -127 221 -141 l26
-25 144 12 c226 18 387 4 529 -46 24 -8 45 -14 47 -12 2 2 2 267 1 590 l-3
586 -70 -30z"/>
<path d="M7460 4946 c-10 -50 -10 -69 4 -125 19 -76 46 -114 137 -189 203
-168 213 -182 228 -339 23 -224 64 -283 365 -527 309 -252 488 -409 523 -463
18 -26 43 -75 55 -108 22 -57 23 -75 23 -340 0 -268 1 -283 24 -348 58 -169
220 -332 379 -382 21 -6 20 -3 -12 40 -74 96 -99 284 -56 411 22 63 84 164
100 164 6 0 10 -15 10 -33 0 -48 36 -179 69 -252 161 -354 520 -538 920 -471
207 35 400 121 518 231 37 34 66 65 63 67 -3 3 -38 0 -78 -5 -127 -18 -311 21
-436 93 -91 52 -89 55 47 56 134 1 230 19 335 61 306 122 492 378 492 678 0
159 -45 292 -145 423 -145 193 -421 322 -684 322 l-65 0 70 -34 c90 -43 175
-125 212 -203 24 -51 27 -70 27 -158 0 -89 -3 -106 -27 -151 -80 -153 -288
-256 -511 -253 -45 1 -93 4 -107 8 l-24 7 31 22 c39 28 87 102 114 178 29 79
32 251 5 338 -37 122 -113 237 -197 297 l-27 19 10 -43 c21 -93 -13 -208 -85
-280 -57 -57 -118 -82 -202 -81 -97 0 -170 36 -315 155 -514 424 -637 524
-672 550 -58 42 -146 65 -273 74 -175 11 -191 24 -225 185 -38 179 -66 198
-327 229 -148 18 -234 80 -268 193 l-12 43 -13 -59z"/>
<path d="M10236 3607 c6 -140 -2 -248 -22 -302 -9 -22 13 -19 81 14 68 32 107
69 129 123 49 116 -29 262 -162 306 l-33 11 7 -152z"/>
</g>
</svg>
