<svg width="69" height="68" viewBox="0 0 69 68" fill="none" xmlns="http://www.w3.org/2000/svg">
<path d="M30.6462 0.175021C27.0824 0.587446 24.3273 1.27482 21.2021 2.52584C11.9636 6.25141 5.41163 13.0702 1.84781 22.7209C1.31324 24.1507 0.710133 26.5565 0.326338 28.7698C-0.0848715 31.1894 -0.112285 36.5784 0.27151 39.0117C1.50514 46.9028 5.26085 53.8865 11.0178 59.0418C18.8719 66.0393 28.7683 69.05 39.3775 67.6752C48.4926 66.4792 56.5661 61.7913 62.1311 54.4501C71.2873 42.4073 71.2873 25.8553 62.1448 13.5513C57.2925 7.02128 49.9045 2.34713 41.8859 0.738668C38.3769 0.0375459 33.8399 -0.196162 30.6462 0.175021ZM41.2417 8.49226C46.3269 9.56456 50.4116 11.9154 54.3592 16.0121C56.2645 17.978 57.4844 19.6827 58.6632 21.9648C59.6227 23.862 60.1984 25.3467 60.733 27.3263C61.4183 29.9384 61.5417 30.9007 61.5417 34.2001C61.5417 36.8946 61.5006 37.4995 61.2264 38.8742C59.8694 45.583 56.0726 51.5357 51.0696 54.7526C49.7126 55.6324 48.3419 56.361 48.1774 56.3061C48.0951 56.2786 48.3693 55.9761 48.8079 55.6462C49.9182 54.7801 52.2895 52.2505 53.5505 50.5596C54.1536 49.776 54.6334 49.0611 54.6334 48.9924C54.6334 48.9236 54.3729 49.1024 54.0577 49.3773C51.2615 51.7556 49.0683 52.9929 45.8198 54.024C44.5862 54.4089 44.2298 54.4639 42.7768 54.4639C40.8853 54.4776 40.3781 54.3814 40.3781 54.0102C40.3781 53.7078 40.5426 53.639 43.4622 52.6767C46.7244 51.6044 49.9593 49.886 51.9331 48.1813C52.6459 47.5764 53.948 45.9404 53.948 45.6792C53.948 45.6242 53.4683 46.0367 52.8652 46.5866C51.1244 48.2363 49.5344 49.0474 47.5469 49.3223C46.3407 49.4873 45.7924 49.4186 45.6005 49.0749C45.4086 48.7174 45.1344 49.0336 45.2167 49.5423C45.3263 50.1884 45.107 50.2984 43.846 50.2572L42.7768 50.2159L42.7357 49.6248C42.7083 49.2948 42.7631 48.9374 42.8591 48.8274C42.9413 48.7174 42.9824 48.5937 42.9413 48.5387C42.7768 48.3737 42.16 48.9236 41.6117 49.7485C40.8853 50.8071 40.6386 50.917 39.5283 50.6971C38.4454 50.4909 37.6916 50.1059 37.5545 49.7073C37.4859 49.4598 37.5682 49.3086 37.9657 48.9649C38.4591 48.5387 38.4591 48.525 38.1439 48.4425C37.6916 48.3325 37.0747 48.525 35.7863 49.1848C34.0866 50.0372 32.5103 50.2022 32.0991 49.556C31.962 49.3361 32.1676 48.58 32.7707 47.0952C32.9215 46.724 32.5926 46.779 30.9614 47.3977C29.1795 48.0713 28.6998 48.1675 28.1789 47.9476C27.658 47.7276 27.2194 47.0265 27.2194 46.4216C27.2194 46.1604 27.3565 45.5005 27.521 44.9506C27.7677 44.0845 27.7814 43.9196 27.6169 43.8096C27.3565 43.6446 26.5752 43.6584 25.4512 43.8508C24.6151 43.9883 24.4643 43.9883 24.1491 43.7683C23.2307 43.1772 23.4226 42.1049 24.6288 40.8814C25.0674 40.4277 25.4375 39.9603 25.4375 39.8228C25.4375 39.4104 24.6151 38.7642 23.5185 38.3243C22.2027 37.7882 22.0108 37.5957 22.0108 36.7571C22.0108 35.0937 23.8749 33.4715 25.2867 33.9114C25.5472 33.9939 25.7939 34.0351 25.8076 34.0076C25.9721 33.8426 25.5746 33.0728 24.9578 32.3442C24.5603 31.8905 24.1628 31.3681 24.0668 31.1894C23.8475 30.7632 23.9983 30.0483 24.4095 29.6634C24.9029 29.196 25.9036 29.3197 26.8493 29.9796C27.2331 30.2545 27.5895 30.447 27.6443 30.4195C27.6855 30.3783 27.7677 29.9246 27.7951 29.4022C27.9185 27.8212 28.2886 27.505 29.5496 27.945C30.2898 28.2062 30.6462 28.2062 30.6462 27.945C30.6462 27.6563 29.6593 26.6115 28.8231 25.9928C28.4393 25.7179 28.22 25.4567 28.3023 25.4292C28.6038 25.3329 30.1116 25.6766 31.5919 26.1715C32.3595 26.4465 33.0312 26.6252 33.0723 26.5977C33.0997 26.5565 32.757 25.7729 32.2773 24.8518C31.5508 23.4083 30.4406 21.7586 29.0699 20.0677C28.22 19.0228 29.4674 19.9852 31.4412 21.8823C34.4019 24.7418 35.8822 27.835 34.1414 27.56C33.8673 27.5188 33.0175 27.2301 32.2499 26.9277C31.4823 26.6252 30.6736 26.3365 30.4406 26.2953C30.0431 26.199 30.0431 26.2128 30.7284 26.9277C32.0854 28.3849 32.5789 29.1547 32.9078 30.4333C33.1271 31.2994 33.0175 31.7255 32.5514 31.7255C32.4007 31.7255 31.7701 31.4231 31.1533 31.0656C29.8786 30.3233 28.7409 29.7459 28.6587 29.8146C28.6312 29.8421 29.111 30.2683 29.7141 30.7632C31.4686 32.1792 33.5383 34.7087 33.8536 35.7948C33.9358 36.0697 33.8673 36.0972 32.8804 36.2485C31.729 36.4272 30.6736 36.8533 30.0294 37.4307L29.6181 37.7882L30.4406 37.6782C31.7153 37.5132 32.5651 37.5957 33.6754 37.9944C35.3065 38.5855 36.5402 39.6028 37.1022 40.8539C37.5271 41.8024 37.3763 42.2699 36.5676 42.5173C36.1015 42.6548 36.4031 42.9435 37.6916 43.5759C38.5825 44.002 38.9389 44.0983 39.5968 44.0983C40.3781 44.0983 40.4055 44.0845 40.3096 43.7958C40.2411 43.6171 40.1999 43.2459 40.1999 42.9572C40.2136 42.6135 40.1588 42.4486 40.0629 42.4898C39.1445 42.8335 38.8704 42.641 38.6922 41.5412C38.6236 41.0876 38.5551 40.359 38.5414 39.8915C38.514 39.3829 38.418 38.9292 38.281 38.723C37.9931 38.3106 37.9794 37.6919 38.2672 37.582C38.6099 37.4445 38.9663 37.7332 39.2816 38.4068C39.542 38.9292 39.5694 39.1629 39.5009 39.8091L39.4049 40.5789L39.6928 40.3177C39.9395 40.0978 40.008 40.084 40.104 40.249C40.1862 40.359 40.2411 40.6339 40.2411 40.8539C40.2411 41.1976 40.2822 41.225 40.5837 41.1563C40.9264 41.0738 40.9264 41.0876 40.9264 41.8849C40.9264 42.3386 40.9812 42.861 41.0635 43.0535C41.1868 43.3972 41.2005 43.3972 42.7768 43.3697C44.1475 43.3422 44.3668 43.3147 44.4354 43.1085C44.4765 42.971 44.7781 42.5311 45.1207 42.1461C45.5594 41.6375 45.8061 41.1563 45.998 40.5239C46.5051 38.7505 46.4914 38.5855 45.8746 39.2317C45.5731 39.5479 45.5182 39.5616 45.3263 39.3691C45.1756 39.2042 45.107 38.7642 45.0796 37.5407C45.0248 36.0422 45.0522 35.8773 45.34 35.3686C45.5182 35.0662 45.9706 34.6125 46.3407 34.365L47.026 33.8976L47.122 32.8666C47.2727 31.3269 47.5606 30.4883 48.6983 28.2887L49.74 26.2953L48.5886 27.4226C47.7525 28.2474 47.3413 28.5636 47.0808 28.5636C46.2721 28.5636 46.231 28.0824 46.8341 25.6766C47.355 23.6283 47.4235 21.7586 47.0397 20.3289C46.4229 18.033 45.2989 15.8884 43.8049 14.17C43.284 13.5651 42.8454 13.0152 42.8454 12.9739C42.8454 12.919 43.0784 13.0702 43.3662 13.3039C43.6541 13.5238 44.7781 14.1837 45.8746 14.7611C48.3967 16.0946 49.6714 16.947 51.5493 18.5692C56.0315 22.446 59.1567 28.1237 59.9791 33.8839C60.075 34.5163 60.1847 35.0249 60.2258 35.0249C60.3903 35.0249 60.0888 30.9007 59.842 29.6497C59.1293 26.1853 57.5667 22.6384 55.5106 19.8064C52.0839 15.1323 46.9712 11.7367 41.0498 10.2244C37.8423 9.39959 36.6909 9.27586 32.62 9.33085C30.6462 9.35835 29.0973 9.3446 29.2069 9.28961C29.5085 9.11089 32.7022 8.36853 33.7302 8.23105C35.334 8.01109 39.6791 8.16232 41.2417 8.49226ZM37.9931 11.9979C39.5831 12.2728 41.228 12.7127 42.1189 13.1114C42.7768 13.4001 42.8591 13.4963 43.3114 14.4312C44.2709 16.4521 44.6821 19.0503 44.3668 21.0987C44.2161 22.0885 43.7637 23.3396 43.5581 23.3396C43.5033 23.3396 43.2155 22.7347 42.9276 21.9923C41.9818 19.559 40.5563 17.3594 38.7744 15.6135C37.952 14.7886 36.1701 13.4414 35.9096 13.4414C35.8548 13.4414 36.1564 13.7988 36.5676 14.2387C36.9925 14.6786 37.5682 15.4073 37.8423 15.8472C38.3495 16.6308 39.076 18.2392 38.9663 18.3355C38.9389 18.363 38.4591 17.9505 37.8972 17.4144C36.1701 15.7784 34.6623 14.7199 32.7707 13.785C31.7976 13.3039 30.605 12.7815 30.139 12.6165C29.6593 12.4378 29.2755 12.2591 29.2755 12.2041C29.2755 11.7917 35.9371 11.6404 37.9931 11.9979ZM24.341 12.2178C26.5204 12.5615 29.8512 14.0875 31.8113 15.6135C33.4972 16.9195 36.3209 19.8889 36.1015 20.1226C36.0604 20.1639 35.5944 19.9164 35.0872 19.5865C30.6188 16.6995 24.2313 15.5997 19.2694 16.8645L18.2551 17.1119L18.584 16.837C19.3516 16.2046 21.9697 15.1186 24.245 14.4724C24.6699 14.3624 25.0263 14.1975 25.0263 14.115C25.0263 13.895 23.6419 13.3176 22.6002 13.0977C22.093 12.9877 21.1609 12.8915 20.5441 12.8915C19.9273 12.8915 19.3927 12.8365 19.3379 12.754C19.2694 12.644 19.9958 12.3828 20.9827 12.1628C21.5173 12.0391 23.4637 12.0666 24.341 12.2178ZM24.2587 18.3217C25.3416 18.5554 27.1098 19.3253 27.0412 19.5452C27.0138 19.6415 26.2462 19.7377 25.0126 19.7927C19.7902 20.0264 14.9106 21.9511 11.5935 25.0855C10.538 26.0753 10.1268 26.584 10.2639 26.7214C10.305 26.7627 11.2782 26.2953 12.4296 25.6904C15.5 24.0957 17.6108 23.477 19.9273 23.477H20.7086L19.2008 24.2744C14.5542 26.7077 11.9224 29.5947 10.4421 33.8839C9.98976 35.2036 9.6745 37.1145 9.6745 38.5443C9.6745 39.1904 9.86639 39.1354 10.072 38.4206C10.4284 37.1833 12.1143 34.0076 13.019 32.8941C14.0881 31.5606 15.1162 30.5432 15.2532 30.667C15.3081 30.722 15.1984 31.2444 15.0202 31.8355C13.9785 35.2861 13.5947 37.9669 13.6906 41.28C13.7592 43.9196 13.9785 45.4868 14.5542 47.3977C15.171 49.4323 16.5828 51.9069 18.0495 53.5291C18.817 54.3814 18.8993 54.5464 18.3236 54.1477C16.8158 53.0616 14.6912 49.8035 13.581 46.8753C13.3754 46.3254 13.1835 45.8992 13.1561 45.9267C13.019 46.0504 13.4302 48.9374 13.7455 50.1472C13.9374 50.862 14.1156 51.6044 14.1567 51.7969L14.2252 52.1406L13.9511 51.8106C13.4165 51.137 12.1418 48.525 11.6757 47.1227C10.963 44.9644 10.867 44.167 10.9355 40.9913C10.9767 39.4516 10.9492 38.2281 10.8944 38.2693C10.7299 38.3656 10.1405 40.304 9.94863 41.3488C9.86639 41.8437 9.75674 42.3936 9.72932 42.5723C9.4826 43.7408 8.96173 40.6339 8.94803 38.0494C8.94803 34.2688 9.86639 31.2444 12.0595 27.9725C13.2246 26.2265 13.1835 26.2953 12.9505 26.4327C12.5941 26.6527 10.5792 28.1924 9.23587 29.2785C7.65957 30.5432 7.56362 30.4608 8.42716 28.6186C9.07139 27.2576 10.3324 25.3742 11.3879 24.1919C12.3199 23.1746 14.4993 21.4974 15.9523 20.7C17.227 19.9852 17.0077 19.8752 15.3492 20.3838C14.705 20.5763 14.143 20.7275 14.1156 20.6863C14.0059 20.5901 14.9791 19.7652 15.7741 19.284C16.7336 18.7066 18.0495 18.2805 19.3653 18.1155C20.5715 17.9643 23.0525 18.0605 24.2587 18.3217ZM40.5563 30.8869C41.2142 31.7393 41.8859 32.9491 41.8859 33.279C41.8859 33.4715 41.8174 33.5127 41.5843 33.4302C41.0498 33.2652 40.2822 32.6879 40.1314 32.3442C39.9258 31.8905 39.7613 30.2133 39.9258 30.2133C39.9943 30.2133 40.2822 30.5157 40.5563 30.8869ZM18.118 49.3498C20.5715 53.2953 23.0251 55.7149 26.5067 57.5983C27.2057 57.9832 27.754 58.3269 27.7129 58.3682C27.5895 58.4782 25.9995 57.8595 24.7248 57.1859C24.0668 56.8422 23.0114 56.1823 22.3946 55.7012C21.764 55.2337 21.2295 54.9038 21.2158 54.9725C21.1884 55.0413 21.394 55.4949 21.6681 55.9899C21.9422 56.4848 22.1478 56.9659 22.1204 57.0347C22.0519 57.2546 19.2008 54.2439 18.6251 53.3503C18.0357 52.4293 17.5149 51.2745 17.2682 50.3534C17.0488 49.5698 17.0077 48.085 17.1996 48.085C17.2682 48.085 17.6794 48.6624 18.118 49.3498ZM27.7677 55.7424C32.1951 57.9283 37.4311 58.3957 42.489 57.0347C43.284 56.8147 43.9145 56.691 43.8734 56.746C43.7637 56.9384 41.4199 57.8183 40.2685 58.1207C38.9115 58.4644 36.0056 58.7119 34.6212 58.6019C32.4692 58.4232 31.3041 58.1757 29.7963 57.5158C29.0973 57.2134 29.1384 57.3234 29.9334 57.8595C30.7421 58.4232 30.701 58.3819 30.605 58.4782C30.4817 58.6019 28.4119 57.4746 27.7677 56.9247C26.959 56.2373 26.0406 54.9038 26.5067 55.1238C26.5615 55.1513 27.1235 55.4262 27.7677 55.7424Z" fill="#781414"/>
</svg>
