<svg width="260" height="88" viewBox="0 0 260 88" fill="none" xmlns="http://www.w3.org/2000/svg">
<path fill-rule="evenodd" clip-rule="evenodd" d="M65.4902 17.4971H248.449L249.821 20.0361C251.103 21.9431 252.563 23.7191 254.177 25.3411L258.49 28.9181V60.2211L254.177 63.7981C252.563 65.4201 251.103 67.1971 249.821 69.1041L249.068 70.4971H67.1612L67.7792 70.0081C74.5432 63.5211 78.7272 54.5581 78.7272 44.6581C78.7272 34.7581 74.5432 25.7961 67.7792 19.3081L65.4902 17.4971Z" stroke="#FF0000" stroke-width="3.00493" stroke-miterlimit="8"/>
<path fill-rule="evenodd" clip-rule="evenodd" d="M4.99902 43.9971C4.99902 24.6671 21.117 8.99707 41 8.99707C60.882 8.99707 77 24.6671 77 43.9971C77 63.3271 60.882 78.9971 41 78.9971C21.117 78.9971 4.99902 63.3271 4.99902 43.9971Z" stroke="#FF0000" stroke-width="4.00651" stroke-miterlimit="8"/>
<path d="M225.984 16.999C238.067 21.529 250.151 26.059 257.984 33.999" stroke="#FF0000" stroke-width="2.00325" stroke-miterlimit="8"/>
<path d="M226.064 69.0618C238.147 64.5317 250.231 60.0016 258.064 52.0616" stroke="#FF0000" stroke-width="2.00325" stroke-miterlimit="8"/>
<path fill-rule="evenodd" clip-rule="evenodd" d="M40.998 0H41.48L41.691 1.211C46.412 14.191 57.4661 23.299 70.3491 23.299C75.1801 23.299 79.754 22.018 83.833 19.733L87.2471 17.257H88.998L85.6441 20.209C81.0851 23.257 75.799 25 70.162 25C57.279 25 46.2251 15.892 41.5041 2.91199L40.998 0Z" fill="#FF0000"/>
<path fill-rule="evenodd" clip-rule="evenodd" d="M41.0586 87.0618H41.5407L41.7511 85.8991C46.4726 73.4381 57.5263 64.6946 70.4095 64.6946C75.2406 64.6946 79.8146 65.9241 83.8938 68.1182L87.3073 70.4949H89.0587L85.7043 67.6615C81.1453 64.7352 75.8591 63.0616 70.2227 63.0616C57.3395 63.0616 46.2859 71.805 41.5643 84.266L41.0586 87.0618Z" fill="#FF0000"/>
<path fill-rule="evenodd" clip-rule="evenodd" d="M0.0571289 35.0632H0.609612L0.850584 33.9006C6.26064 21.4396 18.9263 12.6962 33.6882 12.6962C39.224 12.6962 44.465 13.9257 49.139 16.1198L53.0503 18.4965H55.0572L51.2135 15.663C45.9898 12.7366 39.9327 11.0632 33.4742 11.0632C18.7123 11.0632 6.04661 19.8066 0.636549 32.2676L0.0571289 35.0632Z" fill="#FF0000"/>
<path fill-rule="evenodd" clip-rule="evenodd" d="M0 50.9961H0.572998L0.821991 52.1591C6.42899 64.6201 19.555 73.3631 34.854 73.3631C40.591 73.3631 46.024 72.1341 50.867 69.9391L54.92 67.5631H57L53.018 70.3961C47.603 73.3231 41.326 74.9961 34.632 74.9961C19.334 74.9961 6.20698 66.2531 0.600983 53.7921L0 50.9961Z" fill="#FF0000"/>
</svg>
