<svg width="68" height="66" viewBox="0 0 68 66" fill="none" xmlns="http://www.w3.org/2000/svg">
<path fill-rule="evenodd" clip-rule="evenodd" d="M10.625 24H57.219L67 33.804V55.43L57.452 65H10.839L1 55.138V33.648L10.625 24Z" stroke="#FF0000" stroke-width="1.33333" stroke-miterlimit="8"/>
<path d="M14.7632 24L1.00048 38.3321" stroke="#FF0000" stroke-width="1.33333" stroke-miterlimit="8"/>
<path d="M53 24L66.763 38.332" stroke="#FF0000" stroke-width="1.33333" stroke-miterlimit="8"/>
<path d="M14.763 64.332L1 50" stroke="#FF0000" stroke-width="1.33333" stroke-miterlimit="8"/>
<path d="M53 64.332L66.7627 49.9999" stroke="#FF0000" stroke-width="1.33333" stroke-miterlimit="8"/>
<path fill-rule="evenodd" clip-rule="evenodd" d="M47 13.27V24H21V13.113L22.283 13.633C23.667 13.633 24.789 12.536 24.789 11.183C24.789 10.506 24.509 9.894 24.055 9.45L23.236 9.118L31.312 1H36.712L44.893 9.22301L43.714 9.701C43.26 10.144 42.98 10.757 42.98 11.433C42.98 12.786 44.102 13.883 45.486 13.883L47 13.27Z" fill="#FF0000" stroke="#FF0000" stroke-width="1.33333" stroke-miterlimit="8"/>
<path d="M27.6277 19.5V10.7727H31.0708C31.7328 10.7727 32.2967 10.8991 32.7626 11.152C33.2285 11.402 33.5836 11.75 33.8279 12.196C34.0751 12.6392 34.1987 13.1506 34.1987 13.7301C34.1987 14.3097 34.0737 14.821 33.8237 15.2642C33.5737 15.7074 33.2115 16.0526 32.737 16.2997C32.2654 16.5469 31.6944 16.6705 31.024 16.6705H28.8294V15.1918H30.7257C31.0808 15.1918 31.3734 15.1307 31.6035 15.0085C31.8365 14.8835 32.0098 14.7116 32.1234 14.4929C32.2399 14.2713 32.2981 14.017 32.2981 13.7301C32.2981 13.4403 32.2399 13.1875 32.1234 12.9716C32.0098 12.7528 31.8365 12.5838 31.6035 12.4645C31.3706 12.3423 31.0751 12.2813 30.7172 12.2813H29.4728V19.5H27.6277ZM43.0975 13.8281H41.231C41.1969 13.5866 41.1273 13.3722 41.0222 13.1847C40.9171 12.9943 40.7821 12.8324 40.6174 12.6989C40.4526 12.5653 40.2623 12.4631 40.0463 12.392C39.8333 12.321 39.6017 12.2855 39.3517 12.2855C38.9 12.2855 38.5066 12.3977 38.1713 12.6222C37.8361 12.8438 37.5762 13.1676 37.3915 13.5938C37.2069 14.017 37.1145 14.5313 37.1145 15.1364C37.1145 15.7585 37.2069 16.2813 37.3915 16.7045C37.579 17.1278 37.8404 17.4474 38.1756 17.6634C38.5108 17.8793 38.8986 17.9872 39.339 17.9872C39.5861 17.9872 39.8148 17.9545 40.025 17.8892C40.2381 17.8239 40.427 17.7287 40.5918 17.6037C40.7566 17.4759 40.8929 17.321 41.0009 17.1392C41.1117 16.9574 41.1884 16.75 41.231 16.517L43.0975 16.5256C43.0492 16.9261 42.9284 17.3125 42.7353 17.6847C42.5449 18.054 42.2878 18.3849 41.964 18.6776C41.6429 18.9673 41.2594 19.1974 40.8134 19.3679C40.3702 19.5355 39.8688 19.6193 39.3091 19.6193C38.5307 19.6193 37.8347 19.4432 37.2211 19.0909C36.6103 18.7386 36.1273 18.2287 35.7722 17.5611C35.4199 16.8935 35.2438 16.0852 35.2438 15.1364C35.2438 14.1847 35.4228 13.375 35.7807 12.7074C36.1387 12.0398 36.6245 11.5313 37.2381 11.1818C37.8517 10.8295 38.5421 10.6534 39.3091 10.6534C39.8148 10.6534 40.2836 10.7244 40.7154 10.8665C41.15 11.0085 41.535 11.2159 41.8702 11.4886C42.2054 11.7585 42.4782 12.0895 42.6884 12.4815C42.9015 12.8736 43.0378 13.3224 43.0975 13.8281Z" fill="white"/>
</svg>
