<?xml version="1.0" encoding="UTF-8" standalone="no"?>
<!-- Created with Inkscape (http://www.inkscape.org/) -->

<svg
   width="40mm"
   height="40mm"
   viewBox="0 0 40 40"
   version="1.1"
   id="svg1"
   xml:space="preserve"
   inkscape:export-filename="VIDA ESCUDO.svg"
   inkscape:export-xdpi="96"
   inkscape:export-ydpi="96"
   xmlns:inkscape="http://www.inkscape.org/namespaces/inkscape"
   xmlns:sodipodi="http://sodipodi.sourceforge.net/DTD/sodipodi-0.dtd"
   xmlns="http://www.w3.org/2000/svg"
   xmlns:svg="http://www.w3.org/2000/svg"><sodipodi:namedview
     id="namedview1"
     pagecolor="#505050"
     bordercolor="#eeeeee"
     borderopacity="1"
     inkscape:showpageshadow="0"
     inkscape:pageopacity="0"
     inkscape:pagecheckerboard="0"
     inkscape:deskcolor="#505050"
     inkscape:document-units="mm" /><defs
     id="defs1" /><g
     inkscape:label="Camada 1"
     inkscape:groupmode="layer"
     id="layer1"><g
       transform="matrix(0.26458333,0,0,0.26458333,-4.2765892,-120.20231)"
       id="g2"><g
         transform="translate(-652.14008,-182.33183)"
         id="g1"><path
           d="m 744.776,645 40.81,12.33 -0.571,2.955 c 0,9.891 5.764,18.378 13.978,22.003 l 3.007,0.634 v 28.221 l -5.175,17.967 c -2.7,6.208 -6.34,12.445 -10.892,18.412 -9.103,11.932 -20.239,20.663 -31.144,25.333 L 744.5,776 734.211,772.855 c -10.905,-4.67 -22.041,-13.401 -31.144,-25.333 -4.552,-5.967 -8.192,-12.204 -10.892,-18.412 L 687,711.142 v -28.267 l 2.785,-0.587 c 8.215,-3.625 13.979,-12.112 13.979,-22.003 l -0.529,-2.734 z"
           stroke="#ff0000"
           stroke-width="4"
           stroke-miterlimit="8"
           fill="#ffffff"
           fill-rule="evenodd"
           id="path1" /></g></g></g></svg>
