<svg width="68" height="66" viewBox="0 0 68 66" fill="none" xmlns="http://www.w3.org/2000/svg">
<path fill-rule="evenodd" clip-rule="evenodd" d="M10.625 24H57.219L67 33.804V55.43L57.452 65H10.839L1 55.138V33.648L10.625 24Z" stroke="#FF0000" stroke-width="1.33333" stroke-miterlimit="8"/>
<path d="M14.7632 24L1.00048 38.3321" stroke="#FF0000" stroke-width="1.33333" stroke-miterlimit="8"/>
<path d="M53 24L66.763 38.332" stroke="#FF0000" stroke-width="1.33333" stroke-miterlimit="8"/>
<path d="M14.763 64.332L1 50" stroke="#FF0000" stroke-width="1.33333" stroke-miterlimit="8"/>
<path d="M53 64.332L66.7627 49.9999" stroke="#FF0000" stroke-width="1.33333" stroke-miterlimit="8"/>
<path fill-rule="evenodd" clip-rule="evenodd" d="M47 13.27V24H21V13.113L22.283 13.633C23.667 13.633 24.789 12.536 24.789 11.183C24.789 10.506 24.509 9.89401 24.055 9.45001L23.236 9.11801L31.312 1H36.712L44.893 9.22299L43.714 9.70099C43.26 10.144 42.98 10.757 42.98 11.433C42.98 12.786 44.102 13.883 45.486 13.883L47 13.27Z" fill="#FF0000" stroke="#FF0000" stroke-width="1.33333" stroke-miterlimit="8"/>
<path d="M27.6277 19.5V10.7727H31.0708C31.7328 10.7727 32.2967 10.8991 32.7626 11.152C33.2285 11.402 33.5836 11.75 33.8279 12.196C34.0751 12.6392 34.1987 13.1506 34.1987 13.7301C34.1987 14.3097 34.0737 14.821 33.8237 15.2642C33.5737 15.7074 33.2115 16.0526 32.737 16.2997C32.2654 16.5469 31.6944 16.6705 31.024 16.6705H28.8294V15.1918H30.7257C31.0808 15.1918 31.3734 15.1307 31.6035 15.0085C31.8365 14.8835 32.0098 14.7116 32.1234 14.4929C32.2399 14.2713 32.2981 14.017 32.2981 13.7301C32.2981 13.4403 32.2399 13.1875 32.1234 12.9716C32.0098 12.7528 31.8365 12.5838 31.6035 12.4645C31.3706 12.3423 31.0751 12.2813 30.7172 12.2813H29.4728V19.5H27.6277Z" fill="white"/>
<path d="M34.1277 19.5V10.7727H37.5708C38.2328 10.7727 38.7967 10.8991 39.2626 11.152C39.7285 11.402 40.0836 11.75 40.3279 12.196C40.5751 12.6392 40.6987 13.1506 40.6987 13.7301C40.6987 14.3097 40.5737 14.821 40.3237 15.2642C40.0737 15.7074 39.7115 16.0526 39.237 16.2997C38.7654 16.5469 38.1944 16.6705 37.524 16.6705H35.3294V15.1918H37.2257C37.5808 15.1918 37.8734 15.1307 38.1035 15.0085C38.3365 14.8835 38.5098 14.7116 38.6234 14.4929C38.7399 14.2713 38.7981 14.017 38.7981 13.7301C38.7981 13.4403 38.7399 13.1875 38.6234 12.9716C38.5098 12.7528 38.3365 12.5838 38.1035 12.4645C37.8706 12.3423 37.5751 12.2813 37.2172 12.2813H35.9728V19.5H34.1277Z" fill="white"/>
</svg>
