<?xml version="1.0" encoding="UTF-8" standalone="no"?>
<!-- Created with Inkscape (http://www.inkscape.org/) -->

<svg
   width="200mm"
   height="20mm"
   viewBox="0 0 200 20"
   version="1.1"
   id="svg1"
   inkscape:export-filename="1.svg"
   inkscape:export-xdpi="96"
   inkscape:export-ydpi="96"
   xmlns:inkscape="http://www.inkscape.org/namespaces/inkscape"
   xmlns:sodipodi="http://sodipodi.sourceforge.net/DTD/sodipodi-0.dtd"
   xmlns="http://www.w3.org/2000/svg"
   xmlns:svg="http://www.w3.org/2000/svg">
  <sodipodi:namedview
     id="namedview1"
     pagecolor="#505050"
     bordercolor="#eeeeee"
     borderopacity="1"
     inkscape:showpageshadow="0"
     inkscape:pageopacity="0"
     inkscape:pagecheckerboard="0"
     inkscape:deskcolor="#505050"
     inkscape:document-units="mm" />
  <defs
     id="defs1" />
  <g
     inkscape:label="Camada 1"
     inkscape:groupmode="layer"
     id="layer1">
    <g
       transform="matrix(0.26458333,0,0,0.26458333,-22.398343,-37.548987)"
       id="g8">
      <path
         d="M 100.932,159 H 281 v 37.289 L 273.367,204 H 93 v -36.988 z"
         fill="#ff4343"
         fill-rule="evenodd"
         id="path1-4" />
      <path
         d="M 104.221,162.5 H 279.5 v 31.489 l -7.43,6.511 H 96.5001 v -31.234 z"
         stroke="#ffffff"
         stroke-miterlimit="8"
         fill="none"
         fill-rule="evenodd"
         id="path2-6" />
      <path
         d="M 5.80974,0 H 79 V 38.2154 L 73.1904,45 H 0 V 6.78485 Z"
         fill="#ff4343"
         fill-rule="evenodd"
         transform="matrix(1,0,0,-1,290,204)"
         id="path3-0" />
      <path
         d="M 5.51557,0 H 75 V 32.2708 L 69.4846,38 H 0 V 5.72943 Z"
         stroke="#ffffff"
         stroke-miterlimit="8"
         fill="none"
         fill-rule="evenodd"
         transform="matrix(1,0,0,-1,292.5,200.5)"
         id="path4-0" />
      <path
         d="M 383.81,159 H 457 v 38.215 L 451.19,204 H 378 v -38.215 z"
         fill="#ff4343"
         fill-rule="evenodd"
         id="path5-0" />
      <path
         d="M 386.016,162.5 H 455.5 v 33.12 l -5.515,5.88 H 380.5 v -33.12 z"
         stroke="#ffffff"
         stroke-miterlimit="8"
         fill="none"
         fill-rule="evenodd"
         id="path6-5" />
      <path
         d="M 5.80974,0 H 79 V 38.2154 L 73.1904,45 H 0 V 6.78485 Z"
         fill="#ff4343"
         fill-rule="evenodd"
         transform="matrix(1,0,0,-1,466,204)"
         id="path7" />
      <path
         d="M 5.51557,0 H 75 V 32.2708 L 69.4846,38 H 0 V 5.72943 Z"
         stroke="#ffffff"
         stroke-miterlimit="8"
         fill="none"
         fill-rule="evenodd"
         transform="matrix(1,0,0,-1,468.5,200.5)"
         id="path8" />
    </g>
  </g>
</svg>
