<?xml version="1.0" encoding="UTF-8" standalone="no"?>
<!-- Created with Inkscape (http://www.inkscape.org/) -->

<svg
   width="70mm"
   height="30mm"
   viewBox="0 0 70 30"
   version="1.1"
   id="svg1"
   xml:space="preserve"
   inkscape:export-filename="INSPIRAÇÃO CAIXA.svg"
   inkscape:export-xdpi="96"
   inkscape:export-ydpi="96"
   xmlns:inkscape="http://www.inkscape.org/namespaces/inkscape"
   xmlns:sodipodi="http://sodipodi.sourceforge.net/DTD/sodipodi-0.dtd"
   xmlns="http://www.w3.org/2000/svg"
   xmlns:svg="http://www.w3.org/2000/svg"><sodipodi:namedview
     id="namedview1"
     pagecolor="#505050"
     bordercolor="#eeeeee"
     borderopacity="1"
     inkscape:showpageshadow="0"
     inkscape:pageopacity="0"
     inkscape:pagecheckerboard="0"
     inkscape:deskcolor="#505050"
     inkscape:document-units="mm" /><defs
     id="defs1" /><g
     inkscape:label="Camada 1"
     inkscape:groupmode="layer"
     id="layer1"><g
       transform="matrix(0.26458333,0,0,0.26458333,-4.2765892,-120.20231)"
       id="g2"><g
         transform="translate(114.49301,-52.941729)"
         id="g8"><path
           d="M -30.5692,538.434 H 153.338 l 1.378,2.539 c 1.289,1.907 2.757,3.683 4.38,5.305 l 4.335,3.577 v 31.303 l -4.335,3.577 c -1.623,1.622 -3.091,3.399 -4.38,5.306 l -0.756,1.393 H -28.8895 l 0.6212,-0.489 c 6.799,-6.487 11.0047,-15.45 11.0047,-25.35 0,-9.9 -4.2057,-18.862 -11.0047,-25.35 z"
           stroke="#ff0000"
           stroke-width="3.00493"
           stroke-miterlimit="8"
           fill="#ffffff"
           fill-rule="evenodd"
           id="path1" /><path
           d="m -90.0595,565.435 c 0,-19.054 16.118,-34.5 36,-34.5 19.8821,0 36.0001,15.446 36.0001,34.5 0,19.054 -16.118,34.5 -36.0001,34.5 -19.882,0 -36,-15.446 -36,-34.5 z"
           stroke="#ff0000"
           stroke-width="4.00651"
           stroke-miterlimit="8"
           fill="#ffffff"
           fill-rule="evenodd"
           id="path2" /><path
           d="m 129.925,538.936 c 12.083,4.53 24.167,9.06 32,17"
           stroke="#ff0000"
           stroke-width="2.00325"
           stroke-miterlimit="8"
           fill="#ffffff"
           fill-rule="evenodd"
           id="path3" /><path
           d="M 0.00513597,0.00115881 C 12.0885,4.53125 24.1718,9.06134 32.0051,17.0013"
           stroke="#ff0000"
           stroke-width="2.00325"
           stroke-miterlimit="8"
           fill="#ffffff"
           fill-rule="evenodd"
           transform="matrix(1,0,0,-1,130,590)"
           id="path4" /><path
           d="m -55.0613,520.937 h 0.4819 l 0.211,1.211 c 4.721,12.98 15.7751,22.088 28.6581,22.088 4.831,0 9.405,-1.281 13.484,-3.566 l 3.41404,-2.476 h 1.75094 l -3.35398,2.952 c -4.559,3.048 -9.8449,4.791 -15.482,4.791 -12.883,0 -23.9371,-9.108 -28.6581,-22.088 z"
           fill="#ff0000"
           fill-rule="evenodd"
           id="path5" /><path
           d="M -6.28894e-4,0.0011588 H 0.481523 L 0.691888,1.16386 C 5.41341,13.6248 16.4671,22.3683 29.3503,22.3683 c 4.8311,0 9.4051,-1.2295 13.4843,-3.4236 l 3.4135,-2.3767 h 1.7514 l -3.3544,2.8334 c -4.559,2.9263 -9.8452,4.5999 -15.4816,4.5999 -12.8832,0 -23.93687,-8.7434 -28.658394,-21.20437 z"
           fill="#ff0000"
           fill-rule="evenodd"
           transform="matrix(1,0,0,-1,-55,608)"
           id="path6" /><path
           d="M -0.0019915,-2.10692e-4 H 0.550492 L 0.791463,1.16239 C 6.20152,13.6234 18.8672,22.3668 33.6291,22.3668 c 5.5358,0 10.7768,-1.2295 15.4508,-3.4236 l 3.9113,-2.3767 h 2.0069 L 51.1544,19.4 c -5.2237,2.9264 -11.2808,4.5998 -17.7393,4.5998 -14.7619,0 -27.42761,-8.7434 -32.837671,-21.20434 z"
           fill="#ff0000"
           fill-rule="evenodd"
           transform="matrix(1,0,0,-1,-96,556)"
           id="path7" /><path
           d="m -96.0586,571.933 h 0.573 l 0.2491,1.163 c 5.607,12.461 18.7329,21.204 34.032,21.204 5.7369,0 11.169,-1.229 16.0129,-3.424 l 4.0531,-2.376 h 2.0799 l -3.9829,2.833 c -5.414,2.927 -11.6911,4.6 -18.385,4.6 -15.298,0 -28.4251,-8.743 -34.0311,-21.204 z"
           fill="#ff0000"
           fill-rule="evenodd"
           id="path8" /></g></g></g></svg>
