<svg width="119" height="137" viewBox="0 0 119 137" fill="none" xmlns="http://www.w3.org/2000/svg">
<path fill-rule="evenodd" clip-rule="evenodd" d="M59.776 3L100.586 15.33L100.015 18.285C100.015 28.176 105.779 36.663 113.993 40.288L117 40.922V69.143L111.825 87.11C109.125 93.318 105.485 99.555 100.933 105.522C91.83 117.454 80.694 126.185 69.789 130.855L59.5 134L49.211 130.855C38.306 126.185 27.17 117.454 18.067 105.522C13.515 99.555 9.87499 93.318 7.17499 87.11L2 69.142V40.875L4.78497 40.288C13 36.663 18.764 28.176 18.764 18.285L18.235 15.551L59.776 3Z" fill="white" stroke="#890004" stroke-width="4" stroke-miterlimit="8"/>
</svg>
