<?xml version="1.0" encoding="UTF-8" standalone="no"?>
<!-- Created with Inkscape (http://www.inkscape.org/) -->

<svg
   width="70mm"
   height="30mm"
   viewBox="0 0 70 30"
   version="1.1"
   id="svg1"
   xml:space="preserve"
   inkscape:export-filename="CAIXA PROFICIENCIA.svg"
   inkscape:export-xdpi="96"
   inkscape:export-ydpi="96"
   xmlns:inkscape="http://www.inkscape.org/namespaces/inkscape"
   xmlns:sodipodi="http://sodipodi.sourceforge.net/DTD/sodipodi-0.dtd"
   xmlns="http://www.w3.org/2000/svg"
   xmlns:svg="http://www.w3.org/2000/svg"><sodipodi:namedview
     id="namedview1"
     pagecolor="#505050"
     bordercolor="#eeeeee"
     borderopacity="1"
     inkscape:showpageshadow="0"
     inkscape:pageopacity="0"
     inkscape:pagecheckerboard="0"
     inkscape:deskcolor="#505050"
     inkscape:document-units="mm" /><defs
     id="defs1" /><g
     inkscape:label="Camada 1"
     inkscape:groupmode="layer"
     id="layer1"><g
       transform="matrix(0.26458333,0,0,0.26458333,-4.2765892,-120.20231)"
       id="g2"><g
         transform="translate(103.2218,36.359917)"
         id="g8"><path
           d="M -49.5001,449.5 H -23.8963 -7.17273 159.439 l 1.373,2.484 c 1.285,1.867 2.748,3.606 4.366,5.193 l 4.322,3.5 v 30.636 l -4.322,3.501 c -1.618,1.587 -3.081,3.326 -4.366,5.192 l -0.754,1.364 H -7.17273 v 0.13 H -49.5001 Z"
           stroke="#ff0000"
           stroke-width="3"
           stroke-miterlimit="8"
           fill="#ffffff"
           fill-rule="evenodd"
           id="path1" /><path
           d="m 137,449 c 12.083,4.53 24.167,9.06 32,17"
           stroke="#ff0000"
           stroke-width="2"
           stroke-miterlimit="8"
           fill="#ffffff"
           fill-rule="evenodd"
           id="path2" /><path
           d="M 0,0 C 12.0834,4.53001 24.1667,9.06013 32,17"
           stroke="#ff0000"
           stroke-width="2"
           stroke-miterlimit="8"
           fill="#ffffff"
           fill-rule="evenodd"
           transform="matrix(1,0,0,-1,137,501)"
           id="path3" /><path
           d="m -70.5001,475.5 c 0,-16.568 10.9691,-30 24.5,-30 13.531,0 24.5,13.432 24.5,30 0,16.569 -10.969,30 -24.5,30 -13.5309,0 -24.5,-13.431 -24.5,-30 z"
           stroke="#ff0000"
           stroke-miterlimit="8"
           fill="#ffffff"
           fill-rule="evenodd"
           id="path4" /><path
           d="m -77.5001,445.5 h 13.4885 l 0.2072,0.539 c 2.8195,3.502 9.4199,5.959 17.1128,5.959 7.6929,0 14.2933,-2.457 17.1128,-5.959 l 0.2073,-0.539 h 13.8714 v 61 h -13.6924 l -0.3863,-1.005 c -2.8195,-3.502 -9.4199,-5.959 -17.1128,-5.959 -7.6929,0 -14.2933,2.457 -17.1128,5.959 l -0.3864,1.005 h -13.3093 z"
           stroke="#ff0000"
           stroke-width="3"
           stroke-miterlimit="8"
           fill="#ffffff"
           fill-rule="evenodd"
           id="path5" /><path
           d="M -16,457 H 155.667"
           stroke="#ff0000"
           stroke-width="2"
           stroke-miterlimit="8"
           fill="#ffffff"
           fill-rule="evenodd"
           id="path6" /><path
           d="M -16,494 H 155.667"
           stroke="#ff0000"
           stroke-width="2"
           stroke-miterlimit="8"
           fill="#ffffff"
           fill-rule="evenodd"
           id="path7" /><path
           d="m -12,456 10e-5,37.795"
           stroke="#ff0000"
           stroke-width="2"
           stroke-miterlimit="8"
           fill="#ffffff"
           fill-rule="evenodd"
           id="path8" /></g></g></g></svg>
