<?xml version="1.0" encoding="UTF-8" standalone="no"?>
<!-- Created with Inkscape (http://www.inkscape.org/) -->

<svg
   width="200mm"
   height="20mm"
   viewBox="0 0 200 20"
   version="1.1"
   id="svg1"
   inkscape:export-filename="EDITAR.svg"
   inkscape:export-xdpi="96"
   inkscape:export-ydpi="96"
   xmlns:inkscape="http://www.inkscape.org/namespaces/inkscape"
   xmlns:sodipodi="http://sodipodi.sourceforge.net/DTD/sodipodi-0.dtd"
   xmlns="http://www.w3.org/2000/svg"
   xmlns:svg="http://www.w3.org/2000/svg">
  <sodipodi:namedview
     id="namedview1"
     pagecolor="#505050"
     bordercolor="#eeeeee"
     borderopacity="1"
     inkscape:showpageshadow="0"
     inkscape:pageopacity="0"
     inkscape:pagecheckerboard="0"
     inkscape:deskcolor="#505050"
     inkscape:document-units="mm" />
  <defs
     id="defs1" />
  <g
     inkscape:label="Camada 1"
     inkscape:groupmode="layer"
     id="layer1">
    <g
       transform="matrix(0.26458333,0,0,0.26458333,-12.084734,-215.88965)"
       id="g6">
      <path
         d="M 10.7162,0 H 254 V 36.4605 L 243.687,44 H 0 V 7.83398 Z"
         fill="#ff4343"
         fill-rule="evenodd"
         transform="matrix(1,0,0,-1,105,878)"
         id="path1" />
      <path
         d="M 10.3786,0 H 246 V 31.4886 L 236.012,38 H 0 V 6.76571 Z"
         stroke="#ffffff"
         stroke-miterlimit="8"
         fill="none"
         fill-rule="evenodd"
         transform="matrix(1,0,0,-1,109.5,875.5)"
         id="path2" />
      <path
         d="M 101,834 H 79.4638 74.5362 63.7678 L 53,841.834 V 878 h 21.5362 4.9276 10.7684 L 101,870.166 Z"
         fill="#ff4343"
         fill-rule="evenodd"
         id="path3" />
      <path
         d="m 98.5001,837.5 h -18.3955 -4.209 -9.1981 l -9.1974,6.766 V 875.5 h 18.3955 4.209 9.198 l 9.1975,-6.766 z"
         stroke="#ffffff"
         stroke-miterlimit="8"
         fill="#ff4343"
         fill-rule="evenodd"
         id="path4" />
      <path
         d="m 410,834 h -21.536 -4.928 -10.768 L 362,841.834 V 878 h 21.536 4.928 10.768 L 410,870.166 Z"
         fill="#ff4343"
         fill-rule="evenodd"
         id="path5" />
      <path
         d="m 407.5,837.5 h -18.395 -4.209 -9.198 l -9.198,6.766 V 875.5 h 18.396 4.209 9.198 l 9.197,-6.766 z"
         stroke="#ffffff"
         stroke-miterlimit="8"
         fill="#ff4343"
         fill-rule="evenodd"
         id="path6" />
    </g>
  </g>
</svg>
