<svg width="218" height="25" viewBox="0 0 218 25" fill="none" xmlns="http://www.w3.org/2000/svg">
<path fill-rule="evenodd" clip-rule="evenodd" d="M4.51121 1H212.95C212.95 2.03224 213.379 2.96636 214.074 3.64196L216.562 4.64528V20.5539L214.074 21.5564L213.127 23.783H4.33507L3.38695 21.5564L1 20.5942V4.60498L3.38695 3.64196C4.08183 2.96636 4.51121 2.03224 4.51121 1Z" fill="white" stroke="#FF0000" stroke-width="2" stroke-miterlimit="8"/>
<path fill-rule="evenodd" clip-rule="evenodd" d="M1.43799 12.8295C1.43799 6.53787 6.53787 1.43799 12.8295 1.43799H205.608C211.9 1.43799 217 6.53787 217 12.8295C217 19.1211 211.9 24.2209 205.608 24.2209H12.8295C6.53787 24.2209 1.43799 19.1211 1.43799 12.8295Z" fill="white" stroke="#FF0000" stroke-miterlimit="8"/>
<path d="M4.94336 4.06689H213.101" stroke="#FF0000" stroke-miterlimit="8"/>
<path d="M4.94336 21.5923H213.101" stroke="#FF0000" stroke-miterlimit="8"/>
</svg>
