<?xml version="1.0" encoding="UTF-8" standalone="no"?>
<!-- Created with Inkscape (http://www.inkscape.org/) -->

<svg
   width="60mm"
   height="40mm"
   viewBox="0 0 60 40"
   version="1.1"
   id="svg1"
   xml:space="preserve"
   inkscape:export-filename="CAIXA DE VIDA STATUS.svg"
   inkscape:export-xdpi="96"
   inkscape:export-ydpi="96"
   xmlns:inkscape="http://www.inkscape.org/namespaces/inkscape"
   xmlns:sodipodi="http://sodipodi.sourceforge.net/DTD/sodipodi-0.dtd"
   xmlns="http://www.w3.org/2000/svg"
   xmlns:svg="http://www.w3.org/2000/svg"><sodipodi:namedview
     id="namedview1"
     pagecolor="#505050"
     bordercolor="#eeeeee"
     borderopacity="1"
     inkscape:showpageshadow="0"
     inkscape:pageopacity="0"
     inkscape:pagecheckerboard="0"
     inkscape:deskcolor="#505050"
     inkscape:document-units="mm" /><defs
     id="defs1" /><g
     inkscape:label="Camada 1"
     inkscape:groupmode="layer"
     id="layer1"><g
       transform="matrix(0.26458333,0,0,0.26458333,-4.2765892,-120.20231)"
       id="g2"><g
         transform="translate(-597.83652,-279.69206)"
         id="g5"><path
           d="m 697.5,810.333 c 0,-0.46 0.373,-0.833 0.833,-0.833 h 62.334 c 0.46,0 0.833,0.373 0.833,0.833 v 3.334 c 0,0.46 -0.373,0.833 -0.833,0.833 h -62.334 c -0.46,0 -0.833,-0.373 -0.833,-0.833 z"
           stroke="#ff0000"
           stroke-width="0.666667"
           stroke-miterlimit="8"
           fill="#ff0000"
           fill-rule="evenodd"
           id="path1" /><path
           d="m 706,812 h 45.363"
           stroke="#ffffff"
           stroke-width="2"
           stroke-miterlimit="8"
           fill="none"
           fill-rule="evenodd"
           id="path2" /><path
           d="m 689.5,810.5 c 0,-5.523 4.477,-10 10,-10 5.523,0 10,4.477 10,10 0,5.523 -4.477,10 -10,10 -5.523,0 -10,-4.477 -10,-10 z"
           stroke="#ff0000"
           stroke-width="0.666667"
           stroke-miterlimit="8"
           fill="#ffffff"
           fill-rule="evenodd"
           id="path3" /><path
           d="m 717.5,810.5 c 0,-5.523 4.477,-10 10,-10 5.523,0 10,4.477 10,10 0,5.523 -4.477,10 -10,10 -5.523,0 -10,-4.477 -10,-10 z"
           stroke="#ff0000"
           stroke-width="0.666667"
           stroke-miterlimit="8"
           fill="#ffffff"
           fill-rule="evenodd"
           id="path4" /><path
           d="m 746.5,810.5 c 0,-5.523 4.477,-10 10,-10 5.523,0 10,4.477 10,10 0,5.523 -4.477,10 -10,10 -5.523,0 -10,-4.477 -10,-10 z"
           stroke="#ff0000"
           stroke-width="0.666667"
           stroke-miterlimit="8"
           fill="#ffffff"
           fill-rule="evenodd"
           id="path5" /></g></g></g></svg>
