<svg width="79" height="22" viewBox="0 0 79 22" fill="none" xmlns="http://www.w3.org/2000/svg">
<path fill-rule="evenodd" clip-rule="evenodd" d="M9 10.833C9 10.373 9.37301 10 9.83301 10H72.167C72.627 10 73 10.373 73 10.833V14.167C73 14.627 72.627 15 72.167 15H9.83301C9.37301 15 9 14.627 9 14.167V10.833Z" fill="#FF0000" stroke="#FF0000" stroke-width="0.666667" stroke-miterlimit="8"/>
<path d="M17.5 12.5H62.863" stroke="white" stroke-width="2" stroke-miterlimit="8"/>
<path fill-rule="evenodd" clip-rule="evenodd" d="M1 11C1 5.477 5.477 1 11 1C16.523 1 21 5.477 21 11C21 16.523 16.523 21 11 21C5.477 21 1 16.523 1 11Z" fill="white" stroke="#FF0000" stroke-width="0.666667" stroke-miterlimit="8"/>
<path fill-rule="evenodd" clip-rule="evenodd" d="M29 11C29 5.477 33.477 1 39 1C44.523 1 49 5.477 49 11C49 16.523 44.523 21 39 21C33.477 21 29 16.523 29 11Z" fill="white" stroke="#FF0000" stroke-width="0.666667" stroke-miterlimit="8"/>
<path fill-rule="evenodd" clip-rule="evenodd" d="M58 11C58 5.477 62.477 1 68 1C73.523 1 78 5.477 78 11C78 16.523 73.523 21 68 21C62.477 21 58 16.523 58 11Z" fill="white" stroke="#FF0000" stroke-width="0.666667" stroke-miterlimit="8"/>
</svg>
