<?xml version="1.0" standalone="no"?>
<!DOCTYPE svg PUBLIC "-//W3C//DTD SVG 20010904//EN"
 "http://www.w3.org/TR/2001/REC-SVG-20010904/DTD/svg10.dtd">
<svg version="1.0" xmlns="http://www.w3.org/2000/svg"
 width="512.000000pt" height="512.000000pt" viewBox="0 0 512.000000 512.000000"
 preserveAspectRatio="xMidYMid meet">

<g transform="translate(0.000000,512.000000) scale(0.100000,-0.100000)"
fill="#000000" stroke="none">
<path d="M547 4986 c-100 -41 -169 -88 -253 -171 -92 -91 -142 -177 -175 -304
-22 -81 -30 -250 -16 -331 8 -45 8 -45 100 -93 275 -143 548 -402 767 -730
117 -174 269 -471 326 -636 36 -105 42 -115 73 -128 18 -8 35 -12 38 -9 5 5
-93 290 -129 374 -24 57 -23 68 6 87 19 13 29 14 45 6 22 -12 70 -132 147
-363 l49 -146 45 -18 c25 -9 79 -34 121 -55 70 -35 80 -37 138 -32 58 5 62 8
57 27 -60 208 -42 407 52 580 l26 48 -29 22 c-69 49 -184 158 -236 222 -78 96
-111 148 -162 250 -87 174 -127 348 -127 553 l0 126 -84 18 c-251 51 -438 134
-557 246 -123 114 -174 233 -167 392 1 49 3 89 3 89 0 0 -26 -11 -58 -24z
m-49 -328 c19 -19 14 -48 -17 -87 -74 -94 -99 -218 -71 -351 14 -68 5 -90 -36
-90 -30 0 -49 30 -63 98 -31 151 5 299 101 407 31 36 64 45 86 23z m460 -424
c92 -19 226 -64 285 -96 44 -25 59 -57 37 -84 -18 -21 -37 -18 -126 20 -157
66 -332 96 -444 76 -129 -24 -127 -24 -140 0 -12 23 -1 69 17 70 5 1 31 7 58
15 68 19 219 18 313 -1z"/>
<path d="M1746 4438 c-7 -13 -17 -54 -20 -92 -6 -57 -4 -72 10 -87 43 -48 79
-9 88 98 5 58 3 75 -10 87 -22 23 -51 20 -68 -6z"/>
<path d="M1766 4004 c-9 -8 -16 -19 -16 -24 0 -20 51 -181 74 -233 25 -55 28
-58 58 -55 52 5 56 26 21 114 -17 44 -38 106 -47 138 -8 33 -21 63 -28 67 -20
13 -45 10 -62 -7z"/>
<path d="M3570 3964 c-162 -19 -156 -17 -164 -65 -9 -59 -69 -209 -123 -309
-121 -226 -298 -461 -578 -766 -104 -113 -129 -147 -185 -254 -36 -68 -84
-144 -108 -171 -58 -65 -92 -75 -195 -58 -96 16 -304 16 -396 0 -62 -10 -64
-10 -140 28 -139 69 -352 143 -510 176 -82 17 -199 22 -210 9 -4 -5 -16 -31
-25 -57 -25 -67 -56 -101 -84 -93 -42 14 -42 35 -1 137 21 53 41 108 44 122 7
26 7 27 -26 15 -81 -28 -149 -136 -164 -261 -10 -77 -32 -100 -76 -77 -52 28
3 247 86 338 31 35 38 50 42 100 3 33 1 67 -4 76 -8 15 -15 10 -50 -36 -119
-155 -175 -362 -187 -686 l-7 -162 23 -9 c13 -4 40 -11 61 -14 37 -6 39 -5 73
49 25 39 53 66 99 95 61 38 135 111 135 132 0 5 -18 7 -40 4 -48 -6 -73 12
-68 52 5 42 57 54 233 54 122 1 167 -3 239 -21 155 -39 336 -138 414 -227 36
-41 38 -48 16 -69 -24 -25 -53 -19 -96 20 -22 19 -42 33 -45 30 -8 -7 34 -141
67 -212 37 -81 98 -171 148 -216 22 -20 89 -69 148 -109 l108 -72 116 22 c157
31 185 23 308 -87 74 -66 94 -101 72 -127 -25 -31 -59 -17 -135 55 -40 38 -86
72 -101 76 -27 7 -97 -2 -212 -26 -62 -14 -109 -50 -120 -93 -10 -39 5 -173
24 -209 8 -15 29 -35 47 -44 62 -32 99 -67 123 -118 48 -102 29 -138 -81 -151
-68 -8 -110 -26 -125 -54 -5 -11 -10 -49 -10 -85 0 -51 3 -66 14 -66 8 0 18 9
21 20 10 33 55 80 96 100 30 16 59 20 131 20 l93 0 32 211 c18 116 38 218 44
225 15 18 53 18 69 -1 9 -11 10 -33 4 -82 -9 -86 -9 -88 32 -212 89 -270 247
-505 414 -618 139 -94 433 -128 616 -72 97 30 131 49 286 161 194 140 256 213
291 338 15 54 28 210 17 210 -9 0 -146 -143 -169 -177 -32 -47 -59 -133 -67
-212 -6 -65 -10 -73 -48 -111 -121 -120 -318 -181 -529 -165 -164 12 -272 60
-367 161 -112 121 -160 258 -160 460 0 377 -67 705 -166 823 -34 41 -28 63 33
127 207 215 530 308 899 258 l42 -6 7 44 c13 75 71 241 118 334 145 287 383
486 667 558 l93 24 18 88 c46 226 182 373 394 429 33 8 83 15 112 15 32 0 53
4 53 11 0 6 -20 42 -46 80 -133 201 -384 327 -741 374 -143 19 -503 18 -663
-1z m-1 -113 c25 -25 21 -60 -25 -199 -91 -276 -302 -586 -682 -999 -69 -76
-90 -93 -114 -93 -21 0 -32 7 -40 25 -13 29 -13 29 146 202 350 378 595 769
632 1011 4 27 15 48 28 57 27 19 32 19 55 -4z m179 -221 c164 -39 301 -119
418 -243 81 -85 142 -181 175 -278 27 -78 18 -102 -35 -97 -27 3 -32 9 -53 66
-34 97 -89 180 -177 267 -66 65 -99 90 -176 128 -52 25 -132 55 -177 66 -45
11 -87 22 -93 26 -17 10 -12 63 8 74 22 13 14 14 110 -9z m-274 -555 c19 -20
62 -154 76 -237 24 -152 7 -411 -40 -600 -23 -92 -46 -122 -83 -109 -31 12
-32 35 -3 164 57 251 57 479 1 653 -13 43 -25 88 -25 100 0 41 44 58 74 29z
m-2821 -876 c28 -44 -25 -95 -72 -69 -24 12 -29 58 -9 78 17 17 68 11 81 -9z"/>
<path d="M1978 3569 c-33 -19 -21 -58 38 -130 89 -109 293 -279 335 -279 24 0
53 44 42 63 -4 8 -45 42 -90 76 -46 35 -129 112 -185 172 -57 60 -107 109
-113 109 -5 0 -18 -5 -27 -11z"/>
<path d="M4675 2630 c-38 -10 -90 -26 -115 -35 -105 -37 -288 -154 -311 -197
-12 -22 12 -68 36 -68 7 0 49 25 92 56 123 89 247 142 380 165 77 13 93 22 93
53 0 50 -54 58 -175 26z"/>
<path d="M4096 2234 c-41 -54 -43 -67 -17 -93 28 -28 56 -16 93 37 25 37 29
49 22 71 -6 18 -18 27 -36 29 -21 3 -33 -6 -62 -44z"/>
<path d="M3935 1921 c-15 -31 -58 -187 -70 -257 -7 -46 10 -74 45 -74 27 0 45
34 59 105 6 33 22 96 35 139 29 91 23 116 -24 116 -22 0 -33 -7 -45 -29z"/>
<path d="M1777 1302 c-31 -92 -57 -174 -57 -183 0 -10 25 -48 55 -87 52 -67
56 -70 107 -76 46 -6 59 -14 101 -57 34 -36 55 -49 70 -47 21 3 20 5 -13 37
-19 18 -55 47 -80 65 -60 43 -86 92 -100 194 -16 107 -9 152 30 214 34 55 34
53 -30 91 l-25 15 -58 -166z"/>
<path d="M2386 720 c-2 -14 -9 -43 -13 -65 -7 -31 -16 -44 -40 -56 l-32 -16
34 -57 c75 -124 191 -235 314 -300 129 -68 133 -65 45 26 -116 119 -208 264
-280 438 -20 49 -23 52 -28 30z"/>
<path d="M2186 525 c-6 -56 0 -74 26 -75 18 0 18 61 0 96 l-19 37 -7 -58z"/>
</g>
</svg>
