<?xml version="1.0" standalone="no"?>
<!DOCTYPE svg PUBLIC "-//W3C//DTD SVG 20010904//EN"
 "http://www.w3.org/TR/2001/REC-SVG-20010904/DTD/svg10.dtd">
<svg version="1.0" xmlns="http://www.w3.org/2000/svg"
 width="512.000000pt" height="512.000000pt" viewBox="0 0 512.000000 512.000000"
 preserveAspectRatio="xMidYMid meet">

<g transform="translate(0.000000,512.000000) scale(0.100000,-0.100000)"
fill="#000000" stroke="none">
<path d="M2440 5114 c-14 -2 -63 -9 -110 -15 -100 -14 -265 -58 -344 -93 -65
-29 -85 -61 -66 -107 22 -53 54 -55 186 -10 178 60 270 75 474 75 190 1 258
-8 403 -55 509 -165 914 -635 994 -1153 11 -77 14 -147 10 -291 -8 -273 -34
-408 -148 -762 -116 -364 -131 -537 -64 -768 47 -163 110 -284 280 -540 184
-277 221 -366 213 -501 -3 -41 -9 -79 -15 -85 -6 -6 -30 15 -69 62 -73 87
-192 193 -300 265 -97 64 -251 144 -279 144 -50 0 -89 -65 -65 -110 6 -11 46
-38 88 -59 259 -130 472 -333 592 -564 45 -87 97 -223 88 -232 -6 -7 -173 40
-253 70 -151 57 -371 181 -481 271 -62 51 -92 47 -173 -25 -36 -32 -109 -89
-161 -126 -190 -136 -391 -324 -427 -400 -14 -29 -14 -35 1 -63 17 -33 51 -48
84 -38 10 4 54 45 97 92 87 95 198 191 325 281 47 33 107 79 134 101 l48 40
94 -63 c102 -69 276 -161 367 -195 l57 -21 0 -95 c0 -87 2 -97 25 -119 31 -32
69 -32 100 0 22 21 25 33 25 95 0 63 2 71 18 66 49 -15 169 -36 208 -36 54 0
84 26 84 73 0 51 -47 213 -94 322 l-43 100 28 60 c58 128 62 257 13 403 -34
104 -79 185 -229 414 -214 326 -265 456 -265 669 0 154 17 237 106 518 125
397 151 553 141 870 -8 274 -40 407 -153 636 -220 447 -636 776 -1114 880 -72
15 -372 29 -430 19z"/>
<path d="M1660 4823 c-29 -11 -136 -102 -211 -180 -235 -243 -387 -561 -429
-896 -8 -65 -11 -172 -7 -320 7 -286 18 -342 155 -773 76 -240 97 -359 89
-503 -3 -58 -13 -133 -22 -166 -28 -103 -108 -255 -242 -461 -212 -325 -251
-412 -260 -570 -6 -101 5 -164 45 -257 l25 -57 -31 -68 c-46 -99 -60 -139 -82
-226 -49 -193 -13 -224 204 -176 50 11 91 20 93 20 2 0 3 -33 3 -74 0 -80 10
-101 55 -112 65 -16 95 32 95 156 l0 81 32 11 c71 25 288 140 381 202 l98 67
52 -44 c29 -24 88 -70 132 -102 114 -83 251 -203 319 -280 71 -80 98 -99 130
-91 37 9 56 34 56 71 0 64 -174 240 -421 425 -68 51 -149 115 -180 142 -70 60
-102 63 -162 14 -111 -90 -336 -216 -484 -272 -80 -30 -245 -75 -251 -69 -9 8
50 160 93 242 60 113 137 213 241 313 116 111 212 175 414 272 91 44 249 127
351 184 102 57 190 104 194 104 4 0 32 -23 62 -51 94 -89 224 -134 388 -133
163 1 303 51 391 140 25 24 47 44 50 44 2 0 63 -31 133 -70 79 -43 141 -70
159 -70 54 0 91 71 59 113 -6 9 -79 53 -162 98 -82 44 -157 87 -166 95 -20 18
-96 152 -104 184 -5 22 -2 27 27 38 136 49 340 226 430 372 51 81 98 193 123
286 19 71 37 247 29 279 -5 19 0 24 28 34 136 47 240 195 281 402 37 180 29
419 -15 466 -41 44 -72 32 -183 -67 -55 -49 -103 -90 -106 -90 -3 0 -9 44 -12
98 -11 177 -73 338 -165 430 -65 65 -140 96 -232 96 -105 0 -200 -36 -330
-124 l-58 -39 -28 44 c-50 80 -129 118 -197 96 -34 -11 -94 -68 -128 -120
l-15 -24 -63 42 c-34 23 -97 59 -139 79 -71 34 -84 37 -167 37 -76 0 -99 -4
-145 -26 -149 -70 -249 -260 -266 -505 l-7 -93 -104 95 c-116 104 -143 114
-187 70 -31 -30 -41 -127 -33 -310 11 -274 98 -453 261 -537 l63 -33 6 -115
c12 -244 112 -468 286 -642 80 -81 185 -154 277 -195 l55 -24 -46 -88 c-25
-48 -51 -94 -58 -103 -12 -15 -606 -338 -660 -358 -48 -19 -188 -103 -266
-161 -88 -66 -200 -172 -259 -248 -22 -29 -43 -49 -45 -45 -3 5 -10 34 -16 65
-24 135 25 260 215 539 123 181 187 294 233 414 61 156 76 237 75 405 -1 171
-20 267 -95 489 -56 166 -100 318 -126 441 -15 70 -18 131 -18 340 0 231 2
265 23 359 71 316 230 581 471 785 50 43 94 88 97 101 9 35 -4 63 -36 80 -31
16 -36 17 -60 8z m1570 -868 c14 -7 35 -24 48 -38 l23 -24 -49 -37 c-76 -55
-208 -121 -301 -150 -46 -15 -86 -25 -88 -23 -2 3 -12 34 -23 71 l-19 66 72
49 c159 107 251 130 337 86z m-1110 -8 c57 -24 215 -123 215 -135 0 -4 -7 -35
-15 -70 -14 -62 -14 -63 -45 -56 -108 23 -317 125 -382 186 -22 21 -22 22 -5
41 52 58 142 71 232 34z m509 -44 c41 -61 78 -182 93 -297 11 -84 10 -95 -8
-131 -38 -79 -138 -110 -211 -65 -58 35 -75 89 -62 197 20 165 95 343 145 343
7 0 26 -21 43 -47z m-760 -197 c96 -64 161 -95 295 -141 l120 -41 11 -55 c27
-136 142 -229 284 -229 147 0 251 81 288 223 17 66 18 68 58 77 124 31 286
105 389 177 37 26 51 32 57 22 23 -38 29 -165 29 -630 0 -447 -2 -502 -19
-580 -70 -314 -279 -530 -596 -615 -54 -14 -103 -18 -210 -18 -122 1 -152 5
-230 28 -148 45 -236 97 -345 206 -81 81 -103 109 -143 190 -92 185 -92 179
-92 785 0 404 3 544 13 588 7 31 16 57 19 57 3 0 35 -20 72 -44z m-259 -587
c0 -106 -4 -169 -10 -169 -20 0 -88 79 -113 131 -34 72 -57 190 -57 289 l0 82
90 -83 90 -82 0 -168z m2125 234 c-9 -119 -29 -206 -65 -280 -28 -56 -87 -123
-110 -123 -6 0 -10 67 -10 168 l0 168 86 77 c48 42 91 77 96 77 5 0 6 -37 3
-87z m-1190 -1610 c77 -3 163 -1 191 4 l51 10 59 -115 58 -115 -46 -42 c-53
-48 -140 -81 -240 -91 -117 -11 -267 36 -332 105 l-30 31 23 38 c12 20 39 72
59 114 28 58 41 76 52 72 8 -4 78 -9 155 -11z"/>
<path d="M837 4642 c-23 -25 -22 -85 1 -105 25 -23 85 -22 105 1 23 25 22 85
-1 105 -25 23 -85 22 -105 -1z"/>
<path d="M4177 4642 c-23 -25 -22 -85 1 -105 25 -23 85 -22 105 1 23 25 22 85
-1 105 -25 23 -85 22 -105 -1z"/>
<path d="M360 3360 c-11 -11 -20 -33 -20 -50 0 -67 88 -96 129 -44 26 34 26
54 0 88 -26 33 -79 36 -109 6z"/>
<path d="M4651 3354 c-12 -15 -21 -34 -21 -44 0 -10 9 -29 21 -44 41 -52 129
-23 129 44 0 67 -88 96 -129 44z"/>
<path d="M685 2265 c-14 -13 -25 -36 -25 -50 0 -33 42 -75 75 -75 33 0 75 42
75 75 0 14 -11 37 -25 50 -13 14 -36 25 -50 25 -14 0 -37 -11 -50 -25z"/>
<path d="M4335 2265 c-14 -13 -25 -36 -25 -50 0 -33 42 -75 75 -75 33 0 75 42
75 75 0 33 -42 75 -75 75 -14 0 -37 -11 -50 -25z"/>
<path d="M242 1584 c-29 -20 -31 -83 -2 -109 48 -43 120 -10 120 55 0 44 -24
70 -66 70 -16 0 -40 -7 -52 -16z"/>
<path d="M4782 1584 c-16 -11 -22 -25 -22 -53 0 -47 24 -71 72 -71 43 0 68 25
68 68 0 61 -66 93 -118 56z"/>
</g>
</svg>
