<?xml version="1.0" standalone="no"?>
<!DOCTYPE svg PUBLIC "-//W3C//DTD SVG 20010904//EN"
 "http://www.w3.org/TR/2001/REC-SVG-20010904/DTD/svg10.dtd">
<svg version="1.0" xmlns="http://www.w3.org/2000/svg"
 width="512.000000pt" height="512.000000pt" viewBox="0 0 512.000000 512.000000"
 preserveAspectRatio="xMidYMid meet">

<g transform="translate(0.000000,512.000000) scale(0.100000,-0.100000)"
fill="#000000" stroke="none">
<path d="M1333 4920 c-65 -39 -68 -51 -71 -292 -3 -208 -2 -221 18 -264 53
-108 198 -110 252 -3 16 29 18 64 18 252 0 239 -3 252 -60 301 -40 33 -109 36
-157 6z"/>
<path d="M2389 4917 c-63 -42 -69 -66 -69 -302 0 -185 3 -215 19 -252 36 -78
141 -106 210 -56 56 41 61 68 61 306 0 239 -3 252 -60 301 -42 35 -112 36
-161 3z"/>
<path d="M3450 4918 c-65 -43 -70 -67 -70 -303 0 -199 1 -213 23 -255 54 -105
196 -105 249 1 16 29 18 64 18 252 0 234 -3 248 -54 296 -39 36 -119 41 -166
9z"/>
<path d="M1790 4492 c0 -222 -63 -337 -230 -416 -58 -28 -75 -31 -155 -30 -76
0 -99 4 -149 27 -68 32 -119 73 -163 135 -44 61 -64 128 -72 239 l-6 94 -64
-39 c-124 -75 -231 -203 -288 -344 -55 -134 -54 -108 -51 -1639 4 -1574 -2
-1449 72 -1604 92 -194 261 -332 470 -385 72 -18 113 -20 460 -20 l382 0 44
267 c38 233 48 276 76 333 30 58 112 143 801 830 807 804 807 804 951 858 117
43 318 42 435 -3 16 -7 17 25 17 578 0 623 -3 668 -50 787 -53 134 -167 270
-286 343 -34 20 -64 37 -66 37 -3 0 -7 -47 -10 -105 -4 -95 -8 -111 -41 -179
-44 -87 -94 -136 -186 -180 -59 -27 -76 -31 -156 -31 -80 0 -97 4 -155 31
-115 55 -193 152 -219 272 -6 29 -11 100 -11 157 l0 105 -145 0 -145 0 0 -120
c0 -95 -4 -133 -21 -182 -38 -113 -97 -179 -209 -232 -58 -27 -75 -31 -155
-31 -80 0 -97 4 -155 31 -160 76 -230 205 -230 426 l0 108 -145 0 -145 0 0
-118z m1886 -968 c45 -22 77 -75 77 -131 0 -47 -20 -82 -67 -117 -27 -21 -31
-21 -1219 -21 l-1192 0 -33 23 c-46 34 -65 75 -60 134 5 51 24 79 73 109 29
18 79 19 1208 19 1062 0 1182 -2 1213 -16z m-786 -932 c54 -27 83 -77 77 -135
-5 -57 -30 -95 -78 -119 -31 -17 -91 -18 -814 -18 -723 0 -783 1 -815 18 -106
53 -106 201 0 254 32 17 92 18 815 18 723 0 783 -1 815 -18z m-774 -928 c52
-25 79 -69 79 -131 0 -60 -23 -99 -76 -125 -31 -16 -73 -18 -429 -18 -356 0
-398 2 -430 18 -106 53 -106 201 0 254 32 16 74 18 428 18 343 0 398 -2 428
-16z"/>
<path d="M3955 2573 c-86 -31 -136 -68 -250 -182 l-110 -111 295 -295 c162
-162 300 -295 306 -295 6 0 62 52 124 116 123 127 162 192 181 302 31 175 -72
367 -239 445 -58 27 -80 32 -162 34 -72 3 -107 -1 -145 -14z"/>
<path d="M2853 1538 c-404 -406 -532 -540 -537 -563 -3 -16 -24 -138 -46 -270
-45 -272 -44 -292 15 -344 19 -16 50 -33 69 -36 39 -8 514 70 561 91 17 8 265
249 552 536 l522 523 -290 298 c-160 163 -296 297 -303 297 -6 0 -251 -240
-543 -532z"/>
<path d="M3840 984 l-475 -476 195 5 c218 4 269 16 407 92 84 47 204 166 256
255 69 120 89 202 95 395 2 94 3 178 1 188 -3 12 -139 -118 -479 -459z"/>
</g>
</svg>
