<?xml version="1.0" encoding="UTF-8" standalone="no"?>
<!-- Created with Inkscape (http://www.inkscape.org/) -->

<svg
   width="100mm"
   height="50mm"
   viewBox="0 0 100 50"
   version="1.1"
   id="svg1"
   inkscape:export-filename="MAGIC CAB.svg"
   inkscape:export-xdpi="96"
   inkscape:export-ydpi="96"
   xmlns:inkscape="http://www.inkscape.org/namespaces/inkscape"
   xmlns:sodipodi="http://sodipodi.sourceforge.net/DTD/sodipodi-0.dtd"
   xmlns="http://www.w3.org/2000/svg"
   xmlns:svg="http://www.w3.org/2000/svg">
  <sodipodi:namedview
     id="namedview1"
     pagecolor="#505050"
     bordercolor="#eeeeee"
     borderopacity="1"
     inkscape:showpageshadow="0"
     inkscape:pageopacity="0"
     inkscape:pagecheckerboard="0"
     inkscape:deskcolor="#505050"
     inkscape:document-units="mm" />
  <defs
     id="defs1" />
  <g
     inkscape:label="Camada 1"
     inkscape:groupmode="layer"
     id="layer1">
    <g
       transform="matrix(0.26458333,0,0,0.26458333,-274.39964,66.8241)"
       id="g30">
      <path
         d="M 0,0 824,2.09974e-4"
         stroke="#c00000"
         stroke-width="8"
         stroke-miterlimit="8"
         fill="none"
         fill-rule="evenodd"
         transform="matrix(1,0,0,-1,1040,-150)"
         id="path1" />
      <path
         d="m 1095.32,-192.5 h 145.36 l 18.82,25.304 v 35.849 l -18.48,24.847 h -146.04 l -18.48,-24.847 v -35.849 z"
         stroke="#ff0000"
         stroke-width="3"
         stroke-miterlimit="8"
         fill="#ffffff"
         fill-rule="evenodd"
         id="path2" />
      <path
         d="M 0,0 16.1055,21.9159"
         stroke="#ff0000"
         stroke-width="2"
         stroke-miterlimit="8"
         fill="#ffffff"
         fill-rule="evenodd"
         transform="matrix(-1,0,0,1,1100.11,-193)"
         id="path3" />
      <path
         d="m 1084,-128 16.11,21.916"
         stroke="#ff0000"
         stroke-width="2"
         stroke-miterlimit="8"
         fill="#ffffff"
         fill-rule="evenodd"
         id="path4" />
      <path
         d="m 1084,-179 v 56.763"
         stroke="#ff0000"
         stroke-width="2"
         stroke-miterlimit="8"
         fill="#ffffff"
         fill-rule="evenodd"
         id="path5" />
      <path
         d="m 1235,-193 16.11,21.916"
         stroke="#ff0000"
         stroke-width="2"
         stroke-miterlimit="8"
         fill="#ffffff"
         fill-rule="evenodd"
         id="path6" />
      <path
         d="M 0,0 16.1055,21.9159"
         stroke="#ff0000"
         stroke-width="2"
         stroke-miterlimit="8"
         fill="#ffffff"
         fill-rule="evenodd"
         transform="matrix(-1,0,0,1,1251.11,-128)"
         id="path7" />
      <path
         d="m 1251,-179 v 56.763"
         stroke="#ff0000"
         stroke-width="2"
         stroke-miterlimit="8"
         fill="#ffffff"
         fill-rule="evenodd"
         id="path8" />
      <path
         d="m 1080,-150 c 0,-2.209 1.79,-4 4,-4 2.21,0 4,1.791 4,4 0,2.209 -1.79,4 -4,4 -2.21,0 -4,-1.791 -4,-4 z"
         fill="#c00000"
         fill-rule="evenodd"
         id="path9" />
      <path
         d="m 1247,-150 c 0,-2.209 1.79,-4 4,-4 2.21,0 4,1.791 4,4 0,2.209 -1.79,4 -4,4 -2.21,0 -4,-1.791 -4,-4 z"
         fill="#c00000"
         fill-rule="evenodd"
         id="path10" />
      <path
         d="m 1375.32,-192.5 h 145.36 l 18.82,25.304 v 35.849 l -18.48,24.847 h -146.04 l -18.48,-24.847 v -35.849 z"
         stroke="#ff0000"
         stroke-width="3"
         stroke-miterlimit="8"
         fill="#ffffff"
         fill-rule="evenodd"
         id="path11" />
      <path
         d="M 0,0 16.1055,21.9159"
         stroke="#ff0000"
         stroke-width="2"
         stroke-miterlimit="8"
         fill="#ffffff"
         fill-rule="evenodd"
         transform="matrix(-1,0,0,1,1380.11,-193)"
         id="path12" />
      <path
         d="m 1364,-128 16.11,21.916"
         stroke="#ff0000"
         stroke-width="2"
         stroke-miterlimit="8"
         fill="#ffffff"
         fill-rule="evenodd"
         id="path13" />
      <path
         d="m 1364,-179 v 56.763"
         stroke="#ff0000"
         stroke-width="2"
         stroke-miterlimit="8"
         fill="#ffffff"
         fill-rule="evenodd"
         id="path14" />
      <path
         d="m 1515,-193 16.11,21.916"
         stroke="#ff0000"
         stroke-width="2"
         stroke-miterlimit="8"
         fill="#ffffff"
         fill-rule="evenodd"
         id="path15" />
      <path
         d="M 0,0 16.1055,21.9159"
         stroke="#ff0000"
         stroke-width="2"
         stroke-miterlimit="8"
         fill="#ffffff"
         fill-rule="evenodd"
         transform="matrix(-1,0,0,1,1531.11,-128)"
         id="path16" />
      <path
         d="m 1531,-179 v 56.763"
         stroke="#ff0000"
         stroke-width="2"
         stroke-miterlimit="8"
         fill="#ffffff"
         fill-rule="evenodd"
         id="path17" />
      <path
         d="m 1360,-150 c 0,-2.209 2.01,-4 4.5,-4 2.49,0 4.5,1.791 4.5,4 0,2.209 -2.01,4 -4.5,4 -2.49,0 -4.5,-1.791 -4.5,-4 z"
         fill="#c00000"
         fill-rule="evenodd"
         id="path18" />
      <path
         d="m 1527,-150 c 0,-2.209 1.79,-4 4,-4 2.21,0 4,1.791 4,4 0,2.209 -1.79,4 -4,4 -2.21,0 -4,-1.791 -4,-4 z"
         fill="#c00000"
         fill-rule="evenodd"
         id="path19" />
      <path
         d="m 1655.32,-192.5 h 145.36 l 18.82,25.304 v 35.849 l -18.48,24.847 h -146.04 l -18.48,-24.847 v -35.849 z"
         stroke="#ff0000"
         stroke-width="3"
         stroke-miterlimit="8"
         fill="#ffffff"
         fill-rule="evenodd"
         id="path20" />
      <path
         d="M 0,0 16.1055,21.9159"
         stroke="#ff0000"
         stroke-width="2"
         stroke-miterlimit="8"
         fill="#ffffff"
         fill-rule="evenodd"
         transform="matrix(-1,0,0,1,1661.11,-193)"
         id="path21" />
      <path
         d="m 1645,-128 16.11,21.916"
         stroke="#ff0000"
         stroke-width="2"
         stroke-miterlimit="8"
         fill="#ffffff"
         fill-rule="evenodd"
         id="path22" />
      <path
         d="m 1645,-179 v 56.763"
         stroke="#ff0000"
         stroke-width="2"
         stroke-miterlimit="8"
         fill="#ffffff"
         fill-rule="evenodd"
         id="path23" />
      <path
         d="m 1795,-193 16.11,21.916"
         stroke="#ff0000"
         stroke-width="2"
         stroke-miterlimit="8"
         fill="#ffffff"
         fill-rule="evenodd"
         id="path24" />
      <path
         d="M 0,0 16.1055,21.9159"
         stroke="#ff0000"
         stroke-width="2"
         stroke-miterlimit="8"
         fill="#ffffff"
         fill-rule="evenodd"
         transform="matrix(-1,0,0,1,1811.11,-128)"
         id="path25" />
      <path
         d="m 1811,-179 v 56.763"
         stroke="#ff0000"
         stroke-width="2"
         stroke-miterlimit="8"
         fill="#ffffff"
         fill-rule="evenodd"
         id="path26" />
      <path
         d="m 1640,-150 c 0,-2.209 2.01,-4 4.5,-4 2.49,0 4.5,1.791 4.5,4 0,2.209 -2.01,4 -4.5,4 -2.49,0 -4.5,-1.791 -4.5,-4 z"
         fill="#c00000"
         fill-rule="evenodd"
         id="path27" />
      <path
         d="m 1807,-150 c 0,-2.209 2.01,-4 4.5,-4 2.49,0 4.5,1.791 4.5,4 0,2.209 -2.01,4 -4.5,4 -2.49,0 -4.5,-1.791 -4.5,-4 z"
         fill="#c00000"
         fill-rule="evenodd"
         id="path28" />
      <path
         d="m 1283,-150 20.17,-4.419 4.33,-20.581 4.33,20.581 20.17,4.419 -20.17,4.419 -4.33,20.581 -4.33,-20.581 z"
         fill="#460000"
         fill-rule="evenodd"
         id="path29" />
      <path
         d="m 1563,-150 20.17,-4.419 4.33,-20.581 4.33,20.581 20.17,4.419 -20.17,4.419 -4.33,20.581 -4.33,-20.581 z"
         fill="#460000"
         fill-rule="evenodd"
         id="path30" />
    </g>
  </g>
</svg>
