<?xml version="1.0" encoding="UTF-8" standalone="no"?>
<!-- Created with Inkscape (http://www.inkscape.org/) -->

<svg
   width="300mm"
   height="200mm"
   viewBox="0 0 300 200"
   version="1.1"
   id="svg1"
   inkscape:export-filename="MODAL.svg"
   inkscape:export-xdpi="96"
   inkscape:export-ydpi="96"
   xmlns:inkscape="http://www.inkscape.org/namespaces/inkscape"
   xmlns:sodipodi="http://sodipodi.sourceforge.net/DTD/sodipodi-0.dtd"
   xmlns="http://www.w3.org/2000/svg"
   xmlns:svg="http://www.w3.org/2000/svg">
  <sodipodi:namedview
     id="namedview1"
     pagecolor="#505050"
     bordercolor="#eeeeee"
     borderopacity="1"
     inkscape:showpageshadow="0"
     inkscape:pageopacity="0"
     inkscape:pagecheckerboard="0"
     inkscape:deskcolor="#505050"
     inkscape:document-units="mm" />
  <defs
     id="defs1" />
  <g
     inkscape:label="Camada 1"
     inkscape:groupmode="layer"
     id="layer1">
    <g
       transform="matrix(0.26458333,0,0,0.26458333,83.343747,-52.387497)"
       id="g4">
      <path
         d="m 461.438,554 h 178.245 l -0.248,0.53 c 0,2.569 2.351,4.65 5.251,4.65 L 645,559.065 v 28.192 l -0.064,-0.023 c -2.9,0 -5.251,2.081 -5.251,4.65 l 0.054,0.116 h -178.39 l 0.055,-0.116 c 0,-2.569 -2.351,-4.65 -5.251,-4.65 L 456,587.29 v -28.484 l 0.315,0.115 c 2.899,0 5.25,-2.082 5.25,-4.65 z"
         stroke="#ff0000"
         stroke-width="2"
         stroke-miterlimit="8"
         fill="#ffffff"
         fill-rule="evenodd"
         id="path1" />
      <path
         d="m 456.5,573.5 c 0,-10.493 8.507,-19 19,-19 h 151 c 10.494,0 19,8.507 19,19 v 0 c 0,10.494 -8.507,19 -19,19 h -151 c -10.493,0 -19,-8.507 -19,-19 z"
         stroke="#ff0000"
         stroke-width="1.33333"
         stroke-miterlimit="8"
         fill="#ffffff"
         fill-rule="evenodd"
         id="path2" />
      <path
         d="M 464.5,558.5 H 638.75"
         stroke="#ff0000"
         stroke-width="1.33333"
         stroke-miterlimit="8"
         fill="none"
         fill-rule="evenodd"
         id="path3" />
      <path
         d="M 464.5,588.5 H 638.75"
         stroke="#ff0000"
         stroke-width="1.33333"
         stroke-miterlimit="8"
         fill="none"
         fill-rule="evenodd"
         id="path4" />
    </g>
  </g>
</svg>
