<?xml version="1.0" encoding="UTF-8" standalone="no"?>
<!-- Created with Inkscape (http://www.inkscape.org/) -->

<svg
   width="300mm"
   height="200mm"
   viewBox="0 0 300 200"
   version="1.1"
   id="svg1"
   inkscape:export-filename="MODAL.svg"
   inkscape:export-xdpi="96"
   inkscape:export-ydpi="96"
   xmlns:inkscape="http://www.inkscape.org/namespaces/inkscape"
   xmlns:sodipodi="http://sodipodi.sourceforge.net/DTD/sodipodi-0.dtd"
   xmlns="http://www.w3.org/2000/svg"
   xmlns:svg="http://www.w3.org/2000/svg">
  <sodipodi:namedview
     id="namedview1"
     pagecolor="#505050"
     bordercolor="#eeeeee"
     borderopacity="1"
     inkscape:showpageshadow="0"
     inkscape:pageopacity="0"
     inkscape:pagecheckerboard="0"
     inkscape:deskcolor="#505050"
     inkscape:document-units="mm" />
  <defs
     id="defs1">
    <clipPath
       id="clip0-6">
      <rect
         x="100"
         y="712"
         width="841"
         height="602"
         id="rect1-65" />
    </clipPath>
  </defs>
  <g
     inkscape:label="Camada 1"
     inkscape:groupmode="layer"
     id="layer1">
    <g
       clip-path="url(#clip0-6)"
       transform="matrix(0.26458333,0,0,0.26458333,8.8492663,-177.89673)"
       id="g15">
      <path
         d="M 102,778.419 C 102,764.38 113.38,753 127.419,753 H 915.581 C 929.62,753 941,764.38 941,778.419 v 16.162 C 941,808.62 929.62,820 915.581,820 H 127.419 C 113.38,820 102,808.62 102,794.581 Z"
         fill="#c00000"
         fill-rule="evenodd"
         id="path1-5" />
      <path
         d="m 102,1273.04 c 0,-13.83 11.21,-25.04 25.039,-25.04 h 788.922 c 13.829,0 25.039,11.21 25.039,25.04 v 15.92 c 0,13.83 -11.21,25.04 -25.039,25.04 H 127.039 C 113.21,1314 102,1302.79 102,1288.96 Z"
         fill="#c00000"
         fill-rule="evenodd"
         id="path2-5" />
      <rect
         x="0"
         y="0"
         width="839"
         height="509"
         fill="#c00000"
         transform="matrix(1,0,0,-1,102,1287)"
         id="rect2-1" />
      <path
         d="m 342.078,10.5929 v 5.503 H 55.1319 c -15.2241,0 -29.0071,8.1392 -38.9841,21.2987 L 5.70393,57.826 3.77488,69.7718 c 0,8.4495 1.36976,16.4988 3.84671,23.8201 L 8.89565,95.9548 3.84759,110.555 3.33735,111.31 V 61.5107 L 4.33308,55.0061 C 12.7025,28.9062 32.2961,10.5929 55.1324,10.5929 Z m 433.79,0 c 22.837,0 42.43,18.3133 50.8,44.4132 l 0.995,6.5009 v 50.382 l -0.902,-1.334 -5.048,-14.6002 1.274,-2.3629 c 2.477,-7.3213 3.847,-15.3706 3.847,-23.8201 l -2.109,-13.063 -9.873,-19.3142 C 804.875,24.2351 791.092,16.0959 775.868,16.0959 H 488.922 v -5.503 z M 37.2703,4.24132 33.6722,5.71469 C 20.4802,13.074 9.91219,27.0132 4.33264,44.4131 L 3.33735,50.9149 V 31.5947 L 24.0756,4.24132 Z m 769.6537,0 20.739,27.35338 v 19.3217 l -0.996,-6.5033 C 821.088,27.0132 810.52,13.074 797.328,5.71469 L 793.729,4.24132 Z M 810.262,0 H 775.868 586.205 244.795 55.1319 20.7382 L 0,27.3534 v 45.3649 43.5307 253.834 5.09 44.109 C 0,459.443 24.6835,492 55.1319,492 H 775.868 C 806.316,492 831,459.443 831,419.282 v -49.199 0 -342.7296 z"
         fill="#f2f2f2"
         fill-rule="evenodd"
         transform="matrix(-1,0,0,1,937,778)"
         id="path3-6" />
      <path
         d="m 342.078,10.6144 v 5.5142 H 55.1319 c -15.2241,0 -29.0071,8.1558 -38.9841,21.342 L 5.70393,57.9435 3.77488,69.9136 c 0,8.4666 1.36976,16.5324 3.84671,23.8685 L 8.89565,96.1499 3.84759,110.78 3.33735,111.536 V 61.6357 L 4.33308,55.1179 C 12.7025,28.965 32.2961,10.6144 55.1324,10.6144 Z m 433.79,0 c 22.837,0 42.43,18.3506 50.8,44.5035 l 0.995,6.5141 v 50.484 l -0.902,-1.336 -5.048,-14.6301 1.274,-2.3678 c 2.477,-7.3361 3.847,-15.4019 3.847,-23.8685 L 824.725,56.824 814.852,37.4706 c -9.977,-13.1862 -23.76,-21.342 -38.984,-21.342 H 488.922 V 10.6144 Z M 37.2703,4.24994 33.6722,5.72631 C 20.4802,13.1006 9.91219,27.0681 4.33264,44.5034 l -0.99529,6.515 V 31.6589 L 24.0756,4.24994 Z m 769.6537,0 20.739,27.40896 v 19.361 l -0.996,-6.5165 C 821.088,27.0681 810.52,13.1006 797.328,5.72631 L 793.729,4.24994 Z M 810.262,0 H 775.868 586.205 244.795 55.1319 20.7382 L 0,27.409 v 45.4571 43.6189 254.351 5.1 44.198 C 0,460.377 24.6835,493 55.1319,493 H 775.868 C 806.316,493 831,460.377 831,420.134 v -49.298 0 -343.427 z"
         fill="#f2f2f2"
         fill-rule="evenodd"
         transform="matrix(1,0,0,-1,106,1307)"
         id="path4-3" />
      <path
         d="m 489.07,733 0.766,2.132 c 5.278,10.79 17.633,18.361 32.034,18.361 14.4,0 26.755,-7.571 32.033,-18.361 l 0.71,-1.978 4.698,1.056 c 18.557,5.141 32.181,13.952 36.608,24.376 L 597,762 H 446 l 1.081,-3.414 c 4.427,-10.424 18.051,-19.235 36.608,-24.376 z"
         fill="#c00000"
         fill-rule="evenodd"
         id="path5-7" />
      <path
         d="m 101.437,782.857 c -0.595,-1.653 9.772,-21.406 10.707,-27.274 0.935,-5.868 -3.399,-8.431 -5.099,-7.935 -1.699,0.496 -4.164,13.968 -5.098,10.91 -0.935,-3.058 -3.5694,-26.944 -0.51,-29.258 3.059,-2.314 16.486,9.339 18.865,15.373 2.379,6.033 -1.869,14.96 -4.589,20.828 -2.719,5.868 -13.681,19.009 -14.276,17.356 z"
         fill="#c00000"
         fill-rule="evenodd"
         id="path6-6" />
      <path
         d="M 1.36843,53.8574 C 0.801929,52.2044 10.6756,32.4509 11.5658,26.5828 12.4561,20.7146 8.32854,18.1524 6.7099,18.6483 5.09126,19.1441 2.7442,32.6163 1.85397,29.5582 0.963742,26.5001 -1.54513,2.614 1.36843,0.299781 4.28199,-2.01444 17.0692,9.63934 19.3353,15.6729 21.6014,21.7064 17.5549,30.6327 14.965,36.5008 12.3752,42.369 1.93493,55.5105 1.36843,53.8574 Z"
         fill="#c00000"
         fill-rule="evenodd"
         transform="matrix(-1,0,0,1,941,729)"
         id="path7-6" />
      <path
         d="M 119,747 H 477.25"
         stroke="#c00000"
         stroke-width="2"
         stroke-miterlimit="8"
         fill="none"
         fill-rule="evenodd"
         id="path8-0" />
      <path
         d="M 563,747 H 921.25"
         stroke="#c00000"
         stroke-width="2"
         stroke-miterlimit="8"
         fill="none"
         fill-rule="evenodd"
         id="path9-4" />
      <path
         d="m 500,732 c 0,-9.941 9.402,-18 21,-18 11.598,0 21,8.059 21,18 0,9.941 -9.402,18 -21,18 -11.598,0 -21,-8.059 -21,-18 z"
         stroke="#c00000"
         stroke-width="2"
         stroke-miterlimit="8"
         fill="#c00000"
         fill-rule="evenodd"
         id="path10-4" />
      <path
         d="m 513.112,722.606 c -1.459,0.994 -23.327,-3.678 -29.28,-3.034 -5.952,0.644 -7.349,5.417 -6.435,6.898 0.914,1.481 14.66,0.304 11.919,1.986 -2.742,1.683 -25.339,10.404 -28.369,8.109 -3.029,-2.295 4.918,-18.051 10.191,-21.878 5.274,-3.827 15.045,-2.128 21.45,-1.082 6.405,1.047 21.983,8.007 20.524,9.001 z"
         fill="#c00000"
         fill-rule="evenodd"
         id="path11-4" />
      <path
         d="m 1.40903,54.3023 c -0.583308,-1.6667 9.58327,-21.5834 10.49997,-27.5 0.9166,-5.9166 -3.33336,-8.4999 -5.00002,-8 -1.66667,0.5 -4.08336,14.0834 -5,11 C 0.992336,26.7189 -1.59097,2.63559 1.40903,0.302257 4.40903,-2.03108 17.5756,9.71895 19.909,15.8023 c 2.3333,6.0834 -1.8333,15.0834 -4.5,21 -2.6666,5.9166 -13.41666,19.1666 -13.99997,17.5 z"
         fill="#c00000"
         fill-rule="evenodd"
         transform="matrix(0.258505,-0.96601,-0.96601,-0.258505,581.929,738.004)"
         id="path12-6" />
      <path
         d="m 507,732.5 c 0,-8.008 6.268,-14.5 14,-14.5 7.732,0 14,6.492 14,14.5 0,8.008 -6.268,14.5 -14,14.5 -7.732,0 -14,-6.492 -14,-14.5 z"
         fill="#ffffff"
         fill-rule="evenodd"
         id="path13" />
      <path
         d="m 510.466,737.582 18.247,-12.836 2.843,2.843 -18.247,12.836 z"
         fill="#460000"
         fill-rule="evenodd"
         id="path14" />
      <path
         d="M 0,21.9785 3.82583,0 H 7.84659 L 4.02076,21.9785 Z"
         fill="#460000"
         fill-rule="evenodd"
         transform="matrix(-0.707107,0.707107,0.707107,0.707107,516.015,722.041)"
         id="path15" />
    </g>
  </g>
</svg>
