<?xml version="1.0" encoding="UTF-8" standalone="no"?>
<!-- Created with Inkscape (http://www.inkscape.org/) -->

<svg
   width="300mm"
   height="500mm"
   viewBox="0 0 300 500"
   version="1.1"
   id="svg1"
   inkscape:export-filename="MODAL 2.svg"
   inkscape:export-xdpi="96"
   inkscape:export-ydpi="96"
   xmlns:inkscape="http://www.inkscape.org/namespaces/inkscape"
   xmlns:sodipodi="http://sodipodi.sourceforge.net/DTD/sodipodi-0.dtd"
   xmlns="http://www.w3.org/2000/svg"
   xmlns:svg="http://www.w3.org/2000/svg">
  <sodipodi:namedview
     id="namedview1"
     pagecolor="#505050"
     bordercolor="#eeeeee"
     borderopacity="1"
     inkscape:showpageshadow="0"
     inkscape:pageopacity="0"
     inkscape:pagecheckerboard="0"
     inkscape:deskcolor="#505050"
     inkscape:document-units="mm" />
  <defs
     id="defs1">
    <clipPath
       id="clip0-44">
      <rect
         x="44"
         y="1438"
         width="841"
         height="442"
         id="rect1-98" />
    </clipPath>
  </defs>
  <g
     inkscape:label="Camada 1"
     inkscape:groupmode="layer"
     id="layer1">
    <g
       clip-path="url(#clip0-44)"
       transform="matrix(0.26458333,0,0,0.26458333,28.764248,-121.87484)"
       id="g16">
      <path
         d="M 46,1505.04 C 46,1491.21 57.2102,1480 71.0388,1480 H 859.961 c 13.829,0 25.039,11.21 25.039,25.04 v 15.92 c 0,13.83 -11.21,25.04 -25.039,25.04 H 71.0388 C 57.2102,1546 46,1534.79 46,1520.96 Z"
         fill="#c00000"
         fill-rule="evenodd"
         id="path1-82" />
      <path
         d="M 46,1839.04 C 46,1825.21 57.2102,1814 71.0388,1814 H 859.961 c 13.829,0 25.039,11.21 25.039,25.04 v 15.92 c 0,13.83 -11.21,25.04 -25.039,25.04 H 71.0388 C 57.2102,1880 46,1868.79 46,1854.96 Z"
         fill="#c00000"
         fill-rule="evenodd"
         id="path2-1" />
      <rect
         x="0"
         y="0"
         width="839"
         height="338"
         fill="#c00000"
         transform="matrix(1,0,0,-1,46,1842)"
         id="rect2-1" />
      <path
         d="m 342.078,10.5999 v 5.5066 H 55.132 c -15.2242,0 -29.0072,8.1445 -38.9841,21.3126 L 5.70395,57.8639 3.77492,69.8176 c 0,8.455 1.36972,16.5097 3.84672,23.8357 l 1.27409,2.3646 -5.04817,14.6101 -0.51018,0.755 V 61.5511 L 4.33307,55.0422 C 12.7026,28.9252 32.2961,10.5999 55.1324,10.5999 Z m 433.79,0 c 22.837,0 42.43,18.3253 50.8,44.4423 l 0.995,6.5051 v 50.4147 l -0.902,-1.334 -5.048,-14.6101 1.275,-2.3646 c 2.476,-7.326 3.846,-15.3807 3.846,-23.8357 L 824.725,56.746 814.852,37.4191 C 804.875,24.251 791.092,16.1065 775.868,16.1065 H 488.922 V 10.5999 Z M 37.2704,4.24415 33.6722,5.71841 C 20.4803,13.0826 9.9122,27.0309 4.33265,44.4423 l -0.99527,6.506 V 31.6155 L 24.0756,4.24415 Z m 769.6536,0 20.739,27.37135 v 19.3343 l -0.996,-6.5075 C 821.088,27.0309 810.519,13.0826 797.328,5.71841 L 793.729,4.24415 Z M 810.262,0 H 775.868 586.205 244.795 55.132 20.7382 L 0,27.3714 V 72.7661 116.325 222 H 831 V 27.3714 Z"
         fill="#f2f2f2"
         fill-rule="evenodd"
         transform="matrix(-1,0,0,1,881,1504)"
         id="path3-8" />
      <path
         d="M 3.33738,51.0693 V 31.6904 L 24.0756,4.25402 H 37.2704 L 33.6721,5.732 C 20.4803,13.1137 9.9122,27.0951 4.33265,44.5478 Z m 824.32562,0.0015 -0.996,-6.523 C 821.088,27.0951 810.519,13.1137 797.328,5.732 l -3.599,-1.47798 h 13.195 L 827.663,31.6904 Z M 3.33738,111.648 V 61.6973 L 4.33307,55.1729 C 12.7026,28.9939 32.2961,10.6248 55.1324,10.6248 H 342.078 v 5.5197 H 55.132 c -15.2242,0 -29.0072,8.164 -38.9841,21.3636 L 5.70395,58.0013 3.77492,69.9833 c 0,8.4753 1.36972,16.549 3.84672,23.8924 L 8.89562,96.2458 3.84756,110.89 Z m 824.32562,0.58 -0.902,-1.338 -5.048,-14.6442 1.275,-2.3701 c 2.476,-7.3434 3.846,-15.4171 3.846,-23.8924 L 824.725,56.8808 814.852,37.5081 C 804.875,24.3085 791.092,16.1445 775.868,16.1445 H 488.922 v -5.5197 h 286.946 c 22.837,0 42.43,18.3691 50.8,44.5481 l 0.995,6.5206 z M 0,155 H 831 V 27.4364 L 810.262,0 H 775.868 586.205 244.795 55.132 20.7382 L 0,27.4364 v 45.5025 43.6621 z"
         fill="#f2f2f2"
         fill-rule="evenodd"
         transform="matrix(1,0,0,-1,50,1874)"
         id="path4-9" />
      <path
         d="m 432.356,1459 0.77,2.21 c 5.313,11.16 17.75,18.99 32.246,18.99 14.496,0 26.933,-7.83 32.246,-18.99 l 0.715,-2.05 4.728,1.09 c 18.68,5.32 32.394,14.43 36.851,25.22 L 541,1489 H 389 l 1.088,-3.53 c 4.457,-10.79 18.171,-19.9 36.851,-25.22 z"
         fill="#c00000"
         fill-rule="evenodd"
         id="path5-5" />
      <path
         d="m 45.4369,1508.86 c -0.5949,-1.66 9.7725,-21.41 10.7072,-27.28 0.9348,-5.87 -3.3991,-8.43 -5.0987,-7.93 -1.6996,0.49 -4.164,13.97 -5.0987,10.91 -0.9348,-3.06 -3.5691,-26.95 -0.5098,-29.26 3.0592,-2.31 16.4858,9.34 18.8652,15.37 2.3794,6.04 -1.8695,14.96 -4.5888,20.83 -2.7193,5.87 -13.6816,19.01 -14.2764,17.36 z"
         fill="#c00000"
         fill-rule="evenodd"
         id="path6-3" />
      <path
         d="M 1.43685,53.8574 C 0.842026,52.2044 11.2094,32.4509 12.1441,26.5828 13.0789,20.7146 8.74497,18.1524 7.04539,18.6483 5.34582,19.1441 2.88141,32.6163 1.94667,29.5582 1.01193,26.5001 -1.62238,2.614 1.43685,0.299781 4.49608,-2.01444 17.9227,9.63934 20.3021,15.6729 22.6815,21.7064 18.4326,30.6327 15.7133,36.5008 12.994,42.369 2.03167,55.5105 1.43685,53.8574 Z"
         fill="#c00000"
         fill-rule="evenodd"
         transform="matrix(-1,0,0,1,885,1455)"
         id="path7-3" />
      <path
         d="M 63,1473 H 421.129"
         stroke="#c00000"
         stroke-width="2"
         stroke-miterlimit="8"
         fill="none"
         fill-rule="evenodd"
         id="path8-18" />
      <path
         d="M 506,1473 H 864.129"
         stroke="#c00000"
         stroke-width="2"
         stroke-miterlimit="8"
         fill="none"
         fill-rule="evenodd"
         id="path9-2" />
      <path
         d="m 444,1458 c 0,-9.94 9.402,-18 21,-18 11.598,0 21,8.06 21,18 0,9.94 -9.402,18 -21,18 -11.598,0 -21,-8.06 -21,-18 z"
         stroke="#c00000"
         stroke-width="2"
         stroke-miterlimit="8"
         fill="#c00000"
         fill-rule="evenodd"
         id="path10-3" />
      <path
         d="m 456.882,1448.83 c -1.459,0.99 -23.32,-3.68 -29.27,-3.04 -5.951,0.65 -7.347,5.42 -6.434,6.9 0.914,1.48 14.656,0.3 11.915,1.99 -2.741,1.68 -25.33,10.4 -28.358,8.1 -3.029,-2.29 4.915,-18.04 10.187,-21.87 5.272,-3.82 15.04,-2.13 21.442,-1.08 6.403,1.05 21.976,8 20.518,9 z"
         fill="#c00000"
         fill-rule="evenodd"
         id="path11-1" />
      <path
         d="M 1.40855,54.2839 C 0.825444,52.6178 10.9886,32.7079 11.905,26.7933 12.8213,20.8786 8.57276,18.2962 6.90665,18.796 5.24055,19.2957 2.82467,32.8746 1.90833,29.7923 0.992002,26.7099 -1.59044,2.6347 1.40855,0.302155 4.40755,-2.03039 17.5697,9.71567 19.9023,15.797 22.2348,21.8783 18.0696,30.8752 15.4038,36.7899 12.7381,42.7045 1.99167,55.95 1.40855,54.2839 Z"
         fill="#c00000"
         fill-rule="evenodd"
         transform="matrix(0.258505,-0.96601,-0.96601,-0.258505,525.675,1464.22)"
         id="path12-1" />
      <path
         d="m 451,1458 c 0,-7.73 6.268,-14 14,-14 7.732,0 14,6.27 14,14 0,7.73 -6.268,14 -14,14 -7.732,0 -14,-6.27 -14,-14 z"
         fill="#ffffff"
         fill-rule="evenodd"
         id="path13-0" />
      <path
         d="m 456.485,1461.83 15.151,-10.66 2.361,2.36 -15.152,10.66 z"
         fill="#460000"
         fill-rule="evenodd"
         id="path14-2" />
      <path
         d="M 0,18.2503 3.17688,0 H 6.51563 L 3.33875,18.2503 Z"
         fill="#460000"
         fill-rule="evenodd"
         transform="matrix(-0.707107,0.707107,0.707107,0.707107,461.095,1448.93)"
         id="path15-3" />
      <path
         d="M 54,1577.61 C 54,1545.79 79.7921,1520 111.608,1520 h 709.784 c 31.816,0 57.608,25.79 57.608,57.61 v 222.78 c 0,31.82 -25.792,57.61 -57.608,57.61 H 111.608 C 79.7921,1858 54,1832.21 54,1800.39 Z"
         fill="#ffffff"
         fill-rule="evenodd"
         id="path16-6" />
    </g>
  </g>
</svg>
