<?xml version="1.0" encoding="UTF-8" standalone="no"?>
<!-- Created with Inkscape (http://www.inkscape.org/) -->

<svg
   width="300mm"
   height="500mm"
   viewBox="0 0 300 500"
   version="1.1"
   id="svg1"
   inkscape:export-filename="MODAL.svg"
   inkscape:export-xdpi="96"
   inkscape:export-ydpi="96"
   xmlns:inkscape="http://www.inkscape.org/namespaces/inkscape"
   xmlns:sodipodi="http://sodipodi.sourceforge.net/DTD/sodipodi-0.dtd"
   xmlns="http://www.w3.org/2000/svg"
   xmlns:svg="http://www.w3.org/2000/svg">
  <sodipodi:namedview
     id="namedview1"
     pagecolor="#505050"
     bordercolor="#eeeeee"
     borderopacity="1"
     inkscape:showpageshadow="0"
     inkscape:pageopacity="0"
     inkscape:pagecheckerboard="0"
     inkscape:deskcolor="#505050"
     inkscape:document-units="mm" />
  <defs
     id="defs1">
    <clipPath
       id="clip0-4">
      <rect
         x="1095"
         y="654"
         width="841"
         height="923"
         id="rect1-0" />
    </clipPath>
  </defs>
  <g
     inkscape:label="Camada 1"
     inkscape:groupmode="layer"
     id="layer1">
    <g
       clip-path="url(#clip0-4)"
       transform="matrix(0.26458333,0,0,0.26458333,-260.71012,-167.60339)"
       id="g17">
      <path
         d="M 1097,721.039 C 1097,707.21 1108.21,696 1122.04,696 h 788.92 c 13.83,0 25.04,11.21 25.04,25.039 v 15.922 C 1936,750.79 1924.79,762 1910.96,762 H 1122.04 C 1108.21,762 1097,750.79 1097,736.961 Z"
         fill="#c00000"
         fill-rule="evenodd"
         id="path1-8" />
      <path
         d="m 1097,1536.04 c 0,-13.83 11.21,-25.04 25.04,-25.04 h 788.92 c 13.83,0 25.04,11.21 25.04,25.04 v 15.92 c 0,13.83 -11.21,25.04 -25.04,25.04 h -788.92 c -13.83,0 -25.04,-11.21 -25.04,-25.04 z"
         fill="#c00000"
         fill-rule="evenodd"
         id="path2-99" />
      <rect
         x="0"
         y="0"
         width="839"
         height="823"
         fill="#c00000"
         transform="matrix(1,0,0,-1,1097,1543)"
         id="rect2-6" />
      <path
         d="m 342.078,10.5929 v 5.503 H 55.1319 c -15.2241,0 -29.0071,8.1392 -38.9841,21.2987 L 5.70393,57.826 3.77488,69.7718 c 0,8.4495 1.36976,16.4988 3.84671,23.8201 L 8.89565,95.9548 3.84759,110.555 3.33735,111.31 V 61.5107 L 4.33308,55.0061 C 12.7025,28.9062 32.2961,10.5929 55.1324,10.5929 Z m 433.79,0 c 22.837,0 42.43,18.3133 50.8,44.4132 l 0.995,6.5009 v 50.382 l -0.902,-1.334 -5.048,-14.6002 1.274,-2.3629 c 2.477,-7.3213 3.847,-15.3706 3.847,-23.8201 l -2.109,-13.063 -9.873,-19.3142 C 804.875,24.2351 791.092,16.0959 775.868,16.0959 H 488.922 v -5.503 z M 37.2703,4.24132 33.6722,5.71469 C 20.4802,13.074 9.91219,27.0132 4.33264,44.4131 L 3.33735,50.9149 V 31.5947 L 24.0756,4.24132 Z m 769.6537,0 20.739,27.35338 v 19.3217 l -0.996,-6.5033 C 821.088,27.0132 810.52,13.074 797.328,5.71469 L 793.729,4.24132 Z M 810.262,0 H 775.868 586.205 244.795 55.1319 20.7382 L 0,27.3534 v 45.3649 43.5307 253.834 5.09 44.109 C 0,459.443 24.6835,492 55.1319,492 H 775.868 C 806.316,492 831,459.443 831,419.282 v -49.199 0 -342.7296 z"
         fill="#f2f2f2"
         fill-rule="evenodd"
         transform="matrix(-1,0,0,1,1932,720)"
         id="path3-1" />
      <path
         d="m 342.078,10.6144 v 5.5142 H 55.1319 c -15.2241,0 -29.0071,8.1558 -38.9841,21.342 L 5.70393,57.9435 3.77488,69.9136 c 0,8.4666 1.36976,16.5324 3.84671,23.8685 L 8.89565,96.1499 3.84759,110.78 3.33735,111.536 V 61.6357 L 4.33308,55.1179 C 12.7025,28.965 32.2961,10.6144 55.1324,10.6144 Z m 433.79,0 c 22.837,0 42.43,18.3506 50.8,44.5035 l 0.995,6.5141 v 50.484 l -0.902,-1.336 -5.048,-14.6301 1.274,-2.3678 c 2.477,-7.3361 3.847,-15.4019 3.847,-23.8685 L 824.725,56.824 814.852,37.4706 c -9.977,-13.1862 -23.76,-21.342 -38.984,-21.342 H 488.922 V 10.6144 Z M 37.2703,4.24994 33.6722,5.72631 C 20.4802,13.1006 9.91219,27.0681 4.33264,44.5034 l -0.99529,6.515 V 31.6589 L 24.0756,4.24994 Z m 769.6537,0 20.739,27.40896 v 19.361 l -0.996,-6.5165 C 821.088,27.0681 810.52,13.1006 797.328,5.72631 L 793.729,4.24994 Z M 810.262,0 H 775.868 586.205 244.795 55.1319 20.7382 L 0,27.409 v 45.4571 43.6189 254.351 5.1 44.198 C 0,460.377 24.6835,493 55.1319,493 H 775.868 C 806.316,493 831,460.377 831,420.134 v -49.298 0 -343.427 z"
         fill="#f2f2f2"
         fill-rule="evenodd"
         transform="matrix(1,0,0,-1,1101,1570)"
         id="path4-2" />
      <path
         d="m 1484.07,675 0.77,2.206 c 5.27,11.162 17.63,18.994 32.03,18.994 14.4,0 26.76,-7.832 32.03,-18.994 l 0.71,-2.047 4.7,1.092 c 18.56,5.319 32.18,14.434 36.61,25.218 L 1592,705 h -151 l 1.08,-3.531 c 4.43,-10.784 18.05,-19.899 36.61,-25.218 z"
         fill="#c00000"
         fill-rule="evenodd"
         id="path5-8" />
      <path
         d="m 1096.44,724.857 c -0.6,-1.653 9.77,-21.406 10.7,-27.274 0.94,-5.868 -3.4,-8.431 -5.09,-7.935 -1.7,0.496 -4.17,13.968 -5.1,10.91 -0.94,-3.058 -3.57,-26.944 -0.51,-29.258 3.06,-2.314 16.48,9.339 18.86,15.373 2.38,6.033 -1.87,14.96 -4.59,20.828 -2.72,5.868 -13.68,19.009 -14.27,17.356 z"
         fill="#c00000"
         fill-rule="evenodd"
         id="path6-4" />
      <path
         d="M 1.36843,53.8574 C 0.801929,52.2044 10.6756,32.4509 11.5658,26.5828 12.4561,20.7146 8.32854,18.1524 6.7099,18.6483 5.09126,19.1441 2.7442,32.6163 1.85397,29.5582 0.963742,26.5001 -1.54513,2.614 1.36843,0.299781 4.28199,-2.01444 17.0692,9.63934 19.3353,15.6729 21.6014,21.7064 17.5549,30.6327 14.965,36.5008 12.3752,42.369 1.93493,55.5105 1.36843,53.8574 Z"
         fill="#c00000"
         fill-rule="evenodd"
         transform="matrix(-1,0,0,1,1936,671)"
         id="path7-9" />
      <path
         d="m 1114,689 h 358.13"
         stroke="#c00000"
         stroke-width="2"
         stroke-miterlimit="8"
         fill="none"
         fill-rule="evenodd"
         id="path8-1" />
      <path
         d="m 1557,689 h 358.13"
         stroke="#c00000"
         stroke-width="2"
         stroke-miterlimit="8"
         fill="none"
         fill-rule="evenodd"
         id="path9-3" />
      <path
         d="m 1495,674 c 0,-9.941 9.4,-18 21,-18 11.6,0 21,8.059 21,18 0,9.941 -9.4,18 -21,18 -11.6,0 -21,-8.059 -21,-18 z"
         stroke="#c00000"
         stroke-width="2"
         stroke-miterlimit="8"
         fill="#c00000"
         fill-rule="evenodd"
         id="path10-6" />
      <path
         d="m 1508.07,664.817 c -1.45,0.994 -23.32,-3.677 -29.27,-3.033 -5.95,0.643 -7.34,5.415 -6.43,6.895 0.91,1.481 14.66,0.304 11.92,1.986 -2.75,1.682 -25.33,10.4 -28.36,8.106 -3.03,-2.294 4.91,-18.045 10.18,-21.87 5.28,-3.825 15.04,-2.128 21.45,-1.081 6.4,1.046 21.97,8.003 20.51,8.997 z"
         fill="#c00000"
         fill-rule="evenodd"
         id="path11-4" />
      <path
         d="M 1.40855,54.2839 C 0.825444,52.6178 10.9886,32.7079 11.905,26.7933 12.8213,20.8786 8.57276,18.2962 6.90665,18.796 5.24055,19.2957 2.82467,32.8746 1.90833,29.7923 0.992002,26.7099 -1.59044,2.6347 1.40855,0.302155 4.40755,-2.03039 17.5697,9.71567 19.9023,15.797 22.2348,21.8783 18.0696,30.8752 15.4038,36.7899 12.7381,42.7045 1.99167,55.95 1.40855,54.2839 Z"
         fill="#c00000"
         fill-rule="evenodd"
         transform="matrix(0.258505,-0.96601,-0.96601,-0.258505,1576.87,680.21)"
         id="path12-9" />
      <path
         d="m 1502,674 c 0,-7.732 6.49,-14 14.5,-14 8.01,0 14.5,6.268 14.5,14 0,7.732 -6.49,14 -14.5,14 -8.01,0 -14.5,-6.268 -14.5,-14 z"
         fill="#ffffff"
         fill-rule="evenodd"
         id="path13" />
      <path
         d="m 1507.68,677.822 15.15,-10.659 2.36,2.361 -15.15,10.658 z"
         fill="#460000"
         fill-rule="evenodd"
         id="path14" />
      <path
         d="M 0,18.2502 3.17686,0 H 6.51559 L 3.33873,18.2502 Z"
         fill="#460000"
         fill-rule="evenodd"
         transform="matrix(-0.707107,0.707107,0.707107,0.707107,1512.28,664.917)"
         id="path15" />
      <path
         d="m 342.078,10.6144 v 5.5142 H 55.1319 c -15.2241,0 -29.0071,8.1558 -38.9841,21.342 L 5.70393,57.9435 3.77488,69.9136 c 0,8.4666 1.36976,16.5324 3.84671,23.8685 L 8.89565,96.1499 3.84759,110.78 3.33735,111.536 V 61.6357 L 4.33308,55.1179 C 12.7025,28.965 32.2961,10.6144 55.1324,10.6144 Z m 433.79,0 c 22.837,0 42.43,18.3506 50.8,44.5035 l 0.995,6.5141 v 50.484 l -0.902,-1.336 -5.048,-14.6301 1.274,-2.3678 c 2.477,-7.3361 3.847,-15.4019 3.847,-23.8685 L 824.725,56.824 814.852,37.4706 c -9.977,-13.1862 -23.76,-21.342 -38.984,-21.342 H 488.922 V 10.6144 Z M 37.2703,4.24994 33.6722,5.72631 C 20.4802,13.1006 9.91219,27.0681 4.33264,44.5034 l -0.99529,6.515 V 31.6589 L 24.0756,4.24994 Z m 769.6537,0 20.739,27.40896 v 19.361 l -0.996,-6.5165 C 821.088,27.0681 810.52,13.1006 797.328,5.72631 L 793.729,4.24994 Z M 810.262,0 H 775.868 586.205 244.795 55.1319 20.7382 L 0,27.409 v 45.4571 43.6189 254.351 5.1 44.198 C 0,460.377 24.6835,493 55.1319,493 H 775.868 C 806.316,493 831,460.377 831,420.134 v -49.298 0 -343.427 z"
         fill="#f2f2f2"
         fill-rule="evenodd"
         transform="matrix(1,0,0,-1,1101,1228)"
         id="path16" />
      <path
         d="m 342.078,10.5929 v 5.503 H 55.1319 c -15.2241,0 -29.0071,8.1392 -38.9841,21.2987 L 5.70393,57.826 3.77488,69.7718 c 0,8.4495 1.36976,16.4988 3.84671,23.8201 L 8.89565,95.9548 3.84759,110.555 3.33735,111.31 V 61.5107 L 4.33308,55.0061 C 12.7025,28.9062 32.2961,10.5929 55.1324,10.5929 Z m 433.79,0 c 22.837,0 42.43,18.3133 50.8,44.4132 l 0.995,6.5009 v 50.382 l -0.902,-1.334 -5.048,-14.6002 1.274,-2.3629 c 2.477,-7.3213 3.847,-15.3706 3.847,-23.8201 l -2.109,-13.063 -9.873,-19.3142 C 804.875,24.2351 791.092,16.0959 775.868,16.0959 H 488.922 v -5.503 z M 37.2703,4.24132 33.6722,5.71469 C 20.4802,13.074 9.91219,27.0132 4.33264,44.4131 L 3.33735,50.9149 V 31.5947 L 24.0756,4.24132 Z m 769.6537,0 20.739,27.35338 v 19.3217 l -0.996,-6.5033 C 821.088,27.0132 810.52,13.074 797.328,5.71469 L 793.729,4.24132 Z M 810.262,0 H 775.868 586.205 244.795 55.1319 20.7382 L 0,27.3534 v 45.3649 43.5307 253.834 5.09 44.109 C 0,459.443 24.6835,492 55.1319,492 H 775.868 C 806.316,492 831,459.443 831,419.282 v -49.199 0 -342.7296 z"
         fill="#f2f2f2"
         fill-rule="evenodd"
         transform="matrix(-1,0,0,1,1932,1055)"
         id="path17" />
    </g>
  </g>
</svg>
