<svg width="68" height="65" viewBox="0 0 68 65" fill="none" xmlns="http://www.w3.org/2000/svg">
<path fill-rule="evenodd" clip-rule="evenodd" d="M10.625 24H57.219L67 33.565V54.663L57.452 64H10.839L1 54.379V33.413L10.625 24Z" stroke="#FF0000" stroke-width="1.33333" stroke-miterlimit="8"/>
<path d="M15.7627 24L2 38.3321" stroke="#FF0000" stroke-width="1.33333" stroke-miterlimit="8"/>
<path d="M53 24L66.763 38.332" stroke="#FF0000" stroke-width="1.33333" stroke-miterlimit="8"/>
<path d="M15.763 64.332L2 50" stroke="#FF0000" stroke-width="1.33333" stroke-miterlimit="8"/>
<path d="M53 64.332L66.7627 49.9999" stroke="#FF0000" stroke-width="1.33333" stroke-miterlimit="8"/>
<path fill-rule="evenodd" clip-rule="evenodd" d="M47 13.27V24H22V13.113L23.234 13.633C24.565 13.633 25.644 12.536 25.644 11.183C25.644 10.506 25.374 9.89401 24.938 9.45001L24.15 9.11801L31.915 1H37.108L44.974 9.22299L43.84 9.70099C43.404 10.144 43.135 10.757 43.135 11.433C43.135 12.786 44.213 13.883 45.544 13.883L47 13.27Z" fill="#FF0000" stroke="#FF0000" stroke-width="1.33333" stroke-miterlimit="8"/>
<path d="M28.1164 19.5V10.7727H31.5596C32.2215 10.7727 32.7855 10.8991 33.2514 11.152C33.7173 11.402 34.0724 11.75 34.3167 12.196C34.5639 12.6392 34.6875 13.1506 34.6875 13.7301C34.6875 14.3097 34.5625 14.821 34.3125 15.2642C34.0625 15.7074 33.7002 16.0526 33.2258 16.2997C32.7542 16.5469 32.1832 16.6705 31.5127 16.6705H29.3181V15.1918H31.2144C31.5696 15.1918 31.8622 15.1307 32.0923 15.0085C32.3252 14.8835 32.4985 14.7116 32.6122 14.4929C32.7286 14.2713 32.7869 14.017 32.7869 13.7301C32.7869 13.4403 32.7286 13.1875 32.6122 12.9716C32.4985 12.7528 32.3252 12.5838 32.0923 12.4645C31.8593 12.3423 31.5639 12.2813 31.2059 12.2813H29.9616V19.5H28.1164Z" fill="white"/>
<path d="M37.9105 16.4659H39.4786L40.267 17.4801L41.0426 18.3835L42.5042 20.2159H40.7826L39.7769 18.9801L39.2613 18.2472L37.9105 16.4659ZM42.6363 15.1364C42.6363 16.0881 42.4559 16.8977 42.0951 17.5653C41.7372 18.233 41.2485 18.7429 40.6292 19.0952C40.0127 19.4446 39.3196 19.6193 38.5497 19.6193C37.7741 19.6193 37.0781 19.4432 36.4616 19.0909C35.8451 18.7386 35.3579 18.2287 35 17.5611C34.642 16.8935 34.463 16.0852 34.463 15.1364C34.463 14.1847 34.642 13.375 35 12.7074C35.3579 12.0398 35.8451 11.5313 36.4616 11.1818C37.0781 10.8295 37.7741 10.6534 38.5497 10.6534C39.3196 10.6534 40.0127 10.8295 40.6292 11.1818C41.2485 11.5313 41.7372 12.0398 42.0951 12.7074C42.4559 13.375 42.6363 14.1847 42.6363 15.1364ZM40.7656 15.1364C40.7656 14.5199 40.6733 14 40.4886 13.5767C40.3068 13.1534 40.0497 12.8324 39.7173 12.6136C39.3849 12.3949 38.9957 12.2855 38.5497 12.2855C38.1036 12.2855 37.7144 12.3949 37.3821 12.6136C37.0497 12.8324 36.7911 13.1534 36.6065 13.5767C36.4247 14 36.3338 14.5199 36.3338 15.1364C36.3338 15.7528 36.4247 16.2727 36.6065 16.696C36.7911 17.1193 37.0497 17.4403 37.3821 17.6591C37.7144 17.8778 38.1036 17.9872 38.5497 17.9872C38.9957 17.9872 39.3849 17.8778 39.7173 17.6591C40.0497 17.4403 40.3068 17.1193 40.4886 16.696C40.6733 16.2727 40.7656 15.7528 40.7656 15.1364Z" fill="white"/>
</svg>
