<svg width="40" height="7" viewBox="0 0 40 7" fill="none" xmlns="http://www.w3.org/2000/svg">
<path d="M0 1H40" stroke="#C00000" stroke-width="2" stroke-miterlimit="8"/>
<path fill-rule="evenodd" clip-rule="evenodd" d="M19.0493 1.00716C18.3525 0.879945 5.44652 2.47878 3.04299 3.29598C0.639453 4.11373 3.57162 5.58535 4.62887 5.91257C5.68682 6.23922 8.95538 5.56702 9.38788 5.25814C9.82039 4.94926 5.5186 4.7676 7.22461 4.05929C8.93132 3.35098 19.7469 1.13438 19.0493 1.00716Z" fill="#C00000" stroke="#C00000" stroke-width="2" stroke-miterlimit="8"/>
<path fill-rule="evenodd" clip-rule="evenodd" d="M20.5276 1.00716C21.2246 0.879961 34.1308 2.47875 36.5342 3.29625C38.9377 4.11382 36.0055 5.58535 34.948 5.91236C33.8905 6.23938 30.6219 5.56715 30.1893 5.25834C29.7567 4.94952 34.0587 4.76779 32.3523 4.05929C30.6459 3.35079 19.8305 1.13436 20.5276 1.00716Z" fill="#C00000" stroke="#C00000" stroke-width="2" stroke-miterlimit="8"/>
</svg>
