<svg width="257" height="65" viewBox="0 0 257 65" fill="none" xmlns="http://www.w3.org/2000/svg">
<path fill-rule="evenodd" clip-rule="evenodd" d="M30.6802 6H56.9059H74.0357H244.695L246.101 8.48401C247.417 10.351 248.916 12.09 250.573 13.677L255 17.177V47.813L250.573 51.314C248.916 52.901 247.417 54.64 246.101 56.506L245.329 57.87H74.0357V58H30.6802V6Z" fill="white" stroke="#FF0000" stroke-width="3" stroke-miterlimit="8"/>
<path fill-rule="evenodd" clip-rule="evenodd" d="M221.71 5.5C234.087 10.03 246.465 14.56 254.488 22.5L221.71 5.5Z" fill="white"/>
<path d="M221.71 5.5C234.087 10.03 246.465 14.56 254.488 22.5" stroke="#FF0000" stroke-width="2" stroke-miterlimit="8"/>
<path fill-rule="evenodd" clip-rule="evenodd" d="M221.71 57.5C234.087 52.97 246.464 48.4399 254.488 40.5L221.71 57.5Z" fill="white"/>
<path d="M221.71 57.5C234.087 52.97 246.464 48.4399 254.488 40.5" stroke="#FF0000" stroke-width="2" stroke-miterlimit="8"/>
<path fill-rule="evenodd" clip-rule="evenodd" d="M9.16992 32C9.16992 15.432 20.4055 2 34.2651 2C48.1248 2 59.3602 15.432 59.3602 32C59.3602 48.569 48.1248 62 34.2651 62C20.4055 62 9.16992 48.569 9.16992 32Z" fill="white" stroke="#FF0000" stroke-miterlimit="8"/>
<path fill-rule="evenodd" clip-rule="evenodd" d="M2 2H15.8162L16.0284 2.539C18.9164 6.041 25.6771 8.49799 33.5569 8.49799C41.4367 8.49799 48.1974 6.041 51.0854 2.539L51.2977 2H65.5061V63H51.4811L51.0854 61.995C48.1974 58.493 41.4367 56.036 33.5569 56.036C25.6771 56.036 18.9164 58.493 16.0284 61.995L15.6326 63H2V2Z" fill="white" stroke="#FF0000" stroke-width="3" stroke-miterlimit="8"/>
<path fill-rule="evenodd" clip-rule="evenodd" d="M64.9941 13.5H240.831H64.9941Z" fill="white"/>
<path d="M64.9941 13.5H240.831" stroke="#FF0000" stroke-width="2" stroke-miterlimit="8"/>
<path fill-rule="evenodd" clip-rule="evenodd" d="M64.9941 50.5H240.831H64.9941Z" fill="white"/>
<path d="M64.9941 50.5H240.831" stroke="#FF0000" stroke-width="2" stroke-miterlimit="8"/>
<path fill-rule="evenodd" clip-rule="evenodd" d="M69.0913 12.5L69.0914 50.295L69.0913 12.5Z" fill="white"/>
<path d="M69.0913 12.5L69.0914 50.295" stroke="#FF0000" stroke-width="2" stroke-miterlimit="8"/>
</svg>
