<svg width="261" height="88" viewBox="0 0 261 88" fill="none" xmlns="http://www.w3.org/2000/svg">
<path fill-rule="evenodd" clip-rule="evenodd" d="M65.4893 17.4971H249.396L250.774 20.0361C252.063 21.9431 253.531 23.7191 255.154 25.3411L259.489 28.918V60.2211L255.154 63.798C253.531 65.42 252.063 67.1971 250.774 69.1041L250.018 70.4971H67.169L67.7902 70.0081C74.5892 63.5211 78.7949 54.558 78.7949 44.658C78.7949 34.758 74.5892 25.796 67.7902 19.308L65.4893 17.4971Z" fill="white" stroke="#FF0000" stroke-width="3.00493" stroke-miterlimit="8"/>
<path fill-rule="evenodd" clip-rule="evenodd" d="M5.99902 44.498C5.99902 25.444 22.117 9.99805 41.999 9.99805C61.8811 9.99805 77.9991 25.444 77.9991 44.498C77.9991 63.552 61.8811 78.998 41.999 78.998C22.117 78.998 5.99902 63.552 5.99902 44.498Z" fill="white" stroke="#FF0000" stroke-width="4.00651" stroke-miterlimit="8"/>
<path fill-rule="evenodd" clip-rule="evenodd" d="M225.983 17.999C238.066 22.529 250.15 27.059 257.983 34.999L225.983 17.999Z" fill="white"/>
<path d="M225.983 17.999C238.066 22.529 250.15 27.059 257.983 34.999" stroke="#FF0000" stroke-width="2.00325" stroke-miterlimit="8"/>
<path fill-rule="evenodd" clip-rule="evenodd" d="M226.064 69.062C238.147 64.5319 250.231 60.0018 258.064 52.0619L226.064 69.062Z" fill="white"/>
<path d="M226.064 69.062C238.147 64.5319 250.231 60.0018 258.064 52.0619" stroke="#FF0000" stroke-width="2.00325" stroke-miterlimit="8"/>
<path fill-rule="evenodd" clip-rule="evenodd" d="M40.9971 0H41.479L41.69 1.211C46.411 14.191 57.4651 23.299 70.3481 23.299C75.1791 23.299 79.7531 22.018 83.8321 19.733L87.2461 17.257H88.997L85.6431 20.209C81.0841 23.257 75.7982 25 70.1611 25C57.2781 25 46.224 15.892 41.503 2.91199L40.9971 0Z" fill="#FF0000"/>
<path fill-rule="evenodd" clip-rule="evenodd" d="M41.0581 87.062H41.5403L41.7506 85.8993C46.4721 73.4384 57.5258 64.6949 70.409 64.6949C75.2401 64.6949 79.8141 65.9244 83.8933 68.1185L87.3068 70.4952H89.0582L85.7038 67.6618C81.1448 64.7355 75.8586 63.0619 70.2222 63.0619C57.339 63.0619 46.2854 71.8053 41.5638 84.2662L41.0581 87.062Z" fill="#FF0000"/>
<path fill-rule="evenodd" clip-rule="evenodd" d="M0.0566406 35.0632H0.609124L0.850095 33.9006C6.26015 21.4396 18.9258 12.6962 33.6877 12.6962C39.2235 12.6962 44.4645 13.9257 49.1385 16.1198L53.0498 18.4965H55.0567L51.213 15.663C45.9893 12.7366 39.9322 11.0632 33.4737 11.0632C18.7118 11.0632 6.04612 19.8066 0.636061 32.2676L0.0566406 35.0632Z" fill="#FF0000"/>
<path fill-rule="evenodd" clip-rule="evenodd" d="M0 50.9961H0.572998L0.822098 52.1591C6.4291 64.6201 19.555 73.3631 34.8541 73.3631C40.591 73.3631 46.0231 72.1341 50.867 69.9391L54.9201 67.5631H57L53.0171 70.3961C47.6031 73.3231 41.326 74.9961 34.6321 74.9961C19.3341 74.9961 6.207 66.2531 0.600998 53.7921L0 50.9961Z" fill="#FF0000"/>
</svg>
