<svg width="68" height="65" viewBox="0 0 68 65" fill="none" xmlns="http://www.w3.org/2000/svg">
<path fill-rule="evenodd" clip-rule="evenodd" d="M10.625 24H57.219L67 33.565V54.663L57.452 64H10.839L1 54.379V33.413L10.625 24Z" stroke="#FF0000" stroke-width="1.33333" stroke-miterlimit="8"/>
<path d="M15.7627 24L2 38.3321" stroke="#FF0000" stroke-width="1.33333" stroke-miterlimit="8"/>
<path d="M53 24L66.763 38.332" stroke="#FF0000" stroke-width="1.33333" stroke-miterlimit="8"/>
<path d="M15.763 64.332L2 50" stroke="#FF0000" stroke-width="1.33333" stroke-miterlimit="8"/>
<path d="M53 64.332L66.7627 49.9999" stroke="#FF0000" stroke-width="1.33333" stroke-miterlimit="8"/>
<path fill-rule="evenodd" clip-rule="evenodd" d="M47 13.27V24H22V13.113L23.234 13.633C24.565 13.633 25.644 12.536 25.644 11.183C25.644 10.506 25.374 9.89401 24.938 9.45001L24.15 9.11801L31.915 1H37.108L44.974 9.22299L43.84 9.70099C43.404 10.144 43.135 10.757 43.135 11.433C43.135 12.786 44.213 13.883 45.544 13.883L47 13.27Z" fill="#FF0000" stroke="#FF0000" stroke-width="1.33333" stroke-miterlimit="8"/>
<path d="M28.1164 19.5V10.7727H31.5596C32.2215 10.7727 32.7855 10.8991 33.2514 11.152C33.7173 11.402 34.0724 11.75 34.3167 12.196C34.5639 12.6392 34.6875 13.1506 34.6875 13.7301C34.6875 14.3097 34.5625 14.821 34.3125 15.2642C34.0625 15.7074 33.7002 16.0526 33.2258 16.2997C32.7542 16.5469 32.1832 16.6705 31.5127 16.6705H29.3181V15.1918H31.2144C31.5696 15.1918 31.8622 15.1307 32.0923 15.0085C32.3252 14.8835 32.4985 14.7116 32.6122 14.4929C32.7286 14.2713 32.7869 14.017 32.7869 13.7301C32.7869 13.4403 32.7286 13.1875 32.6122 12.9716C32.4985 12.7528 32.3252 12.5838 32.0923 12.4645C31.8593 12.3423 31.5639 12.2813 31.2059 12.2813H29.9616V19.5H28.1164Z" fill="white"/>
<path d="M34.6164 19.5V10.7727H36.4616V17.9787H40.2031V19.5H34.6164Z" fill="white"/>
</svg>
