<svg width="24" height="26" viewBox="0 0 24 26" fill="none" xmlns="http://www.w3.org/2000/svg">
<path fill-rule="evenodd" clip-rule="evenodd" d="M7.6308 2H9.9097V3.47254C9.9097 3.85065 10.2162 4.15717 10.5943 4.15717H13.3335C13.7116 4.15717 14.0184 3.85065 14.0184 3.47254V2H16.2973V3.47254C16.2973 3.85065 16.6039 4.15717 16.982 4.15717H19.7211C20.0995 4.15717 20.4061 3.85065 20.4061 3.47254V2.4444L21.9261 3.0739L22.2796 3.9272H21.4732C21.0951 3.9272 20.7883 4.23404 20.7883 4.61214V7.35127C20.7883 7.72938 21.0951 8.03621 21.4732 8.03621H23V10.8692H21.4732C21.0951 10.8692 20.7883 11.176 20.7883 11.5542V14.2933C20.7883 14.6714 21.0951 14.9779 21.4732 14.9779H23V17.8112H21.4732C21.0951 17.8112 20.7883 18.1178 20.7883 18.4959V21.235C20.7883 21.6131 21.0951 21.92 21.4732 21.92H22.3426L21.9261 22.9261L20.4061 23.5556V22.3908C20.4061 22.0127 20.0995 21.7058 19.7211 21.7058H16.982C16.6039 21.7058 16.2973 22.0127 16.2973 22.3908V24H14.0184V22.3908C14.0184 22.0127 13.7116 21.7058 13.3335 21.7058H10.5943C10.2162 21.7058 9.9097 22.0127 9.9097 22.3908V24H7.6308V22.3908C7.6308 22.0127 7.32427 21.7058 6.94616 21.7058H4.20701C3.82861 21.7058 3.52208 22.0127 3.52208 22.3908V23.526L2.07389 22.9261L1.65736 21.92H2.21675C2.59515 21.92 2.90168 21.6131 2.90168 21.235V18.4959C2.90168 18.1178 2.59515 17.8112 2.21675 17.8112H1V14.9779H2.21675C2.59515 14.9779 2.90168 14.6714 2.90168 14.2933V11.5542C2.90168 11.176 2.59515 10.8692 2.21675 10.8692H1V8.03621H2.21675C2.59515 8.03621 2.90168 7.72938 2.90168 7.35127V4.61214C2.90168 4.23404 2.59515 3.9272 2.21675 3.9272H1.72042L2.07389 3.0739L3.52208 2.47403V3.47254C3.52208 3.85065 3.82861 4.15717 4.20701 4.15717H6.94616C7.32427 4.15717 7.6308 3.85065 7.6308 3.47254V2Z" fill="white" stroke="#C00000" stroke-width="2" stroke-miterlimit="8"/>
<path fill-rule="evenodd" clip-rule="evenodd" d="M15.8135 11.9734C16.3805 11.9734 16.8402 12.433 16.8402 13.0001C16.8402 13.5671 16.3805 14.0267 15.8135 14.0267H8.18682C7.61981 14.0267 7.16016 13.5671 7.16016 13.0001C7.16016 12.433 7.61981 11.9734 8.18682 11.9734H15.8135Z" fill="#FF0000"/>
<path fill-rule="evenodd" clip-rule="evenodd" d="M10.9731 8.59991C10.9731 8.0329 11.4328 7.57324 11.9998 7.57324C12.5668 7.57324 13.0265 8.0329 13.0265 8.59991V17.1066C13.0265 17.6736 12.5668 18.1332 11.9998 18.1332C11.4328 18.1332 10.9731 17.6736 10.9731 17.1066V8.59991Z" fill="#FF0000"/>
</svg>
