<?xml version="1.0" encoding="UTF-8" standalone="no"?>
<!-- Created with Inkscape (http://www.inkscape.org/) -->

<svg
   width="80mm"
   height="30mm"
   viewBox="0 0 80 30"
   version="1.1"
   id="svg1"
   inkscape:export-filename="PELE.svg"
   inkscape:export-xdpi="96"
   inkscape:export-ydpi="96"
   xmlns:inkscape="http://www.inkscape.org/namespaces/inkscape"
   xmlns:sodipodi="http://sodipodi.sourceforge.net/DTD/sodipodi-0.dtd"
   xmlns="http://www.w3.org/2000/svg"
   xmlns:svg="http://www.w3.org/2000/svg">
  <sodipodi:namedview
     id="namedview1"
     pagecolor="#505050"
     bordercolor="#eeeeee"
     borderopacity="1"
     inkscape:showpageshadow="0"
     inkscape:pageopacity="0"
     inkscape:pagecheckerboard="0"
     inkscape:deskcolor="#505050"
     inkscape:document-units="mm" />
  <defs
     id="defs1">
    <clipPath
       id="clip0-7">
      <rect
         x="696"
         y="172"
         width="81"
         height="81"
         id="rect1-6" />
    </clipPath>
  </defs>
  <g
     inkscape:label="Camada 1"
     inkscape:groupmode="layer"
     id="layer1">
    <g
       clip-path="url(#clip0-7)"
       transform="matrix(0.26458333,0,0,0.26458333,-163.65496,-41.702168)"
       id="g21">
      <path
         d="m 728.176,182.88 4.079,4.078 -13.427,13.295 c -1.132,1.12 -2.958,1.111 -4.079,-0.021 -1.12,-1.131 -1.111,-2.957 0.021,-4.078 z"
         fill="#ff0000"
         fill-rule="evenodd"
         id="path1-7" />
      <path
         d="m 736.64,191.344 4.079,4.079 -13.427,13.294 c -1.132,1.12 -2.958,1.111 -4.079,-0.02 -1.12,-1.132 -1.111,-2.958 0.021,-4.079 z"
         fill="#ff0000"
         fill-rule="evenodd"
         id="path2-02" />
      <path
         d="m 745.149,199.853 4.078,4.078 -13.426,13.294 c -1.132,1.121 -2.958,1.112 -4.079,-0.02 -1.121,-1.132 -1.112,-2.958 0.02,-4.078 z"
         fill="#ff0000"
         fill-rule="evenodd"
         id="path3-6" />
      <path
         d="m 753.702,208.406 4.078,4.078 -13.426,13.295 c -1.132,1.12 -2.958,1.111 -4.079,-0.021 -1.121,-1.132 -1.111,-2.958 0.02,-4.078 z"
         fill="#ff0000"
         fill-rule="evenodd"
         id="path4-2" />
      <path
         d="m 762.211,216.914 4.078,4.079 -13.427,13.294 c -1.131,1.121 -2.957,1.112 -4.078,-0.02 -1.121,-1.132 -1.112,-2.958 0.02,-4.078 z"
         fill="#ff0000"
         fill-rule="evenodd"
         id="path5-0" />
      <path
         d="m 769.482,226.685 4.078,4.079 -12.17,12.05 c -1.132,1.121 -2.958,1.112 -4.079,-0.02 -1.121,-1.132 -1.111,-2.958 0.02,-4.078 z"
         fill="#ff0000"
         fill-rule="evenodd"
         id="path6-6" />
      <path
         d="m 717.844,176.029 4.079,4.078 -12.171,12.051 c -1.132,1.121 -2.958,1.112 -4.079,-0.02 -1.12,-1.132 -1.111,-2.958 0.021,-4.079 z"
         fill="#ff0000"
         fill-rule="evenodd"
         id="path7-7" />
      <path
         d="m 720.464,178.602 -0.732,-0.026 c -0.545,0.087 -1.083,0.283 -1.581,0.594 l -9.435,5.896 9.151,-9.061 z"
         fill="#c00000"
         fill-rule="evenodd"
         id="path8-4" />
      <path
         d="m 732.247,186.89 -2.136,2.114 -0.192,-0.086 c -1.061,-0.245 -2.215,-0.085 -3.212,0.538 l -11.496,7.184 c -0.498,0.312 -0.91,0.709 -1.227,1.162 l -0.03,0.052 0.162,-0.811 c 0.143,-0.346 0.356,-0.671 0.639,-0.951 l 13.413,-13.281 z"
         fill="#c00000"
         fill-rule="evenodd"
         id="path9-7" />
      <path
         d="m 740.807,195.334 -1.989,1.97 -0.925,-0.412 c -1.061,-0.245 -2.216,-0.085 -3.212,0.537 l -11.353,7.095 13.4,-13.268 z"
         fill="#c00000"
         fill-rule="evenodd"
         id="path10-0" />
      <path
         d="m 749.316,203.843 -1.864,1.845 -1.375,-0.612 c -1.061,-0.245 -2.216,-0.085 -3.212,0.537 l -9.583,5.989 11.955,-11.837 z"
         fill="#c00000"
         fill-rule="evenodd"
         id="path11-5" />
      <path
         d="m 757.869,212.396 -1.872,1.854 -1.345,-0.599 c -1.061,-0.245 -2.215,-0.085 -3.212,0.538 l -9.703,6.063 12.053,-11.934 z"
         fill="#c00000"
         fill-rule="evenodd"
         id="path12-8" />
      <path
         d="m 766.378,220.905 -1.859,1.84 -1.395,-0.622 c -1.061,-0.245 -2.215,-0.085 -3.212,0.538 l -9.504,5.939 11.891,-11.774 z"
         fill="#c00000"
         fill-rule="evenodd"
         id="path13-7" />
      <path
         d="m 769.482,226.685 4.078,4.079 -0.604,0.599 -1.068,-0.476 c -1.061,-0.245 -2.216,-0.085 -3.212,0.537 l -10.792,6.745 z"
         fill="#c00000"
         fill-rule="evenodd"
         id="path14-9" />
      <path
         d="m 725.582,172.224 c 2.722,-0.299 5.329,0.44 7.177,2.288 l 41.833,41.834 c 3.697,3.696 2.958,10.429 -1.651,15.037 l -0.342,0.342 -55.219,-55.219 0.342,-0.343 c 2.304,-2.304 5.139,-3.64 7.86,-3.939 z"
         fill="#c00000"
         fill-rule="evenodd"
         id="path15-8" />
      <path
         d="M 14.8943,65.2119 V 0 H 8.96786 L 0,8.40758 0.0918378,12.6496 C 1.1818,37.5324 5.92519,57.4731 12.0616,63.5463 Z"
         fill="#ff0000"
         fill-rule="evenodd"
         transform="matrix(0.707107,0.707107,0.707107,-0.707107,717.952,210.273)"
         id="path16-0" />
      <path
         d="m 774.505,174.603 -46.112,46.112 4.191,4.19 12.286,0.397 2.935,-3.065 c 16.824,-18.365 27.57,-35.82 27.525,-44.453 z"
         fill="#c00000"
         fill-rule="evenodd"
         id="path17-1" />
      <path
         d="m 734.777,214.766 -4.668,28.477 -8.479,-8.479 1.343,-8.194 -8.194,1.343 -8.479,-8.479 z"
         fill="#c00000"
         fill-rule="evenodd"
         id="path18-9" />
      <path
         d="m 734.777,214.766 -4.668,28.477 -8.479,-8.479 1.343,-8.194 -0.252,0.041 11.803,-11.803 z"
         fill="#ff0000"
         fill-rule="evenodd"
         id="path19-3" />
      <path
         d="m 727.834,240.728 -5.493,0.318 -0.318,5.493 5.493,-0.318 z m 4.127,-4.159 c 3.712,3.711 3.712,9.729 0,13.441 -3.711,3.711 -9.729,3.711 -13.44,0 -3.712,-3.712 -3.712,-9.73 0,-13.441 3.711,-3.712 9.729,-3.712 13.44,0 z"
         fill="#c00000"
         fill-rule="evenodd"
         id="path20-2" />
      <path
         d="m 708.475,221.369 -5.492,0.319 -0.319,5.492 5.493,-0.318 z m 4.127,-4.159 c 3.712,3.712 3.712,9.729 0,13.441 -3.711,3.711 -9.729,3.711 -13.44,0 -3.712,-3.712 -3.712,-9.729 0,-13.441 3.711,-3.712 9.729,-3.712 13.44,0 z"
         fill="#ff0000"
         fill-rule="evenodd"
         id="path21-7" />
    </g>
  </g>
</svg>
