<svg width="8" height="29" viewBox="0 0 8 29" fill="none" xmlns="http://www.w3.org/2000/svg">
<path fill-rule="evenodd" clip-rule="evenodd" d="M0 1.23723C0 0.553968 0.553968 0 1.23723 0H6.18613C6.86939 0 7.42336 0.553968 7.42336 1.23723V27.219C7.42336 27.9022 6.86939 28.4562 6.18613 28.4562H1.23723C0.553968 28.4562 0 27.9022 0 27.219V1.23723Z" fill="#C00000"/>
<path fill-rule="evenodd" clip-rule="evenodd" d="M7.42336 23.035V27.2431C7.42336 27.9131 6.86939 28.4562 6.18613 28.4562H5.94179L7.42336 23.035ZM1.23723 0H6.03273L0 22.0768V1.2131C0 0.543142 0.553968 0 1.23723 0Z" fill="#FF0000"/>
<path d="M4.33008 2.16528H7.3319" stroke="#800000" stroke-width="0.5" stroke-miterlimit="8"/>
<path d="M4.33008 4.63965H7.3319" stroke="#800000" stroke-width="0.5" stroke-miterlimit="8"/>
<path d="M4.33008 7.11426H7.3319" stroke="#800000" stroke-width="0.5" stroke-miterlimit="8"/>
<path d="M4.33008 9.89795H7.3319" stroke="#800000" stroke-width="0.5" stroke-miterlimit="8"/>
<path d="M4.33008 12.3723H7.3319" stroke="#800000" stroke-width="0.5" stroke-miterlimit="8"/>
<path d="M4.33008 14.8469H7.3319" stroke="#800000" stroke-width="0.5" stroke-miterlimit="8"/>
<path d="M4.33008 17.3213H7.3319" stroke="#800000" stroke-width="0.5" stroke-miterlimit="8"/>
<path d="M4.33008 19.7957H7.3319" stroke="#800000" stroke-width="0.5" stroke-miterlimit="8"/>
<path d="M4.33008 22.2703H7.3319" stroke="#800000" stroke-width="0.5" stroke-miterlimit="8"/>
<path d="M4.33008 24.7446H7.3319" stroke="#800000" stroke-width="0.5" stroke-miterlimit="8"/>
<path d="M4.33008 27.2192H7.3319" stroke="#800000" stroke-width="0.5" stroke-miterlimit="8"/>
<path d="M5.87646 3.40234H7.59683" stroke="#800000" stroke-width="0.5" stroke-miterlimit="8"/>
<path d="M5.87646 5.87695H7.59683" stroke="#800000" stroke-width="0.5" stroke-miterlimit="8"/>
<path d="M5.87646 8.66064H7.59683" stroke="#800000" stroke-width="0.5" stroke-miterlimit="8"/>
<path d="M5.87646 11.1353H7.59683" stroke="#800000" stroke-width="0.5" stroke-miterlimit="8"/>
<path d="M5.87646 13.6094H7.59683" stroke="#800000" stroke-width="0.5" stroke-miterlimit="8"/>
<path d="M5.87646 16.084H7.59683" stroke="#800000" stroke-width="0.5" stroke-miterlimit="8"/>
<path d="M5.87646 18.5583H7.59683" stroke="#800000" stroke-width="0.5" stroke-miterlimit="8"/>
<path d="M5.87646 21.033H7.59683" stroke="#800000" stroke-width="0.5" stroke-miterlimit="8"/>
<path d="M5.87646 23.5073H7.59683" stroke="#800000" stroke-width="0.5" stroke-miterlimit="8"/>
<path d="M5.87646 25.9819H7.59683" stroke="#800000" stroke-width="0.5" stroke-miterlimit="8"/>
</svg>
