<svg width="14" height="18" viewBox="0 0 14 18" fill="none" xmlns="http://www.w3.org/2000/svg">
<path fill-rule="evenodd" clip-rule="evenodd" d="M2.13867 1.94458H11.8609L11.8376 2.73519C11.6818 5.34891 10.8146 7.60389 9.57131 8.92747L9.35081 9.13902L9.57131 9.35058C10.8146 10.6742 11.6818 12.9291 11.8376 15.5429L11.8609 16.3335H2.13867L2.162 15.5429C2.31775 12.9291 3.18498 10.6742 4.42825 9.35058L4.64875 9.13902L4.42825 8.92747C3.18498 7.60389 2.31775 5.34891 2.162 2.73519L2.13867 1.94458Z" stroke="#FF0000" stroke-width="1.5" stroke-miterlimit="8"/>
<path fill-rule="evenodd" clip-rule="evenodd" d="M6.99989 9.72217C8.71859 9.72217 10.1324 11.8928 10.3023 14.6741L10.3054 14.7777H3.69434L3.69745 14.6741C3.86739 11.8928 5.2812 9.72217 6.99989 9.72217Z" fill="#FF0000"/>
<path fill-rule="evenodd" clip-rule="evenodd" d="M7.00011 8.74995C6.25228 8.74995 5.57522 7.82575 5.08522 6.33145L5.05566 6.22217H8.94455L8.915 6.33145C8.425 7.82575 7.74794 8.74995 7.00011 8.74995Z" fill="#FF0000"/>
<path fill-rule="evenodd" clip-rule="evenodd" d="M0 1.16667C0 0.522278 0.522278 0 1.16667 0H12.8333C13.4777 0 14 0.522278 14 1.16667C14 1.81106 13.4777 2.33333 12.8333 2.33333H1.16667C0.522278 2.33333 0 1.81106 0 1.16667Z" fill="#C00000"/>
<path fill-rule="evenodd" clip-rule="evenodd" d="M0 16.7223C0 16.0779 0.522278 15.5557 1.16667 15.5557H12.8333C13.4777 15.5557 14 16.0779 14 16.7223C14 17.3667 13.4777 17.889 12.8333 17.889H1.16667C0.522278 17.889 0 17.3667 0 16.7223Z" fill="#C00000"/>
<path fill-rule="evenodd" clip-rule="evenodd" d="M6.99678 9.72217L6.99989 9.72236V14.7777H3.69434L3.69745 14.6741C3.86739 11.8928 5.27964 9.72217 6.99678 9.72217Z" fill="#C00000"/>
<path fill-rule="evenodd" clip-rule="evenodd" d="M5.05566 6.22217H7.00011V8.74995L6.72322 8.70736C6.08602 8.51 5.51397 7.63889 5.08522 6.33145L5.05566 6.22217Z" fill="#C00000"/>
</svg>
