<svg width="19" height="10" viewBox="0 0 19 10" fill="none" xmlns="http://www.w3.org/2000/svg">
<mask id="mask0_196_244" style="mask-type:luminance" maskUnits="userSpaceOnUse" x="0" y="0" width="19" height="10">
<path d="M18.3673 0H0V10H18.3673V0Z" fill="white"/>
</mask>
<g mask="url(#mask0_196_244)">
<path fill-rule="evenodd" clip-rule="evenodd" d="M8.95204 0H9.41531C13.2614 0 16.6069 1.94612 18.3222 4.81286L18.3673 4.89796H12.8622L12.8631 4.89082C12.8631 2.92939 11.2214 1.33939 9.19633 1.33939C7.17123 1.33939 5.52959 2.92939 5.52959 4.89082L5.5302 4.89796H0L0.0451037 4.81286C1.76041 1.94612 5.10592 0 8.95204 0Z" fill="#FF0000"/>
<path fill-rule="evenodd" clip-rule="evenodd" d="M0 4.89795H5.5051L5.50429 4.9055C5.50429 6.94856 7.14592 8.60468 9.17102 8.60468C11.1961 8.60468 12.8378 6.94856 12.8378 4.9055L12.8371 4.89795H18.3673L18.3222 4.98652C16.6069 7.97285 13.2614 9.99999 9.41531 9.99999H8.95204C5.10592 9.99999 1.76041 7.97285 0.0451037 4.98652L0 4.89795Z" fill="#C00000"/>
<path fill-rule="evenodd" clip-rule="evenodd" d="M9.18382 2.44897C9.55015 2.44897 9.89913 2.5204 10.2165 2.64938L10.5881 2.84346L10.4014 2.86142C9.85709 2.96857 9.44749 3.43183 9.44749 3.98693C9.44749 4.62122 9.98239 5.13571 10.6422 5.13571C11.1371 5.13571 11.5616 4.84632 11.743 4.43408L11.7546 4.39795L11.783 4.48591C11.8183 4.65204 11.8369 4.82387 11.8369 4.99999C11.8369 6.40897 10.6491 7.55102 9.18382 7.55102C7.71852 7.55102 6.53076 6.40897 6.53076 4.99999C6.53076 3.59102 7.71852 2.44897 9.18382 2.44897Z" fill="#FF0000"/>
<path fill-rule="evenodd" clip-rule="evenodd" d="M11.7546 4.4451L11.783 4.5351C11.8183 4.7053 11.8369 4.88142 11.8369 5.06163C11.8369 6.14387 11.1687 7.07244 10.2165 7.46918L9.94852 7.55102L10.1863 7.27938C10.4032 6.97653 10.5299 6.61142 10.5299 6.21836C10.5299 5.8253 10.4032 5.4602 10.1863 5.15734L10.1134 5.07408L10.1771 5.10816C10.3202 5.16775 10.4773 5.20061 10.6422 5.20061C11.1371 5.20061 11.5616 4.90428 11.743 4.48204L11.7546 4.4451ZM9.18382 2.44897C9.55015 2.44897 9.89913 2.52204 10.2165 2.65428L10.5881 2.85285L10.4014 2.87143C9.85709 2.98122 9.44749 3.45551 9.44749 4.02408C9.44749 4.18653 9.48097 4.34122 9.54138 4.48204L9.62648 4.63652L9.30117 4.46979C9.06056 4.37387 8.79587 4.32081 8.51811 4.32081C7.68484 4.32081 6.96995 4.79857 6.66443 5.47979L6.60627 5.65673L6.58464 5.58836C6.54933 5.41816 6.53076 5.24204 6.53076 5.06163C6.53076 3.61877 7.71852 2.44897 9.18382 2.44897Z" fill="#C00000"/>
</g>
</svg>
