<svg width="17" height="25" viewBox="0 0 17 25" fill="none" xmlns="http://www.w3.org/2000/svg">
<mask id="mask0_196_254" style="mask-type:luminance" maskUnits="userSpaceOnUse" x="0" y="-1" width="17" height="26">
<path d="M7.86646 -0.00013721L0 21.6128L8.22231 24.6055L16.0888 2.99254L7.86646 -0.00013721Z" fill="white"/>
</mask>
<g mask="url(#mask0_196_254)">
<path fill-rule="evenodd" clip-rule="evenodd" d="M3.93283 10.8066C4.91425 8.11011 7.14497 6.19373 9.84861 5.37479L10.4917 5.21245L10.1633 6.11456L10.1522 6.11742C7.67375 6.86801 5.62881 8.62479 4.72922 11.0964C3.82962 13.568 4.26689 16.2283 5.68301 18.3964L5.68971 18.4057L5.36137 19.3078L4.97311 18.7701C3.42841 16.4049 2.9514 13.503 3.93283 10.8066Z" fill="#FF0000"/>
<path fill-rule="evenodd" clip-rule="evenodd" d="M4.6379 11.0631C5.61933 8.3667 7.85005 6.45032 10.5537 5.63139L11.1967 5.46904L10.8684 6.37115L10.8573 6.37401C8.37882 7.1246 6.33389 8.88138 5.43429 11.353C4.5347 13.8246 4.97197 16.4849 6.38809 18.653L6.39479 18.6623L6.06645 19.5644L5.67819 19.0267C4.13348 16.6615 3.65648 13.7596 4.6379 11.0631Z" fill="#FF0000"/>
<path fill-rule="evenodd" clip-rule="evenodd" d="M14.4048 6.24188C14.6373 6.74023 14.4217 7.33271 13.9231 7.5652C13.4248 7.79755 12.8324 7.58191 12.5998 7.08355L10.7096 3.02959C10.477 2.53124 10.6927 1.93876 11.1912 1.70627C11.6895 1.47392 12.282 1.68957 12.5146 2.18792L14.4048 6.24188Z" fill="#FF0000"/>
<path fill-rule="evenodd" clip-rule="evenodd" d="M14.0336 8.1481C14.1563 8.41117 14.0425 8.72384 13.7794 8.84652L11.8737 9.73534C11.6104 9.85793 11.2977 9.74412 11.175 9.48105L7.95688 2.57967C7.8342 2.3166 7.94801 2.00392 8.21109 1.88124L10.117 0.992504C10.3801 0.869832 10.6927 0.98364 10.8154 1.24671L14.0336 8.1481Z" fill="#C00000"/>
<path fill-rule="evenodd" clip-rule="evenodd" d="M9.07309 20.8908C9.57152 20.6584 9.78717 20.0659 9.55474 19.5675C9.32232 19.069 8.72984 18.8534 8.23141 19.0858L4.17751 20.9762C3.67908 21.2086 3.46342 21.8011 3.69585 22.2995C3.92827 22.798 4.52077 23.0136 5.01919 22.7812L9.07309 20.8908Z" fill="#FF0000"/>
<path fill-rule="evenodd" clip-rule="evenodd" d="M10.0138 19.1919C10.2769 19.0692 10.3908 18.7564 10.2681 18.4933L9.37943 16.5876C9.25674 16.3245 8.94397 16.2107 8.68084 16.3333L1.77963 19.5514C1.51651 19.6741 1.40267 19.9869 1.52537 20.25L2.414 22.1557C2.5367 22.4188 2.84947 22.5327 3.11259 22.41L10.0138 19.1919Z" fill="#C00000"/>
</g>
</svg>
