<svg width="20" height="20" viewBox="0 0 20 20" fill="none" xmlns="http://www.w3.org/2000/svg">
<mask id="mask0_196_266" style="mask-type:luminance" maskUnits="userSpaceOnUse" x="0" y="0" width="20" height="20">
<path d="M20 0H0V20H20V0Z" fill="white"/>
</mask>
<g mask="url(#mask0_196_266)">
<path fill-rule="evenodd" clip-rule="evenodd" d="M7.94458 2.68652L8.95174 3.69343L5.63643 6.97615C5.35692 7.2527 4.90607 7.25047 4.62928 6.97097C4.35273 6.69171 4.35495 6.24085 4.63446 5.96406L7.94458 2.68652Z" fill="#FF0000"/>
<path fill-rule="evenodd" clip-rule="evenodd" d="M10.0344 4.77637L11.0416 5.78353L7.72627 9.066C7.44677 9.34254 6.99591 9.34032 6.71912 9.06106C6.44258 8.78156 6.4448 8.33069 6.7243 8.0539L10.0344 4.77637Z" fill="#FF0000"/>
<path fill-rule="evenodd" clip-rule="evenodd" d="M12.1352 6.87744L13.1421 7.88436L9.82709 11.1668C9.54758 11.4436 9.09671 11.4414 8.81992 11.1619C8.54313 10.8824 8.54535 10.4315 8.82486 10.155L12.1352 6.87744Z" fill="#FF0000"/>
<path fill-rule="evenodd" clip-rule="evenodd" d="M14.2474 8.98901L15.2544 9.99592L11.9393 13.2786C11.6598 13.5552 11.2089 13.553 10.9321 13.2735C10.6553 12.9939 10.6578 12.5431 10.9371 12.2665L14.2474 8.98901Z" fill="#FF0000"/>
<path fill-rule="evenodd" clip-rule="evenodd" d="M16.3486 11.0898L17.3555 12.097L14.0402 15.3795C13.761 15.6563 13.3101 15.654 13.0333 15.3745C12.7565 15.095 12.7587 14.6442 13.0382 14.3676L16.3486 11.0898Z" fill="#FF0000"/>
<path fill-rule="evenodd" clip-rule="evenodd" d="M18.1434 13.5024L19.1503 14.5096L16.1454 17.4849C15.8658 17.7617 15.415 17.7595 15.1382 17.48C14.8614 17.2005 14.8639 16.7496 15.1431 16.4731L18.1434 13.5024Z" fill="#FF0000"/>
<path fill-rule="evenodd" clip-rule="evenodd" d="M5.39374 0.994873L6.4009 2.00178L3.39572 4.97734C3.11622 5.25413 2.66534 5.25191 2.38855 4.9724C2.11201 4.6929 2.11423 4.24203 2.39374 3.96524L5.39374 0.994873Z" fill="#FF0000"/>
<path fill-rule="evenodd" clip-rule="evenodd" d="M6.04039 1.63L5.85965 1.62358C5.72508 1.64507 5.59224 1.69346 5.46928 1.77025L3.13965 3.22605L5.39915 0.98877L6.04039 1.63Z" fill="#C00000"/>
<path fill-rule="evenodd" clip-rule="evenodd" d="M8.9499 3.67659L8.4225 4.19857L8.37509 4.17733C8.11311 4.11684 7.82816 4.15634 7.58199 4.31017L4.74348 6.084C4.62052 6.16104 4.51879 6.25906 4.44052 6.37091L4.43311 6.38375L4.47312 6.18351C4.50843 6.09807 4.56101 6.01783 4.63089 5.94869L7.94275 2.66943L8.9499 3.67659Z" fill="#C00000"/>
<path fill-rule="evenodd" clip-rule="evenodd" d="M11.0634 5.76155L10.5722 6.24797L10.3439 6.14624C10.0819 6.08575 9.7967 6.12526 9.55078 6.27884L6.74756 8.03069L10.0562 4.75464L11.0634 5.76155Z" fill="#C00000"/>
<path fill-rule="evenodd" clip-rule="evenodd" d="M13.1646 7.86238L12.7043 8.31794L12.3648 8.16683C12.1029 8.10633 11.8177 8.14584 11.5717 8.29942L9.20557 9.77819L12.1574 6.85547L13.1646 7.86238Z" fill="#C00000"/>
<path fill-rule="evenodd" clip-rule="evenodd" d="M15.2762 9.9742L14.814 10.432L14.4819 10.2841C14.2199 10.2236 13.9349 10.2631 13.6888 10.4169L11.293 11.914L14.269 8.96729L15.2762 9.9742Z" fill="#C00000"/>
<path fill-rule="evenodd" clip-rule="evenodd" d="M17.3773 12.0753L16.9183 12.5296L16.5738 12.376C16.3119 12.3155 16.0269 12.355 15.7807 12.5089L13.4341 13.9753L16.3701 11.0681L17.3773 12.0753Z" fill="#C00000"/>
<path fill-rule="evenodd" clip-rule="evenodd" d="M18.1435 13.5024L19.1504 14.5096L19.0013 14.6575L18.7376 14.54C18.4756 14.4795 18.1904 14.519 17.9445 14.6726L15.2798 16.338L18.1435 13.5024Z" fill="#C00000"/>
<path fill-rule="evenodd" clip-rule="evenodd" d="M7.30399 0.0552044C7.97608 -0.0186228 8.61979 0.163845 9.07608 0.620141L19.4052 10.9495C20.3181 11.8621 20.1356 13.5246 18.9976 14.6624L18.9131 14.7468L5.27881 1.11249L5.36325 1.0278C5.93214 0.458907 6.63213 0.129032 7.30399 0.0552044Z" fill="#C00000"/>
<path fill-rule="evenodd" clip-rule="evenodd" d="M19.4065 0.664784L8.02087 12.0504L6.98615 11.0157L6.88833 7.98204L7.64499 7.25744C12.1797 3.10334 16.4894 0.449979 18.6211 0.461015L19.4065 0.664784Z" fill="#FF0000"/>
<path fill-rule="evenodd" clip-rule="evenodd" d="M19.3842 0.642822L7.99854 12.0285L9.03334 13.0631L12.0669 13.1611L12.7916 12.4043C16.9457 7.86974 19.599 3.55986 19.5879 1.42825L19.3842 0.642822Z" fill="#C00000"/>
<path fill-rule="evenodd" clip-rule="evenodd" d="M9.57432 10.5596L8.42174 17.5909L6.32816 15.4973L6.65977 13.4741L4.63655 13.8057L2.54297 11.7122L9.57432 10.5596Z" fill="#C00000"/>
<path fill-rule="evenodd" clip-rule="evenodd" d="M9.57478 10.5596L8.42219 17.5909L6.32861 15.4973L6.66022 13.4741L6.598 13.4843L9.51231 10.5699L9.57478 10.5596Z" fill="#FF0000"/>
<path fill-rule="evenodd" clip-rule="evenodd" d="M7.86045 16.9699L6.50415 17.0485L6.42564 18.4048L7.78193 18.3262L7.86045 16.9699ZM8.87946 15.943C9.79601 16.8593 9.79601 18.3452 8.87946 19.2618C7.96317 20.1781 6.47724 20.1781 5.56094 19.2618C4.6444 18.3452 4.6444 16.8593 5.56094 15.943C6.47724 15.0265 7.96317 15.0265 8.87946 15.943Z" fill="#C00000"/>
<path fill-rule="evenodd" clip-rule="evenodd" d="M3.08017 12.1899L1.72412 12.2687L1.64536 13.6247L3.00166 13.5462L3.08017 12.1899ZM4.09919 11.163C5.01573 12.0795 5.01573 13.5652 4.09919 14.4818C3.18289 15.3981 1.69697 15.3981 0.780669 14.4818C-0.135874 13.5652 -0.135874 12.0795 0.780669 11.163C1.69697 10.2465 3.18289 10.2465 4.09919 11.163Z" fill="#FF0000"/>
</g>
</svg>
