<svg width="19" height="19" viewBox="0 0 19 19" fill="none" xmlns="http://www.w3.org/2000/svg">
<path fill-rule="evenodd" clip-rule="evenodd" d="M13.4383 13.8148L16.0072 16.384L15.2806 17.0525C13.9203 18.0954 12.2705 18.779 10.4725 18.9617L9.71005 19V15.3319L10.6794 15.2341C11.6794 15.0294 12.5864 14.5698 13.3296 13.9259L13.4383 13.8148ZM5.54905 13.7975L5.9572 14.1585C6.64226 14.6807 7.44624 15.055 8.32094 15.2341L9.29029 15.3319V19L8.52819 18.9617C6.84247 18.7903 5.28693 18.1788 3.97839 17.2436L2.96506 16.3822L5.54905 13.7975ZM15.3344 9.69774H18.9997L18.9655 10.4131C18.7657 12.515 17.8815 14.4175 16.5388 15.8949L16.2809 16.1324L13.6976 13.5488L14.0157 13.2233C14.6416 12.4647 15.08 11.5457 15.2602 10.5369L15.3344 9.69774ZM0.00105229 9.69774H3.6663L3.74019 10.5369C3.89782 11.4194 4.25354 12.2335 4.75915 12.9316L5.24435 13.5072L2.66071 16.0909L1.72548 14.9769C0.797997 13.6624 0.195629 12.1023 0.034833 10.4131L0.00105229 9.69774ZM2.60406 2.97596L5.19334 5.56524L4.98504 5.77846C4.35909 6.53706 3.92034 7.45644 3.74019 8.46485L3.66419 9.32618H0L0.034833 8.58871C0.235037 6.48674 1.11889 4.58463 2.46191 3.10685L2.60406 2.97596ZM16.3407 2.94782L17.0507 3.72013C18.0936 5.08004 18.7773 6.73022 18.9599 8.52854L19 9.32618H15.3341L15.2327 8.32165C15.0283 7.32133 14.5684 6.41426 13.9249 5.67115L13.7694 5.51915L16.3407 2.94782ZM9.31457 0.000703317V3.66735L8.32094 3.76763C7.32098 3.9724 6.41426 4.43192 5.6708 5.07581L5.45265 5.29924L2.87779 2.72404L3.72013 1.94926C5.08004 0.90672 6.73022 0.223076 8.52819 0.0404649L9.31457 0.000703317ZM9.68613 0L10.4123 0.034484C12.514 0.234336 14.4161 1.11854 15.8935 2.46156L16.0888 2.67408L13.5034 5.25948L13.2222 4.98504C12.4637 4.35909 11.5446 3.92034 10.5362 3.74019L9.68613 3.66524V0Z" fill="#C00000"/>
<path fill-rule="evenodd" clip-rule="evenodd" d="M9.73926 15.3288L9.7104 15.948V15.3319L9.73926 15.3288ZM5.54941 13.7975L5.9572 14.1585C6.64261 14.6807 7.44624 15.055 8.32129 15.2341L9.29065 15.3319V19L8.52819 18.9617C6.84247 18.7903 5.28693 18.1788 3.97839 17.2436L2.96506 16.3822L5.54941 13.7975ZM15.3348 9.69774H19L18.9662 10.4131C18.766 12.515 17.8822 14.4175 16.5391 15.8949L16.2812 16.1324L13.6979 13.5488L14.016 13.2233C14.642 12.4647 15.0804 11.5457 15.2605 10.5369L15.3348 9.69774ZM2.60441 2.97596L5.19334 5.56524L4.98504 5.77846C4.35909 6.53706 3.92069 7.45644 3.74019 8.46485L3.66454 9.32618H0L0.034833 8.58871C0.235037 6.48674 1.11889 4.58463 2.46191 3.10685L2.60441 2.97596ZM9.68613 0L10.4127 0.034484C12.5143 0.234336 14.4164 1.11854 15.8939 2.46156L16.0891 2.67408L13.5037 5.25948L13.2226 4.98504C12.464 4.35909 11.545 3.92034 10.5362 3.74019L9.68613 3.66524V0Z" fill="#FF0000"/>
</svg>
