<?xml version="1.0" encoding="UTF-8" standalone="no"?>
<!-- Created with Inkscape (http://www.inkscape.org/) -->

<svg
   width="80mm"
   height="30mm"
   viewBox="0 0 80 30"
   version="1.1"
   id="svg1"
   inkscape:export-filename="APARENCIA.svg"
   inkscape:export-xdpi="96"
   inkscape:export-ydpi="96"
   xmlns:inkscape="http://www.inkscape.org/namespaces/inkscape"
   xmlns:sodipodi="http://sodipodi.sourceforge.net/DTD/sodipodi-0.dtd"
   xmlns="http://www.w3.org/2000/svg"
   xmlns:svg="http://www.w3.org/2000/svg">
  <sodipodi:namedview
     id="namedview1"
     pagecolor="#505050"
     bordercolor="#eeeeee"
     borderopacity="1"
     inkscape:showpageshadow="0"
     inkscape:pageopacity="0"
     inkscape:pagecheckerboard="0"
     inkscape:deskcolor="#505050"
     inkscape:document-units="mm" />
  <defs
     id="defs1" />
  <g
     inkscape:label="Camada 1"
     inkscape:groupmode="layer"
     id="layer1">
    <g
       transform="matrix(0.26458333,0,0,0.26458333,-64.755866,-36.156681)"
       id="g7">
      <path
         d="m 260,157 h 50 l -0.12,4.066 c -0.801,13.442 -5.261,25.039 -11.655,31.846 l -1.134,1.088 1.134,1.088 c 6.394,6.807 10.854,18.404 11.655,31.846 L 310,231 h -50 l 0.12,-4.066 c 0.801,-13.442 5.261,-25.039 11.655,-31.846 l 1.134,-1.088 -1.134,-1.088 c -6.394,-6.807 -10.854,-18.404 -11.655,-31.846 z"
         stroke="#ff0000"
         stroke-width="6"
         stroke-miterlimit="8"
         fill="none"
         fill-rule="evenodd"
         id="path1" />
      <path
         d="m 285,197 c 8.839,0 16.11,11.163 16.984,25.467 L 302,223 h -34 l 0.016,-0.533 C 268.89,208.163 276.161,197 285,197 Z"
         fill="#ff0000"
         fill-rule="evenodd"
         id="path2" />
      <path
         d="m 285,192 c -3.846,0 -7.328,-4.753 -9.848,-12.438 L 275,179 h 20 l -0.152,0.562 C 292.328,187.247 288.846,192 285,192 Z"
         fill="#ff0000"
         fill-rule="evenodd"
         id="path3" />
      <path
         d="m 249,153 c 0,-3.314 2.686,-6 6,-6 h 60 c 3.314,0 6,2.686 6,6 v 0 c 0,3.314 -2.686,6 -6,6 h -60 c -3.314,0 -6,-2.686 -6,-6 z"
         fill="#c00000"
         fill-rule="evenodd"
         id="path4" />
      <path
         d="m 249,233 c 0,-3.314 2.686,-6 6,-6 h 60 c 3.314,0 6,2.686 6,6 v 0 c 0,3.314 -2.686,6 -6,6 h -60 c -3.314,0 -6,-2.686 -6,-6 z"
         fill="#c00000"
         fill-rule="evenodd"
         id="path5" />
      <path
         d="M 284.984,197 285,197.001 V 223 h -17 l 0.016,-0.533 C 268.89,208.163 276.153,197 284.984,197 Z"
         fill="#c00000"
         fill-rule="evenodd"
         id="path6" />
      <path
         d="m 275,179 h 10 v 13 l -1.424,-0.219 c -3.277,-1.015 -6.219,-5.495 -8.424,-12.219 z"
         fill="#c00000"
         fill-rule="evenodd"
         id="path7" />
    </g>
  </g>
</svg>
