<?xml version="1.0" encoding="UTF-8" standalone="no"?>
<!-- Created with Inkscape (http://www.inkscape.org/) -->

<svg
   width="80mm"
   height="30mm"
   viewBox="0 0 80 30"
   version="1.1"
   id="svg1"
   inkscape:export-filename="IDADE.svg"
   inkscape:export-xdpi="96"
   inkscape:export-ydpi="96"
   xmlns:inkscape="http://www.inkscape.org/namespaces/inkscape"
   xmlns:sodipodi="http://sodipodi.sourceforge.net/DTD/sodipodi-0.dtd"
   xmlns="http://www.w3.org/2000/svg"
   xmlns:svg="http://www.w3.org/2000/svg">
  <sodipodi:namedview
     id="namedview1"
     pagecolor="#505050"
     bordercolor="#eeeeee"
     borderopacity="1"
     inkscape:showpageshadow="0"
     inkscape:pageopacity="0"
     inkscape:pagecheckerboard="0"
     inkscape:deskcolor="#505050"
     inkscape:document-units="mm" />
  <defs
     id="defs1">
    <clipPath
       id="clip0">
      <rect
         x="343"
         y="168"
         width="90"
         height="49"
         id="rect1-27" />
    </clipPath>
  </defs>
  <g
     inkscape:label="Camada 1"
     inkscape:groupmode="layer"
     id="layer1">
    <g
       clip-path="url(#clip0)"
       transform="matrix(0.26458333,0,0,0.26458333,-69.762754,-36.85635)"
       id="g4">
      <path
         d="m 386.865,168 h 2.27 c 18.846,0 35.239,9.536 43.644,23.583 L 433,192 h -26.975 l 0.004,-0.035 c 0,-9.611 -8.044,-17.402 -17.967,-17.402 -9.923,0 -17.967,7.791 -17.967,17.402 L 370.098,192 H 343 l 0.221,-0.417 C 351.626,177.536 368.019,168 386.865,168 Z"
         fill="#ff0000"
         fill-rule="evenodd"
         id="path1-1" />
      <path
         d="m 343,192 h 26.975 l -0.004,0.037 c 0,10.011 8.044,18.126 17.967,18.126 9.923,0 17.967,-8.115 17.967,-18.126 L 405.902,192 H 433 l -0.221,0.434 C 424.374,207.067 407.981,217 389.135,217 h -2.27 c -18.846,0 -35.239,-9.933 -43.644,-24.566 z"
         fill="#c00000"
         fill-rule="evenodd"
         id="path2-3" />
      <path
         d="m 388,180 c 1.795,0 3.505,0.35 5.06,0.982 l 1.821,0.951 -0.915,0.088 c -2.667,0.525 -4.674,2.795 -4.674,5.515 0,3.108 2.621,5.629 5.854,5.629 2.425,0 4.505,-1.418 5.394,-3.438 l 0.057,-0.177 0.139,0.431 c 0.173,0.814 0.264,1.656 0.264,2.519 0,6.904 -5.82,12.5 -13,12.5 -7.18,0 -13,-5.596 -13,-12.5 0,-6.904 5.82,-12.5 13,-12.5 z"
         fill="#ff0000"
         fill-rule="evenodd"
         id="path3-5" />
      <path
         d="m 400.597,189.781 0.139,0.441 c 0.173,0.834 0.264,1.697 0.264,2.58 0,5.303 -3.274,9.853 -7.94,11.797 l -1.313,0.401 1.165,-1.331 c 1.063,-1.484 1.684,-3.273 1.684,-5.199 0,-1.926 -0.621,-3.715 -1.684,-5.199 l -0.357,-0.408 0.312,0.167 c 0.701,0.292 1.471,0.453 2.279,0.453 2.425,0 4.505,-1.452 5.394,-3.521 z M 388,180 c 1.795,0 3.505,0.358 5.06,1.006 l 1.821,0.973 -0.915,0.091 c -2.667,0.538 -4.674,2.862 -4.674,5.648 0,0.796 0.164,1.554 0.46,2.244 l 0.417,0.757 -1.594,-0.817 c -1.179,-0.47 -2.476,-0.73 -3.837,-0.73 -4.083,0 -7.586,2.341 -9.083,5.679 l -0.285,0.867 -0.106,-0.335 C 375.091,194.549 375,193.686 375,192.802 375,185.732 380.82,180 388,180 Z"
         fill="#c00000"
         fill-rule="evenodd"
         id="path4-8" />
    </g>
  </g>
</svg>
