<?xml version="1.0" encoding="UTF-8" standalone="no"?>
<!-- Created with Inkscape (http://www.inkscape.org/) -->

<svg
   width="80mm"
   height="30mm"
   viewBox="0 0 80 30"
   version="1.1"
   id="svg1"
   inkscape:export-filename="ALTURA.svg"
   inkscape:export-xdpi="96"
   inkscape:export-ydpi="96"
   xmlns:inkscape="http://www.inkscape.org/namespaces/inkscape"
   xmlns:sodipodi="http://sodipodi.sourceforge.net/DTD/sodipodi-0.dtd"
   xmlns="http://www.w3.org/2000/svg"
   xmlns:svg="http://www.w3.org/2000/svg">
  <sodipodi:namedview
     id="namedview1"
     pagecolor="#505050"
     bordercolor="#eeeeee"
     borderopacity="1"
     inkscape:showpageshadow="0"
     inkscape:pageopacity="0"
     inkscape:pagecheckerboard="0"
     inkscape:deskcolor="#505050"
     inkscape:document-units="mm" />
  <defs
     id="defs1" />
  <g
     inkscape:label="Camada 1"
     inkscape:groupmode="layer"
     id="layer1">
    <g
       transform="matrix(0.26458333,0,0,0.26458333,-76.51295,-41.735724)"
       id="g2">
      <path
         d="m 507.193,208.263 7.301,7.302 -2.065,1.9 c -3.866,2.964 -8.555,4.907 -13.665,5.426 L 496.597,223 v -10.425 l 2.755,-0.278 c 2.842,-0.582 5.42,-1.888 7.532,-3.718 z m -22.422,-0.049 1.16,1.026 c 1.947,1.484 4.232,2.548 6.718,3.057 l 2.755,0.278 V 223 l -2.166,-0.109 c -4.791,-0.487 -9.212,-2.225 -12.931,-4.883 l -2.88,-2.448 z m 27.811,-11.652 h 10.417 l -0.097,2.033 c -0.568,5.974 -3.081,11.381 -6.897,15.58 l -0.733,0.675 -7.342,-7.343 0.904,-0.925 c 1.779,-2.156 3.025,-4.768 3.537,-7.635 z m -43.579,0 h 10.417 l 0.21,2.385 c 0.448,2.508 1.459,4.822 2.896,6.806 l 1.379,1.636 -7.343,7.343 -2.658,-3.166 c -2.636,-3.736 -4.348,-8.17 -4.805,-12.971 z m 7.398,-19.104 7.359,7.359 -0.592,0.606 c -1.779,2.156 -3.026,4.769 -3.538,7.635 l -0.216,2.448 H 469 l 0.099,-2.096 c 0.569,-5.974 3.081,-11.38 6.898,-15.58 z m 39.041,-0.08 2.018,2.195 c 2.964,3.865 4.907,8.555 5.426,13.666 l 0.114,2.267 h -10.419 l -0.288,-2.855 c -0.581,-2.843 -1.888,-5.421 -3.717,-7.533 l -0.442,-0.432 z m -19.969,-8.376 v 10.421 l -2.824,0.285 c -2.842,0.582 -5.419,1.888 -7.532,3.718 l -0.62,0.635 -7.318,-7.319 2.394,-2.202 c 3.865,-2.963 8.555,-4.906 13.665,-5.425 z m 1.056,-0.002 2.064,0.098 c 5.973,0.568 11.379,3.081 15.578,6.898 l 0.555,0.604 -7.348,7.348 -0.799,-0.78 c -2.156,-1.779 -4.768,-3.026 -7.634,-3.538 l -2.416,-0.213 z"
         fill="#c00000"
         fill-rule="evenodd"
         id="path1-0" />
      <path
         d="m 496.68,212.566 -0.082,1.76 v -1.751 z m -11.908,-4.352 1.159,1.026 c 1.948,1.484 4.232,2.548 6.719,3.057 l 2.755,0.278 V 223 l -2.167,-0.109 c -4.791,-0.487 -9.212,-2.225 -12.931,-4.883 l -2.88,-2.448 z m 27.811,-11.652 H 523 l -0.096,2.033 c -0.569,5.974 -3.081,11.381 -6.898,15.58 l -0.733,0.675 -7.342,-7.343 0.904,-0.925 c 1.779,-2.156 3.025,-4.768 3.537,-7.635 z m -36.181,-19.104 7.358,7.359 -0.592,0.606 c -1.779,2.156 -3.025,4.769 -3.538,7.635 l -0.215,2.448 H 469 l 0.099,-2.096 c 0.569,-5.974 3.081,-11.38 6.898,-15.58 z m 20.127,-8.458 2.065,0.098 c 5.973,0.568 11.379,3.081 15.578,6.898 l 0.555,0.604 -7.348,7.348 -0.799,-0.78 c -2.156,-1.779 -4.768,-3.026 -7.635,-3.538 l -2.416,-0.213 z"
         fill="#ff0000"
         fill-rule="evenodd"
         id="path2-9" />
    </g>
  </g>
</svg>
