<?xml version="1.0" encoding="UTF-8" standalone="no"?>
<!-- Created with Inkscape (http://www.inkscape.org/) -->

<svg
   width="80mm"
   height="30mm"
   viewBox="0 0 80 30"
   version="1.1"
   id="svg1"
   inkscape:export-filename="OLHOS.svg"
   inkscape:export-xdpi="96"
   inkscape:export-ydpi="96"
   xmlns:inkscape="http://www.inkscape.org/namespaces/inkscape"
   xmlns:sodipodi="http://sodipodi.sourceforge.net/DTD/sodipodi-0.dtd"
   xmlns="http://www.w3.org/2000/svg"
   xmlns:svg="http://www.w3.org/2000/svg">
  <sodipodi:namedview
     id="namedview1"
     pagecolor="#505050"
     bordercolor="#eeeeee"
     borderopacity="1"
     inkscape:showpageshadow="0"
     inkscape:pageopacity="0"
     inkscape:pagecheckerboard="0"
     inkscape:deskcolor="#505050"
     inkscape:document-units="mm" />
  <defs
     id="defs1">
    <clipPath
       id="clip0-2">
      <rect
         x="583"
         y="176"
         width="92"
         height="35"
         id="rect1-3" />
    </clipPath>
  </defs>
  <g
     inkscape:label="Camada 1"
     inkscape:groupmode="layer"
     id="layer1">
    <g
       clip-path="url(#clip0-2)"
       transform="matrix(0.26458333,0,0,0.26458333,-112.87768,-27.753076)"
       id="g6">
      <path
         d="m 629,176 c 11.478,0 21.733,5.763 28.51,14.805 L 659,193 h -3.84 l -0.026,-0.038 C 648.922,184.673 639.521,179.39 629,179.39 c -10.521,0 -19.922,5.283 -26.134,13.572 L 602.84,193 H 599 l 1.49,-2.195 C 607.267,181.763 617.522,176 629,176 Z"
         fill="#ff0000"
         fill-rule="evenodd"
         id="path1-2" />
      <path
         d="m 629,179 c 11.478,0 21.733,5.763 28.51,14.805 L 659,196 h -3.84 l -0.026,-0.038 C 648.922,187.673 639.521,182.39 629,182.39 c -10.521,0 -19.922,5.283 -26.134,13.572 L 602.84,196 H 599 l 1.49,-2.195 C 607.267,184.763 617.522,179 629,179 Z"
         fill="#ff0000"
         fill-rule="evenodd"
         id="path2-0" />
      <path
         d="m 660.484,209.116 c -1.555,1.556 -4.077,1.556 -5.633,0 v 0 c -1.555,-1.555 -1.555,-4.077 0,-5.633 l 12.652,-12.651 c 1.555,-1.556 4.077,-1.556 5.633,0 v 0 c 1.555,1.555 1.555,4.077 0,5.633 z"
         fill="#ff0000"
         fill-rule="evenodd"
         id="path3-2" />
      <path
         d="m 652.811,210.329 c -0.821,0.821 -2.152,0.821 -2.973,0 l -5.948,-5.947 c -0.821,-0.822 -0.821,-2.153 0,-2.974 l 21.538,-21.538 c 0.821,-0.821 2.152,-0.821 2.973,0 l 5.948,5.948 c 0.821,0.821 0.821,2.152 0,2.973 z"
         fill="#c00000"
         fill-rule="evenodd"
         id="path4-6" />
      <path
         d="M 0,3.98317 C 0,1.78333 1.78333,0 3.98319,0 V 0 C 6.18304,0 7.96638,1.78333 7.96638,3.98317 V 21.8751 c 0,2.1998 -1.78334,3.9832 -3.98319,3.9832 v 0 C 1.78333,25.8583 0,24.0749 0,21.8751 Z"
         fill="#ff0000"
         fill-rule="evenodd"
         transform="matrix(0.707107,-0.707107,-0.707107,-0.707107,600.944,211.933)"
         id="path5-73" />
      <path
         d="M 0,2.10274 C 0,0.941429 0.94143,0 2.10274,0 h 8.41076 c 1.1613,0 2.1027,0.941429 2.1027,2.10274 V 32.5613 c 0,1.1613 -0.9414,2.1027 -2.1027,2.1027 H 2.10274 C 0.94143,34.664 0,33.7226 0,32.5613 Z"
         fill="#c00000"
         fill-rule="evenodd"
         transform="matrix(0.707107,-0.707107,-0.707107,-0.707107,607.288,211.816)"
         id="path6-7" />
    </g>
  </g>
</svg>
