<svg width="323" height="36" viewBox="0 0 323 36" fill="none" xmlns="http://www.w3.org/2000/svg">
<path fill-rule="evenodd" clip-rule="evenodd" d="M6.21805 1H315.981C315.981 2.53403 316.619 3.92223 317.652 4.92625L321.349 6.41729V30.0593L317.652 31.5491L316.244 34.858H5.95629L4.54728 31.5491L1 30.1192V6.3574L4.54728 4.92625C5.57995 3.92223 6.21805 2.53403 6.21805 1Z" fill="white" stroke="#FF0000" stroke-width="2" stroke-miterlimit="8"/>
<path fill-rule="evenodd" clip-rule="evenodd" d="M1.65088 18.5801C1.65088 9.23011 9.22987 1.65112 18.5799 1.65112H305.071C314.421 1.65112 322 9.23011 322 18.5801C322 27.9302 314.421 35.5091 305.071 35.5091H18.5799C9.22987 35.5091 1.65088 27.9302 1.65088 18.5801Z" fill="white" stroke="#FF0000" stroke-miterlimit="8"/>
<path d="M6.8606 5.55798H316.206" stroke="#FF0000" stroke-miterlimit="8"/>
<path d="M6.8606 31.6023H316.206" stroke="#FF0000" stroke-miterlimit="8"/>
</svg>
