<?xml version="1.0" standalone="no"?>
<!DOCTYPE svg PUBLIC "-//W3C//DTD SVG 20010904//EN"
 "http://www.w3.org/TR/2001/REC-SVG-20010904/DTD/svg10.dtd">
<svg version="1.0" xmlns="http://www.w3.org/2000/svg"
 width="512.000000pt" height="512.000000pt" viewBox="0 0 512.000000 512.000000"
 preserveAspectRatio="xMidYMid meet">

<g transform="translate(0.000000,512.000000) scale(0.100000,-0.100000)"
fill="#000000" stroke="none">
<path d="M1330 4709 c-396 -49 -730 -267 -975 -634 -117 -175 -191 -346 -232
-538 -25 -115 -25 -409 0 -524 54 -250 183 -508 354 -705 74 -85 2007 -1805
2051 -1824 27 -12 37 -12 65 0 43 19 1977 1739 2050 1824 189 221 316 485 364
757 19 111 13 373 -12 482 -67 301 -225 575 -468 812 -174 170 -403 288 -655
338 -118 23 -354 22 -482 -1 -261 -47 -531 -177 -748 -360 -40 -33 -77 -61
-82 -61 -5 0 -44 29 -85 64 -216 181 -487 311 -742 356 -112 20 -306 27 -403
14z m1673 -945 l27 -26 2 -257 3 -256 256 -3 257 -2 26 -27 26 -26 0 -417 0
-417 -26 -26 -26 -27 -257 -2 -256 -3 -3 -256 -2 -257 -27 -26 -26 -26 -416 0
c-395 0 -417 1 -441 20 l-25 19 -5 263 -5 263 -263 5 -263 5 -19 25 c-19 24
-20 46 -20 441 l0 416 26 26 26 27 257 2 256 3 3 256 2 257 27 26 26 26 417 0
417 0 26 -26z"/>
<path d="M2280 3365 c0 -352 17 -335 -335 -335 l-235 0 0 -280 0 -280 233 -1
c264 0 293 -5 319 -59 16 -30 18 -66 18 -272 l0 -238 280 0 280 0 0 238 c0
206 2 242 18 272 26 54 55 59 320 59 l232 1 0 280 0 280 -235 0 c-352 0 -335
-17 -335 335 l0 235 -280 0 -280 0 0 -235z"/>
</g>
</svg>
