<svg width="73" height="80" viewBox="0 0 73 80" fill="none" xmlns="http://www.w3.org/2000/svg">
<path d="M34.6346 0.221987C34.4162 0.252867 33.652 0.360951 32.919 0.453593C31.3595 0.66976 28.7862 1.34914 27.5541 1.88956C26.5404 2.33733 26.2285 2.83142 26.5248 3.54168C26.8679 4.36003 27.367 4.39091 29.4256 3.69609C32.2016 2.76966 33.6364 2.53805 36.818 2.53805C39.7812 2.52261 40.8417 2.66158 43.103 3.38728C51.0412 5.93495 57.3575 13.192 58.6052 21.1901C58.7767 22.379 58.8235 23.4599 58.7611 25.6833C58.6364 29.8985 58.2309 31.983 56.453 37.4489C54.6439 43.0692 54.4099 45.7404 55.4548 49.3072C56.1878 51.824 57.1704 53.6923 59.8216 57.645C62.6912 61.922 63.2683 63.2962 63.1435 65.3807C63.0967 66.0138 63.0032 66.6005 62.9096 66.6931C62.816 66.7858 62.4417 66.4615 61.8335 65.7358C60.695 64.3925 58.8391 62.7558 57.1548 61.6441C55.642 60.6559 53.2402 59.4207 52.8036 59.4207C52.0238 59.4207 51.4155 60.4243 51.7898 61.1191C51.8834 61.289 52.5072 61.7059 53.1623 62.0301C57.2016 64.0374 60.5234 67.1718 62.3949 70.7385C63.0967 72.0819 63.9077 74.1818 63.7673 74.3207C63.6738 74.4288 61.0693 73.7031 59.8216 73.2399C57.4667 72.3598 54.0356 70.4452 52.3201 69.0555C51.3532 68.2681 50.8853 68.3298 49.622 69.4415C49.0606 69.9356 47.9221 70.8157 47.1111 71.387C44.1479 73.4869 41.0132 76.3897 40.4518 77.5632C40.2334 78.011 40.2334 78.1036 40.4674 78.536C40.7325 79.0455 41.2627 79.2771 41.7774 79.1227C41.9334 79.0609 42.6196 78.4279 43.2902 77.7022C44.647 76.2353 46.3781 74.753 48.3588 73.3634C49.0918 72.8539 50.0275 72.1436 50.4486 71.8039L51.1972 71.1863L52.6632 72.1591C54.254 73.2244 56.9676 74.645 58.3868 75.1699L59.2758 75.4942V76.961C59.2758 78.3044 59.307 78.4588 59.6657 78.7984C60.1491 79.2925 60.7418 79.2925 61.2252 78.7984C61.5684 78.4742 61.6151 78.2889 61.6151 77.3316C61.6151 76.3589 61.6463 76.2353 61.8959 76.3125C62.66 76.5441 64.5315 76.8684 65.1398 76.8684C65.9819 76.8684 66.4498 76.4669 66.4498 75.7412C66.4498 74.9538 65.7168 72.4524 64.9838 70.7694L64.3132 69.2254L64.7499 68.2989C65.6544 66.3226 65.7168 64.3307 64.9526 62.0764C64.4224 60.4706 63.7206 59.22 61.3812 55.6841C58.0437 50.6505 57.2483 48.6432 57.2483 45.3544C57.2483 42.9766 57.5135 41.695 58.9015 37.3563C60.8509 31.2264 61.2564 28.8177 61.1005 23.9231C60.9757 19.6924 60.4767 17.6388 58.7143 14.103C55.2833 7.20107 48.7955 2.12116 41.3407 0.515355C40.2178 0.283748 35.5391 0.067582 34.6346 0.221987Z" fill="#890004"/>
<path d="M22.4699 4.7152C22.0177 4.88505 20.3489 6.29013 19.1793 7.49448C15.5143 11.2465 13.1437 16.1566 12.4887 21.3291C12.3639 22.3328 12.3171 23.9849 12.3795 26.2701C12.4887 30.686 12.6602 31.5507 14.7969 38.2055C15.9821 41.9112 16.3096 43.7487 16.1849 45.9721C16.1381 46.8676 15.9821 48.0257 15.8418 48.5352C15.4051 50.1256 14.1574 52.4725 12.0676 55.6533C8.76132 60.6714 8.15309 62.0147 8.01273 64.4543C7.91915 66.0138 8.09071 66.9865 8.71453 68.4225L9.10443 69.3026L8.62096 70.3526C7.90356 71.8812 7.68522 72.4988 7.34211 73.8421C6.57792 76.8221 7.13937 77.3008 10.5236 76.5596C11.3034 76.3898 11.9428 76.2508 11.974 76.2508C12.0052 76.2508 12.0208 76.7603 12.0208 77.3934C12.0208 78.6286 12.1768 78.9529 12.8786 79.1227C13.8923 79.3698 14.3602 78.6286 14.3602 76.714V75.4633L14.8592 75.2935C15.9665 74.9075 19.3508 73.1318 20.8012 72.1745L22.3296 71.14L23.1406 71.8194C23.5928 72.19 24.513 72.9002 25.1992 73.3943C26.9771 74.6759 29.1137 76.5287 30.1742 77.7177C31.2815 78.9529 31.7026 79.2463 32.2017 79.1227C32.7787 78.9838 33.075 78.5978 33.075 78.0265C33.075 77.0383 30.3614 74.3208 26.5092 71.4643C25.4487 70.6768 24.1855 69.6886 23.702 69.2717C22.6103 68.3453 22.1112 68.299 21.1755 69.0556C19.4444 70.4452 15.9353 72.3907 13.6272 73.2554C12.3795 73.7186 9.80623 74.4134 9.71266 74.3208C9.5723 74.1972 10.4924 71.8503 11.1631 70.5842C12.0988 68.8394 13.2997 67.2953 14.9216 65.7513C16.7307 64.0374 18.2279 63.0492 21.3782 61.5515C22.7975 60.8721 25.2616 59.5906 26.8523 58.7105C28.4431 57.8304 29.8155 57.1047 29.8779 57.1047C29.9403 57.1047 30.377 57.4598 30.8448 57.8921C32.3108 59.2663 34.3383 59.9611 36.896 59.9457C39.4381 59.9303 41.6215 59.1582 42.9939 57.784C43.3838 57.4135 43.7269 57.1047 43.7737 57.1047C43.8049 57.1047 44.7562 57.5833 45.8479 58.1855C47.08 58.8494 48.0469 59.2663 48.3276 59.2663C49.1698 59.2663 49.7468 58.17 49.2478 57.5215C49.1542 57.3826 48.0157 56.7032 46.7213 56.0084C45.4424 55.329 44.2727 54.6651 44.1324 54.5415C43.8205 54.2636 42.6352 52.1946 42.5104 51.7005C42.4325 51.3608 42.4792 51.2836 42.9315 51.1138C45.0525 50.3572 48.2341 47.6242 49.6377 45.3699C50.433 44.1192 51.166 42.3899 51.5559 40.9539C51.8523 39.8577 52.133 37.1401 52.0082 36.6461C51.9302 36.3527 52.0082 36.2755 52.4449 36.1211C54.5659 35.3954 56.1879 33.1102 56.8273 29.914C57.4043 27.1347 57.2796 23.4445 56.5934 22.7188C55.9539 22.0394 55.4705 22.2247 53.7393 23.7533C52.8816 24.5099 52.133 25.1429 52.0862 25.1429C52.0394 25.1429 51.9458 24.4635 51.899 23.6298C51.7275 20.8968 50.7606 18.4109 49.3258 16.9904C48.312 15.9867 47.1424 15.5081 45.7075 15.5081C44.07 15.5081 42.5884 16.0639 40.561 17.4227L39.6564 18.0249L39.2197 17.3455C38.44 16.1103 37.2079 15.5235 36.1474 15.8632C35.6171 16.0331 34.6814 16.9132 34.1511 17.7161L33.9172 18.0866L32.9347 17.4381C32.4044 17.083 31.4219 16.5271 30.7669 16.2183C29.6596 15.6934 29.4568 15.647 28.1624 15.647C26.9771 15.647 26.6184 15.7088 25.901 16.0485C23.5772 17.1293 22.0177 20.063 21.7525 23.8459L21.6434 25.2819L20.0214 23.815C18.2123 22.2092 17.7912 22.0548 17.105 22.7342C16.6216 23.1974 16.4656 24.6951 16.5904 27.5207C16.7619 31.7514 18.1187 34.5153 20.6608 35.8123L21.6434 36.3218L21.7369 38.0975C21.9241 41.8649 23.4837 45.3236 26.1973 48.0102C27.445 49.2609 29.0825 50.3881 30.5173 51.0211L31.3751 51.3917L30.6577 52.7504C30.2678 53.4916 29.8623 54.2018 29.7531 54.3408C29.566 54.5724 20.3021 59.5597 19.46 59.8685C18.7114 60.1619 16.528 61.4589 15.3115 62.3544C13.9391 63.3735 12.1924 65.0102 11.2722 66.1836C10.9291 66.6314 10.6016 66.9402 10.5704 66.8785C10.5236 66.8013 10.4145 66.3535 10.3209 65.8748C9.9466 63.7904 10.7108 61.8603 13.674 57.5524C15.5922 54.7577 16.5904 53.0129 17.3078 51.1601C18.2591 48.7514 18.493 47.5007 18.4774 44.9067C18.4619 42.2664 18.1655 40.7841 16.9959 37.3563C16.1225 34.7932 15.4363 32.4463 15.0308 30.5471C14.7969 29.4662 14.7501 28.5244 14.7501 25.2973C14.7501 21.7306 14.7813 21.2056 15.1088 19.7542C16.2161 14.875 18.6958 10.7833 22.4544 7.63345C23.2341 6.96951 23.9203 6.27469 23.9671 6.07396C24.1075 5.53354 23.9048 5.10121 23.4057 4.83872C22.9222 4.59168 22.8442 4.57624 22.4699 4.7152ZM46.9552 18.1175C47.1735 18.2256 47.5011 18.4881 47.7038 18.7042L48.0625 19.0748L47.2983 19.6461C46.113 20.4953 44.0544 21.5144 42.604 21.9622C41.8866 22.1938 41.2628 22.3482 41.2316 22.3173C41.2004 22.271 41.0444 21.7923 40.8729 21.221L40.5766 20.202L41.6995 19.4454C44.1792 17.7933 45.614 17.4381 46.9552 18.1175ZM29.644 18.241C30.5329 18.6116 32.997 20.1402 32.997 20.3255C32.997 20.3873 32.8879 20.8659 32.7631 21.4063C32.5448 22.3636 32.5448 22.3791 32.0613 22.271C30.377 21.9159 27.1175 20.3409 26.1037 19.3991C25.7606 19.0748 25.7606 19.0594 26.0258 18.766C26.8367 17.8705 28.2404 17.6697 29.644 18.241ZM37.5822 18.9204C38.2216 19.8623 38.7987 21.7306 39.0326 23.5062C39.2041 24.8032 39.1885 24.9731 38.9078 25.5289C38.3152 26.7487 36.7556 27.2274 35.6171 26.5326C34.7126 25.9921 34.4474 25.1584 34.6502 23.4908C34.9621 20.9431 36.1318 18.1947 36.9116 18.1947C37.0207 18.1947 37.3171 18.519 37.5822 18.9204ZM25.7294 21.9622C27.2266 22.9504 28.2404 23.429 30.3302 24.1393L32.2017 24.7723L32.3732 25.6216C32.7943 27.7215 34.5878 29.1574 36.8024 29.1574C39.095 29.1574 40.7169 27.9068 41.294 25.7142C41.5591 24.6951 41.5747 24.6643 42.1985 24.5253C44.1324 24.0466 46.6589 22.9041 48.2652 21.7923C48.8423 21.3909 49.0606 21.2982 49.1542 21.4526C49.5129 22.0394 49.6065 24.0003 49.6065 31.1801C49.6065 38.082 49.5753 38.9312 49.3102 40.1356C48.2185 44.9839 44.959 48.319 40.0151 49.6315C39.1729 49.8476 38.4088 49.9094 36.74 49.9094C34.8373 49.894 34.3695 49.8322 33.153 49.4771C30.8448 48.7822 29.4724 47.9793 27.7725 46.2963C26.5092 45.0457 26.1661 44.6133 25.5423 43.3626C24.1075 40.5062 24.1075 40.5988 24.1075 31.2419C24.1075 25.004 24.1543 22.8423 24.3102 22.1629C24.4194 21.6843 24.5598 21.2828 24.6066 21.2828C24.6533 21.2828 25.1524 21.5916 25.7294 21.9622ZM21.6902 31.0257C21.6902 32.6624 21.6278 33.6352 21.5342 33.6352C21.2223 33.6352 20.1618 32.4154 19.7719 31.6125C19.2416 30.5008 18.8829 28.6788 18.8829 27.1502V25.8841L20.2865 27.1656L21.6902 28.4317V31.0257ZM54.831 27.4127C54.6907 29.2501 54.3788 30.5934 53.8173 31.736C53.3806 32.6007 52.4605 33.6352 52.1018 33.6352C52.0082 33.6352 51.9458 32.6007 51.9458 31.0412V28.4472L53.2871 27.2583C54.0357 26.6098 54.7063 26.0693 54.7843 26.0693C54.8622 26.0693 54.8778 26.6406 54.831 27.4127ZM36.2721 52.2718C37.473 52.3181 38.8142 52.2872 39.2509 52.21L40.0463 52.0556L40.9665 53.8313L41.871 55.6069L41.1536 56.2554C40.327 56.9966 38.9702 57.5061 37.4106 57.6605C35.5859 57.8304 33.2466 57.1047 32.2329 56.0393L31.765 55.5606L32.1237 54.9739C32.3108 54.6651 32.7319 53.8622 33.0438 53.2137C33.4805 52.3181 33.6833 52.0402 33.8548 52.1019C33.9796 52.1637 35.0713 52.2409 36.2721 52.2718Z" fill="#890004"/>
<path d="M9.63465 7.50989C9.27594 7.8959 9.29154 8.82233 9.65024 9.13114C10.0401 9.48627 10.9759 9.47083 11.2878 9.1157C11.6465 8.72969 11.6309 7.80326 11.2722 7.49445C10.8823 7.13932 9.94656 7.15476 9.63465 7.50989Z" fill="#890004"/>
<path d="M61.7244 7.50989C61.3657 7.8959 61.3813 8.82233 61.74 9.13114C62.1299 9.48627 63.0656 9.47083 63.3775 9.1157C63.7362 8.72969 63.7206 7.80326 63.3619 7.49445C62.972 7.13932 62.0363 7.15476 61.7244 7.50989Z" fill="#890004"/>
<path d="M2.19552 27.3044C2.02397 27.4742 1.88361 27.8139 1.88361 28.0764C1.88361 29.1109 3.25603 29.5587 3.89545 28.7558C4.30094 28.2308 4.30094 27.922 3.89545 27.397C3.48996 26.8875 2.66339 26.8412 2.19552 27.3044Z" fill="#890004"/>
<path d="M69.1167 27.397C68.9295 27.6286 68.7892 27.922 68.7892 28.0764C68.7892 28.2308 68.9295 28.5242 69.1167 28.7558C69.7561 29.5587 71.1285 29.1109 71.1285 28.0764C71.1285 27.0419 69.7561 26.5941 69.1167 27.397Z" fill="#890004"/>
<path d="M7.2641 44.212C7.04576 44.4128 6.87421 44.7679 6.87421 44.9841C6.87421 45.4936 7.52923 46.1421 8.04388 46.1421C8.55854 46.1421 9.21356 45.4936 9.21356 44.9841C9.21356 44.7679 9.04201 44.4128 8.82367 44.212C8.62093 43.9959 8.26222 43.826 8.04388 43.826C7.82554 43.826 7.46684 43.9959 7.2641 44.212Z" fill="#890004"/>
<path d="M64.1885 44.212C63.9701 44.4128 63.7986 44.7679 63.7986 44.9841C63.7986 45.4936 64.4536 46.1421 64.9683 46.1421C65.4829 46.1421 66.1379 45.4936 66.1379 44.9841C66.1379 44.4745 65.4829 43.826 64.9683 43.826C64.7499 43.826 64.3912 43.9959 64.1885 44.212Z" fill="#890004"/>
<path d="M0.355205 54.7266C-0.0970702 55.0354 -0.128262 56.0081 0.324014 56.4096C1.07261 57.0735 2.1955 56.564 2.1955 55.5604C2.1955 54.881 1.8212 54.4795 1.16618 54.4795C0.916651 54.4795 0.542354 54.5876 0.355205 54.7266Z" fill="#890004"/>
<path d="M71.1598 54.727C70.9102 54.8968 70.8167 55.113 70.8167 55.5453C70.8167 56.271 71.1909 56.6416 71.9395 56.6416C72.6102 56.6416 73 56.2556 73 55.5917C73 54.6498 71.9707 54.1557 71.1598 54.727Z" fill="#890004"/>
</svg>
