<?xml version="1.0" encoding="UTF-8"?>
<!DOCTYPE svg PUBLIC "-//W3C//DTD SVG 1.1//EN" "http://www.w3.org/Graphics/SVG/1.1/DTD/svg11.dtd">
<svg xmlns="http://www.w3.org/2000/svg" version="1.1" width="236px" height="236px" style="shape-rendering:geometricPrecision; text-rendering:geometricPrecision; image-rendering:optimizeQuality; fill-rule:evenodd; clip-rule:evenodd" xmlns:xlink="http://www.w3.org/1999/xlink">
<g><path style="opacity:0.947" fill="#000000" d="M 104.5,22.5 C 140.038,19.1827 166.538,32.8493 184,63.5C 189.116,75.7625 190.449,88.4291 188,101.5C 185.751,107.576 183.918,113.742 182.5,120C 183.384,124.987 184.884,129.82 187,134.5C 187.434,157.05 176.267,169.217 153.5,171C 154.025,171.692 154.692,172.192 155.5,172.5C 156.661,176.795 156.828,181.129 156,185.5C 149.45,181.21 143.45,181.877 138,187.5C 131.156,180.904 124.323,180.904 117.5,187.5C 110.687,180.908 103.853,180.908 97,187.5C 91.7373,181.948 85.9039,181.282 79.5,185.5C 78.1667,181.167 78.1667,176.833 79.5,172.5C 80.3081,172.192 80.9747,171.692 81.5,171C 58.719,169.228 47.5523,157.061 48,134.5C 50.0039,129.988 51.5039,125.322 52.5,120.5C 37.4438,81.4992 47.7772,51.3325 83.5,30C 90.4353,26.9686 97.4353,24.4686 104.5,22.5 Z M 79.5,96.5 C 93.3992,94.9162 102.899,100.583 108,113.5C 110.601,131.066 103.101,141.066 85.5,143.5C 71.1667,141.833 63.1667,133.833 61.5,119.5C 63.083,108.263 69.083,100.597 79.5,96.5 Z M 143.5,96.5 C 160.441,95.1072 170.441,102.774 173.5,119.5C 171.833,133.833 163.833,141.833 149.5,143.5C 131.899,141.066 124.399,131.066 127,113.5C 130.019,105.316 135.519,99.649 143.5,96.5 Z M 115.5,144.5 C 116.873,144.343 118.207,144.51 119.5,145C 122.729,149.233 125.562,153.733 128,158.5C 129.316,162.128 128.149,164.461 124.5,165.5C 119.813,162.959 115.146,162.959 110.5,165.5C 106.851,164.461 105.684,162.128 107,158.5C 109.593,153.639 112.427,148.972 115.5,144.5 Z"/></g>
<g><path style="opacity:0.865" fill="#000000" d="M 82.5,186.5 C 85.5184,186.335 88.5184,186.502 91.5,187C 93.3333,187.5 94.5,188.667 95,190.5C 95.6667,196.167 95.6667,201.833 95,207.5C 92.4586,212.069 88.6253,213.569 83.5,212C 80.8981,211.065 79.3981,209.232 79,206.5C 78.3333,201.5 78.3333,196.5 79,191.5C 79.9973,189.677 81.1639,188.01 82.5,186.5 Z"/></g>
<g><path style="opacity:0.83" fill="#000000" d="M 103.5,186.5 C 106.187,186.336 108.854,186.503 111.5,187C 113.667,187.833 115.167,189.333 116,191.5C 116.667,196.5 116.667,201.5 116,206.5C 113.598,212.092 109.431,213.925 103.5,212C 101.185,210.891 99.6853,209.057 99,206.5C 98.3333,201.833 98.3333,197.167 99,192.5C 99.8041,189.854 101.304,187.854 103.5,186.5 Z"/></g>
<g><path style="opacity:0.86" fill="#000000" d="M 123.5,186.5 C 126.187,186.336 128.854,186.503 131.5,187C 133.667,187.833 135.167,189.333 136,191.5C 136.667,196.833 136.667,202.167 136,207.5C 135.215,209.286 134.049,210.786 132.5,212C 127.474,213.494 123.308,212.327 120,208.5C 119.333,202.5 119.333,196.5 120,190.5C 121.376,189.295 122.542,187.962 123.5,186.5 Z"/></g>
<g><path style="opacity:0.87" fill="#000000" d="M 144.5,186.5 C 149.266,185.551 153.1,186.884 156,190.5C 156.667,196.167 156.667,201.833 156,207.5C 153.565,212.224 149.731,213.724 144.5,212C 143.069,211.535 141.903,210.701 141,209.5C 139.544,203.903 139.211,198.237 140,192.5C 140.599,189.746 142.099,187.746 144.5,186.5 Z"/></g>
</svg>
