<?xml version="1.0" encoding="UTF-8"?>
<!DOCTYPE svg PUBLIC "-//W3C//DTD SVG 1.1//EN" "http://www.w3.org/Graphics/SVG/1.1/DTD/svg11.dtd">
<svg xmlns="http://www.w3.org/2000/svg" version="1.1" width="236px" height="236px" style="shape-rendering:geometricPrecision; text-rendering:geometricPrecision; image-rendering:optimizeQuality; fill-rule:evenodd; clip-rule:evenodd" xmlns:xlink="http://www.w3.org/1999/xlink">
<g><path style="opacity:0.945" fill="#000000" d="M 115.5,-0.5 C 116.833,-0.5 118.167,-0.5 119.5,-0.5C 119.783,0.28913 120.283,0.955796 121,1.5C 121.333,5.83333 121.667,10.1667 122,14.5C 127.082,13.363 132.249,13.1963 137.5,14C 142.255,16.5095 142.588,19.5095 138.5,23C 132.916,23.8056 127.416,23.6389 122,22.5C 121.333,30.8333 121.333,39.1667 122,47.5C 138.546,48.3621 153.213,54.3621 166,65.5C 167.79,70.511 167.623,75.511 165.5,80.5C 168.621,81.0554 171.788,80.7221 175,79.5C 176.225,79.8623 177.391,80.3623 178.5,81C 188.381,96.767 191.881,113.934 189,132.5C 187.249,157.261 184.749,181.927 181.5,206.5C 166.959,200.486 151.959,195.986 136.5,193C 129.5,192.333 122.5,192.333 115.5,193C 99.5177,195.463 83.5177,197.797 67.5,200C 62.2487,200.804 57.082,200.637 52,199.5C 49.2615,173.21 47.0949,146.877 45.5,120.5C 45.2824,96.606 54.4491,77.2726 73,62.5C 78.7594,68.5131 83.926,75.0131 88.5,82C 84.8041,86.2087 82.9708,91.0421 83,96.5C 87.4666,101.968 92.3,107.135 97.5,112C 101.088,112.611 102.254,111.111 101,107.5C 96.4657,103.301 92.299,98.8006 88.5,94C 90.9009,90.0314 92.9009,85.8648 94.5,81.5C 89.3608,73.861 84.0275,66.361 78.5,59C 88.9938,51.5018 100.494,47.6685 113,47.5C 113.667,39.1667 113.667,30.8333 113,22.5C 107.584,23.6389 102.084,23.8056 96.5,23C 92.4117,19.5095 92.7451,16.5095 97.5,14C 102.751,13.1963 107.918,13.363 113,14.5C 113.333,10.1667 113.667,5.83333 114,1.5C 114.717,0.955796 115.217,0.28913 115.5,-0.5 Z M 80.5,124.5 C 86.2617,124.149 91.9284,124.649 97.5,126C 104.113,130.166 105.613,135.666 102,142.5C 100.043,143.889 98.2096,145.389 96.5,147C 98.9068,151.813 101.573,156.48 104.5,161C 102.919,163.395 100.919,163.895 98.5,162.5C 95.8333,157.833 93.1667,153.167 90.5,148.5C 88.2573,147.526 85.924,147.192 83.5,147.5C 83.6659,152.511 83.4993,157.511 83,162.5C 81.6667,163.833 80.3333,163.833 79,162.5C 78.8333,156.333 78.6667,150.167 78.5,144C 78.5405,137.261 79.2072,130.761 80.5,124.5 Z M 116.5,124.5 C 118.017,124.511 119.184,125.177 120,126.5C 120.667,138.167 120.667,149.833 120,161.5C 118.333,164.167 116.667,164.167 115,161.5C 114.333,149.833 114.333,138.167 115,126.5C 115.717,125.956 116.217,125.289 116.5,124.5 Z M 133.5,124.5 C 139.262,124.149 144.928,124.649 150.5,126C 158.489,132.619 158.489,139.285 150.5,146C 146.23,147.075 141.897,147.575 137.5,147.5C 137.666,152.179 137.499,156.845 137,161.5C 135.084,164.033 133.084,164.033 131,161.5C 130.333,150.167 130.333,138.833 131,127.5C 131.698,126.309 132.531,125.309 133.5,124.5 Z"/></g>
<g><path style="opacity:0.722" fill="#000000" d="M 83.5,130.5 C 87.5138,130.334 91.5138,130.501 95.5,131C 98.3333,134.663 98,137.996 94.5,141C 91.1667,141.667 87.8333,141.667 84.5,141C 83.5442,137.606 83.2108,134.106 83.5,130.5 Z"/></g>
<g><path style="opacity:0.748" fill="#000000" d="M 137.5,130.5 C 141.182,130.335 144.848,130.501 148.5,131C 152.5,134.333 152.5,137.667 148.5,141C 144.848,141.499 141.182,141.665 137.5,141.5C 137.5,137.833 137.5,134.167 137.5,130.5 Z"/></g>
<g><path style="opacity:0.932" fill="#000000" d="M 235.5,228.5 C 235.5,230.167 235.5,231.833 235.5,233.5C 234.5,233.833 233.833,234.5 233.5,235.5C 156.167,235.5 78.8333,235.5 1.5,235.5C 1.16667,234.5 0.5,233.833 -0.5,233.5C -0.5,231.833 -0.5,230.167 -0.5,228.5C 14.673,218.914 31.0064,212.081 48.5,208C 66.5921,205.988 84.5921,203.322 102.5,200C 116.84,198.14 131.173,198.14 145.5,200C 156.125,202.875 166.459,206.542 176.5,211C 190.168,213.333 203.835,215.667 217.5,218C 224.284,220.223 230.284,223.723 235.5,228.5 Z"/></g>
</svg>
