<?xml version="1.0" standalone="no"?>
<!DOCTYPE svg PUBLIC "-//W3C//DTD SVG 20010904//EN"
 "http://www.w3.org/TR/2001/REC-SVG-20010904/DTD/svg10.dtd">
<svg version="1.0" xmlns="http://www.w3.org/2000/svg"
 width="512.000000pt" height="512.000000pt" viewBox="0 0 512.000000 512.000000"
 preserveAspectRatio="xMidYMid meet">

<g transform="translate(0.000000,512.000000) scale(0.100000,-0.100000)"
fill="#000000" stroke="none">
<path d="M1010 5100 c-27 -27 -25 -68 5 -176 67 -235 184 -495 300 -669 46
-68 63 -101 53 -104 -34 -11 -186 -96 -265 -148 -116 -76 -303 -263 -359 -359
-60 -101 -88 -183 -75 -216 17 -46 49 -54 325 -83 83 -8 152 -17 154 -20 7 -7
-76 -153 -142 -249 -33 -49 -102 -133 -153 -187 -102 -108 -111 -132 -69 -174
48 -48 230 -84 336 -66 30 5 56 8 57 7 1 -1 -5 -42 -14 -91 -19 -114 -14 -340
11 -436 l18 -66 -114 -116 c-184 -186 -188 -210 -47 -286 149 -80 151 -64 -18
-155 l-146 -80 -76 2 c-93 3 -149 -21 -198 -86 -60 -80 -76 -153 -79 -357 l-2
-180 -37 -85 c-71 -166 -105 -341 -105 -549 0 -145 7 -161 73 -161 64 0 73 23
80 212 4 115 12 187 26 247 31 122 35 125 61 45 54 -164 207 -487 235 -498 37
-14 74 -6 94 20 28 35 27 43 -13 122 -156 312 -246 581 -264 797 -15 167 2
263 54 304 21 16 84 30 84 19 0 -2 72 -279 159 -616 100 -387 165 -620 177
-633 38 -42 124 -11 124 46 0 14 -70 294 -155 622 -85 328 -155 598 -155 599
0 2 30 20 68 40 37 20 114 63 170 96 57 33 109 57 115 55 7 -3 62 -50 124
-106 62 -55 121 -101 131 -101 24 0 69 35 77 60 10 32 -21 75 -115 159 -106
95 -226 186 -322 243 l-69 41 68 69 c76 78 175 161 273 230 77 54 239 148 256
148 6 0 31 -29 54 -64 76 -118 204 -234 338 -309 l61 -33 -52 -105 c-29 -57
-73 -136 -99 -176 -27 -39 -48 -77 -48 -85 0 -8 31 -76 69 -151 146 -290 218
-604 242 -1056 12 -231 15 -241 79 -241 39 0 62 18 74 56 18 59 -29 533 -70
714 -9 39 -14 74 -11 76 3 3 31 1 63 -5 72 -14 235 -14 293 0 24 5 45 8 48 6
2 -3 -8 -60 -22 -129 -30 -151 -52 -335 -61 -523 -6 -134 -5 -141 16 -167 26
-34 80 -38 109 -9 15 15 19 41 25 177 23 518 117 875 302 1148 30 43 54 89 54
101 0 12 -13 40 -29 62 -41 57 -116 188 -145 255 l-26 58 43 21 c123 63 243
167 332 288 33 45 65 81 71 81 18 0 222 -126 303 -188 89 -67 273 -241 266
-252 -3 -4 -36 -26 -73 -48 -305 -181 -567 -459 -718 -762 -120 -241 -204
-599 -204 -871 0 -50 3 -60 26 -78 35 -28 69 -26 99 4 21 21 25 33 25 88 0
171 43 418 102 586 93 267 269 524 491 718 45 40 86 73 91 73 4 0 63 -31 130
-69 66 -37 144 -80 172 -94 l51 -26 -148 -603 c-82 -332 -149 -613 -149 -625
0 -49 80 -82 123 -51 12 9 42 116 98 343 230 932 224 910 243 913 34 7 77 -20
98 -62 29 -58 35 -190 14 -331 -28 -186 -84 -355 -204 -610 -86 -184 -93 -214
-63 -244 26 -26 82 -28 103 -3 39 43 238 488 238 530 0 7 4 12 9 12 10 0 36
-92 51 -180 6 -36 13 -129 17 -208 6 -129 8 -144 27 -158 34 -23 82 -18 105
12 25 31 28 121 11 282 -19 169 -83 393 -136 477 -11 16 -11 35 -3 90 6 38 9
122 7 185 -6 133 -27 202 -84 269 -55 64 -104 85 -199 87 -79 1 -82 2 -205 69
-144 79 -160 88 -160 95 0 5 64 42 165 95 53 29 66 63 40 111 -10 20 -68 85
-128 146 l-109 111 17 71 c35 148 38 347 6 487 -16 68 -18 66 49 55 116 -19
329 36 359 92 23 43 12 62 -102 175 -62 62 -145 155 -184 207 l-72 95 58 26
c98 45 181 150 161 205 -5 12 -50 62 -100 110 -94 91 -173 188 -211 259 l-21
40 102 100 c161 158 259 301 343 496 61 141 61 190 4 214 -38 16 -206 41 -333
51 -85 6 -93 5 -113 -15 -13 -13 -21 -34 -21 -55 0 -53 32 -72 132 -81 46 -4
101 -10 123 -14 l40 -6 -70 -56 c-98 -79 -183 -133 -300 -189 -85 -41 -240
-103 -310 -124 -19 -6 -23 4 -49 111 -16 65 -41 157 -56 204 l-27 87 128 4
c148 4 169 14 169 78 0 67 -16 73 -200 71 -125 -2 -160 1 -160 11 0 23 -90
192 -117 220 -42 44 -101 61 -190 56 -66 -4 -101 -15 -232 -68 -191 -77 -217
-79 -346 -25 -197 82 -252 97 -335 93 -142 -6 -176 -47 -311 -377 -9 -23 -12
-21 -98 62 -132 128 -286 237 -452 322 -156 80 -195 89 -229 55z m351 -302
c183 -124 342 -285 465 -468 64 -97 174 -306 174 -331 0 -10 -29 -19 -101 -32
l-102 -17 -70 57 c-135 111 -290 314 -394 518 -50 98 -134 302 -149 359 l-7
28 49 -28 c27 -15 88 -54 135 -86z m914 48 c277 -116 315 -117 552 -20 134 55
202 72 246 60 28 -7 66 -72 122 -211 37 -91 118 -355 111 -362 -2 -2 -51 10
-109 26 -225 63 -333 76 -642 75 -238 0 -301 -3 -420 -22 -77 -12 -143 -22
-147 -22 -11 0 -88 117 -88 134 0 45 122 337 155 370 28 28 111 18 220 -28z
m1814 -563 c-124 -162 -252 -284 -409 -388 -329 -219 -754 -345 -1410 -417
-235 -26 -1115 -13 -1275 19 -28 5 -25 8 50 46 170 85 428 173 680 231 286 67
513 98 865 121 446 28 735 78 1025 176 125 42 343 142 430 197 58 37 62 38 44
15z m-1244 -28 c201 -25 499 -103 450 -118 -115 -35 -406 -72 -720 -92 -132
-9 -277 -20 -323 -26 -46 -5 -86 -7 -91 -5 -4 3 -16 27 -26 53 -10 26 -31 73
-46 105 l-28 56 67 12 c195 32 524 39 717 15z m-1297 -288 l62 -63 -102 -28
c-125 -35 -326 -108 -468 -170 l-105 -46 80 77 c44 43 116 102 159 132 88 60
273 160 296 161 9 0 44 -28 78 -63z m2287 -248 c47 -77 172 -226 215 -257 30
-23 31 -25 14 -43 -22 -24 -75 -39 -141 -39 -44 0 -55 -4 -72 -26 -12 -15 -21
-37 -21 -49 0 -49 162 -283 287 -416 l64 -68 -38 -7 c-55 -10 -152 9 -223 45
-86 44 -123 41 -145 -12 -11 -26 -9 -40 16 -112 41 -123 60 -228 61 -340 0
-105 -9 -204 -21 -224 -5 -7 -39 10 -106 54 -54 37 -129 82 -167 101 -56 28
-68 39 -63 52 4 9 17 49 28 87 19 63 21 103 25 396 l3 327 -22 21 c-13 12 -36
21 -52 21 -58 0 -240 31 -325 56 -88 26 -264 103 -275 121 -4 6 39 22 106 38
155 38 332 98 457 153 111 49 268 132 310 163 14 10 30 19 36 19 6 0 28 -28
49 -61z m-1103 -394 c84 -64 218 -132 332 -169 89 -30 258 -66 305 -66 l31 0
0 -242 c0 -272 -8 -331 -62 -456 -140 -324 -459 -521 -806 -499 -308 20 -568
200 -699 485 -64 137 -73 212 -73 593 l0 336 213 6 c211 6 436 25 597 51 47 8
86 14 87 15 1 0 35 -24 75 -54z m-1196 -15 l73 0 3 -377 c4 -347 6 -384 25
-453 12 -41 24 -83 28 -92 5 -13 -9 -25 -73 -57 -43 -22 -122 -69 -175 -104
-114 -76 -106 -83 -114 108 -6 149 9 252 58 400 34 101 32 128 -11 150 -41 21
-52 19 -96 -16 -22 -17 -52 -38 -67 -46 -38 -19 -128 -33 -171 -26 l-34 5 56
67 c75 88 183 255 235 364 l42 88 74 -5 c41 -3 107 -6 147 -6z m1462 -1822
l23 -36 -48 -84 c-27 -46 -71 -139 -98 -206 -54 -134 -50 -131 -170 -162 -98
-25 -354 3 -391 43 -6 6 -22 44 -34 82 -13 39 -47 127 -77 198 l-54 127 34 58
c19 31 57 102 83 157 27 55 50 101 51 103 0 2 47 -4 104 -14 114 -19 283 -15
374 9 l50 13 65 -126 c36 -69 76 -141 88 -162z"/>
<path d="M190 4830 c-24 -24 -26 -67 -4 -98 11 -16 25 -22 54 -22 70 0 100 70
53 123 -22 23 -78 22 -103 -3z"/>
<path d="M4825 4830 c-42 -46 -10 -120 52 -120 62 0 94 65 57 118 -20 29 -83
31 -109 2z"/>
<path d="M682 4387 c-55 -58 6 -147 79 -117 25 11 49 46 49 74 0 7 -9 25 -21
40 -27 34 -77 36 -107 3z"/>
<path d="M4377 3919 c-46 -27 -41 -105 9 -128 35 -16 48 -14 78 10 70 55 -10
163 -87 118z"/>
<path d="M350 3210 c-30 -30 -27 -83 6 -109 31 -24 43 -26 78 -10 31 14 49 61
36 94 -18 46 -85 60 -120 25z"/>
<path d="M4752 3207 c-31 -33 -29 -80 4 -106 15 -12 33 -21 40 -21 28 0 63 24
74 49 30 74 -64 136 -118 78z"/>
<path d="M530 2142 c-35 -36 -38 -60 -9 -96 27 -34 77 -36 107 -3 41 43 19
109 -40 123 -22 5 -33 0 -58 -24z"/>
<path d="M4480 2163 c-32 -12 -50 -37 -50 -70 0 -62 65 -94 118 -57 33 23 31
86 -4 113 -27 21 -38 24 -64 14z"/>
<path d="M1723 1155 c-39 -27 -39 -68 0 -132 56 -93 117 -221 152 -318 61
-167 105 -417 105 -592 0 -55 4 -67 25 -88 30 -30 64 -32 99 -4 24 19 26 26
26 94 0 281 -75 589 -207 854 -93 186 -139 229 -200 186z"/>
</g>
</svg>
