<svg width="73" height="79" viewBox="0 0 73 79" fill="none" xmlns="http://www.w3.org/2000/svg">
<path d="M12.8207 0.285599C12.4082 0.698021 12.4388 1.3243 12.897 2.97399C13.9205 6.56361 15.7076 10.5351 17.4795 13.193C18.1822 14.2317 18.4419 14.7357 18.2891 14.7816C17.7698 14.9496 15.448 16.248 14.2412 17.0423C12.4693 18.2032 9.61292 21.0596 8.75752 22.526C7.84102 24.0687 7.41332 25.3213 7.6119 25.8254C7.87157 26.528 8.36037 26.6502 12.5763 27.0932C13.8441 27.2154 14.8981 27.3529 14.9286 27.3987C15.0355 27.5056 13.7677 29.7358 12.7596 31.2022C12.2555 31.9506 11.2015 33.2337 10.4225 34.0586C8.86444 35.7083 8.72697 36.0749 9.36852 36.7164C10.1017 37.4496 12.8818 37.9995 14.5009 37.7246C14.9592 37.6482 15.3563 37.6024 15.3716 37.6177C15.3869 37.6329 15.2952 38.2592 15.1577 39.0077C14.8675 40.749 14.9439 44.2012 15.3258 45.6676L15.6007 46.6757L13.8594 48.4476C11.0488 51.2888 10.9877 51.6554 13.1414 52.8163C15.4174 54.0383 15.448 53.7939 12.8665 55.1839L10.6363 56.4059L9.47544 56.3753C8.05487 56.3295 7.19947 56.6961 6.451 57.689C5.5345 58.911 5.2901 60.0261 5.24427 63.1421L5.21372 65.8916L4.64855 67.19C3.56403 69.7257 3.04468 72.3988 3.04468 75.576C3.04468 77.7909 3.1516 78.0353 4.15975 78.0353C5.13735 78.0353 5.27482 77.6839 5.38175 74.797C5.44285 73.0403 5.56505 71.9405 5.7789 71.024C6.25242 69.1605 6.31352 69.1147 6.71067 70.3367C7.53552 72.8418 9.87259 77.7756 10.3003 77.9436C10.8655 78.1575 11.4306 78.0353 11.7361 77.6381C12.1638 77.1035 12.1486 76.9813 11.5376 75.7746C9.15467 71.0088 7.77992 66.8998 7.50497 63.6004C7.27585 61.0495 7.53552 59.5831 8.32982 58.9568C8.6506 58.7124 9.61292 58.4986 9.61292 58.6666C9.61292 58.6971 10.7127 62.9283 12.0416 68.076C13.5691 73.9874 14.562 77.5465 14.7453 77.745C15.3258 78.3866 16.6394 77.9131 16.6394 77.0424C16.6394 76.8285 15.5702 72.5515 14.2718 67.5413C12.9734 62.5311 11.9042 58.4069 11.9042 58.3916C11.9042 58.3611 12.3624 58.0861 12.9429 57.7806C13.508 57.4751 14.6842 56.8183 15.5396 56.3142C16.4103 55.8102 17.2046 55.4436 17.2962 55.4741C17.4032 55.5199 18.2433 56.2379 19.1903 57.0933C20.1374 57.9334 21.0386 58.636 21.1914 58.636C21.558 58.636 22.2453 58.1014 22.3675 57.7195C22.5203 57.2307 22.0468 56.5739 20.6109 55.2908C18.9918 53.8397 17.1588 52.4497 15.6924 51.579L14.6384 50.9527L15.6771 49.8987C16.838 48.7073 18.3502 47.4395 19.8472 46.3855C21.0233 45.5606 23.4979 44.1248 23.7575 44.1248C23.8492 44.1248 24.2311 44.5678 24.5824 45.1024C25.7433 46.9048 27.6985 48.6767 29.7453 49.8224L30.6771 50.3264L29.8828 51.9303C29.4398 52.801 28.7677 54.0077 28.3706 54.6187C27.9582 55.2144 27.6374 55.7949 27.6374 55.9171C27.6374 56.0393 28.1109 57.078 28.6914 58.2236C30.9215 62.6533 32.0213 67.4497 32.3879 74.354C32.5712 77.8825 32.617 78.0353 33.5946 78.0353C34.1904 78.0353 34.5417 77.7603 34.725 77.1799C34.9999 76.2786 34.282 69.0383 33.6557 66.2735C33.5183 65.6778 33.4419 65.1432 33.4877 65.1126C33.5335 65.0668 33.9612 65.0973 34.45 65.189C35.5498 65.4028 38.0397 65.4028 38.9256 65.189C39.2922 65.1126 39.613 65.0668 39.6588 65.0973C39.6894 65.1432 39.5366 66.0138 39.3228 67.0678C38.8645 69.3743 38.5285 72.1849 38.391 75.0566C38.2993 77.1035 38.3146 77.2104 38.6354 77.6076C39.0325 78.1269 39.8574 78.188 40.3004 77.745C40.5295 77.5159 40.5906 77.1188 40.6822 75.0414C41.0336 67.1289 42.4694 61.6758 45.2953 57.5057C45.7535 56.8489 46.1201 56.1462 46.1201 55.9629C46.1201 55.7796 45.9215 55.3519 45.6771 55.0159C45.0509 54.1452 43.9052 52.1442 43.4623 51.1207L43.0651 50.2348L43.7219 49.914C45.6008 48.9517 47.4338 47.3631 48.7932 45.5148C49.2973 44.8274 49.7861 44.2775 49.8778 44.2775C50.1527 44.2775 53.2688 46.2022 54.5061 47.1492C55.8656 48.1727 58.6762 50.8305 58.5692 50.9985C58.5234 51.0596 58.0193 51.3957 57.4542 51.7317C52.7953 54.4965 48.7932 58.743 46.4867 63.3713C44.6537 67.0525 43.3706 72.521 43.3706 76.6758C43.3706 77.4395 43.4164 77.5923 43.7678 77.8672C44.3024 78.2949 44.8217 78.2644 45.28 77.8061C45.6008 77.4854 45.6619 77.3021 45.6619 76.4619C45.6619 73.8499 46.3187 70.077 47.2199 67.5108C48.6405 63.4324 51.3289 59.5067 54.7199 56.5434C55.4073 55.9324 56.0336 55.4283 56.11 55.4283C56.1711 55.4283 57.0723 55.9018 58.0957 56.4823C59.1039 57.0474 60.2953 57.7043 60.723 57.9181L61.502 58.3153L59.2413 67.5261C57.9888 72.5974 56.9654 76.8896 56.9654 77.0729C56.9654 77.8214 58.1874 78.3255 58.8442 77.852C59.0275 77.7145 59.4857 76.0801 60.3411 72.6126C63.8544 58.3764 63.7627 58.7124 64.0529 58.6666C64.5723 58.5597 65.2291 58.9721 65.5499 59.6136C65.9929 60.4996 66.0845 62.5159 65.7637 64.6696C65.336 67.5108 64.4806 70.0923 62.6476 73.9874C61.334 76.798 61.2271 77.2562 61.6853 77.7145C62.0825 78.1116 62.9379 78.1422 63.2586 77.7603C63.8544 77.1035 66.8941 70.3061 66.8941 69.6646C66.8941 69.5576 66.9552 69.4813 67.0316 69.4813C67.1843 69.4813 67.5815 70.8866 67.8106 72.2308C67.9022 72.7807 68.0092 74.2012 68.0703 75.408C68.1619 77.3784 68.1925 77.6076 68.4827 77.8214C69.002 78.1727 69.7352 78.0964 70.0866 77.6381C70.4684 77.1646 70.5143 75.7898 70.2546 73.3306C69.9644 70.7491 68.9868 67.3275 68.1772 66.0444C68.0092 65.8 68.0092 65.5098 68.1314 64.6696C68.223 64.0892 68.2688 62.8061 68.2383 61.8438C68.1466 59.8122 67.8259 58.7582 66.9552 57.7348C66.1151 56.7572 65.3666 56.4364 63.9155 56.4059C62.7087 56.3906 62.6629 56.3753 60.7841 55.3519C58.5845 54.1452 58.3401 54.0077 58.3401 53.9008C58.3401 53.8244 59.3177 53.2592 60.8605 52.4497C61.67 52.0067 61.8686 51.4873 61.4715 50.7541C61.3187 50.4486 60.4328 49.4558 59.5163 48.524L57.8513 46.8285L58.111 45.7439C58.6456 43.4832 58.6914 40.4435 58.2026 38.305C57.9582 37.2663 57.9277 37.2969 58.9511 37.4649C60.723 37.7551 63.9766 36.915 64.4348 36.0596C64.7861 35.4028 64.6181 35.1126 62.8768 33.3865C61.9297 32.4394 60.6619 31.0189 60.0662 30.2246L58.9664 28.7734L59.8523 28.3763C61.3493 27.6889 62.6171 26.085 62.3116 25.2449C62.2352 25.0616 61.5478 24.2979 60.7841 23.5647C59.3483 22.1746 58.1415 20.693 57.5611 19.6085L57.2403 18.9975L58.7984 17.47C61.2576 15.0565 62.7546 12.8722 64.0377 9.89356C64.9694 7.73979 64.9694 6.99132 64.0988 6.62472C63.5183 6.38032 60.9521 5.99844 59.0122 5.84569C57.7138 5.75404 57.5916 5.76932 57.2861 6.07481C57.0876 6.27339 56.9654 6.59416 56.9654 6.91494C56.9654 7.72452 57.4542 8.01474 58.9817 8.15221C59.6843 8.21331 60.5244 8.30496 60.8605 8.36607L61.4715 8.45771L60.4022 9.31311C58.9053 10.5198 57.6069 11.3447 55.8197 12.2001C54.5214 12.8264 52.1537 13.7734 51.0845 14.0942C50.7943 14.1858 50.7332 14.0331 50.336 12.3987C50.0916 11.4058 49.7097 10.0005 49.4806 9.28256L49.0682 7.95364L51.0234 7.89254C53.2841 7.83144 53.6049 7.67869 53.6049 6.70109C53.6049 5.67767 53.3605 5.58601 50.5499 5.61657C48.6405 5.64712 48.1059 5.6013 48.1059 5.44854C48.1059 5.09721 46.7311 2.51575 46.3187 2.08804C45.6771 1.41595 44.7759 1.15627 43.4164 1.23264C42.4083 1.29375 41.8737 1.46177 39.8727 2.27135C36.9551 3.44752 36.558 3.47807 34.5875 2.65322C31.5783 1.40067 30.7382 1.17155 29.4704 1.23264C27.3013 1.3243 26.782 1.95057 24.7199 6.99132C24.5824 7.34264 24.5366 7.31209 23.2229 6.04427C21.2066 4.08907 18.8543 2.4241 16.3186 1.12572C13.9357 -0.0962753 13.34 -0.233749 12.8207 0.285599ZM18.1822 4.89864C20.9775 6.79274 23.4062 9.25201 25.285 12.0473C26.2626 13.529 27.9429 16.7215 27.9429 17.1034C27.9429 17.2561 27.4999 17.3936 26.4001 17.5922L24.8421 17.8518L23.7728 16.9812C21.7107 15.2856 19.3431 12.1848 17.7545 9.06871C16.9907 7.57176 15.7076 4.45567 15.4785 3.58499L15.3716 3.1573L16.1201 3.58499C16.5325 3.81412 17.4643 4.40984 18.1822 4.89864ZM32.1435 4.16544C36.3747 5.93734 36.9551 5.95261 40.5753 4.47094C42.6222 3.63082 43.6608 3.37115 44.3329 3.55444C44.7606 3.66137 45.3411 4.65424 46.1965 6.77747C46.7617 8.16749 47.9989 12.2001 47.892 12.307C47.8615 12.3376 47.113 12.1543 46.227 11.9099C42.7902 10.9475 41.1405 10.749 36.4205 10.7642C32.7851 10.7642 31.8227 10.8101 30.005 11.1003C28.8288 11.2836 27.8207 11.4363 27.7596 11.4363C27.5916 11.4363 26.4154 9.64916 26.4154 9.38949C26.4154 8.70211 28.2789 4.24182 28.783 3.73775C29.2107 3.31004 30.4785 3.46279 32.1435 4.16544ZM59.8523 12.7653C57.9582 15.2398 56.003 17.1034 53.6049 18.692C48.5794 22.0372 42.0875 23.9618 32.0671 25.0616C28.4775 25.4588 15.0355 25.2602 12.5915 24.7714C12.1638 24.695 12.2097 24.6492 13.3553 24.0687C15.952 22.7704 19.893 21.4262 23.7423 20.5402C28.1109 19.5168 31.5783 19.0433 36.9551 18.692C43.7678 18.2643 48.1822 17.5005 52.612 16.0036C54.5214 15.362 57.8513 13.8345 59.1802 12.9944C60.0662 12.4292 60.1273 12.4139 59.8523 12.7653ZM40.8503 13.193C43.9205 13.5748 48.4725 14.7663 47.724 14.9954C45.9674 15.53 41.5224 16.0952 36.726 16.4007C34.7097 16.5382 32.4948 16.7062 31.7922 16.7979C31.0895 16.8742 30.4785 16.9048 30.4022 16.8742C30.3411 16.8284 30.1578 16.4618 30.005 16.0647C29.8523 15.6675 29.5315 14.9496 29.3024 14.4608L28.8747 13.6054L29.8981 13.4221C32.8767 12.9333 37.9022 12.8264 40.8503 13.193ZM21.0386 17.5922L21.9857 18.5545L20.4276 18.9822C18.5182 19.5168 15.448 20.6319 13.2789 21.5789L11.675 22.2816L12.897 21.1054C13.5691 20.4486 14.6689 19.5474 15.3258 19.0891C16.67 18.1726 19.4958 16.6451 19.8472 16.6298C19.9846 16.6298 20.5193 17.0575 21.0386 17.5922ZM55.9725 21.3803C56.6904 22.5565 58.5998 24.8325 59.2566 25.306C59.7149 25.6573 59.7301 25.6879 59.4705 25.9628C59.1344 26.3294 58.3248 26.5586 57.3167 26.5586C56.6446 26.5586 56.4766 26.6197 56.2169 26.9557C56.0336 27.1848 55.8961 27.5209 55.8961 27.7042C55.8961 28.4527 58.3707 32.027 60.28 34.0586L61.2576 35.0973L60.6772 35.2042C59.8371 35.357 58.3554 35.0667 57.2709 34.5168C55.9572 33.8447 55.392 33.8906 55.056 34.7001C54.888 35.0973 54.9185 35.3111 55.3004 36.4109C55.9267 38.2898 56.2169 39.8936 56.2322 41.6044C56.2322 43.2083 56.0947 44.7205 55.9114 45.026C55.835 45.1329 55.3157 44.8733 54.2922 44.2012C53.4674 43.636 52.3218 42.9486 51.7413 42.6584C50.8859 42.2307 50.7026 42.0627 50.779 41.8641C50.8401 41.7266 51.0387 41.1156 51.2067 40.5352C51.4969 39.5729 51.5275 38.9619 51.5886 34.4863L51.6344 29.4914L51.2983 29.1706C51.0998 28.9873 50.7484 28.8498 50.504 28.8498C49.6181 28.8498 46.838 28.3763 45.5397 27.9944C44.1955 27.5973 41.5071 26.4211 41.3391 26.1461C41.278 26.0545 41.9348 25.8101 42.9582 25.5657C45.3258 24.9852 48.0295 24.0687 49.9389 23.2286C51.6344 22.4801 54.0326 21.2123 54.6741 20.7388C54.888 20.586 55.1324 20.4486 55.224 20.4486C55.3157 20.4486 55.6517 20.8763 55.9725 21.3803ZM39.1242 27.3987C40.4073 28.3763 42.4541 29.415 44.1955 29.9802C45.5549 30.4384 48.1364 30.9883 48.8543 30.9883H49.3279V34.6849C49.3279 38.8397 49.2057 39.7409 48.3808 41.6502C46.2423 46.5993 41.3696 49.6085 36.0692 49.2725C31.3645 48.967 27.393 46.2175 25.392 41.8641C24.4144 39.7714 24.2769 38.6258 24.2769 32.806V27.6736L27.5305 27.582C30.7535 27.4903 34.1904 27.2001 36.6496 26.803C37.3676 26.6808 37.9633 26.5891 37.9786 26.5738C37.9938 26.5738 38.5132 26.9404 39.1242 27.3987ZM20.8553 27.6278H21.9704L22.0162 33.3865C22.0773 38.6869 22.1079 39.2521 22.3981 40.306C22.5814 40.9323 22.7647 41.5739 22.8258 41.7113C22.9022 41.9099 22.6883 42.0932 21.7107 42.582C21.0539 42.9181 19.8472 43.636 19.0376 44.1706C17.2962 45.3315 17.4184 45.4384 17.2962 42.5209C17.2046 40.2449 17.4337 38.6716 18.1822 36.4109C18.7015 34.8682 18.671 34.4557 18.0142 34.1197C17.3879 33.7989 17.2199 33.8295 16.5478 34.3641C16.2117 34.6238 15.7535 34.9445 15.5243 35.0667C14.9439 35.357 13.5691 35.5708 12.9123 35.4639L12.393 35.3875L13.2484 34.3641C14.394 33.0199 16.0437 30.469 16.838 28.804L17.4795 27.4598L18.6099 27.5362C19.2362 27.582 20.2443 27.6278 20.8553 27.6278ZM43.1873 55.4588L43.5386 56.0087L42.8054 57.2918C42.393 57.9945 41.7209 59.4151 41.3085 60.4385C40.4837 62.4853 40.5448 62.4395 38.7118 62.913C37.2148 63.2949 33.3044 62.8672 32.7392 62.2562C32.6476 62.1646 32.4032 61.5841 32.2199 61.0037C32.0213 60.4079 31.502 59.0637 31.0437 57.9792L30.2189 56.0393L30.7382 55.1533C31.0284 54.6798 31.6089 53.5953 32.006 52.7552C32.4185 51.915 32.7698 51.2124 32.7851 51.1818C32.7851 51.1513 33.503 51.2429 34.3737 51.3957C36.115 51.6859 38.6965 51.6248 40.0865 51.2582L40.8503 51.0596L41.8431 52.9843C42.393 54.0383 43.004 55.1381 43.1873 55.4588Z" fill="#890004"/>
<path d="M0.295163 4.4098C-0.0714365 4.7764 -0.101986 5.43322 0.234063 5.90675C0.402088 6.15115 0.615938 6.2428 1.05891 6.2428C2.12816 6.2428 2.58641 5.17355 1.86849 4.36398C1.53244 4.01265 0.677038 4.02793 0.295163 4.4098Z" fill="#890004"/>
<path d="M71.0948 4.4098C70.4532 5.11245 70.942 6.2428 71.8891 6.2428C72.8361 6.2428 73.3249 5.24992 72.7597 4.44035C72.4542 3.99738 71.4919 3.96683 71.0948 4.4098Z" fill="#890004"/>
<path d="M7.81058 11.1766C6.97046 12.0626 7.90223 13.422 9.01731 12.9638C9.39918 12.7958 9.76578 12.2611 9.76578 11.8334C9.76578 11.7265 9.62831 11.4516 9.44501 11.2224C9.03258 10.7031 8.26883 10.6725 7.81058 11.1766Z" fill="#890004"/>
<path d="M64.2514 18.3253C63.5488 18.7378 63.6251 19.9292 64.3889 20.2805C64.9235 20.5249 65.1221 20.4944 65.5803 20.1278C66.6496 19.2877 65.4276 17.638 64.2514 18.3253Z" fill="#890004"/>
<path d="M2.73925 29.1553C2.281 29.6136 2.32682 30.4232 2.8309 30.8203C3.30442 31.1869 3.48772 31.2174 4.02235 30.9731C4.49587 30.7592 4.77082 30.0413 4.57225 29.5372C4.2973 28.8346 3.27387 28.6207 2.73925 29.1553Z" fill="#890004"/>
<path d="M69.9797 29.2012C69.5062 29.7053 69.5367 30.4232 70.0408 30.8203C70.2699 31.0036 70.5449 31.1411 70.6518 31.1411C71.0795 31.1411 71.6141 30.7745 71.7821 30.3926C72.2404 29.2623 70.8045 28.3152 69.9797 29.2012Z" fill="#890004"/>
<path d="M5.48861 45.469C4.95398 46.0189 4.90816 46.3855 5.35113 46.9354C5.76356 47.4548 6.52731 47.4853 6.98556 46.9812C7.61183 46.3244 7.27578 45.3163 6.37456 45.1024C6.03851 45.026 5.87048 45.1024 5.48861 45.469Z" fill="#890004"/>
<path d="M65.8248 45.1482C65.336 45.3315 65.061 45.7134 65.061 46.2175C65.061 47.1645 66.0539 47.6533 66.8635 47.0882C67.3676 46.7368 67.337 45.7745 66.8024 45.3621C66.39 45.0413 66.2219 44.9955 65.8248 45.1482Z" fill="#890004"/>
<path d="M23.7117 60.5454C23.116 60.9578 23.116 61.5841 23.7117 62.5617C24.5671 63.9823 25.4989 65.9375 26.0335 67.4191C26.9653 69.9701 27.6374 73.7888 27.6374 76.4619C27.6374 77.3021 27.6985 77.4854 28.0192 77.8061C28.4775 78.2644 28.9968 78.2949 29.5315 77.8672C29.8981 77.577 29.9286 77.4701 29.9286 76.4314C29.9286 72.1391 28.783 67.4344 26.7667 63.3865C25.3461 60.5454 24.6435 59.8886 23.7117 60.5454Z" fill="#890004"/>
</svg>
