<svg width="172" height="36" viewBox="0 0 172 36" fill="none" xmlns="http://www.w3.org/2000/svg">
<path fill-rule="evenodd" clip-rule="evenodd" d="M5.87841 1H165.782L165.559 1.46808C165.559 3.73681 167.668 5.57454 170.27 5.57454L170.551 5.47299V30.3698L170.494 30.3495C167.892 30.3495 165.783 32.1872 165.783 34.456L165.832 34.5584H5.79857L5.84791 34.456C5.84791 32.1872 3.73885 30.3495 1.13727 30.3495L1 30.3989V5.24429L1.28259 5.34584C3.88327 5.34584 5.99235 3.50717 5.99235 1.23932L5.87841 1Z" fill="white" stroke="#FF0000" stroke-width="2" stroke-miterlimit="8"/>
<path fill-rule="evenodd" clip-rule="evenodd" d="M1.44836 18.2209C1.44836 8.95433 9.07997 1.44165 18.4932 1.44165H153.955C163.369 1.44165 171 8.95433 171 18.2209C171 27.4883 163.368 35.0001 153.955 35.0001H18.4932C9.07997 35.0001 1.44836 27.4874 1.44836 18.2209Z" fill="white" stroke="#FF0000" stroke-width="1.33333" stroke-miterlimit="8"/>
<path d="M8.62524 4.97412H164.944" stroke="#FF0000" stroke-width="1.33333" stroke-miterlimit="8"/>
<path d="M8.62524 31.4675H164.944" stroke="#FF0000" stroke-width="1.33333" stroke-miterlimit="8"/>
</svg>
