<svg width="938" height="116" viewBox="0 0 938 116" fill="none" xmlns="http://www.w3.org/2000/svg">
<path fill-rule="evenodd" clip-rule="evenodd" d="M20.35 1H919.65L919.43 2.05499C919.43 10.449 926.2 17.255 934.56 17.255L935 17.165V99.517L934.56 99.427C926.2 99.427 919.43 106.232 919.43 114.627L919.51 115H19.5L19.58 114.627C19.58 108.331 15.77 102.929 10.34 100.621L5 99.538V17.165L5.43994 17.255C13.7999 17.255 20.5699 10.449 20.5699 2.05499L20.35 1Z" fill="white" stroke="#FF0000" stroke-width="2" stroke-miterlimit="8"/>
<path fill-rule="evenodd" clip-rule="evenodd" d="M33.7 2H906.31C914.14 2 920.86 6.74301 923.73 13.503L924 14.853L923.07 20.134C921.45 32.003 920.55 45.052 920.55 58.749C920.55 72.446 921.45 85.495 923.07 97.364L923.95 102.378L923.73 103.497C920.86 110.257 914.14 115 906.31 115H33.7C28.48 115 23.75 112.892 20.33 109.484L17.0699 104.665L18.35 97.364C19.98 85.495 20.87 72.446 20.87 58.749C20.87 45.052 19.98 32.003 18.35 20.134L17 12.437L20.33 7.51601C23.75 4.10801 28.48 2 33.7 2Z" fill="white" stroke="#FF0000" stroke-width="2" stroke-miterlimit="8"/>
<path d="M5 57.614L16.7095 12.0002" stroke="#FF0000" stroke-width="2" stroke-miterlimit="8"/>
<path d="M5 58L16.79 105.536" stroke="#FF0000" stroke-width="2" stroke-miterlimit="8"/>
<path d="M933.71 58.187L924 15" stroke="#FF0000" stroke-width="2" stroke-miterlimit="8"/>
<path d="M933.99 58L923.998 104.363" stroke="#FF0000" stroke-width="2" stroke-miterlimit="8"/>
<path fill-rule="evenodd" clip-rule="evenodd" d="M0 58.5C0 55.462 2.24 53 5 53C7.76 53 10 55.462 10 58.5C10 61.538 7.76 64 5 64C2.24 64 0 61.538 0 58.5Z" fill="#460000"/>
<path fill-rule="evenodd" clip-rule="evenodd" d="M928 57.5C928 54.462 930.24 52 933 52C935.76 52 938 54.462 938 57.5C938 60.538 935.76 63 933 63C930.24 63 928 60.538 928 57.5Z" fill="#460000"/>
</svg>
