<svg width="518" height="155" viewBox="0 0 518 155" fill="none" xmlns="http://www.w3.org/2000/svg">
<path fill-rule="evenodd" clip-rule="evenodd" d="M473.079 154H46.5956C28.7511 154 13.4408 145.503 6.9008 133.393L4 122.139L5.9571 114.182C8.0087 103.996 9.2065 91.717 9.2065 78.5C9.2065 65.283 8.0087 53.004 5.9571 42.818L4 34.861L6.9008 23.607C13.4408 11.497 28.7511 3 46.5956 3H473.079C490.923 3 506.234 11.497 512.774 23.607L514 28.365L512.19 33.373C508.747 44.922 506.618 60.877 506.618 78.5C506.618 96.123 508.747 112.078 512.19 123.627L514 128.635L512.774 133.393C506.234 145.503 490.923 154 473.079 154Z" fill="white" stroke="#FF0000" stroke-width="1.33333" stroke-miterlimit="8"/>
<path fill-rule="evenodd" clip-rule="evenodd" d="M504.859 153H13.8331L10.6287 147.133C8.9036 144.595 6.9391 142.231 4.7676 140.073L2 137.803V2H10.3529L14.2272 4.573C16.0001 5.311 17.9492 5.72 19.9953 5.72C22.0413 5.72 23.9906 5.311 25.7634 4.573L29.6378 2H487.538L491.413 4.573C493.186 5.311 495.135 5.72 497.181 5.72C499.227 5.72 501.176 5.311 502.949 4.573L506.823 2H516V138.37L513.924 140.073C511.753 142.231 509.788 144.595 508.063 147.133L504.859 153Z" stroke="#FF0000" stroke-width="3" stroke-miterlimit="8"/>
</svg>
