<svg width="518" height="156" viewBox="0 0 518 156" fill="none" xmlns="http://www.w3.org/2000/svg">
<path fill-rule="evenodd" clip-rule="evenodd" d="M44.0014 2H471.321C489.2 2 504.541 10.441 511.094 22.471L514 33.65L512.039 41.555C509.983 51.673 508.783 63.87 508.783 77C508.783 90.13 509.983 102.327 512.039 112.446L514 120.35L511.094 131.529C504.541 143.559 489.2 152 471.321 152H44.0014C26.1221 152 10.7816 143.559 4.2288 131.529L3 126.803L4.8131 121.828C8.2628 110.356 10.3964 94.507 10.3964 77C10.3964 59.494 8.2628 43.645 4.8131 32.172L3 27.197L4.2288 22.471C10.7816 10.441 26.1221 2 44.0014 2Z" fill="white" stroke="#FF0000" stroke-width="1.33333" stroke-miterlimit="8"/>
<path fill-rule="evenodd" clip-rule="evenodd" d="M13.1414 2H504.167L507.371 7.90601C509.096 10.461 511.061 12.841 513.232 15.013L516 17.298V154H507.647L503.773 151.41C502 150.667 500.051 150.256 498.005 150.256C495.959 150.256 494.009 150.667 492.237 151.41L488.362 154H30.4615L26.5872 151.41C24.8144 150.667 22.8651 150.256 20.8191 150.256C18.7731 150.256 16.8239 150.667 15.051 151.41L11.1767 154H2V16.727L4.076 15.013C6.2475 12.841 8.2118 10.461 9.937 7.90601L13.1414 2Z" stroke="#FF0000" stroke-width="3" stroke-miterlimit="8"/>
</svg>
