<svg width="518" height="133" viewBox="0 0 518 133" fill="none" xmlns="http://www.w3.org/2000/svg">
<path fill-rule="evenodd" clip-rule="evenodd" d="M44.0816 2H472.237C490.152 2 505.522 9.25901 512.088 19.605L515 29.219L513.035 36.017C510.976 44.719 509.773 55.209 509.773 66.5C509.773 77.792 510.976 88.282 513.035 96.983L515 103.781L512.088 113.395C505.522 123.741 490.152 131 472.237 131H44.0816C26.1673 131 10.7968 123.741 4.2312 113.395L3 109.33L4.8166 105.052C8.2731 95.186 10.4109 81.556 10.4109 66.5C10.4109 51.445 8.2731 37.815 4.8166 27.948L3 23.67L4.2312 19.605C10.7968 9.25901 26.1673 2 44.0816 2Z" fill="white" stroke="#FF0000" stroke-width="1.33333" stroke-miterlimit="8"/>
<path fill-rule="evenodd" clip-rule="evenodd" d="M2 2H13.2694L17.998 5.27802C19.9566 6.12902 22.11 6.60001 24.3704 6.60001C26.6308 6.60001 28.7842 6.12902 30.7429 5.27802L35.4714 2H485.922L490.65 5.27802C492.609 6.12902 494.762 6.60001 497.023 6.60001C499.283 6.60001 501.436 6.12902 503.395 5.27802L508.124 2H516V131H505.456L501.795 128.463C499.837 127.611 497.683 127.14 495.423 127.14C493.162 127.14 491.009 127.611 489.05 128.463L485.389 131H32.804L29.1431 128.463C27.1845 127.611 25.0311 127.14 22.7707 127.14C20.5103 127.14 18.3568 127.611 16.3983 128.463L12.7373 131H2V2Z" stroke="#FF0000" stroke-width="3" stroke-miterlimit="8"/>
</svg>
