<?xml version="1.0" encoding="UTF-8" standalone="no"?>
<!-- Created with Inkscape (http://www.inkscape.org/) -->

<svg
   width="210mm"
   height="296.99997mm"
   viewBox="0 0 210 296.99997"
   version="1.1"
   id="svg1"
   xmlns:inkscape="http://www.inkscape.org/namespaces/inkscape"
   xmlns:sodipodi="http://sodipodi.sourceforge.net/DTD/sodipodi-0.dtd"
   xmlns="http://www.w3.org/2000/svg"
   xmlns:svg="http://www.w3.org/2000/svg">
  <sodipodi:namedview
     id="namedview1"
     pagecolor="#505050"
     bordercolor="#eeeeee"
     borderopacity="1"
     inkscape:showpageshadow="0"
     inkscape:pageopacity="0"
     inkscape:pagecheckerboard="0"
     inkscape:deskcolor="#505050"
     inkscape:document-units="mm" />
  <defs
     id="defs1" />
  <g
     inkscape:label="Camada 1"
     inkscape:groupmode="layer"
     id="layer1">
    <g
       transform="matrix(0.26458333,0,0,0.26458333,1.619056,-12.850354)"
       id="g4">
      <path
         d="m 9.50005,106.968 c 0,-17.3792 14.08875,-31.4679 31.46805,-31.4679 H 968.032 c 17.379,0 31.468,14.0887 31.468,31.4679 v 428.064 c 0,17.379 -14.089,31.468 -31.468,31.468 H 40.9681 C 23.5888,566.5 9.50005,552.411 9.50005,535.032 Z"
         stroke="#ff0000"
         stroke-width="1.33333"
         stroke-miterlimit="8"
         fill="#ffffff"
         fill-rule="evenodd"
         id="path1" />
      <path
         d="M 18.1448,75 H 990.151 L 999,83.8448 V 559.783 L 992.78,566 H 15.5842 L 9,559.419 V 84.1407 Z"
         stroke="#ff0000"
         stroke-width="4"
         stroke-miterlimit="8"
         fill="none"
         fill-rule="evenodd"
         id="path2" />
      <path
         d="M 0,0 1.04987e-4,466.8"
         stroke="#ff0000"
         stroke-width="2"
         stroke-miterlimit="8"
         fill="none"
         fill-rule="evenodd"
         transform="matrix(1,0,0,-1,15,553.8)"
         id="path3" />
      <path
         d="M 0,0 1.04987e-4,466.8"
         stroke="#ff0000"
         stroke-width="2"
         stroke-miterlimit="8"
         fill="none"
         fill-rule="evenodd"
         transform="matrix(1,0,0,-1,993,553.8)"
         id="path4" />
    </g>
  </g>
</svg>
