<?xml version="1.0" encoding="UTF-8" standalone="no"?>
<!-- Created with Inkscape (http://www.inkscape.org/) -->

<svg
   width="300mm"
   height="170.00002mm"
   viewBox="0 0 300 170.00002"
   version="1.1"
   id="svg1"
   inkscape:export-filename="history.svg"
   inkscape:export-xdpi="96"
   inkscape:export-ydpi="96"
   xmlns:inkscape="http://www.inkscape.org/namespaces/inkscape"
   xmlns:sodipodi="http://sodipodi.sourceforge.net/DTD/sodipodi-0.dtd"
   xmlns="http://www.w3.org/2000/svg"
   xmlns:svg="http://www.w3.org/2000/svg">
  <sodipodi:namedview
     id="namedview1"
     pagecolor="#505050"
     bordercolor="#eeeeee"
     borderopacity="1"
     inkscape:showpageshadow="0"
     inkscape:pageopacity="0"
     inkscape:pagecheckerboard="0"
     inkscape:deskcolor="#505050"
     inkscape:document-units="mm" />
  <defs
     id="defs1" />
  <g
     inkscape:label="Camada 1"
     inkscape:groupmode="layer"
     id="layer1">
    <g
       transform="matrix(0.26458333,0,0,0.26458333,-120.20279,-138.60026)"
       id="g4">
      <path
         d="M 539,631.242 C 539,612.883 553.883,598 572.242,598 H 955.758 C 974.117,598 989,612.883 989,631.242 v 416.518 c 0,18.36 -14.883,33.24 -33.242,33.24 H 572.242 C 553.883,1081 539,1066.12 539,1047.76 Z"
         stroke="#ff0000"
         stroke-width="2"
         stroke-miterlimit="8"
         fill="#ffffff"
         fill-rule="evenodd"
         id="path1" />
      <path
         d="M 8.72405,484 H 441.276 L 450,475.277 V 8.72282 L 441.277,0 H 8.72279 L 0,8.72219 V 475.277 Z"
         stroke="#ff0000"
         stroke-width="3"
         stroke-miterlimit="8"
         fill="none"
         fill-rule="evenodd"
         transform="matrix(1,0,0,-1,539.5,1082.5)"
         id="path2" />
      <path
         d="M 0,0 1.04987e-4,463.2"
         stroke="#ff0000"
         stroke-width="2"
         stroke-miterlimit="8"
         fill="none"
         fill-rule="evenodd"
         transform="matrix(1,0,0,-1,548,1071.2)"
         id="path3" />
      <path
         d="M 0,0 1.04987e-4,463.2"
         stroke="#ff0000"
         stroke-width="2"
         stroke-miterlimit="8"
         fill="none"
         fill-rule="evenodd"
         transform="matrix(1,0,0,-1,980,1071.2)"
         id="path4" />
    </g>
  </g>
</svg>
