<svg width="156" height="1064" viewBox="0 0 156 1064" fill="none" xmlns="http://www.w3.org/2000/svg">
<path fill-rule="evenodd" clip-rule="evenodd" d="M26.3372 25.6653H43.84L47.3266 28.8294C55.1141 34.6583 65.8724 38.2626 77.7546 38.2626C89.6373 38.2626 100.395 34.6583 108.182 28.8294L111.669 25.6653H129.172C139.24 25.6653 147.878 31.2891 151.567 39.304L152.303 41.4814L151.416 43.9959C150.738 46.3279 150.285 48.4613 150.247 49.9344C150.17 52.8794 151.655 57.5939 153.32 61.1627L153.477 61.4644V156.652H2.03198V63.0159L2.99873 61.1627C4.66349 57.5939 6.14832 52.8794 6.07203 49.9344C6.03331 48.4613 5.58013 46.3279 4.90261 43.9959L3.60223 40.309L3.94155 39.304C7.63203 31.2891 16.2701 25.6653 26.3372 25.6653Z" fill="#FF0000"/>
<path fill-rule="evenodd" clip-rule="evenodd" d="M78.2563 4.19189C83.7619 4.19189 88.7464 5.01752 92.3543 6.35101L97.7071 11.1288H118.018C132.884 11.1288 145.638 19.5957 151.085 31.6626L152.338 37.4754L149.372 32.3551C142.922 23.4126 132 17.5332 119.613 17.5332H91.0163V20.9475H110.325L108.654 22.456C100.875 28.2505 90.1275 31.8344 78.2561 31.8344C66.3848 31.8344 55.6379 28.2505 47.8584 22.456L46.1868 20.9475H65.4955V17.5332H36.6719C24.2841 17.5332 13.3619 23.4126 6.91236 32.3551L4.30933 36.8484L5.42752 31.6626C10.875 19.5957 23.6294 11.1288 38.4949 11.1288H58.8057L64.1586 6.35101C67.766 5.01752 72.7512 4.19189 78.2563 4.19189Z" fill="#FF0000"/>
<path d="M61.1473 2.17603C56.7193 4.41321 52.2914 6.65147 45.8375 7.63271C39.3836 8.61506 26.9634 7.37888 22.4239 8.07004C17.8834 8.76118 20.0973 11.2346 18.5962 11.7807C17.0951 12.3258 16.1198 9.7798 13.4183 11.3445C10.7166 12.9081 4.15013 11.8895 2.3866 21.1667C0.623056 30.444 1.73005 48.725 2.83704 67.0059" stroke="#FF0000" stroke-width="1.00605" stroke-miterlimit="8"/>
<path d="M94.0574 2.54614C98.5272 4.76592 102.997 6.98581 109.512 7.96029C116.028 8.9348 128.566 7.70769 133.15 8.39343C137.733 9.07927 135.498 11.5336 137.014 12.0751C138.528 12.6165 139.513 10.0898 142.24 11.6419C144.968 13.194 151.597 12.1834 153.378 21.3874C155.157 30.5913 154.04 48.7288 152.923 66.8662" stroke="#FF0000" stroke-width="1.00685" stroke-miterlimit="8"/>
<path fill-rule="evenodd" clip-rule="evenodd" d="M77.7545 0.970947C91.9042 0.970947 103.375 7.93901 103.375 16.5337L103.195 17.0759L101.361 11.5605C97.4722 5.97422 88.3669 2.05533 77.7545 2.05533C67.1419 2.05533 58.037 5.97422 54.1472 11.5605L52.3139 17.0759L52.134 16.5337C52.134 7.93901 63.6052 0.970947 77.7545 0.970947Z" fill="#FF0000"/>
<path fill-rule="evenodd" clip-rule="evenodd" d="M129.172 1039.2H111.669L108.182 1036.04C100.395 1030.21 89.6372 1026.61 77.7546 1026.61C65.8713 1026.61 55.1141 1030.21 47.3266 1036.04L43.84 1039.2H26.3372C16.2701 1039.2 7.63203 1033.58 3.94155 1025.57L3.20596 1023.39L4.093 1020.88C4.77052 1018.55 5.22371 1016.41 5.26242 1014.94C5.33872 1011.99 3.85388 1007.27 2.18912 1003.71L2.03198 1003.41V908.216H153.477V1001.85L152.511 1003.71C150.845 1007.27 149.36 1011.99 149.438 1014.94C149.477 1016.41 149.93 1018.55 150.606 1020.88L151.906 1024.56L151.567 1025.57C147.878 1033.58 139.24 1039.2 129.172 1039.2Z" fill="#FF0000"/>
<path fill-rule="evenodd" clip-rule="evenodd" d="M78.3915 1060.68C72.8855 1060.68 67.9015 1059.85 64.293 1058.52L58.9412 1053.74H38.6304C23.7649 1053.74 11.0105 1045.27 5.56187 1033.2L4.30933 1027.39L7.2756 1032.51C13.7251 1041.46 24.6474 1047.33 37.0351 1047.33H65.631V1043.92H46.3223L47.9939 1042.41C55.7734 1036.62 66.5203 1033.03 78.3916 1033.03C90.2629 1033.03 101.01 1036.62 108.79 1042.41L110.461 1043.92H91.1518V1047.33H119.977C132.364 1047.33 143.285 1041.46 149.735 1032.51L152.338 1028.02L151.221 1033.2C145.772 1045.27 133.018 1053.74 118.154 1053.74H97.8425L92.4897 1058.52C88.8816 1059.85 83.8972 1060.68 78.3915 1060.68Z" fill="#FF0000"/>
<path d="M93.8176 1062.39C98.3034 1060.19 102.789 1058.01 109.327 1057.04C115.866 1056.08 128.448 1057.3 133.049 1056.62C137.648 1055.94 135.406 1053.52 136.926 1052.98C138.446 1052.44 139.434 1054.94 142.172 1053.41C144.909 1051.87 151.561 1052.87 153.348 1043.79C155.135 1034.7 154.013 1016.8 152.891 998.892" stroke="#FF0000" stroke-width="1.00215" stroke-miterlimit="8"/>
<path d="M62.803 1062.69C58.2536 1060.48 53.7044 1058.27 47.0731 1057.3C40.442 1056.33 27.6809 1057.55 23.0161 1056.87C18.351 1056.19 20.6257 1053.74 19.0835 1053.2C17.5414 1052.67 16.539 1055.18 13.7633 1053.64C10.9874 1052.09 4.24055 1053.1 2.4286 1043.93C0.616656 1034.77 1.75395 1016.71 2.89124 998.65" stroke="#FF0000" stroke-width="1.01355" stroke-miterlimit="8"/>
<path fill-rule="evenodd" clip-rule="evenodd" d="M77.7545 1063.9C63.6052 1063.9 52.134 1056.93 52.134 1048.33L52.3139 1047.79L54.1472 1053.31C58.037 1058.89 67.1419 1062.81 77.7545 1062.81C88.3668 1062.81 97.4722 1058.89 101.361 1053.31L103.195 1047.79L103.375 1048.33C103.375 1056.93 91.9042 1063.9 77.7545 1063.9Z" fill="#FF0000"/>
<path d="M153.477 153.431H2.03198V935.057H153.477V153.431Z" fill="#FF0000"/>
</svg>
