<?xml version="1.0" encoding="UTF-8" standalone="no"?>
<!-- Created with Inkscape (http://www.inkscape.org/) -->

<svg
   width="80mm"
   height="115mm"
   viewBox="0 0 80 115"
   version="1.1"
   id="svg1"
   inkscape:export-filename="CAIXA EQUIPAMENTO.svg"
   inkscape:export-xdpi="96"
   inkscape:export-ydpi="96"
   xmlns:inkscape="http://www.inkscape.org/namespaces/inkscape"
   xmlns:sodipodi="http://sodipodi.sourceforge.net/DTD/sodipodi-0.dtd"
   xmlns="http://www.w3.org/2000/svg"
   xmlns:svg="http://www.w3.org/2000/svg">
  <sodipodi:namedview
     id="namedview1"
     pagecolor="#505050"
     bordercolor="#eeeeee"
     borderopacity="1"
     inkscape:showpageshadow="0"
     inkscape:pageopacity="0"
     inkscape:pagecheckerboard="0"
     inkscape:deskcolor="#505050"
     inkscape:document-units="mm" />
  <defs
     id="defs1" />
  <g
     inkscape:label="Camada 1"
     inkscape:groupmode="layer"
     id="layer1">
    <g
       transform="matrix(0.26458333,0,0,0.26458333,-123.66503,-195.93919)"
       id="g6">
      <path
         d="m 491.534,757 h 241.611 l 0.435,3.05 c 0.84,2.813 2.807,4.786 5.099,4.786 L 739,764.744 v 394.516 l -0.321,-0.1 c -3.056,0 -5.534,3.51 -5.534,7.84 H 491.534 c 0,-4.33 -2.478,-7.84 -5.534,-7.84 V 764.836 l 2.154,-0.616 c 1.324,-0.793 2.385,-2.295 2.945,-4.17 z"
         stroke="#ff0000"
         stroke-width="4"
         stroke-miterlimit="8"
         fill="none"
         fill-rule="evenodd"
         id="path1-6" />
      <path
         d="m 508.99,757 h 207.047 c 12.994,0 23.527,14.937 23.527,33.362 v 294.868 h -0.131 v 24.19 h 0.237 l -0.204,3.61 c 0,6.43 1.824,12.1 4.598,15.45 l 0.936,0.9 -0.387,2.87 c -2.014,11.1 -6.858,20.59 -13.376,26.84 l -0.447,0.34 -1.599,1.87 c -3.755,3.6 -8.282,5.7 -13.154,5.7 h -3.067 -10e-4 -200.911 -3.068 c -4.872,0 -9.399,-2.1 -13.154,-5.7 l -1.599,-1.87 -0.447,-0.34 c -6.952,-6.66 -12,-17.02 -13.741,-29.08 l -0.049,-0.7 0.865,-0.83 c 2.774,-3.35 4.598,-9.02 4.598,-15.45 l -0.204,-3.61 h 0.126 v -15.37 l 0.078,-0.14 V 790.362 C 485.463,771.937 495.997,757 508.99,757 Z"
         stroke="#ff0000"
         stroke-width="2"
         stroke-miterlimit="8"
         fill="none"
         fill-rule="evenodd"
         id="path2-1" />
      <path
         d="m 493,766 v 367.4"
         stroke="#ff0000"
         stroke-width="2"
         stroke-miterlimit="8"
         fill="none"
         fill-rule="evenodd"
         id="path3-3" />
      <path
         d="m 731,765 v 367.36"
         stroke="#ff0000"
         stroke-width="2"
         stroke-miterlimit="8"
         fill="none"
         fill-rule="evenodd"
         id="path4-7" />
      <path
         d="m 493,1133 c -0.264,10.67 -0.527,21.33 -3,22"
         stroke="#ff0000"
         stroke-width="2"
         stroke-miterlimit="8"
         fill="none"
         fill-rule="evenodd"
         id="path5" />
      <path
         d="M 3,0 C 2.7363,10.6657 2.47259,21.3314 0,22"
         stroke="#ff0000"
         stroke-width="2"
         stroke-miterlimit="8"
         fill="none"
         fill-rule="evenodd"
         transform="matrix(-1,0,0,1,734,1132)"
         id="path6" />
    </g>
  </g>
</svg>
