<svg width="544" height="594" viewBox="0 0 544 594" fill="none" xmlns="http://www.w3.org/2000/svg">
<path fill-rule="evenodd" clip-rule="evenodd" d="M24.33 2H519.013L519.903 6.389C521.623 10.437 525.65 13.276 530.343 13.276L531 13.144V580.856L530.343 580.724C524.086 580.724 519.013 585.772 519.013 592H24.33C24.33 585.772 19.2574 580.724 13 580.724V13.276L17.4102 12.39C20.1212 11.249 22.293 9.088 23.4397 6.389L24.33 2Z" stroke="#FF0000" stroke-width="4" stroke-miterlimit="8"/>
<path fill-rule="evenodd" clip-rule="evenodd" d="M61.075 2H482.981C509.458 2 530.923 23.494 530.923 50.009V474.326H530.655V509.134H531.139L530.723 514.335C530.723 523.588 534.44 531.746 540.094 536.563L542 537.868L541.212 541.992C537.107 557.969 527.237 571.628 513.955 580.614L513.044 581.109L509.786 583.801C502.134 588.977 492.91 592 482.981 592H476.731H476.73H67.325H61.075C51.146 592 41.9216 588.977 34.27 583.801L31.0115 581.109L30.1011 580.614C15.9332 571.029 5.6477 556.126 2.1003 538.766L2 537.77L3.7626 536.563C9.4159 531.746 13.1328 523.588 13.1328 514.335L12.7171 509.134H12.9729V487.017L13.1327 486.823V50.009C13.1327 23.494 34.5972 2 61.075 2Z" stroke="#FF0000" stroke-width="2" stroke-miterlimit="8"/>
<path d="M19 27L19.0001 532.6" stroke="#FF0000" stroke-width="2" stroke-miterlimit="8"/>
<path d="M525 27V532.6" stroke="#FF0000" stroke-width="2" stroke-miterlimit="8"/>
<path d="M19 532C18.4726 547.029 17.9452 562.058 13 563" stroke="#FF0000" stroke-width="2" stroke-miterlimit="8"/>
<path d="M525 532C525.527 547.029 526.055 562.058 531 563" stroke="#FF0000" stroke-width="2" stroke-miterlimit="8"/>
</svg>
