<svg width="269" height="414" viewBox="0 0 269 414" fill="none" xmlns="http://www.w3.org/2000/svg">
<path fill-rule="evenodd" clip-rule="evenodd" d="M13.534 2H255.145L255.58 5.04999C256.42 7.86299 258.387 9.836 260.679 9.836L261 9.74402V404.26L260.679 404.16C257.623 404.16 255.145 407.67 255.145 412H13.534C13.534 407.67 11.056 404.16 8 404.16V9.836L10.154 9.21997C11.478 8.42697 12.539 6.92499 13.099 5.04999L13.534 2Z" stroke="#FF0000" stroke-width="4" stroke-miterlimit="8"/>
<path fill-rule="evenodd" clip-rule="evenodd" d="M30.99 2H238.037C251.031 2 261.564 16.937 261.564 35.362V330.23H261.433V354.42H261.67L261.466 358.03C261.466 364.46 263.29 370.13 266.064 373.48L267 374.38L266.613 377.25C264.599 388.35 259.755 397.84 253.237 404.09L252.79 404.43L251.191 406.3C247.436 409.9 242.909 412 238.037 412H234.97H34.058H30.99C26.118 412 21.591 409.9 17.836 406.3L16.237 404.43L15.79 404.09C8.83801 397.43 3.79001 387.07 2.04901 375.01L2 374.31L2.86499 373.48C5.63899 370.13 7.46301 364.46 7.46301 358.03L7.259 354.42H7.38501V339.05L7.46301 338.91V35.362C7.46301 16.937 17.997 2 30.99 2Z" stroke="#FF0000" stroke-width="2" stroke-miterlimit="8"/>
<path d="M15 11V378.4" stroke="#FF0000" stroke-width="2" stroke-miterlimit="8"/>
<path d="M253 10V377.36" stroke="#FF0000" stroke-width="2" stroke-miterlimit="8"/>
<path d="M15 378C14.736 388.67 14.473 399.33 12 400" stroke="#FF0000" stroke-width="2" stroke-miterlimit="8"/>
<path d="M253 377C253.264 387.666 253.527 398.331 256 399" stroke="#FF0000" stroke-width="2" stroke-miterlimit="8"/>
</svg>
