<?xml version="1.0" encoding="UTF-8" standalone="no"?>
<!-- Created with Inkscape (http://www.inkscape.org/) -->

<svg
   width="40mm"
   height="265mm"
   viewBox="0 0 40 265"
   version="1.1"
   id="svg1"
   xml:space="preserve"
   inkscape:export-filename="ATRIBUTO.svg"
   inkscape:export-xdpi="96"
   inkscape:export-ydpi="96"
   xmlns:inkscape="http://www.inkscape.org/namespaces/inkscape"
   xmlns:sodipodi="http://sodipodi.sourceforge.net/DTD/sodipodi-0.dtd"
   xmlns="http://www.w3.org/2000/svg"
   xmlns:svg="http://www.w3.org/2000/svg"><sodipodi:namedview
     id="namedview1"
     pagecolor="#505050"
     bordercolor="#eeeeee"
     borderopacity="1"
     inkscape:showpageshadow="0"
     inkscape:pageopacity="0"
     inkscape:pagecheckerboard="0"
     inkscape:deskcolor="#505050"
     inkscape:document-units="mm" /><defs
     id="defs1" /><g
     inkscape:label="Camada 1"
     inkscape:groupmode="layer"
     id="layer1"><g
       transform="matrix(0.26458333,0,0,0.26458333,55.879739,-87.944622)"
       id="g10"><g
         id="g1"
         transform="translate(-2.4042632,-6.5010797)"><g
           id="g2"><path
             d="m -178.66523,366.79455 h 15.371 l 3.062,2.947 c 6.839,5.429 16.287,8.786 26.722,8.786 10.4355,0 19.883,-3.357 26.7216,-8.786 l 3.0625,-2.947 h 15.370706 c 8.8416,0 16.4275,5.238 19.6678,12.703 l 0.646,2.028 -0.7789,2.342 c -0.5947,2.172 -0.9928,4.159 -1.0264,5.531 -0.0674,2.743 1.2363,7.134 2.6986,10.458 l 0.1381,0.281 v 88.657 H -200.01023 v -87.212 l 0.849,-1.726 c 1.462,-3.324 2.766,-7.715 2.699,-10.458 -0.034,-1.372 -0.432,-3.359 -1.027,-5.531 l -1.142,-3.434 0.298,-0.936 c 3.241,-7.465 10.827,-12.703 19.668,-12.703 z"
             fill="#d1d1d1"
             fill-rule="evenodd"
             id="path1"
             style="fill:#ff0000;fill-opacity:1" /><path
             d="m -133.06963,346.79455 c 4.8351,0 9.2125,0.769 12.381,2.011 l 4.7008,4.45 h 17.837106 c 13.0548,0 24.2556,7.886 29.0403,19.125 l 1.1002,5.414 -2.6055,-4.769 c -5.6638,-8.329 -15.2555,-13.805 -26.1344,-13.805 h -25.113606 v 3.18 h 16.9573 l -1.4674,1.405 c -6.8321,5.397 -16.2704,8.735 -26.6959,8.735 -10.4255,0 -19.8635,-3.338 -26.6955,-8.735 l -1.468,-1.405 h 16.957 v -3.18 h -25.313 c -10.879,0 -20.471,5.476 -26.135,13.805 l -2.286,4.185 0.982,-4.83 c 4.784,-11.239 15.985,-19.125 29.04,-19.125 h 17.837 l 4.701,-4.45 c 3.168,-1.242 7.546,-2.011 12.3806,-2.011 z"
             fill="#d1d1d1"
             fill-rule="evenodd"
             id="path2"
             style="fill:#ff0000;fill-opacity:1" /><path
             d="m -148.09473,344.91698 c -3.88867,2.08369 -7.77733,4.16839 -13.44518,5.08231 -5.66785,0.91495 -16.57531,-0.23641 -20.56188,0.40733 -3.98757,0.64372 -2.04323,2.94745 -3.36154,3.45609 -1.31831,0.50762 -2.17477,-1.86364 -4.54733,-0.4063 -2.37256,1.45634 -8.1393,0.50762 -9.68804,9.14838 -1.54875,8.64076 -0.57658,25.66744 0.39559,42.69412"
             stroke="#d1d1d1"
             stroke-miterlimit="8"
             fill="none"
             fill-rule="evenodd"
             id="path3"
             style="stroke:#ff0000;stroke-width:1.00605;stroke-opacity:1" /><path
             d="m -119.19306,345.26176 c 3.92548,2.06748 7.85085,4.13506 13.57275,5.04268 5.721804,0.90765 16.733079,-0.23526 20.758202,0.40343 4.025322,0.63879 2.062581,2.9247 3.393239,3.42902 1.330659,0.50433 2.195568,-1.84903 4.590715,-0.40341 2.395225,1.44563 8.216907,0.50433 9.780383,9.07681 1.563472,8.5725 0.582136,25.46561 -0.3992,42.3586"
             stroke="#d1d1d1"
             stroke-miterlimit="8"
             fill="none"
             fill-rule="evenodd"
             id="path4"
             style="stroke:#ff0000;stroke-width:1.00685;stroke-opacity:1" /><path
             d="m -133.51023,343.79455 c 12.4264,0 22.5,6.49 22.5,14.495 l -0.1582,0.505 -1.61,-5.137 c -3.4156,-5.203 -11.4119,-8.853 -20.7318,-8.853 -9.32,0 -17.316,3.65 -20.732,8.853 l -1.61,5.137 -0.158,-0.505 c 0,-8.005 10.074,-14.495 22.5,-14.495 z"
             fill="#d1d1d1"
             fill-rule="evenodd"
             id="path5"
             style="fill:#ff0000;fill-opacity:1" /><path
             d="m -88.355424,1310.7945 h -15.370706 l -3.0625,-2.95 c -6.8386,-5.43 -16.2862,-8.78 -26.7216,-8.78 -10.436,0 -19.883,3.35 -26.722,8.78 l -3.062,2.95 h -15.371 c -8.841,0 -16.427,-5.24 -19.668,-12.7 l -0.646,-2.03 0.779,-2.34 c 0.595,-2.17 0.993,-4.16 1.027,-5.53 0.067,-2.75 -1.237,-7.14 -2.699,-10.46 l -0.138,-0.28 v -88.66 h 133.000006 v 87.21 l -0.8488,1.73 c -1.4624,3.32 -2.7662,7.71 -2.6988,10.46 0.0338,1.37 0.4318,3.36 1.0265,5.53 l 1.1419,3.43 -0.2982,0.94 c -3.2403,7.46 -10.8263,12.7 -19.6678,12.7 z"
             fill="#d1d1d1"
             fill-rule="evenodd"
             id="path6"
             style="fill:#ff0000;fill-opacity:1" /><path
             d="m -132.95083,1330.7945 c -4.8354,0 -9.2124,-0.77 -12.3814,-2.01 l -4.7,-4.45 h -17.837 c -13.055,0 -24.256,-7.89 -29.041,-19.13 l -1.1,-5.41 2.605,4.77 c 5.664,8.33 15.256,13.8 26.135,13.8 h 25.113 v -3.18 h -16.957 l 1.468,-1.4 c 6.832,-5.4 16.27,-8.74 26.6955,-8.74 10.4254,0 19.8638,3.34 26.6959,8.74 l 1.4674,1.4 h -16.9573 v 3.18 h 25.313606 c 10.879,0 20.4706,-5.47 26.1344,-13.8 l 2.2865,-4.19 -0.9816,4.83 c -4.7846,11.24 -15.9855,19.13 -29.0402,19.13 h -17.836906 l -4.7008,4.45 c -3.1687,1.24 -7.546,2.01 -12.3811,2.01 z"
             fill="#d1d1d1"
             fill-rule="evenodd"
             id="path7"
             style="fill:#ff0000;fill-opacity:1" /><path
             d="m -119.40364,1332.3893 c 3.93938,-2.0449 7.87876,-4.0797 13.62081,-4.9818 5.74206,-0.8921 16.79232,0.2406 20.831794,-0.391 4.039573,-0.6314 2.069782,-2.8868 3.405152,-3.388 1.33537,-0.5011 2.20334,1.8243 4.607065,0.401 2.403626,-1.4333 8.245968,-0.5012 9.814987,-8.9612 1.56902,-8.47 0.584124,-25.1395 -0.40067,-41.8189"
             stroke="#d1d1d1"
             stroke-miterlimit="8"
             fill="none"
             fill-rule="evenodd"
             id="path8"
             style="fill:#ff0000;fill-opacity:0;stroke:#ff0000;stroke-width:1.00215;stroke-opacity:1" /><path
             d="m -146.64087,1332.6719 c -3.99525,-2.0585 -7.99039,-4.117 -13.81396,-5.0207 -5.82347,-0.9037 -17.03042,0.2342 -21.12707,-0.4017 -4.09685,-0.636 -2.09923,-2.912 -3.45354,-3.4142 -1.35431,-0.5021 -2.23459,1.841 -4.67229,0.4017 -2.43779,-1.4394 -8.36292,-0.5021 -9.95418,-9.0375 -1.59126,-8.5352 -0.59248,-25.3551 0.40629,-42.1748"
             stroke="#d1d1d1"
             stroke-miterlimit="8"
             fill="none"
             fill-rule="evenodd"
             id="path9"
             style="fill:#ff0000;fill-opacity:0;stroke:#ff0000;stroke-width:1.01355;stroke-opacity:1" /><path
             d="m -133.51023,1333.7945 c -12.426,0 -22.5,-6.49 -22.5,-14.5 l 0.158,-0.5 1.61,5.14 c 3.416,5.2 11.412,8.85 20.732,8.85 9.3198,0 17.3162,-3.65 20.7318,-8.85 l 1.61,-5.14 0.1582,0.5 c 0,8.01 -10.0736,14.5 -22.5,14.5 z"
             fill="#d1d1d1"
             fill-rule="evenodd"
             id="path10"
             style="fill:#ff0000;fill-opacity:1" /><rect
             x="-200.01022"
             y="485.79456"
             width="133"
             height="728"
             fill="#d1d1d1"
             id="rect10"
             style="fill:#ff0000;fill-opacity:1" /></g></g></g></g></svg>
