<svg width="398" height="191" viewBox="0 0 398 191" fill="none" xmlns="http://www.w3.org/2000/svg">
<mask id="mask0_143_4055" style="mask-type:luminance" maskUnits="userSpaceOnUse" x="0" y="0" width="398" height="191">
<path d="M398 0H0V191H398V0Z" fill="white"/>
</mask>
<g mask="url(#mask0_143_4055)">
<path fill-rule="evenodd" clip-rule="evenodd" d="M234.165 3.85392V5.85602H371.595C378.886 5.85602 385.488 8.81724 390.266 13.605L395.268 21.0383L396.192 25.3845C396.192 28.4585 395.536 31.3871 394.35 34.0507L393.74 34.9104L396.157 40.2223L396.402 40.497V22.3789L395.925 20.0124C391.916 10.5167 382.532 3.85392 371.595 3.85392H234.165ZM26.405 3.85392C15.468 3.85392 6.08298 10.5167 2.07495 20.0124L1.59793 22.3775V40.7075L2.02994 40.2223L4.44794 34.9104L3.83795 34.0507C2.65097 31.3871 1.99493 28.4585 1.99493 25.3845L3.00494 20.6318L7.73395 13.605C12.512 8.81724 19.114 5.85602 26.405 5.85602H163.835V3.85392H26.405ZM380.15 1.54308L381.873 2.07913C388.191 4.75661 393.253 9.82796 395.925 16.1584L396.402 18.5239V11.4948L386.469 1.54308H380.15ZM11.5309 1.54308L1.59793 11.4948V18.5245L2.07495 16.1584C4.74698 9.82796 9.80896 4.75661 16.127 2.07913L17.85 1.54308H11.5309ZM9.93195 0H26.405H117.242H280.758H371.595H388.068L398 9.95175V26.4564V42.2937V134.644V136.496V152.544C398 167.155 386.178 179 371.595 179H26.405C11.822 179 -6.10352e-05 167.155 -6.10352e-05 152.544V134.644V9.95175L9.93195 0Z" fill="#FF0000"/>
<path fill-rule="evenodd" clip-rule="evenodd" d="M1.59839 172.491V179.515L11.5308 189.458H17.8503L16.127 188.923C9.80883 186.247 4.74735 181.18 2.07508 174.855L1.59839 172.491ZM396.402 172.491L395.925 174.855C393.253 181.18 388.191 186.247 381.873 188.923L380.15 189.458H386.469L396.402 179.515V172.491ZM1.59839 150.536V168.639L2.07529 171.004C6.08375 180.492 15.4679 187.149 26.4052 187.149H163.835V185.149H26.4049C19.1135 185.149 12.5122 182.19 7.73385 177.406L2.73185 169.979L1.80795 165.636C1.80795 162.565 2.46398 159.639 3.65029 156.977L4.26049 156.118L1.84277 150.811L1.59839 150.536ZM396.402 150.326L395.97 150.811L393.552 156.118L394.162 156.977C395.349 159.639 396.005 162.565 396.005 165.636L394.995 170.385L390.266 177.406C385.488 182.19 378.886 185.149 371.595 185.149H234.165V187.149H371.595C382.532 187.149 391.917 180.492 395.925 171.004L396.402 168.641V150.326ZM0 128H398V181.056L388.068 191H371.595H280.758H117.242H26.4049H9.93238L0 181.056V164.565V148.741V128Z" fill="#FF0000"/>
</g>
</svg>
