<?xml version="1.0" encoding="UTF-8" standalone="no"?>
<!-- Created with Inkscape (http://www.inkscape.org/) -->

<svg
   width="80mm"
   height="30mm"
   viewBox="0 0 80 30"
   version="1.1"
   id="svg1"
   inkscape:export-filename="descrição.svg"
   inkscape:export-xdpi="96"
   inkscape:export-ydpi="96"
   xmlns:inkscape="http://www.inkscape.org/namespaces/inkscape"
   xmlns:sodipodi="http://sodipodi.sourceforge.net/DTD/sodipodi-0.dtd"
   xmlns="http://www.w3.org/2000/svg"
   xmlns:svg="http://www.w3.org/2000/svg">
  <sodipodi:namedview
     id="namedview1"
     pagecolor="#505050"
     bordercolor="#eeeeee"
     borderopacity="1"
     inkscape:showpageshadow="0"
     inkscape:pageopacity="0"
     inkscape:pagecheckerboard="0"
     inkscape:deskcolor="#505050"
     inkscape:document-units="mm" />
  <defs
     id="defs1" />
  <g
     inkscape:label="Camada 1"
     inkscape:groupmode="layer"
     id="layer1">
    <g
       transform="matrix(0.26458333,0,0,0.26458333,-18.489954,101.47104)"
       id="g18">
      <path
         d="m 294.997,-351 0.374,1.842 c 0.395,1.501 0.886,3.022 1.476,4.544 2.654,6.85 6.739,12.272 10.993,15.219 l 0.844,0.499 0.746,0.498 c 1.107,1.064 2.141,2.717 2.842,4.707 0.35,0.995 0.583,1.98 0.706,2.909 l 0.022,1.479 -1.506,4.122 c -1.432,3.014 -3.273,5.363 -5.365,6.761 l -0.854,0.42 -0.392,-2.358 c -0.295,-1.245 -0.684,-2.5 -1.168,-3.751 -2.18,-5.626 -5.841,-9.954 -9.816,-12.179 l -0.398,-0.148 -1.287,-0.945 c -1.06,-1.113 -2.022,-2.812 -2.635,-4.832 -0.307,-1.01 -0.497,-2.005 -0.579,-2.939 l 0.036,-1.282 0.015,-0.207 c 0.802,-5.687 2.731,-10.549 5.327,-13.747 z"
         fill="#ff0000"
         fill-rule="evenodd"
         id="path1-37" />
      <path
         d="m 295.229,-351 0.342,1.618 -0.834,1.711 c -0.942,2.326 -1.652,4.963 -2.068,7.806 l -0.015,0.208 -0.038,1.281 c 0.085,0.934 0.283,1.929 0.601,2.939 0.637,2.02 1.637,3.719 2.738,4.832 l 1.337,0.946 0.414,0.147 c 4.128,2.225 7.931,6.553 10.196,12.18 0.503,1.25 0.907,2.505 1.214,3.75 l 0.407,2.358 0.477,-0.226 -0.162,0.256 c -0.936,1.138 -1.957,2.075 -3.045,2.774 l -0.886,0.42 -0.407,-2.358 c -0.307,-1.245 -0.711,-2.5 -1.214,-3.751 -2.265,-5.626 -6.068,-9.954 -10.196,-12.179 l -0.414,-0.148 -1.337,-0.945 c -1.101,-1.113 -2.101,-2.812 -2.738,-4.832 -0.318,-1.01 -0.516,-2.005 -0.601,-2.939 l 0.038,-1.282 0.015,-0.207 c 0.833,-5.687 2.837,-10.549 5.534,-13.747 z"
         fill="#c00000"
         fill-rule="evenodd"
         id="path2-6" />
      <path
         d="m 306.659,-301 h 0.064 l -0.032,0.478 z M 272,-301 h 0.917 l 33.242,8.376 -0.023,0.338 0.669,-0.175 0.436,0.11 -0.015,-0.22 32.272,-8.429 H 340 v 13 h -68 z"
         fill="#e20000"
         fill-rule="evenodd"
         id="path3-69" />
      <rect
         x="272"
         y="-294"
         width="17"
         height="2"
         fill="#c00000"
         id="rect3" />
      <rect
         x="323"
         y="-294"
         width="17"
         height="2"
         fill="#c00000"
         id="rect4" />
      <rect
         x="319"
         y="-294"
         width="2"
         height="2"
         fill="#c00000"
         id="rect5" />
      <rect
         x="276"
         y="-311"
         width="3"
         height="3"
         fill="#ff0000"
         id="rect6" />
      <path
         d="m 306,-293 c 2.744,0 5.196,1.26 6.816,3.237 l 1.077,1.787 H 342 V -283 h -31.132 l 0.037,-0.187 c 0,-0.661 -0.133,-1.291 -0.373,-1.864 l -0.917,-1.369 -0.354,-0.323 -1.001,-0.68 -0.439,-0.213 -1.671,-0.34 h -10e-4 v 10e-4 l -1.671,0.339 -0.439,0.213 -1.001,0.679 -0.354,0.324 -0.916,1.368 -10e-4,0.001 -0.179,0.894 v 0 l -0.194,0.97 0.037,0.187 H 270 v -4.976 h 28.107 l 1.078,-1.787 c 1.62,-1.977 4.071,-3.237 6.815,-3.237 z"
         fill="#800000"
         fill-rule="evenodd"
         id="path6-72" />
      <path
         d="m 283,-311 5.763,-1.414 1.237,-6.586 1.237,6.586 5.763,1.414 -5.763,1.414 -1.237,6.586 -1.237,-6.586 z"
         fill="#800000"
         fill-rule="evenodd"
         id="path7-2" />
      <path
         d="m 324,-323.5 5.763,-1.326 1.237,-6.174 1.237,6.174 5.763,1.326 -5.763,1.326 -1.237,6.174 -1.237,-6.174 z"
         fill="#cc0000"
         fill-rule="evenodd"
         id="path8-5" />
      <path
         d="m 300,-351 5.351,-1.414 1.149,-6.586 1.149,6.586 5.351,1.414 -5.351,1.414 -1.149,6.586 -1.149,-6.586 z"
         fill="#e20000"
         fill-rule="evenodd"
         id="path9-1" />
      <path
         d="m 279,-328 c 0,-1.105 0.895,-2 2,-2 1.105,0 2,0.895 2,2 0,1.105 -0.895,2 -2,2 -1.105,0 -2,-0.895 -2,-2 z"
         fill="#e20000"
         fill-rule="evenodd"
         id="path10-9" />
      <path
         d="m 313,-307 c 0,-1.105 0.895,-2 2,-2 1.105,0 2,0.895 2,2 0,1.105 -0.895,2 -2,2 -1.105,0 -2,-0.895 -2,-2 z"
         fill="#cc0000"
         fill-rule="evenodd"
         id="path11-9" />
      <path
         d="m 330,-340.5 c 0,-1.381 0.895,-2.5 2,-2.5 1.105,0 2,1.119 2,2.5 0,1.381 -0.895,2.5 -2,2.5 -1.105,0 -2,-1.119 -2,-2.5 z"
         fill="#ff0000"
         fill-rule="evenodd"
         id="path12-0" />
      <rect
         x="300"
         y="-304"
         width="2"
         height="3"
         fill="#ff0000"
         id="rect12" />
      <rect
         x="302"
         y="-329"
         width="3"
         height="3"
         fill="#c00000"
         id="rect13" />
      <rect
         x="288"
         y="-323"
         width="2"
         height="3"
         fill="#cc0000"
         id="rect14" />
      <rect
         x="306"
         y="-323"
         width="3"
         height="3"
         fill="#c00000"
         id="rect15" />
      <rect
         x="320"
         y="-317"
         width="3"
         height="3"
         fill="#800000"
         id="rect16" />
      <rect
         x="320"
         y="-334"
         width="3"
         height="3"
         fill="#800000"
         id="rect17" />
      <path
         d="M 3.24815,0 3.4508,0.942364 C 3.66483,1.71042 3.93094,2.48847 4.25043,3.26732 5.68814,6.77207 7.90058,9.54581 10.2051,11.0538 l 0.4573,0.2554 0.4037,0.2545 c 0.5996,0.5443 1.1601,1.39 1.5395,2.4083 0.1897,0.509 0.3161,1.013 0.3823,1.4885 L 13,16.2173 12.1843,18.3261 c -0.7755,1.5419 -1.7728,2.744 -2.90635,3.4589 L 8.81581,22 8.60354,20.7934 C 8.44335,20.1566 8.23297,19.5143 7.97055,18.8747 6.78968,15.996 4.80672,13.7817 2.65384,12.6434 L 2.43792,12.5679 1.74085,12.0842 C 1.16686,11.5145 0.645733,10.6454 0.313539,9.6118 0.147432,9.09502 0.0442952,8.58605 0,8.10818 L 0.0196867,7.4525 0.0274463,7.34638 C 0.462063,4.43692 1.50705,1.94945 2.91328,0.313069 Z"
         fill="#ff0000"
         fill-rule="evenodd"
         transform="matrix(-1,0,0,1,323,-354)"
         id="path17-4" />
      <path
         d="M 3.26302,0 3.44188,0.827983 3.00518,1.70301 C 2.51158,2.8931 2.13998,4.24235 1.92168,5.69707 L 1.91389,5.80319 1.89411,6.45887 C 1.93861,6.93674 2.04222,7.44571 2.20908,7.96249 2.5428,8.99605 3.0663,9.86521 3.64292,10.4349 l 0.70027,0.4836 0.2169,0.0755 c 2.16273,1.1384 4.15477,3.3527 5.34104,6.2313 0.26357,0.6397 0.47497,1.282 0.63587,1.9188 L 10.7503,20.3507 11,20.235 10.9151,20.3657 C 10.425,20.9483 9.88981,21.4275 9.32041,21.785 L 8.85615,22 8.64291,20.7934 C 8.48198,20.1566 8.27064,19.5143 8.00702,18.8747 6.82075,15.996 4.82871,13.7817 2.66598,12.6434 L 2.44908,12.5679 1.74881,12.0842 C 1.1722,11.5145 0.648688,10.6454 0.314974,9.6118 0.148107,9.09502 0.0444978,8.58605 0,8.10818 L 0.0197768,7.4525 0.0275719,7.34638 C 0.464177,4.43692 1.51394,1.94945 2.92661,0.313069 Z"
         fill="#c00000"
         fill-rule="evenodd"
         transform="matrix(-1,0,0,1,323,-354)"
         id="path18-5" />
    </g>
  </g>
</svg>
