<?xml version="1.0" encoding="UTF-8" standalone="no"?>
<!-- Created with Inkscape (http://www.inkscape.org/) -->

<svg
   width="80mm"
   height="30mm"
   viewBox="0 0 80 30"
   version="1.1"
   id="svg1"
   inkscape:export-filename="imagem.svg"
   inkscape:export-xdpi="96"
   inkscape:export-ydpi="96"
   xmlns:inkscape="http://www.inkscape.org/namespaces/inkscape"
   xmlns:sodipodi="http://sodipodi.sourceforge.net/DTD/sodipodi-0.dtd"
   xmlns="http://www.w3.org/2000/svg"
   xmlns:svg="http://www.w3.org/2000/svg">
  <sodipodi:namedview
     id="namedview1"
     pagecolor="#505050"
     bordercolor="#eeeeee"
     borderopacity="1"
     inkscape:showpageshadow="0"
     inkscape:pageopacity="0"
     inkscape:pagecheckerboard="0"
     inkscape:deskcolor="#505050"
     inkscape:document-units="mm" />
  <defs
     id="defs1" />
  <g
     inkscape:label="Camada 1"
     inkscape:groupmode="layer"
     id="layer1">
    <g
       transform="matrix(0.26458333,0,0,0.26458333,-68.912555,101.9456)"
       id="g9">
      <path
         d="m 368,-346 h 54 v 3.428 l -0.958,2.574 c -1.493,4.862 -2.416,11.579 -2.416,18.998 l 0.112,3.632 -1.453,0.398 c -1.207,0.49 -1.953,1.168 -1.953,1.916 0,0.749 0.746,1.426 1.953,1.917 l 1.789,0.49 0.2,2.105 0.401,2.407 -0.271,0.022 c -2.393,0.412 -4.072,1.375 -4.072,2.497 0,1.123 1.679,2.086 4.072,2.497 l 1.384,0.114 0.254,1.003 0.958,2.574 V -296 h -54 v -3.428 l 0.958,-2.574 c 1.119,-3.646 1.919,-8.336 2.248,-13.583 l 0.141,-4.55 0.506,-0.041 c 2.393,-0.412 4.072,-1.375 4.072,-2.497 0,-1.123 -1.679,-2.086 -4.072,-2.497 l -0.61,-0.05 -0.037,-1.195 -0.205,-2.356 5.363,-2.671 h 1.683 c 0.367,0 0.664,-0.294 0.664,-0.658 v -2.631 c 0,-0.363 -0.297,-0.658 -0.664,-0.658 h -1.613 l -3.815,-2.131 v 0.042 l -0.465,-0.191 h -2.577 l -0.619,-2.329 -0.958,-2.574 z"
         fill="#e20000"
         fill-rule="evenodd"
         id="path1-6" />
      <path
         d="m 384,-337 c 0,-0.552 0.448,-1 1,-1 h 25 c 0.552,0 1,0.448 1,1 v 0 c 0,0.552 -0.448,1 -1,1 h -25 c -0.552,0 -1,-0.448 -1,-1 z"
         fill="#c00000"
         fill-rule="evenodd"
         id="path2-89" />
      <path
         d="m 384,-325.5 c 0,-0.828 0.672,-1.5 1.5,-1.5 h 24 c 0.828,0 1.5,0.672 1.5,1.5 v 0 c 0,0.828 -0.672,1.5 -1.5,1.5 h -24 c -0.828,0 -1.5,-0.672 -1.5,-1.5 z"
         fill="#c00000"
         fill-rule="evenodd"
         id="path3-61" />
      <path
         d="m 379,-315 c 0,-0.552 0.448,-1 1,-1 h 30 c 0.552,0 1,0.448 1,1 v 0 c 0,0.552 -0.448,1 -1,1 h -30 c -0.552,0 -1,-0.448 -1,-1 z"
         fill="#c00000"
         fill-rule="evenodd"
         id="path4-3" />
      <path
         d="m 379,-303.5 c 0,-0.828 0.672,-1.5 1.5,-1.5 h 29 c 0.828,0 1.5,0.672 1.5,1.5 v 0 c 0,0.828 -0.672,1.5 -1.5,1.5 h -29 c -0.828,0 -1.5,-0.672 -1.5,-1.5 z"
         fill="#c00000"
         fill-rule="evenodd"
         id="path5-8" />
      <path
         d="m 359,-351.978 c 0,-1.117 0.905,-2.022 2.022,-2.022 h 67.956 c 1.117,0 2.022,0.905 2.022,2.022 v 2.956 c 0,1.117 -0.905,2.022 -2.022,2.022 h -67.956 c -1.117,0 -2.022,-0.905 -2.022,-2.022 z"
         fill="#c00000"
         fill-rule="evenodd"
         id="path6-62" />
      <path
         d="m 368.276,-357 0.348,0.12 c 4.347,1.102 14.524,1.876 26.384,1.876 11.861,0 22.038,-0.774 26.385,-1.876 l 0.337,-0.116 1.668,1.085 c 0.99,0.955 1.602,2.274 1.602,3.731 v 3.694 c 0,1.457 -0.612,2.777 -1.602,3.732 l -1.154,0.75 -0.851,-0.294 c -4.347,-1.102 -14.524,-1.875 -26.385,-1.875 -11.86,0 -22.037,0.773 -26.384,1.875 l -0.862,0.298 -1.16,-0.754 c -0.99,-0.955 -1.602,-2.275 -1.602,-3.732 v -3.694 c 0,-1.457 0.612,-2.776 1.602,-3.731 z"
         fill="#ff0000"
         fill-rule="evenodd"
         id="path7-3" />
      <path
         d="m 359,-292.978 c 0,-1.117 0.905,-2.022 2.022,-2.022 h 67.956 c 1.117,0 2.022,0.905 2.022,2.022 v 2.956 c 0,1.117 -0.905,2.022 -2.022,2.022 h -67.956 c -1.117,0 -2.022,-0.905 -2.022,-2.022 z"
         fill="#c00000"
         fill-rule="evenodd"
         id="path8-2" />
      <path
         d="m 368.276,-298 0.348,0.12 c 4.347,1.102 14.524,1.876 26.384,1.876 11.861,0 22.038,-0.774 26.385,-1.876 l 0.337,-0.116 1.668,1.085 c 0.99,0.955 1.602,2.274 1.602,3.731 v 3.694 c 0,1.457 -0.612,2.777 -1.602,3.732 l -1.154,0.75 -0.851,-0.294 c -4.347,-1.102 -14.524,-1.875 -26.385,-1.875 -11.86,0 -22.037,0.773 -26.384,1.875 l -0.862,0.298 -1.16,-0.754 c -0.99,-0.955 -1.602,-2.275 -1.602,-3.732 v -3.694 c 0,-1.457 0.612,-2.776 1.602,-3.731 z"
         fill="#ff0000"
         fill-rule="evenodd"
         id="path9-75" />
    </g>
  </g>
</svg>
