<svg width="21" height="22" viewBox="0 0 21 22" fill="none" xmlns="http://www.w3.org/2000/svg">
<path fill-rule="evenodd" clip-rule="evenodd" d="M7.50374 2.25635L7.60921 2.77582C7.72061 3.19912 7.85907 3.62806 8.02546 4.05728C8.77392 5.98908 9.92595 7.51817 11.1256 8.34926L11.3637 8.48998L11.574 8.63042C11.8862 8.93048 12.1778 9.39665 12.3755 9.95786C12.4742 10.2385 12.5399 10.5162 12.5746 10.7782L12.5808 11.1953L12.1561 12.3578C11.7523 13.2078 11.2331 13.8702 10.6431 14.2645L10.4023 14.3829L10.2917 13.718C10.2085 13.3668 10.0988 13.0129 9.96233 12.6601C9.34754 11.0735 8.31509 9.85296 7.19408 9.22548L7.08185 9.18373L6.71889 8.91723C6.41995 8.60335 6.14866 8.12421 5.97579 7.55454C5.88921 7.2697 5.83563 6.9891 5.8125 6.7257L5.82266 6.36416L5.82688 6.30579C6.05306 4.70197 6.59706 3.33082 7.32917 2.42894L7.50374 2.25635Z" fill="#FF0000"/>
<path fill-rule="evenodd" clip-rule="evenodd" d="M7.56917 2.25635L7.66562 2.71265L7.43041 3.19517C7.16476 3.85114 6.96453 4.59481 6.84721 5.39657L6.84298 5.45523L6.83226 5.81649C6.85623 6.07989 6.91208 6.36049 7.00176 6.64533C7.1814 7.21499 7.46341 7.69414 7.7739 8.00802L8.15096 8.27481L8.26771 8.31626C9.43186 8.94374 10.5044 10.1643 11.1431 11.7512C11.285 12.1037 11.3989 12.4576 11.4855 12.8087L11.6003 13.4737L11.7348 13.41L11.6891 13.4822C11.4251 13.8031 11.1372 14.0674 10.8304 14.2645L10.5805 14.3829L10.4657 13.718C10.3792 13.3668 10.2652 13.0129 10.1234 12.6601C9.48461 11.0735 8.4121 9.85296 7.24795 9.22548L7.1312 9.18373L6.75414 8.91723C6.44364 8.60335 6.16164 8.12421 5.98199 7.55454C5.89231 7.2697 5.83647 6.9891 5.8125 6.7257L5.82321 6.36416L5.82745 6.30579C6.06237 4.70197 6.62752 3.33082 7.38811 2.42894L7.56917 2.25635Z" fill="#C00000"/>
<path fill-rule="evenodd" clip-rule="evenodd" d="M10.7924 16.3569H10.8104L10.8014 16.4917L10.7924 16.3569ZM1.01807 16.3569H1.27667L10.6514 18.7191L10.6449 18.8144L10.8336 18.7651L10.9565 18.7961L10.9523 18.734L20.0534 16.3569H20.195V20.0231H1.01807V16.3569Z" fill="#E20000"/>
<path d="M5.8123 18.3308H1.01807V18.8948H5.8123V18.3308Z" fill="#C00000"/>
<path d="M20.1956 18.3308H15.4014V18.8948H20.1956V18.3308Z" fill="#C00000"/>
<path d="M14.8375 18.3308H14.2734V18.8948H14.8375V18.3308Z" fill="#C00000"/>
<path d="M2.99253 13.5366H2.14648V14.3827H2.99253V13.5366Z" fill="#FF0000"/>
<path fill-rule="evenodd" clip-rule="evenodd" d="M10.6071 18.6128C11.3809 18.6128 12.0724 18.9681 12.5293 19.5257L12.833 20.0296H20.7596V21.4329H11.9799L11.9904 21.3802C11.9904 21.1938 11.9529 21.0161 11.8852 20.8545L11.6266 20.4684L11.5267 20.3774L11.2444 20.1856L11.1206 20.1255L10.6494 20.0296H10.6491V20.0299L10.1779 20.1255L10.0541 20.1856L9.77176 20.3771L9.67193 20.4684L9.41361 20.8542L9.41332 20.8545L9.36285 21.1066L9.30814 21.3802L9.31857 21.4329H0.45459V20.0296H8.38115L8.68516 19.5257C9.14203 18.9681 9.83324 18.6128 10.6071 18.6128Z" fill="#800000"/>
<path fill-rule="evenodd" clip-rule="evenodd" d="M4.12061 13.5369L5.74585 13.1381L6.0947 11.2808L6.44355 13.1381L8.0688 13.5369L6.44355 13.9356L6.0947 15.793L5.74585 13.9356L4.12061 13.5369Z" fill="#800000"/>
<path fill-rule="evenodd" clip-rule="evenodd" d="M15.6831 10.0113L17.3084 9.6374L17.6572 7.89624L18.0061 9.6374L19.6313 10.0113L18.0061 10.3853L17.6572 12.1264L17.3084 10.3853L15.6831 10.0113Z" fill="#CC0000"/>
<path fill-rule="evenodd" clip-rule="evenodd" d="M8.91504 2.25611L10.4241 1.85734L10.7481 0L11.0722 1.85734L12.5812 2.25611L11.0722 2.65488L10.7481 4.51222L10.4241 2.65488L8.91504 2.25611Z" fill="#E20000"/>
<path fill-rule="evenodd" clip-rule="evenodd" d="M2.99268 8.74249C2.99268 8.43087 3.24508 8.17847 3.5567 8.17847C3.86833 8.17847 4.12073 8.43087 4.12073 8.74249C4.12073 9.05412 3.86833 9.30652 3.5567 9.30652C3.24508 9.30652 2.99268 9.05412 2.99268 8.74249Z" fill="#E20000"/>
<path fill-rule="evenodd" clip-rule="evenodd" d="M12.5815 14.6646C12.5815 14.353 12.8339 14.1006 13.1456 14.1006C13.4572 14.1006 13.7096 14.353 13.7096 14.6646C13.7096 14.9762 13.4572 15.2286 13.1456 15.2286C12.8339 15.2286 12.5815 14.9762 12.5815 14.6646Z" fill="#CC0000"/>
<path fill-rule="evenodd" clip-rule="evenodd" d="M17.3755 5.21724C17.3755 4.82778 17.6279 4.51221 17.9395 4.51221C18.2511 4.51221 18.5035 4.82778 18.5035 5.21724C18.5035 5.6067 18.2511 5.92228 17.9395 5.92228C17.6279 5.92228 17.3755 5.6067 17.3755 5.21724Z" fill="#FF0000"/>
<path d="M9.47907 15.5105H8.91504V16.3565H9.47907V15.5105Z" fill="#FF0000"/>
<path d="M10.325 8.46045H9.479V9.30649H10.325V8.46045Z" fill="#C00000"/>
<path d="M6.09479 10.1526H5.53076V10.9986H6.09479V10.1526Z" fill="#CC0000"/>
<path d="M11.453 10.1526H10.6069V10.9986H11.453V10.1526Z" fill="#C00000"/>
<path d="M15.4012 11.8447H14.5552V12.6908H15.4012V11.8447Z" fill="#800000"/>
<path d="M15.4012 7.05029H14.5552V7.89633H15.4012V7.05029Z" fill="#800000"/>
<path fill-rule="evenodd" clip-rule="evenodd" d="M14.4853 1.40991L14.4282 1.67567C14.3678 1.89227 14.2928 2.1117 14.2027 2.33134C13.7972 3.31973 13.1733 4.10196 12.5234 4.52724L12.3944 4.59926L12.2806 4.67104C12.1115 4.82454 11.9534 5.06304 11.8464 5.35021C11.7929 5.49375 11.7573 5.63589 11.7386 5.76999L11.7352 5.98342L11.9652 6.57813C12.1839 7.01296 12.4652 7.35197 12.7849 7.55358L12.9152 7.61422L12.975 7.27394C13.0202 7.09435 13.0796 6.91322 13.1536 6.73284C13.4866 5.92101 14.0458 5.29654 14.6529 4.97553L14.7138 4.95423L14.9104 4.81782C15.0723 4.65716 15.2193 4.41206 15.3129 4.12057C15.3598 3.97483 15.3889 3.8313 15.4014 3.69653L15.3958 3.51162L15.3936 3.48169C15.2711 2.66119 14.9764 1.95968 14.5798 1.4982L14.4853 1.40991Z" fill="#FF0000"/>
<path fill-rule="evenodd" clip-rule="evenodd" d="M14.4812 1.40991L14.4307 1.64341L14.5539 1.89018C14.6931 2.22581 14.7979 2.60631 14.8594 3.01656L14.8616 3.04649L14.8672 3.2314C14.8547 3.36617 14.8254 3.50971 14.7784 3.65544C14.6843 3.94692 14.5366 4.19204 14.374 4.3527L14.1765 4.48908L14.1154 4.51037C13.5054 4.83142 12.9437 5.45588 12.6091 6.26769C12.5348 6.44809 12.4752 6.62923 12.4298 6.80881L12.3696 7.14909L12.2992 7.11646L12.3232 7.15332C12.4614 7.31762 12.6123 7.45276 12.7729 7.55358L12.9038 7.61422L12.9639 7.27394C13.0093 7.09435 13.0689 6.91322 13.1433 6.73284C13.4778 5.92101 14.0396 5.29654 14.6495 4.97553L14.7107 4.95423L14.9082 4.81782C15.0708 4.65716 15.2184 4.41206 15.3125 4.12057C15.3596 3.97483 15.3888 3.8313 15.4014 3.69653L15.3958 3.51162L15.3936 3.48169C15.2705 2.66119 14.9744 1.95968 14.576 1.4982L14.4812 1.40991Z" fill="#C00000"/>
</svg>
