<svg width="21" height="22" viewBox="0 0 21 22" fill="none" xmlns="http://www.w3.org/2000/svg">
<path fill-rule="evenodd" clip-rule="evenodd" d="M2.58545 3.75049H18.0968V4.73518L17.8216 5.47455C17.3928 6.87115 17.1276 8.80059 17.1276 10.9317L17.1598 11.975L16.7424 12.0893C16.3957 12.23 16.1814 12.4248 16.1814 12.6397C16.1814 12.8548 16.3957 13.0493 16.7424 13.1903L17.2563 13.3311L17.3138 13.9357L17.429 14.6271L17.3511 14.6334C16.6637 14.7518 16.1814 15.0284 16.1814 15.3507C16.1814 15.6733 16.6637 15.9499 17.3511 16.068L17.7487 16.1007L17.8216 16.3888L18.0968 17.1282V18.1129H2.58545V17.1282L2.86063 16.3888C3.18206 15.3415 3.41186 13.9943 3.50636 12.4871L3.54686 11.1801L3.69221 11.1684C4.3796 11.05 4.86188 10.7734 4.86188 10.4511C4.86188 10.1285 4.3796 9.85191 3.69221 9.73385L3.517 9.71949L3.50636 9.37623L3.44748 8.69948L4.98799 7.93224H5.47142C5.57684 7.93224 5.66216 7.84778 5.66216 7.74323V6.98748C5.66216 6.88321 5.57684 6.79847 5.47142 6.79847H5.00809L3.91224 6.18635V6.19841L3.77867 6.14355H3.03844L2.86063 5.47455L2.58545 4.73518V3.75049Z" fill="#E20000"/>
<path fill-rule="evenodd" clip-rule="evenodd" d="M7.18115 6.33583C7.18115 6.17727 7.30984 6.04858 7.4684 6.04858H14.6496C14.8081 6.04858 14.9368 6.17727 14.9368 6.33583C14.9368 6.49439 14.8081 6.62308 14.6496 6.62308H7.4684C7.30984 6.62308 7.18115 6.49439 7.18115 6.33583Z" fill="#C00000"/>
<path fill-rule="evenodd" clip-rule="evenodd" d="M7.18115 9.63912C7.18115 9.40128 7.37418 9.20825 7.61202 9.20825H14.506C14.7438 9.20825 14.9368 9.40128 14.9368 9.63912C14.9368 9.87696 14.7438 10.07 14.506 10.07H7.61202C7.37418 10.07 7.18115 9.87696 7.18115 9.63912Z" fill="#C00000"/>
<path fill-rule="evenodd" clip-rule="evenodd" d="M5.74512 12.6554C5.74512 12.4969 5.8738 12.3682 6.03236 12.3682H14.6498C14.8083 12.3682 14.937 12.4969 14.937 12.6554C14.937 12.814 14.8083 12.9427 14.6498 12.9427H6.03236C5.8738 12.9427 5.74512 12.814 5.74512 12.6554Z" fill="#C00000"/>
<path fill-rule="evenodd" clip-rule="evenodd" d="M5.74512 15.9587C5.74512 15.7209 5.93815 15.5278 6.17599 15.5278H14.5062C14.744 15.5278 14.937 15.7209 14.937 15.9587C14.937 16.1965 14.744 16.3896 14.5062 16.3896H6.17599C5.93815 16.3896 5.74512 16.1965 5.74512 15.9587Z" fill="#C00000"/>
<path fill-rule="evenodd" clip-rule="evenodd" d="M0 2.03321C0 1.71235 0.25996 1.45239 0.580815 1.45239H20.101C20.4219 1.45239 20.6818 1.71235 20.6818 2.03321V2.88231C20.6818 3.20316 20.4219 3.46312 20.101 3.46312H0.580815C0.25996 3.46312 0 3.20316 0 2.88231V2.03321Z" fill="#C00000"/>
<path fill-rule="evenodd" clip-rule="evenodd" d="M2.66417 0.59082L2.76413 0.625289C4.01279 0.941835 6.93611 1.16417 10.3429 1.16417C13.7499 1.16417 16.6732 0.941835 17.9219 0.625289L18.0187 0.591969L18.4978 0.90363C18.7822 1.17795 18.958 1.55684 18.958 1.97536V3.03645C18.958 3.45497 18.7822 3.83413 18.4978 4.10845L18.1663 4.32389L17.9219 4.23944C16.6732 3.92289 13.7499 3.70085 10.3429 3.70085C6.93611 3.70085 4.01279 3.92289 2.76413 4.23944L2.51652 4.32504L2.18331 4.10845C1.89894 3.83413 1.72314 3.45497 1.72314 3.03645V1.97536C1.72314 1.55684 1.89894 1.17795 2.18331 0.90363L2.66417 0.59082Z" fill="#FF0000"/>
<path fill-rule="evenodd" clip-rule="evenodd" d="M0 18.981C0 18.6601 0.25996 18.4001 0.580815 18.4001H20.101C20.4219 18.4001 20.6818 18.6601 20.6818 18.981V19.8301C20.6818 20.1509 20.4219 20.4109 20.101 20.4109H0.580815C0.25996 20.4109 0 20.1509 0 19.8301V18.981Z" fill="#C00000"/>
<path fill-rule="evenodd" clip-rule="evenodd" d="M2.66417 17.5386L2.76413 17.573C4.01279 17.8896 6.93611 18.1119 10.3429 18.1119C13.7499 18.1119 16.6732 17.8896 17.9219 17.573L18.0187 17.5397L18.4978 17.8514C18.7822 18.1257 18.958 18.5046 18.958 18.9231V19.9842C18.958 20.4027 18.7822 20.7819 18.4978 21.0562L18.1663 21.2716L17.9219 21.1872C16.6732 20.8706 13.7499 20.6486 10.3429 20.6486C6.93611 20.6486 4.01279 20.8706 2.76413 21.1872L2.51652 21.2728L2.18331 21.0562C1.89894 20.7819 1.72314 20.4027 1.72314 19.9842V18.9231C1.72314 18.5046 1.89894 18.1257 2.18331 17.8514L2.66417 17.5386Z" fill="#FF0000"/>
</svg>
