<svg width="25" height="27" viewBox="0 0 25 27" fill="none" xmlns="http://www.w3.org/2000/svg">
<mask id="mask0_143_4151" style="mask-type:luminance" maskUnits="userSpaceOnUse" x="0" y="0" width="25" height="27">
<path d="M25 0H0V27H25V0Z" fill="white"/>
</mask>
<g mask="url(#mask0_143_4151)">
<path fill-rule="evenodd" clip-rule="evenodd" d="M2.66008 23H12.0001V27H0.905133L0.651105 26.914C0.156105 26.66 -0.150907 26.204 0.0760925 25.663C0.302093 25.123 1.51007 23.995 2.34507 23.295L2.66008 23.038V23Z" fill="#FF0000"/>
<path fill-rule="evenodd" clip-rule="evenodd" d="M21.34 27H12V23H23.095L23.349 23.086C23.844 23.34 24.151 23.796 23.924 24.337C23.698 24.877 22.49 26.005 21.655 26.705L21.34 26.962V27Z" fill="#C00000"/>
<path fill-rule="evenodd" clip-rule="evenodd" d="M17.1379 5.35791L20.2449 8.46497L12.1079 16.603V10.387L17.1379 5.35791Z" fill="#C00000"/>
<path fill-rule="evenodd" clip-rule="evenodd" d="M22.0573 0.735963C22.5103 0.686963 22.9453 0.810935 23.2533 1.11993L24.2333 2.09992C24.8503 2.71692 24.7293 3.83892 23.9633 4.60492L22.5133 6.05493L22.2933 6.24194L19.1113 3.05994L19.2983 2.83997L20.7483 1.39093C21.1313 1.00693 21.6033 0.784963 22.0573 0.735963Z" fill="#C00000"/>
<path fill-rule="evenodd" clip-rule="evenodd" d="M8.33306 14.1529C7.62006 14.4029 7.03208 17.9068 7.62908 18.3578C8.22508 18.8088 11.7691 17.5678 11.9111 16.8578C12.0521 16.1488 9.04706 13.9029 8.33306 14.1529Z" fill="#FF0000"/>
<path fill-rule="evenodd" clip-rule="evenodd" d="M12.1273 10.388V16.604L11.1823 17.549L8.07422 14.441L12.1273 10.388ZM16.9222 5.59399L17.4033 6.07599H16.4402L16.9222 5.59399Z" fill="#FF0000"/>
</g>
</svg>
