<svg width="21" height="28" viewBox="0 0 21 28" fill="none" xmlns="http://www.w3.org/2000/svg">
<path fill-rule="evenodd" clip-rule="evenodd" d="M0 8H4.50699V8.07098L4.85599 8H16.144L16.493 8.07098V8H21L17.529 23.405V26.599C17.529 27.179 17.18 27.677 16.683 27.89L16.51 27.925L16.493 28V27.929L16.144 28H4.85599L4.50699 27.929V28L4.48999 27.925L4.31699 27.89C3.81999 27.677 3.47101 27.179 3.47101 26.599V23.405L0 8Z" fill="#FF0000"/>
<path fill-rule="evenodd" clip-rule="evenodd" d="M0 8H4.62799V8.07098L4.987 8H7.147L6.755 9.49103C6.6 10.387 6.51801 11.315 6.51801 12.265C6.51801 18.917 10.516 24.467 15.831 25.75L18 26.008V26.599C18 27.179 17.642 27.677 17.131 27.89L16.954 27.925L16.937 28V27.929L16.578 28H4.987L4.62799 27.929V28L4.61099 27.925L4.43301 27.89C3.92301 27.677 3.565 27.179 3.565 26.599V23.405L0 8Z" fill="#C00000"/>
<path fill-rule="evenodd" clip-rule="evenodd" d="M5 12C5 11.448 5.448 11 6 11C6.552 11 7 11.448 7 12V24C7 24.552 6.552 25 6 25C5.448 25 5 24.552 5 24V12Z" fill="white"/>
<path fill-rule="evenodd" clip-rule="evenodd" d="M10 12C10 11.448 10.448 11 11 11C11.552 11 12 11.448 12 12V24C12 24.552 11.552 25 11 25C10.448 25 10 24.552 10 24V12Z" fill="white"/>
<path fill-rule="evenodd" clip-rule="evenodd" d="M14 12C14 11.448 14.448 11 15 11C15.552 11 16 11.448 16 12V24C16 24.552 15.552 25 15 25C14.448 25 14 24.552 14 24V12Z" fill="white"/>
<path fill-rule="evenodd" clip-rule="evenodd" d="M7.784 0H13.216C14.201 0 15 0.780028 15 1.74103V3.388C15 4.109 14.551 4.728 13.91 4.992L13.872 5V1.62598C13.872 1.31598 13.615 1.065 13.297 1.065H7.703C7.385 1.065 7.12799 1.31598 7.12799 1.62598V5L7.09 4.992C6.449 4.728 6 4.109 6 3.388V1.74103C6 0.780028 6.799 0 7.784 0Z" fill="#FF0000"/>
<path fill-rule="evenodd" clip-rule="evenodd" d="M1.18701 4H19.813C20.469 4 21 4.43101 21 4.96301V6.78998L20.893 7H0.106995L0 6.78998V4.96301C0 4.43101 0.531012 4 1.18701 4Z" fill="#FF0000"/>
<path fill-rule="evenodd" clip-rule="evenodd" d="M19.04 4H19.813C20.469 4 21 4.43101 21 4.96301V6.78998L20.893 7H0.106995L0 6.78998V5.73602L0.372009 5.797H16.747C17.705 5.797 18.527 5.324 18.878 4.651L19.04 4Z" fill="#C00000"/>
</svg>
