<svg width="257" height="594" viewBox="0 0 257 594" fill="none" xmlns="http://www.w3.org/2000/svg">
<path fill-rule="evenodd" clip-rule="evenodd" d="M36.329 2.17993H218.973C232.673 2.17993 244.104 11.898 246.748 24.817L247.192 29.2289L245.251 32.65C244.783 33.966 244.524 35.4129 244.524 36.9319C244.524 39.9699 245.56 42.72 247.235 44.71L247.324 44.7809V44.942L248.426 46.1569L248.551 45.7639L250.178 47.0679C251.285 47.6239 252.503 47.9319 253.781 47.9319L256.548 47.2679L247.324 90.0919V508.77L255.349 546.03L253.781 545.65C248.668 545.65 244.524 550.58 244.524 556.65C244.524 558.17 244.783 559.62 245.251 560.93L247.158 564.29L246.748 568.36C244.104 581.28 232.673 591 218.973 591H36.328C22.628 591 11.198 581.28 8.55396 568.36L8.31897 566.03L10.314 564.43C11.989 562.44 13.025 559.69 13.025 556.65C13.025 550.58 8.88101 545.65 3.76801 545.65L2.20001 546.03L7.97797 519.21V79.6589L1 47.2679L3.76801 47.9319C8.88101 47.9319 13.025 43.0069 13.025 36.9319C13.025 33.8939 11.989 31.1439 10.314 29.1539L8.28101 27.525L8.55396 24.817C11.198 11.898 22.628 2.17993 36.329 2.17993Z" fill="white" stroke="#FF0000" stroke-width="0.666667" stroke-miterlimit="8"/>
<path fill-rule="evenodd" clip-rule="evenodd" d="M17.1239 2H240.273L240.763 4.21198C242.452 7.84898 246.405 10.402 251.012 10.402L254.795 9.70599V32.691L254.35 33.23C251.668 37.197 250.102 41.98 250.102 47.127V546.87C250.102 552.02 251.668 556.8 254.35 560.77L254.795 561.31V583.33L251.012 582.64C246.405 582.64 242.452 585.19 240.763 588.83L240.06 592H17.338L16.6339 588.83C14.9459 585.19 10.9929 582.64 6.38495 582.64L3.79492 583.11V559.97L5.65491 556.55C6.91291 553.57 7.60895 550.3 7.60895 546.87V47.127C7.60895 43.696 6.91291 40.426 5.65491 37.452L3.79492 34.029V9.92603L6.38495 10.402C10.9929 10.402 14.9459 7.84898 16.6339 4.21198L17.1239 2Z" stroke="#FF0000" stroke-width="3" stroke-miterlimit="8"/>
</svg>
