<svg width="137" height="991" viewBox="0 0 137 991" fill="none" xmlns="http://www.w3.org/2000/svg">
<path fill-rule="evenodd" clip-rule="evenodd" d="M23.1294 23.9043H38.5004L41.5624 26.8513C48.4014 32.2803 57.8494 35.6373 68.2844 35.6373C78.7199 35.6373 88.1674 32.2803 95.006 26.8513L98.0685 23.9043H113.439C122.281 23.9043 129.867 29.1423 133.107 36.6073L133.753 38.6353L132.974 40.9773C132.379 43.1493 131.981 45.1363 131.948 46.5083C131.88 49.2513 133.184 53.6423 134.646 56.9663L134.784 57.2473V145.904H1.78442V58.6923L2.63342 56.9663C4.09542 53.6423 5.39941 49.2513 5.33241 46.5083C5.29841 45.1363 4.90042 43.1493 4.30542 40.9773L3.16342 37.5433L3.46141 36.6073C6.70241 29.1423 14.2884 23.9043 23.1294 23.9043Z" fill="#FF0000"/>
<path fill-rule="evenodd" clip-rule="evenodd" d="M68.725 3.9043C73.5601 3.9043 77.9375 4.67328 81.106 5.91528L85.8068 10.3653H103.644C116.699 10.3653 127.9 18.2513 132.684 29.4903L133.784 34.9043L131.179 30.1353C125.515 21.8063 115.923 16.3303 105.045 16.3303H79.9309V19.5103H96.8882L95.4208 20.9153C88.5887 26.3123 79.1504 29.6503 68.7249 29.6503C58.2994 29.6503 48.8614 26.3123 42.0294 20.9153L40.5614 19.5103H57.5184V16.3303H32.2054C21.3264 16.3303 11.7344 21.8063 6.07042 30.1353L3.78442 34.3203L4.76642 29.4903C9.55042 18.2513 20.7514 10.3653 33.8064 10.3653H51.6434L56.3444 5.91528C59.5124 4.67328 63.8904 3.9043 68.725 3.9043Z" fill="#FF0000"/>
<path d="M53.7 2.02673C49.8113 4.11042 45.9227 6.19512 40.2548 7.10904C34.587 8.02399 23.6795 6.87262 19.6929 7.51636C15.7054 8.16008 17.6497 10.4638 16.3314 10.9724C15.0131 11.4801 14.1566 9.10882 11.7841 10.5662C9.4115 12.0225 3.64477 11.0738 2.09603 19.7145C0.547277 28.3553 1.51944 45.382 2.49161 62.4087" stroke="#FF0000" stroke-width="1.00605" stroke-miterlimit="8"/>
<path d="M82.6016 2.37146C86.527 4.43894 90.4524 6.50653 96.1743 7.41415C101.896 8.3218 112.907 7.17888 116.933 7.81757C120.958 8.45636 118.995 10.7423 120.326 11.2466C121.656 11.7509 122.521 9.39758 124.916 10.8432C127.312 12.2888 133.133 11.3475 134.697 19.92C136.26 28.4925 135.279 45.3856 134.298 62.2786" stroke="#FF0000" stroke-width="1.00685" stroke-miterlimit="8"/>
<path fill-rule="evenodd" clip-rule="evenodd" d="M68.2844 0.904297C80.7108 0.904297 90.7844 7.39429 90.7844 15.3993L90.6262 15.9043L89.0162 10.7673C85.6006 5.5643 77.6043 1.91428 68.2844 1.91428C58.9644 1.91428 50.9684 5.5643 47.5524 10.7673L45.9424 15.9043L45.7844 15.3993C45.7844 7.39429 55.8584 0.904297 68.2844 0.904297Z" fill="#FF0000"/>
<path fill-rule="evenodd" clip-rule="evenodd" d="M113.439 967.904H98.0685L95.006 964.954C88.1674 959.524 78.7198 956.174 68.2844 956.174C57.8484 956.174 48.4014 959.524 41.5624 964.954L38.5004 967.904H23.1294C14.2884 967.904 6.70241 962.664 3.46141 955.204L2.81541 953.174L3.59442 950.834C4.18942 948.664 4.58741 946.674 4.62141 945.304C4.68841 942.554 3.38442 938.164 1.92242 934.844L1.78442 934.564V845.904H134.784V933.114L133.936 934.844C132.473 938.164 131.169 942.554 131.237 945.304C131.271 946.674 131.669 948.664 132.263 950.834L133.405 954.264L133.107 955.204C129.867 962.664 122.281 967.904 113.439 967.904Z" fill="#FF0000"/>
<path fill-rule="evenodd" clip-rule="evenodd" d="M68.8438 987.904C64.0084 987.904 59.6314 987.134 56.4624 985.894L51.7624 981.444H33.9254C20.8704 981.444 9.66941 973.554 4.88441 962.314L3.78442 956.904L6.38942 961.674C12.0534 970.004 21.6454 975.474 32.5244 975.474H57.6374V972.294H40.6804L42.1484 970.894C48.9804 965.494 58.4184 962.154 68.8439 962.154C79.2693 962.154 88.7077 965.494 95.5398 970.894L97.0072 972.294H80.0499V975.474H105.364C116.243 975.474 125.834 970.004 131.498 961.674L133.784 957.484L132.803 962.314C128.018 973.554 116.817 981.444 103.763 981.444H85.9257L81.2249 985.894C78.0562 987.134 73.6789 987.904 68.8438 987.904Z" fill="#FF0000"/>
<path d="M82.3911 989.499C86.3305 987.454 90.2699 985.419 96.0119 984.517C101.754 983.625 112.804 984.758 116.844 984.126C120.883 983.495 118.914 981.239 120.249 980.738C121.584 980.237 122.452 982.563 124.856 981.139C127.26 979.706 133.102 980.638 134.671 972.178C136.24 963.708 135.255 947.039 134.27 930.359" stroke="#FF0000" stroke-width="1.00215" stroke-miterlimit="8"/>
<path d="M55.1538 989.781C51.1585 987.723 47.1634 985.665 41.3398 984.761C35.5163 983.857 24.3094 984.995 20.2128 984.359C16.1159 983.723 18.1135 981.447 16.7592 980.945C15.4049 980.443 14.5246 982.786 12.0869 981.347C9.64913 979.907 3.724 980.844 2.13274 972.309C0.541479 963.774 1.54026 946.954 2.53903 930.134" stroke="#FF0000" stroke-width="1.01355" stroke-miterlimit="8"/>
<path fill-rule="evenodd" clip-rule="evenodd" d="M68.2844 990.904C55.8584 990.904 45.7844 984.414 45.7844 976.404L45.9424 975.904L47.5524 981.044C50.9684 986.244 58.9644 989.894 68.2844 989.894C77.6042 989.894 85.6006 986.244 89.0162 981.044L90.6262 975.904L90.7844 976.404C90.7844 984.414 80.7108 990.904 68.2844 990.904Z" fill="#FF0000"/>
<path d="M134.784 142.904H1.78442V870.904H134.784V142.904Z" fill="#FF0000"/>
</svg>
