<svg width="262" height="229" viewBox="0 0 262 229" fill="none" xmlns="http://www.w3.org/2000/svg">
<path fill-rule="evenodd" clip-rule="evenodd" d="M41.835 2H220.165C239.122 2 254.489 17.1466 254.489 35.831V44.8549L259.602 46.6956L257.149 62.1443C256.558 67.9328 256.256 73.9567 256.253 80.1041L256.8 91.4376L255.711 114.5L256.724 135.961L256.359 143.528C256.365 155.823 257.57 167.623 259.883 178.035L261 181.801L254.489 184.145V193.169C254.489 211.853 239.122 227 220.165 227H41.835C22.878 227 7.511 211.853 7.511 193.169V184.145L1 181.801L2.117 178.035C4.42999 167.623 5.63501 155.823 5.64101 143.528L5.276 135.961L6.289 114.5L5.2 91.4376L5.74699 80.1041C5.74399 73.9567 5.44202 67.9328 4.85101 62.1443L2.39801 46.6956L7.511 44.8549V35.831C7.511 17.1466 22.878 2 41.835 2Z" fill="white" stroke="#FF0000" stroke-width="0.666667" stroke-miterlimit="8"/>
<path fill-rule="evenodd" clip-rule="evenodd" d="M21.387 2H243.049L243.762 5.34302C245.547 9.33702 249.725 12.139 254.595 12.139L255 12.061V29.775L252.341 31.471C250.214 33.485 248.898 36.267 248.898 39.339C248.898 42.412 250.214 45.194 252.341 47.207L252.841 47.526L251.897 48.929C251.361 50.201 251.064 51.598 251.064 53.066V177.352C251.064 178.819 251.361 180.217 251.897 181.488L253.287 183.556L252.341 184.16C250.214 186.173 248.898 188.955 248.898 192.028C248.898 195.1 250.214 197.882 252.341 199.895L255 201.592V217.112L254.595 217.035C249.725 217.035 245.547 219.837 243.762 223.831L243.086 227H21.35L20.674 223.831C18.889 219.837 14.711 217.035 9.84198 217.035L7 217.578V201.617L9.698 199.895C11.826 197.882 13.141 195.1 13.141 192.028C13.141 188.955 11.826 186.173 9.698 184.16L8.591 183.453L9.91199 181.488C10.449 180.217 10.745 178.819 10.745 177.352V53.066C10.745 51.598 10.449 50.201 9.91199 48.929L9.03803 47.629L9.698 47.207C11.826 45.194 13.141 42.412 13.141 39.339C13.141 36.267 11.826 33.485 9.698 31.471L7 29.75V11.596L9.84198 12.139C14.711 12.139 18.889 9.33702 20.674 5.34302L21.387 2Z" stroke="#FF0000" stroke-width="3" stroke-miterlimit="8"/>
</svg>
