<?xml version="1.0" encoding="UTF-8" standalone="no"?>
<!-- Created with Inkscape (http://www.inkscape.org/) -->

<svg
   width="40mm"
   height="270mm"
   viewBox="0 0 40 270"
   version="1.1"
   id="svg1"
   inkscape:export-filename="3.svg"
   inkscape:export-xdpi="96"
   inkscape:export-ydpi="96"
   xmlns:inkscape="http://www.inkscape.org/namespaces/inkscape"
   xmlns:sodipodi="http://sodipodi.sourceforge.net/DTD/sodipodi-0.dtd"
   xmlns="http://www.w3.org/2000/svg"
   xmlns:svg="http://www.w3.org/2000/svg">
  <sodipodi:namedview
     id="namedview1"
     pagecolor="#505050"
     bordercolor="#eeeeee"
     borderopacity="1"
     inkscape:showpageshadow="0"
     inkscape:pageopacity="0"
     inkscape:pagecheckerboard="0"
     inkscape:deskcolor="#505050"
     inkscape:document-units="mm" />
  <defs
     id="defs1" />
  <g
     inkscape:label="Camada 1"
     inkscape:groupmode="layer"
     id="layer1">
    <g
       transform="matrix(0.26458333,0,0,0.26458333,53.090581,-28.76105)"
       id="g23">
      <path
         d="m -167.639,136.958 h 15.371 l 3.062,2.947 c 6.839,5.429 16.287,8.786 26.722,8.786 10.435,0 19.883,-3.357 26.7214,-8.786 l 3.063,-2.947 h 15.3706 c 8.8416,0 16.4275,5.238 19.6678,12.703 l 0.646,2.028 -0.7789,2.342 c -0.5947,2.172 -0.9928,4.159 -1.0264,5.531 -0.0674,2.743 1.2363,7.134 2.6987,10.458 l 0.138,0.281 v 88.657 H -188.984 v -87.212 l 0.849,-1.726 c 1.462,-3.324 2.766,-7.715 2.699,-10.458 -0.034,-1.372 -0.432,-3.359 -1.027,-5.531 l -1.142,-3.434 0.298,-0.936 c 3.241,-7.465 10.827,-12.703 19.668,-12.703 z"
         fill="#ff0000"
         fill-rule="evenodd"
         id="path1" />
      <path
         d="m -122.044,116.963 c 4.835,0 9.213,0.769 12.381,2.011 l 4.701,4.45 h 17.8375 c 13.0549,0 24.2557,7.886 29.0404,19.125 l 1.1002,5.414 -2.6055,-4.769 c -5.6638,-8.329 -15.2555,-13.805 -26.1344,-13.805 h -25.1142 v 3.18 h 16.9582 l -1.468,1.405 c -6.8322,5.397 -16.2702,8.735 -26.6962,8.735 -10.425,0 -19.863,-3.338 -26.695,-8.735 l -1.468,-1.405 h 16.957 v -3.18 h -25.313 c -10.879,0 -20.471,5.476 -26.135,13.805 l -2.286,4.185 0.982,-4.83 c 4.784,-11.239 15.985,-19.125 29.04,-19.125 h 17.837 l 4.701,-4.45 c 3.168,-1.242 7.546,-2.011 12.38,-2.011 z"
         fill="#ff0000"
         fill-rule="evenodd"
         id="path2" />
      <path
         d="m -136.481,115.462 c -3.857,2.071 -7.715,4.142 -13.338,5.05 -5.623,0.909 -16.444,-0.235 -20.399,0.405 -3.956,0.639 -2.027,2.929 -3.335,3.434 -1.308,0.504 -2.158,-1.852 -4.512,-0.404 -2.353,1.448 -8.074,0.505 -9.611,9.091 -1.536,8.586 -0.571,25.505 0.393,42.424"
         stroke="#ff0000"
         stroke-width="1.00483"
         stroke-miterlimit="8"
         fill="none"
         fill-rule="evenodd"
         id="path3" />
      <path
         d="m -107.487,115.462 c 3.931,2.07 7.8636,4.141 13.5948,5.049 5.7307,0.91 16.7597,-0.235 20.7913,0.405 4.0318,0.64 2.066,2.93 3.3987,3.434 1.3328,0.505 2.1992,-1.851 4.5981,-0.404 2.3991,1.448 8.2302,0.506 9.7961,9.091 1.5661,8.586 0.5832,25.505 -0.3999,42.425"
         stroke="#ff0000"
         stroke-width="1.00567"
         stroke-miterlimit="8"
         fill="none"
         fill-rule="evenodd"
         id="path4" />
      <path
         d="m -122.484,113.963 c 12.426,0 22.5002,6.49 22.5002,14.495 l -0.1582,0.505 -1.61,-5.136 c -3.416,-5.204 -11.412,-8.854 -20.732,-8.854 -9.32,0 -17.316,3.65 -20.732,8.854 l -1.61,5.136 -0.158,-0.505 c 0,-8.005 10.074,-14.495 22.5,-14.495 z"
         fill="#ff0000"
         fill-rule="evenodd"
         id="path5" />
      <path
         d="m -77.329,1080.89 h -15.3706 l -3.063,-2.95 c -6.8384,-5.43 -16.2864,-8.78 -26.7214,-8.78 -10.436,0 -19.883,3.35 -26.722,8.78 l -3.062,2.95 h -15.371 c -8.841,0 -16.427,-5.24 -19.668,-12.7 l -0.646,-2.03 0.779,-2.34 c 0.595,-2.17 0.993,-4.16 1.027,-5.53 0.067,-2.75 -1.237,-7.14 -2.699,-10.46 l -0.138,-0.28 v -88.656 h 133.0002 v 87.206 l -0.8488,1.73 c -1.4623,3.32 -2.7662,7.71 -2.6988,10.46 0.0339,1.37 0.4318,3.36 1.0265,5.53 l 1.1419,3.43 -0.2982,0.94 c -3.2403,7.46 -10.8263,12.7 -19.6678,12.7 z"
         fill="#ff0000"
         fill-rule="evenodd"
         id="path6" />
      <path
         d="m -121.925,1100.89 c -4.835,0 -9.212,-0.77 -12.381,-2.01 l -4.7,-4.45 h -17.837 c -13.055,0 -24.256,-7.89 -29.041,-19.13 l -1.1,-5.41 2.605,4.77 c 5.664,8.33 15.256,13.8 26.135,13.8 h 25.113 v -3.18 h -16.957 l 1.468,-1.4 c 6.832,-5.4 16.27,-8.74 26.695,-8.74 10.426,0 19.864,3.34 26.6962,8.74 l 1.468,1.4 h -16.9582 v 3.18 h 25.3142 c 10.879,0 20.4705,-5.47 26.1344,-13.8 l 2.2865,-4.19 -0.9816,4.83 c -4.7846,11.24 -15.9856,19.13 -29.0402,19.13 h -17.8373 l -4.701,4.45 c -3.168,1.24 -7.546,2.01 -12.381,2.01 z"
         fill="#ff0000"
         fill-rule="evenodd"
         id="path7" />
      <path
         d="m -107.487,1103.39 c 3.932,-2.04 7.8637,-4.07 13.5946,-4.97 5.7309,-0.89 16.7601,0.24 20.7917,-0.39 4.0317,-0.63 2.0657,-2.88 3.3986,-3.38 1.3328,-0.5 2.1991,1.82 4.5982,0.4 2.3989,-1.43 8.2299,-0.5 9.7959,-8.94 1.566,-8.45 0.583,-25.08 -0.3999,-41.72"
         stroke="#ff0000"
         stroke-width="1.00094"
         stroke-miterlimit="8"
         fill="none"
         fill-rule="evenodd"
         id="path8" />
      <path
         d="m -134.481,1103.39 c -4.006,-2.07 -8.011,-4.14 -13.851,-5.05 -5.839,-0.91 -17.076,0.24 -21.184,-0.4 -4.108,-0.65 -2.105,-2.93 -3.462,-3.43 -1.359,-0.52 -2.241,1.85 -4.686,0.4 -2.444,-1.45 -8.385,-0.51 -9.981,-9.09 -1.595,-8.59 -0.593,-25.51 0.407,-42.43"
         stroke="#ff0000"
         stroke-width="1.01228"
         stroke-miterlimit="8"
         fill="none"
         fill-rule="evenodd"
         id="path9" />
      <path
         d="m -122.484,1103.89 c -12.426,0 -22.5,-6.49 -22.5,-14.5 l 0.158,-0.5 1.61,5.14 c 3.416,5.2 11.412,8.85 20.732,8.85 9.32,0 17.316,-3.65 20.732,-8.85 l 1.61,-5.14 0.1582,0.5 c 0,8.01 -10.0742,14.5 -22.5002,14.5 z"
         fill="#ff0000"
         fill-rule="evenodd"
         id="path10" />
      <path
         d="m -188.984,255.925 h 133.0002 v 728 H -188.984 Z"
         fill="#ff0000"
         fill-rule="evenodd"
         id="path11" />
      <path
         d="m -158.954,308.5 h 74.9077 c 0,4.974 2.9896,9.242 7.2505,11.065 l 4.2958,0.877 V 422.5 h -98 V 320.442 l 4.296,-0.877 c 4.261,-1.823 7.25,-6.091 7.25,-11.065 z"
         stroke="#c00000"
         stroke-width="3"
         stroke-miterlimit="8"
         fill="#ffffff"
         fill-rule="evenodd"
         id="path12" />
      <path
         d="m -152.5,420.5 c 0,-11.046 13.655,-20 30.5,-20 16.845,0 30.5,8.954 30.5,20 0,11.046 -13.655,20 -30.5,20 -16.845,0 -30.5,-8.954 -30.5,-20 z"
         stroke="#c00000"
         stroke-width="3"
         stroke-miterlimit="8"
         fill="#ffffff"
         fill-rule="evenodd"
         id="path13" />
      <path
         d="m -158.954,464.5 h 74.9077 c 0,5.018 2.9896,9.323 7.2505,11.162 l 4.2958,0.885 V 579.5 h -98 V 476.547 l 4.296,-0.885 c 4.261,-1.839 7.25,-6.144 7.25,-11.162 z"
         stroke="#c00000"
         stroke-width="3"
         stroke-miterlimit="8"
         fill="#ffffff"
         fill-rule="evenodd"
         id="path14" />
      <path
         d="m -151.5,577 c 0,-11.322 13.431,-20.5 30,-20.5 16.568,0 30,9.178 30,20.5 0,11.322 -13.432,20.5 -30,20.5 -16.569,0 -30,-9.178 -30,-20.5 z"
         stroke="#c00000"
         stroke-width="3"
         stroke-miterlimit="8"
         fill="#ffffff"
         fill-rule="evenodd"
         id="path15" />
      <path
         d="m -158.954,777.5 h 74.9077 c 0,5.018 2.9896,9.323 7.2505,11.162 l 4.2958,0.885 V 892.5 h -98 V 789.547 l 4.296,-0.885 c 4.261,-1.839 7.25,-6.144 7.25,-11.162 z"
         stroke="#c00000"
         stroke-width="3"
         stroke-miterlimit="8"
         fill="#ffffff"
         fill-rule="evenodd"
         id="path16" />
      <path
         d="m -152.5,890 c 0,-11.322 13.655,-20.5 30.5,-20.5 16.845,0 30.5,9.178 30.5,20.5 0,11.322 -13.655,20.5 -30.5,20.5 -16.845,0 -30.5,-9.178 -30.5,-20.5 z"
         stroke="#c00000"
         stroke-width="3"
         stroke-miterlimit="8"
         fill="#ffffff"
         fill-rule="evenodd"
         id="path17" />
      <path
         d="m -158.954,621.5 h 74.9077 c 0,4.974 2.9896,9.242 7.2505,11.065 l 4.2958,0.877 V 735.5 h -98 V 633.442 l 4.296,-0.877 c 4.261,-1.823 7.25,-6.091 7.25,-11.065 z"
         stroke="#c00000"
         stroke-width="3"
         stroke-miterlimit="8"
         fill="#ffffff"
         fill-rule="evenodd"
         id="path18" />
      <path
         d="m -151.5,733.5 c 0,-11.046 13.431,-20 30,-20 16.568,0 30,8.954 30,20 0,11.046 -13.432,20 -30,20 -16.569,0 -30,-8.954 -30,-20 z"
         stroke="#c00000"
         stroke-width="3"
         stroke-miterlimit="8"
         fill="#ffffff"
         fill-rule="evenodd"
         id="path19" />
      <path
         d="m -158.954,934.5 h 74.9077 c 0,4.974 2.9896,9.242 7.2505,11.065 l 4.2958,0.877 V 1048.5 h -98 V 946.442 l 4.296,-0.877 c 4.261,-1.823 7.25,-6.091 7.25,-11.065 z"
         stroke="#c00000"
         stroke-width="3"
         stroke-miterlimit="8"
         fill="#ffffff"
         fill-rule="evenodd"
         id="path20" />
      <path
         d="m -151.5,1046.5 c 0,-11.05 13.431,-20 30,-20 16.568,0 30,8.95 30,20 0,11.05 -13.432,20 -30,20 -16.569,0 -30,-8.95 -30,-20 z"
         stroke="#c00000"
         stroke-width="3"
         stroke-miterlimit="8"
         fill="#ffffff"
         fill-rule="evenodd"
         id="path21" />
      <path
         d="m -158.954,152.5 h 74.9077 c 0,4.974 2.9896,9.242 7.2505,11.065 l 4.2958,0.877 V 266.5 h -98 V 164.442 l 4.296,-0.877 c 4.261,-1.823 7.25,-6.091 7.25,-11.065 z"
         stroke="#c00000"
         stroke-width="3"
         stroke-miterlimit="8"
         fill="#ffffff"
         fill-rule="evenodd"
         id="path22" />
      <path
         d="m -152.5,264.5 c 0,-11.046 13.655,-20 30.5,-20 16.845,0 30.5,8.954 30.5,20 0,11.046 -13.655,20 -30.5,20 -16.845,0 -30.5,-8.954 -30.5,-20 z"
         stroke="#c00000"
         stroke-width="3"
         stroke-miterlimit="8"
         fill="#ffffff"
         fill-rule="evenodd"
         id="path23" />
    </g>
  </g>
</svg>
