<svg width="26" height="26" viewBox="0 0 26 26" fill="none" xmlns="http://www.w3.org/2000/svg">
<path fill-rule="evenodd" clip-rule="evenodd" d="M0 7.89099C0 3.53299 3.53299 0 7.89099 0H18.109C22.467 0 26 3.53299 26 7.89099V18.109C26 22.467 22.467 26 18.109 26H7.89099C3.53299 26 0 22.467 0 18.109V7.89099Z" fill="#FF0000"/>
<path fill-rule="evenodd" clip-rule="evenodd" d="M16.477 0H18.071C22.45 0 26 3.39501 26 7.58301V18.417C26 22.605 22.45 26 18.071 26H7.80298C3.97098 26 0.773973 23.401 0.0349731 19.945L0 19.727L1.00403 20.068C2.32003 20.448 3.71898 20.652 5.16998 20.652C12.907 20.652 19.179 14.832 19.179 7.65198C19.179 4.95998 18.297 2.45897 16.787 0.383972L16.477 0Z" fill="#C00000"/>
<path fill-rule="evenodd" clip-rule="evenodd" d="M11 6C11 4.895 11.895 4 13 4C14.105 4 15 4.895 15 6V19C15 20.105 14.105 21 13 21C11.895 21 11 20.105 11 19V6Z" fill="white"/>
<path fill-rule="evenodd" clip-rule="evenodd" d="M20.5 11C21.328 11 22 11.672 22 12.5C22 13.328 21.328 14 20.5 14H5.5C4.672 14 4 13.328 4 12.5C4 11.672 4.672 11 5.5 11H20.5Z" fill="white"/>
</svg>
